<?xml version="1.0" standalone="no"?>
<!DOCTYPE svg PUBLIC "-//W3C//DTD SVG 1.1//EN" "http://www.w3.org/Graphics/SVG/1.1/DTD/svg11.dtd" >
<svg xmlns="http://www.w3.org/2000/svg">
<metadata>
This is a custom SVG webfont generated by Font Squirrel.
</metadata>
<defs>
<font id="webfontqEfuMxh3" horiz-adv-x="1139" >
<font-face units-per-em="2048" ascent="1638" descent="-410" />
<missing-glyph horiz-adv-x="397" />
<glyph unicode=" "  horiz-adv-x="397" />
<glyph unicode="&#x09;" horiz-adv-x="397" />
<glyph unicode="&#xa0;" horiz-adv-x="397" />
<glyph unicode="!" horiz-adv-x="180" d="M8 1312h112l8 -8v-956l-8 -8h-112l-8 8v192h8v8h-8v88l8 8l-8 24v636zM24 660v-16h8v-4q16 4 16 20h-4l-4 4h-4zM8 628l4 -12h12l-4 20h-4zM8 244h112l8 -8v-228l-8 -8h-112l-8 8v228z" />
<glyph unicode="&#x22;" horiz-adv-x="382" d="M8 1593h60l4 -4h4q-8 -42 -40 -48l-4 4v-4l8 -12l-12 -44q4 -45 64 -100v-284l-8 -8h-76l-8 8v484zM88 1593l4 -4v-4l-4 -4h-4l-4 4v4l4 4h4zM252 1593h52l12 -8l12 8l4 -4v-236l-16 -24l16 -20l-4 -16l4 -28v-164l-8 -8h-72l-8 8v320q16 0 16 12l-4 12l16 36l20 -4l8 12 v16l-4 4v4l-24 -20l-4 4v8q12 0 12 8v8h-4q0 -16 -20 -16h-12v80zM288 1585v-8h4v8h-4zM12 1553v-8h4l8 8v4zM252 1537v-8h4v8h-4zM264 1441v-4l4 -4l-4 -4v-4q7 -20 24 -20q0 -8 -12 -8l-4 -4v-8q18 -18 20 -44l24 24h4v4q-11 32 -20 32h-4v4l4 4v4q-12 0 -12 8l4 4v4 q-8 0 -8 12l-4 4h-4z" />
<glyph unicode="#" horiz-adv-x="1169" d="M608 1308h108l-144 -432h232q136 393 156 432h104l8 -8l-148 -424h272l4 -4h4l-32 -96h-48l-4 4l-4 -4h-216q-9 0 -20 56q-8 0 -8 -12l4 -36l-4 -4v-4l4 -16l-4 -28l4 -4h4l-4 -4v-4l8 -12v-12l-8 -8h-12l-8 8l4 4v4l-12 20l-16 -4v-12l20 -20l-8 -8l-28 4q0 -16 -24 -16 h-4q-40 27 -40 40h-4q0 -20 -8 -20l8 -36q-11 0 -12 -20h-4q-8 0 -8 16q-29 0 -32 44v4q0 38 48 44l8 -20h4l20 56h-164l-20 16v-4l8 -8v-4h-56q-13 -20 -92 -244h76l8 -8l24 8h104l48 4l4 -4v-4q-36 -6 -36 -20q16 0 16 -16h-4q-8 0 -8 -12l-52 -36v-4h16v-8h-232 q-145 -420 -160 -432h-100q-8 0 -8 12l148 420h-288q25 100 40 100h280q8 0 92 244h-304l-8 8q24 92 36 92h312q140 405 160 432zM628 864v-4h8v4h-8zM520 860v-4l16 -12v4zM1140 848v-8h4v8h-4zM644 836v-4l4 -12l-8 -8l16 -16h8q10 0 16 32v4h-8l-12 -8h-4q-8 0 -8 12h-4z M1152 828v-8l8 8h-8zM1032 824v-8h8v8h-8zM752 804v-4l8 -8h4v12h-12zM560 796v-8h8v8h-8zM1188 780v-4l-8 -8h-4zM772 744v-8h4v8h-4zM868 728v-8h4v8h-4zM748 684h4l12 -12l-4 -4h-4l-8 12v4zM336 644h12v-8h-12v8zM696 600l16 -20v-8h-8q-16 8 -16 24l4 4h4zM764 596h4 l12 -8h4l28 4q11 -40 36 -40l4 4l8 -12v-4l-4 4h-4l-4 -12l8 -20l-8 -8h4q16 4 32 28l-4 28l4 4h12l12 -8l4 4l20 -16q0 -24 -28 -24l-28 -20v-8h-4q14 -52 48 -52l8 -8l-16 -16l8 -12l-24 -16h-4l-4 4l-4 -4h-4q-29 0 -36 20q-16 0 -16 12l4 44l-4 4l-4 -4h-8v4l4 20 q-8 0 -8 12h-12l-12 -8h-12l-40 36l4 4h8l4 -4l12 4q-2 12 -20 28v8zM700 564h8v-4l-8 -8l4 -4v-8h-16v4zM344 528v-4l12 -4l12 4l4 -4h4l16 4v4l-16 4l-16 -4v4zM612 524v-8h8v8h-8zM612 504l-4 -4v-4h20v4zM636 504v-8l12 4v4h-12zM400 500v-4h16v4h-16zM584 500v-8h4l8 8 h-12zM796 488l12 -12v-4l-8 -8h-12v16zM668 460h8l8 -8l-8 -8l-8 8v8zM640 360l20 -8l8 8q29 -56 48 -56q-96 -304 -112 -304h-100l-8 8l128 348zM964 360l8 -8l-4 -12l-12 16l4 4h4zM712 344h8l8 -8l-16 -4v12zM688 284l-8 -28v-4h4l8 20v12h-4z" />
<glyph unicode="$" horiz-adv-x="824" d="M326 1484h112l8 -8v-176q0 -6 88 -24q204 -93 204 -308l-4 -4h-120l-8 8v12q0 140 -148 192l-60 8h-8q-158 0 -216 -132q-16 -51 -16 -92q0 -162 372 -268q236 -97 236 -296v-64q-51 -40 -88 -40h-8q-20 9 -20 36h-8l-4 -24h-8l4 20v32q0 192 -376 296q-169 71 -208 176 q-20 52 -20 128v4q0 67 28 144l-4 -4h-12q-64 19 -64 48q0 15 48 36q0 12 8 12l4 -4v-12l-4 -4l12 -12v-4l4 4h16l20 -16q106 144 232 144v184zM-14 1364h4l8 -8l-4 -4l-16 4zM-26 1348h4v-8h-4v8zM-130 1340l4 -4v-8h-4l-8 8l4 4h4zM22 1288h8l4 -16q-8 0 -8 -12h-8v8z M-106 1272l8 -8h-8v8zM66 1240h4l16 -20l-8 -8h-8v8l4 4v4l-8 8v4zM-46 1196h12l12 -12v-8l-8 -8h-4q-21 0 -28 16zM-174 1128l32 -12v-20l-28 -4q-16 6 -16 12v12zM26 1096h4v-8h-4v8zM-382 1080l8 -8v-12h-8l-8 8v4zM-338 1048h8q12 0 12 -16l-12 -16h-8q-6 0 -12 16z M-266 1004v-4l-8 -8h-4v8zM-22 924q52 0 52 -48q-47 -12 -64 -28h-4l-24 32v16q18 28 40 28zM-46 816h4v-4q0 -9 -20 -12v8zM-102 760h16l12 -12l-16 -8h-4l-8 8v12zM-274 736h8v-4h-8v4zM6 384h112l8 -8v-36q0 -120 92 -184v-8h-24v-4l20 -4l16 4q65 -32 144 -32h24l40 4 v-4q-1 -7 -36 -24v-8h8v-8l-20 4v-4l-8 -8l4 -4v-8h-12v-4q20 -1 20 -12l-28 -36v-3h4q0 12 32 23l28 -4l4 4l12 -20v-51l-4 -4l4 -4v-128l-4 -4l4 -4v-20l-8 -8h-112l-8 8v212q-109 0 -224 111q-96 111 -96 260v8zM706 368v-4h8v4h-8zM762 320l4 -4q-4 -44 -16 -44l4 -4v-8 l-8 -8q-4 16 -16 16q-22 -16 -56 -16h-4l-8 8v4q11 16 100 56zM642 300h4q0 -10 16 -28v-4h-12q-9 0 -12 20zM234 124l8 -8v8h-8zM338 32v-4h12v4h-12zM466 8h12l-8 -8l-4 4v4zM434 -131v-12h4v12h-4z" />
<glyph unicode="%" horiz-adv-x="1453" d="M1720 1600v-4l-8 -8v4zM1756 1556h8v-4h-8v4zM1764 1548h8v-12h-8v12zM1644 1512h16l8 -8v-4l-8 -8h-12l-12 12zM1724 1512h4v-8l-8 -8l4 -16h32l16 -16q0 -34 -32 -40v4l-4 -4h-16q-35 18 -48 36v8q19 24 44 32q0 12 8 12zM1512 1444q20 0 36 -20l-4 -4v-4l-4 4l-20 -4 h-4q-8 0 -12 24l4 4h4zM1308 1396l8 -8l-4 -4h-12v4zM1356 1364h8l4 -16l-12 -8l-12 12zM304 1360h44q157 0 264 -176v-8l-12 12l-12 -4v-12l8 -12l-4 -4h-8q-8 0 -8 12h-12v-4l4 -12h-4l-28 12l-4 -12h-4q0 24 -8 24h-4q0 -12 -8 -12q0 14 -48 24q-40 31 -40 40h-24 q-8 0 -8 16h-4v-8l-60 8q-157 0 -204 -180v-36q0 -135 164 -188l48 -4q70 0 136 60h4l20 -24q15 0 32 -28l12 -12l-8 -8v-4l4 4h8l8 -8q-8 0 -8 -16l-4 -4h-4l-4 16h-4q0 -35 -52 -60l-8 8q0 -36 -148 -44q-211 0 -304 224q-12 50 -12 88v20q0 205 220 300q42 12 84 12z M1032 1360h92l4 -4h4l-192 -376h-8l-60 52l-8 20q53 96 60 96l60 28v4h-4l-4 -4h-4l-4 4h-4l-32 -12l-4 4q28 37 28 52h8l-4 4v4q36 80 48 80l-4 4v4q22 40 28 40zM1420 1320v-8h-8zM356 1288v-4l4 -4h4v4l-4 4h-4zM444 1252l12 -12h4q7 0 16 24l-4 4h-4q-24 -8 -24 -16z M988 1256h8v8zM528 1248v-4l8 -8h4l-4 12h-8zM968 1220q35 15 36 24h-8q-18 -7 -28 -24zM1660 1240h12q40 -8 40 -20v-16q0 -8 -48 -24l-8 -8h-4l-8 8l4 4q-14 8 -20 24q0 11 32 32zM500 1220v-28l8 -8h4v32zM1644 1136l4 -4v-4l-20 -8v8zM504 1132h8v-4h-8v4zM676 1088 q34 -11 36 -28l-20 -28l4 -24l-20 -24h-4q-24 0 -24 16q8 40 32 40l-8 44zM1056 1088h8l-8 -8v8zM1608 1080l4 -4v-4q0 -8 -12 -8l-12 4v8zM728 1056l4 -4v-4l-8 -8l-8 8zM1416 1056h8v-4h-8v4zM600 1044h8l8 -8v-24l-12 -12l12 -20v-4l-8 -16l-36 16l4 12h-8v12q0 44 32 44 zM748 1040h8v-4h-8v4zM748 1028h4l4 -20l-8 -8l-8 12v8zM716 1004h8v-8h-8v8zM900 936h4l4 -4h4l-4 -12h-8v16zM504 904l4 -4v-4l-4 -4h-4l-4 4v4l4 4h4zM768 872q13 -12 36 -12v-4q0 -18 -56 -36v4l20 24l-8 12v4zM480 856l-4 -16v-4h4l4 12v8h-4zM740 816l4 -4v-8h-12v4z M792 784l4 -4v-4l-4 -4h-8v4zM732 780l4 -4v-4q-8 0 -12 -32l-12 -4l-4 4v4q11 27 24 36zM756 764h8v-4l-20 -20q0 -8 44 -12l8 -8l8 8v-8q-18 -40 -24 -40l-32 20q0 -31 -32 -36l4 -4v-4l-8 -40l16 -44l-296 -572h-96l-4 4h-4q328 643 372 716l40 16l-4 12l4 12h4v-8h4 q0 12 8 12zM700 672v-8l8 8h-8zM1104 644h40q175 0 276 -180q32 -64 32 -140q0 -243 -260 -320l-56 -4h-16q-207 0 -300 220q-12 41 -16 104q0 129 88 216h4q12 0 12 -28h4l12 16l4 4h4l-20 32q77 64 120 64l4 -4v4q0 12 68 16zM1028 612v-4l28 -24v4zM972 576v-8h4v8h-4z M928 504q8 0 8 -12h4q24 14 24 36q-36 -14 -36 -24zM924 324q0 -141 156 -200l44 -4h8q149 0 196 168l4 40q0 143 -168 196h-44l-4 4q-85 0 -164 -100q-28 -61 -28 -104zM868 508v-8h4v8h-4zM972 508v-4l4 -4v-4l-4 -12l4 -4h4v20zM936 476v-4l8 -8h4l8 24z" />
<glyph unicode="&#x26;" horiz-adv-x="1026" d="M424 1360q189 0 284 -216q12 -42 12 -84v-24q0 -184 -248 -300q28 -24 28 -36q18 0 128 -112v-4l-28 4v-4l16 -24h-4q-10 1 -100 96h-8q47 -64 136 -140l-4 -4v-8h4v8h4l4 -4h4l4 4l8 -24l-4 -4h-4l-12 12l-4 -40l-4 4h-8q0 -12 -28 -12v-4q29 0 40 -20v-4l-4 -4h-12 q-156 136 -156 148v8q-24 0 -96 80q-8 0 -36 28h-4q-196 -105 -196 -284q0 -164 140 -240q47 -24 108 -24h20l80 16v-16h4q0 13 28 24h4l4 -4h4q0 12 8 12h8q21 0 36 -12q0 12 8 12q37 -63 44 -64v-8h-4l-4 4l-24 -4v-8q16 0 16 -8q-88 -76 -236 -76h-4q-233 0 -352 248 q-24 69 -24 136v20q0 225 244 368q-76 69 -80 84v4l4 4v4q-52 0 -72 180v28l8 8l-4 12q0 112 148 220q72 44 176 44zM232 1048q0 -114 152 -224q200 76 200 228v8q0 127 -136 176l-32 4q-129 0 -176 -132zM168 996l8 -8v8h-8zM892 900h128q8 0 8 -12q-95 -240 -100 -240 l-12 4v-4q-11 -60 -32 -60q-22 0 -36 96q-5 0 -8 36h-4l-8 -8l4 -56h-4l8 -20h-4q8 -16 8 -44q-12 -13 -12 -24h-4q-7 0 -20 24l-20 -4v-20l8 -12v-4l-8 -8h-8l-16 16q125 340 132 340zM412 756v-4q16 -8 16 -20h8zM460 680v-4l8 -8h4v4l-8 8h-4zM488 680v-8l12 -8v4 q-8 0 -8 12h-4zM648 568h8v-4h-8v4zM552 516v-8l16 -16h4v12q0 7 -20 12zM616 152h4v-8h-4v8zM648 148h4v-4l-8 -8h-4v4zM644 124h8v-8zM464 100v-8h4v8h-4zM636 100h8v-4h-8v4z" />
<glyph unicode="'" horiz-adv-x="262" d="M264 1594l4 -4h4l-140 -384h-124l-4 4h-4l144 384h120zM456 1590q34 -11 36 -28l-20 -28l4 -24l-20 -24h-4q-24 0 -24 16q8 40 32 40l-8 44zM508 1558l4 -4v-4l-8 -8l-8 8zM380 1546h8l8 -8v-24l-12 -12l12 -20v-4l-8 -16l-36 16l4 12h-8v12q0 44 32 44zM528 1542h8v-4 h-8v4zM528 1530h4l4 -20l-8 -8l-8 12v8zM496 1506h8v-8h-8v8zM548 1374l36 -16q0 -18 -56 -36v4l20 24l-8 12v4zM520 1318l4 -4v-8h-12v4z" />
<glyph unicode="(" horiz-adv-x="322" d="M276 1525l4 -4v-140q-148 -107 -148 -384l-4 -4h-4l-16 16l24 -32v-340q0 -8 -16 -8l-4 -4v-8l20 -4v-288q0 -273 140 -379v-4l-4 -4v-8h4v8h8v-140q-29 3 -64 40l8 16v4h-4q0 -16 -12 -16h-4q-123 108 -152 199q-52 120 -52 360v516q0 417 192 552q28 28 84 56zM84 697 v-4h8v4h-8zM44 509v-8h4v8h-4zM16 221v-8h4v8h-4z" />
<glyph unicode=")" horiz-adv-x="330" d="M4 1533q276 -142 276 -556l-16 -12q16 0 16 -8v-8q0 -7 -32 -20q0 -8 -72 -72l-24 -28l-4 4v56l8 12l-8 8v104q0 268 -148 376v136l4 4v4zM164 941v-12h4l12 4v12h-4zM204 941l8 -8l4 4v4h-12zM276 925l4 -4v-528q0 -344 -140 -483l-24 8l-12 -12l-8 12q24 25 24 44 l20 -4l12 12v20l-8 8l-24 -24l-8 8q0 8 12 8l4 4v11h-4q0 -19 -24 -19l-4 15h-4q0 -11 -20 -27l-4 -16v-12h-8l4 4v4l-28 16v8q78 82 104 207l20 4l8 -12q-20 0 -20 -20h-4l4 -28h28l4 16l-8 24l12 -8v4q-21 18 -32 44l8 28l-4 28l16 72q0 11 -24 16v4h4l-4 4v84l4 4v4 l20 -4q32 4 32 16v16q0 20 -48 68l-8 16v216q0 9 56 28q0 7 56 32v4l-52 -8l-8 8q0 -17 -28 -20v16q70 84 104 84zM200 913v-4h8l16 4v4h-8zM224 417h4l36 28v4q-40 0 -40 -32zM188 137q2 -11 20 -16v-12h4q20 29 20 40v12l-4 4v4q-40 0 -40 -32zM168 93l-4 -4v-4l4 -4h4 l4 4v4l-4 4h-4zM136 85v-12h4v12h-4zM96 29v-16h4v16h-4zM20 -34h8l28 -16l-4 -4v-4l8 -16l-8 -24l16 -12h8l20 4l4 -4v12h8l4 -20q-84 -76 -112 -76v48l16 20v20l-12 -8h-4v56h12l-4 4v8zM12 -62v-4h8v4h-8zM20 -70l8 -8v8h-8z" />
<glyph unicode="*" horiz-adv-x="689" d="M300 1196h88l8 -8v-264l256 84l40 -104l-96 -32l-8 8h-4q0 -19 -52 -24l-16 12h-4v-4q12 0 12 -8t-100 -32l64 -84h-4l4 -4v-4l-40 -32q0 -12 -16 -20h-4v12h-8v-8l4 -4l-4 -12h-4l-16 20l16 4v4q-32 0 -68 68h-8q0 -13 -24 -32v-8q-25 0 -72 28l-12 -4l4 -16l4 4h4 q0 -12 16 -12q0 -18 32 -24l4 -4v-4l-116 -160l-92 60v12l176 220q-255 68 -264 80v4q27 100 36 100l256 -84v264zM612 980v-4h8v4h-8zM552 904v-8l8 -8v8zM568 896v-8h4v8h-4zM576 884v-8h4v8h-4zM304 784v-4h8v4h-8zM316 780v-4l24 -8v8l-20 4h-4zM396 776v-4h8v4h-8z M252 764v-4l60 -24l-52 28h-8zM440 764q0 -8 12 -8h4v4zM460 756v-4h8v4h-8zM244 740h8q16 -6 16 -12h-8zM268 728h8v-4h-8v4z" />
<glyph unicode="+" horiz-adv-x="1116" d="M504 1096h76l8 -8v-496h24l12 -4l20 4h48l32 -4l32 4h20l12 -4l20 4h108v-4q0 -6 -40 -32l4 -4v-8l-16 -4l4 -4v-4q-11 0 -40 -28l-120 48q0 -6 28 -16v-8q-81 23 -104 44l-8 -8q2 -16 28 -28q1 -15 48 -24v-8h-112v-244l-8 -8l-40 12l-40 -16l-4 4v252h-488l-8 8v72l8 8 h488v496zM564 592v-4l16 -4q0 8 -12 8h-4zM1056 592h4l8 -8h-12v8zM644 580v-4l56 -24h4v4l-56 24h-4zM828 580v-4l16 -4h4v4l-16 4h-4zM1072 584h4v-12h-12v4zM852 572v-4h8v4h-8zM640 556h4l8 -8h-12v8zM912 552l8 -8l-8 -8v16zM896 548h4v-8h-4v8zM440 540v-8h8zM672 536 l8 -8h-8v8zM708 516h12l20 -4l-8 -8h-12zM744 512h12v-8h-4zM784 512h4v-8h-4v8zM560 168h16l12 -12v-112l-4 -4l4 -4v-28l-8 -8h-8l-20 12v12h4q8 0 8 -12l12 -4v8q-16 0 -16 36l-28 12v4q20 21 20 36h-8q-9 -28 -16 -28l-4 4h-4l-12 -12l-12 12v52h4l12 -8l20 4v28 q16 0 28 12zM516 160l12 -12l-4 -4v-4l-12 8l-4 -4h-8v8zM520 116v-4h12v4h-12zM504 100v-4h8v4h-8zM496 36l40 -16v-12l-8 -8h-28v8l4 4z" />
<glyph unicode="," horiz-adv-x="270" d="M144 193h116q8 0 8 -12l-140 -375h-120l-8 8q138 379 144 379z" />
<glyph unicode="-" horiz-adv-x="464" d="M8 648h408l8 -8v-84l-8 -8l-8 16h-12v-8q12 0 28 -24l-8 -8h-56l-4 4l-4 -4h-4l-16 4l-12 -4l-48 8l-36 -8h-228l-8 8v108zM412 600v-4h8v4h-8zM336 548l12 -12v12h-12z" />
<glyph unicode="." horiz-adv-x="180" d="M8 240h112l8 -8v-224l-8 -8h-112l-8 8v84l8 8q16 -48 28 -48v8q0 14 -36 52v120zM88 208v-8h8v8h-8zM24 160v-4l12 -12v16h-12zM8 124v-4l4 -12h4v4l-4 12h-4zM28 124v-8h8v8h-8zM56 72v-12l8 8l-4 4h-4z" />
<glyph unicode="/" horiz-adv-x="547" d="M548 1480l4 -4h4l-236 -780h-8l-4 4h-4l-4 -40l4 -16h-8l-16 32l-20 12q0 -16 -8 -16q-13 0 -32 52l228 756h100zM296 828l-4 -16l4 -4h8v12zM284 804v-8h4v8h-4zM260 764v-12l8 8l-4 4h-4zM260 740v-8h8v8h-8zM280 736l8 -8h4l-8 8h-4zM264 724v-20h4v20h-4zM260 676h8 v-16h-12v4zM304 672h8v-12h-8v12zM76 120q64 -20 64 -28q-27 -92 -36 -92h-96l-4 4h-4l24 64l28 -4h8v20l-4 4v4l20 4v8l-8 12l4 4h4z" />
<glyph unicode="0" horiz-adv-x="936" d="M444 1364q159 0 256 -72l8 -24v-8q-24 -32 -52 -32v-8q36 0 52 -20v-12q0 -11 -48 -16q-91 72 -196 72h-40q-211 0 -280 -220q-16 -55 -16 -156v-204h-12l12 -16v-160q0 -277 180 -348q64 -24 132 -24h8q202 0 280 176q28 68 28 144v284l4 4l-4 4v232l-4 4v4q19 9 28 36 l16 4v-4l-8 -12v-4l4 4h20l8 -8l-4 -4v-4q12 0 12 -16v-4h4q1 32 20 32q24 -60 32 -60h4v-428q0 -315 -168 -412q-115 -88 -260 -88h-24q-250 0 -388 220q-48 86 -48 256v212l8 12l-8 8v168q0 176 28 176q20 0 56 48l4 16v20l-32 16v4q22 41 80 92l12 -4v4l-4 12 q131 104 300 104zM604 1316v-8h8v8h-8zM720 1276h4l28 -24v-4h-4q-11 0 -28 28zM736 1248q0 -12 12 -12v-8q-12 0 -32 -16q-16 6 -16 12v4zM688 1156h16l24 -16q-20 -8 -20 -16h-12l-16 24zM736 1116h4l8 -8v-4l-24 -24l-12 28h4zM752 1084l4 -4v-4l-12 -28h-4q-9 0 -12 28 h4zM756 1040l4 -4v-4l-8 -8h-8v4zM868 984h4l8 -8l-4 -4h-4l-4 4v8zM876 972h8v-20h-8v20zM772 920v-8h4l16 16l-4 4zM84 768v-4h8v4h-8zM76 656q0 -9 20 -12q0 9 -20 12z" />
<glyph unicode="1" horiz-adv-x="419" d="M8 1312h352l8 -8v-588h-4q-8 0 -16 28h-8l4 -4v-20l-4 -4v-4l8 -8l-4 -4v-4l12 -12v-12q-32 0 -84 84q0 16 -12 16v-8q0 -25 108 -120v-24q0 -9 -52 -28l-32 -64v-8l4 -20h-8q16 0 56 -112v-16q-20 -32 -52 -32v-8q35 0 56 -28q0 -18 -108 -36l-4 4v256l8 12l-8 12v148 l4 4l-4 4v48h4l4 -4h4v4q0 8 -12 8v432h-220l-8 8v100zM280 716v-8l4 -12h4v4l-4 16h-4zM260 708v-8h4v8h-4zM256 680v-4l4 -12h8v8l-8 8h-4zM308 652v-8h8v8h-8zM304 620v-8h4v8h-4zM364 600l4 -4v-112h-8v-4l8 -12v-12l-4 -4l4 -4v-44l-4 -4l4 -4v-24l-8 -8q-28 43 -28 68 v8q-18 0 -36 64l8 8v4h-12v4l12 12v20h16v4l-8 12q17 4 20 20zM232 424l8 -8v8h-8zM360 356h4l4 -16l-20 -16h-8l-16 8v4q13 0 36 20zM336 268q0 -12 16 -12v-4l-20 -20l12 -12v-4l20 8l4 -4v-12l-12 -20q12 0 12 -8v-24l-4 -4v-4l4 -4l-24 -16q0 -8 16 -8l4 -4v-4 q-28 -25 -28 -48h4l20 8v-4q-53 -59 -72 -68h-52l-8 8v16l8 8l16 -4l12 16q0 8 -32 24l-4 4v176q0 10 108 20zM340 192v-4h8v4h-8zM312 156h8v8zM252 148v-12l12 4v12zM292 108v-4l4 -4v-4q40 4 40 12v8h-8v4l-12 -4l-4 4h-4q-16 -6 -16 -12zM364 56h4v-48l-8 -8h-48v8z" />
<glyph unicode="2" horiz-adv-x="869" d="M424 1340q112 0 192 -56v-4q0 -13 -16 -36v-8l4 -20h-4l-4 4h-4v-4q21 0 48 -84l12 -40h-4q-88 128 -248 128q-192 0 -260 -208q-12 -54 -12 -124l4 -12l-4 -4h-120l-8 8q0 323 268 436q72 24 156 24zM624 1272l4 -4h4l12 4l68 -60q0 -23 -32 -44q16 -23 32 -80 q-8 0 -8 -12l-4 -4h-8q-22 0 -52 88q-8 0 -28 56l8 16q-16 0 -16 8l12 8l4 -4h4l-4 4v16l4 4v4zM544 1260l8 -8v8h-8zM524 1244v-4h8v4h-8zM676 1200v-8h4v8h-4zM680 1116l8 -8v8h-8zM676 1072h4q0 -12 12 -12v-4l-20 -8l-8 12zM40 916v-4l16 -20v4zM696 908l4 -4l-4 -12h-8 v8zM700 864l4 -4v-4l-12 -8l-8 8zM672 832h8v-4h-8v4zM724 832h16v-8h-8l-8 -8v-4h4l28 8l8 -12l-4 -4q12 0 12 -24h4q0 32 20 32l4 -4v-4q-33 -140 -248 -324l-372 -348h628l8 -8v-116l-8 -8h-800l-8 8v120l640 612q9 0 72 68h8l-4 4v12zM676 788q0 -13 -56 -56v4 q28 52 56 52zM720 756l-4 -16h8l8 8v8h-12zM576 668v-8l8 8h-8zM668 668v-8h8v8h-8z" />
<glyph unicode="3" horiz-adv-x="831" d="M400 1360h44q175 0 280 -208q16 -49 20 -112q0 -58 -16 -80l4 -4v-4q-28 -100 -112 -152h-4l52 -36l48 -40v-4l-8 -12v-8h8q2 16 12 16l44 -60l-32 -16l-8 8v12l20 -4h4v12q0 8 -12 8l-20 -4v-8l4 -20h-4l-12 4l-12 -12h-12q-24 0 -24 16q-14 0 -24 -28l-64 40v24l4 4v4 q-16 8 -16 20l-24 -8q-8 0 -12 28h-4v-8h4l-4 -4v-4l4 -16l-4 -4h-4l-4 4l-4 -4l-4 4v12l8 24l-4 16l12 8l16 -4v4l-12 12l4 4v8l-8 28l4 4l-16 -8l-40 4l-4 -4h-4q-52 7 -52 16v4h4q57 0 124 44h4l4 -20l-4 -4q17 -12 32 -12q0 16 20 16v4q-9 0 -24 16l-20 4v4 q56 59 56 156v4q0 143 -140 196l-60 8q-156 0 -196 -172q-2 -48 -12 -48h-104q-8 0 -8 12q0 94 60 188l4 -4h4l8 8h-4l-4 -4h-4v4q0 8 20 8q0 12 8 12l-4 4v4q89 100 224 100zM180 1220v-8h4v8h-4zM200 1164v-12l8 -8v20h-8zM128 1064v-4h8v4h-8zM700 960v-4l16 16h4v8z M544 836l-8 -12v-8q0 -7 20 -12l20 4v24h-12l-20 -4l4 4v4h-4zM608 828v-4h8v4h-8zM312 828h80l-8 -24l8 -8v-4h-16v-8l8 -12l-4 -4h-4q-29 6 -48 20h-32v4q7 36 16 36zM564 772v-8h4v8h-4zM584 704v-8q13 0 28 -12h4l4 4h4q-2 16 -28 16v4zM728 684h8v8zM804 584 q28 -63 28 -160q0 -276 -268 -400q-69 -24 -136 -24h-28q-158 0 -256 84q-79 53 -120 164h12l-8 16l24 8v-8h-8v-8h24l4 -4h4l-4 -4v-8l4 4h4l4 -24h4q0 28 20 28l16 -28l-4 -4h12v16l-12 16h4l8 -8l4 4h8v-20q0 -12 -16 -12q0 -20 20 -24v52l8 8q9 -40 24 -40v12h8l40 -40 q0 -16 20 -16q0 -16 20 -16v-12l4 4h4q8 0 8 -12l12 8l64 -24l12 4l28 -4q222 0 296 232l-4 4l8 68q0 65 -24 128l4 4l36 -12q51 16 88 48zM8 348l4 -4v-4l-4 -4h-8v4zM8 300h8v-4h-8v4zM680 216l8 -8h4l-8 8h-4zM184 208v-8h4v8h-4zM724 204v-4h8v4h-8zM180 188v-12h8 l-4 12h-4zM184 164l-4 -12l4 -4h4v16h-4zM160 160v-8h8v8h-8zM184 136v-12h8v4zM276 112v-8h8zM296 96v-8h4v8h-4zM308 96l-4 -4v-4l4 -4h8v4z" />
<glyph unicode="4" horiz-adv-x="884" d="M596 1312h136l8 -8v-76q0 -12 -16 -12v-20q16 0 16 -8v-816h136l8 -8v-104l-8 -8h-136v-244l-8 -8h-112l-8 8v244h-604l-8 8v100q0 18 168 272h4q19 0 24 -36l-4 -16q8 0 8 -12h32v8h8l8 -28l-108 -176h476v92l4 4l-4 4v20l4 4l-4 4l4 208v424l12 16l-12 4l-348 -568h-4 l-16 8l-20 -8v4q2 19 24 40l12 -4l8 12v24h-4l-24 -20l-4 4v8q12 0 12 8v4h-4l-8 -8q-40 -4 -40 -36l-32 28l100 148l4 -16l-4 -4l4 -4h20l4 16l-8 20l4 -4h4v4l-12 12v8zM696 1212v-12h12zM692 1192v-8h4v8h-4zM708 1188v-8q0 -6 16 -12v4l-4 20zM680 1164h8v8zM308 792 v-12l16 -24h4q0 11 16 20v28h-24zM288 740v-8h8v8h-8zM264 732v-8h4v8h-4zM160 612v-8h4v8h-4zM156 572l-12 -20l4 -4v-4q11 0 16 24l-4 4h-4z" />
<glyph unicode="5" horiz-adv-x="884" d="M760 1328l8 -8v-116l-8 -8h-472l-64 -356h4q99 72 220 72h8q295 0 408 -292q24 -67 24 -136v-68l-4 -4l4 -4v-16h-8q0 19 -28 24l-40 20h-12l-20 -4l-4 4l-12 -12l-4 4v16q0 233 -200 320q-83 20 -128 20q-166 0 -272 -152l-100 48q112 633 120 648h580zM808 512v-8h4v8 h-4zM820 492v-8l8 8h-8zM800 432q20 -16 36 -16v-4l-4 -4v-4l4 -4h4l8 8l8 -8q0 -8 12 -8l12 -20v-20q0 -17 -80 -32q-52 9 -52 20q0 84 36 84l12 -8h4v4l-4 4v4zM124 416q6 -1 28 -104q50 -110 172 -180v-4q-32 -10 -32 -20v-4h16v-4l-8 -8l-24 4q0 -10 -12 -20h12v-8 l-20 -4v-4q28 0 28 -16q-12 0 -12 -12l-4 -4h-4l-60 28q-204 159 -204 356l4 4h120zM88 360v-8h4v8h-4zM756 360v-4h12v4h-12zM868 328l4 -4v-8q-4 -12 -24 -12h-8l-8 8v8zM848 284h4l4 -4h4q-20 -52 -28 -52h-4l-24 24h16l-4 4v4zM196 204l-4 -4v-8h16v8zM252 164l8 -8l4 4 v4h-12zM232 72v-8l12 4v4h-12zM300 24l28 -8l8 8l8 -20h-4q-48 5 -48 16l4 4h4zM380 8h8l8 -8h-16v8z" />
<glyph unicode="6" horiz-adv-x="884" d="M484 1336h104l4 -4l4 4h44v-4l-300 -468q90 20 140 20q247 0 372 -244q36 -85 36 -172v-44q0 -252 -256 -388q-88 -36 -188 -36h-8q-294 0 -416 288q-20 62 -20 124v32q0 170 244 524l196 304l4 -4h16v4l-16 4q17 34 40 60zM568 1312l-4 -4v-4l8 -8l12 4v8zM712 768v-4 l8 8v4zM136 448v-12q0 -199 204 -300q61 -20 116 -20q200 0 280 216q16 44 16 104v20q0 208 -204 296l-96 16q-209 0 -300 -216q-16 -47 -16 -104zM768 644v-4h8v4h-8z" />
<glyph unicode="7" horiz-adv-x="779" d="M8 1312h228l4 -4l4 4h472l8 -8v-104l-244 -568l4 -12l-20 -28l4 -24q-2 -11 -32 -32l-240 -536h-132l-8 8l512 1172h-336l-4 4l-4 -4h-216l-8 8v116zM48 1304v-8h4v8h-4zM244 1292v-4l8 -8h8l8 8v4l-8 12q-16 -6 -16 -12zM216 1296v-12h16v4zM212 1276v-8l8 8h-8z M228 1264l16 -12v4l-4 20zM200 1252v-4h8v4h-8zM132 1224h20v8h-12zM828 648h8l-8 -8v8zM500 616l4 -4v-4l-8 -8l-8 8zM520 600h8v-4h-8v4zM520 588h4l4 -20l-8 -8l-8 12v8zM488 564h8v-8h-8v8zM540 432q13 -12 36 -12v-4q0 -18 -56 -36v4l20 24l-8 12v4zM512 376l4 -4v-8 h-12v4z" />
<glyph unicode="8" horiz-adv-x="831" d="M382 1360h40q32 -15 32 -48q-34 -28 -88 -28l-4 4l-4 -4h-4q-29 5 -44 32h-4q-52 -24 -76 -24v-4l-16 12q82 60 168 60zM454 1360q65 -6 68 -16q-34 -56 -60 -56l-4 4v4l12 8zM422 1340v-4l8 8v4zM534 1344h4l12 -12l-20 -8l-4 4v8zM326 1320v-4h8v4h-8zM582 1324 q196 -104 196 -304q0 -176 -144 -260q200 -124 200 -312v-48q0 -249 -256 -372q-79 -28 -164 -28h-16q-258 0 -380 276q-20 69 -20 128v16q0 212 172 316v-8h4v8l-4 4l24 20q-8 0 -8 16h-4v-8h-4l-20 16l-48 -20l-8 -8h-4l-8 8l4 4q-14 7 -20 24q2 15 48 40v12h4q8 0 8 -12 l4 4h4l32 -36q12 0 12 -16l4 4h4l4 -4h4v8l-4 4v4l4 4h4v4l4 16l-4 12l4 4h4l4 -4v-4l-4 -12l4 4h4l20 -28h8q8 0 8 12h4l8 -8l-12 -20l4 -4v-4q0 -12 -24 -24l-16 4q0 -28 -16 -28v-12h8q0 25 56 32v12l-4 4v4l4 4h4l-4 4v8h4l4 -4h4q4 12 24 12q0 -24 -20 -24v8h-4v-20 l8 -8l16 4l40 -20q8 0 8 12q29 -4 40 -12l20 20l-8 24l24 8v4l-8 8h-4q0 -12 -8 -12q-9 0 -12 20l4 4l4 -4l12 4q48 -6 48 -20l-8 -8v-4h8l12 8l4 -4h4l32 8l-8 20q4 40 40 40q100 58 100 188v4q0 139 -148 196q-40 7 -40 16l4 4v4h-16v8q46 26 132 60zM434 1292 q20 -6 20 -12l-36 -16q-16 6 -16 12q0 8 32 16zM166 1184v-4l-8 -8v4zM202 1140h8v-4h-8v4zM210 1132h8v-12h-8v12zM90 1096h16l8 -8v-4l-8 -8h-12l-12 12zM170 1096h4v-8l-8 -8l4 -16h32l16 -16q0 -34 -32 -40v4l-4 -4h-16q-35 17 -48 36v8q19 24 44 32q0 12 8 12z M-42 1028q20 0 36 -20l-4 -4v-4l-4 4l-20 -4h-4q-8 0 -12 24l4 4h4zM-246 980l8 -8l-4 -4h-12v4zM-198 948h8l4 -16l-12 -8l-12 12zM-134 904v-8h-8zM246 864l4 -4v-4h-12zM110 852h12v-4l-8 -8h-4v12zM338 812h12v-8h-16v-4h8v-8h-12v12zM438 796v-8h4v8h-4zM342 784 l12 -12v-4l-12 12v4zM506 772l4 -4v-4l-8 -8q5 -24 12 -24h16l4 12l-8 24l16 -12l-4 -20v-4l28 -8q12 15 12 36l-4 4v4l-36 -8q-8 16 -20 16zM398 728q0 -35 -80 -44l-12 8l-4 -4h-4q-8 0 -8 16q-5 0 -16 -40q-137 -62 -144 -256v-4q0 -219 220 -284l40 -4h32q185 0 264 192 q16 54 16 100q0 86 -44 172l4 4q-9 0 -76 68q-52 28 -84 36l-4 4v4l-4 -4l-68 4h-16l-4 4h-4l4 20zM90 720l4 -4v-4l-20 -8v8zM330 700v-8h4v8h-4zM522 700v-4h8v4h-8zM222 664v-12l12 12h-12zM54 664l4 -4v-4q0 -8 -12 -8l-12 4v8zM-138 640h8v-4h-8v4zM654 612l24 -24h4 l-24 24h-4zM678 564v-4l16 -12v4zM746 344v-4l28 20h-4q-24 -10 -24 -16z" />
<glyph unicode="9" horiz-adv-x="899" d="M460 1340q279 0 408 -272q28 -83 28 -160q0 -64 -16 -64l-32 -12h-24q-28 20 -28 52q-9 0 -16 -40q-8 0 -8 -12l-4 -4h-8l-4 4h-4l8 64q0 230 -244 320l-72 8q-216 0 -296 -240l-8 -92q0 -223 216 -308l88 -12l44 4v-8q-16 0 -24 -16l16 -4v-4l-8 -8h-4l-12 8h-4 q0 -12 -16 -24h16v-8l-24 -4v-4q28 0 28 -12q-19 -36 -32 -36q-286 0 -396 280q-24 75 -24 164q0 296 296 420q75 20 160 20zM876 932v-8l8 8h-8zM364 908l24 -8l20 8l4 -4l-4 -4v-4l4 -4q-4 -24 -20 -24q-40 17 -40 24v4zM428 900l8 -8l-8 -8l-8 8zM452 884l4 -4v-8h-12v4z M200 876q17 0 28 -16q-8 -24 -16 -24q-28 0 -28 20q8 18 16 20zM448 856h12v-4l-8 -8h-4v12zM788 848h8q0 -26 20 -44v-4h-4l-4 4h-4v-8h-4q-20 18 -20 28zM392 832h12v-8h4l12 8l20 -20q0 -8 -32 -12l-20 -24l4 -4v-4l-16 -24h-4v4l-4 -4h-4q-29 0 -40 48q0 24 32 24 l20 -12l16 24v4zM876 832h8v-4q0 -48 -28 -48l-28 -4q-16 6 -16 12q0 23 64 44zM572 828l8 -8l-8 -8l-8 8zM284 820h4l8 -8l-8 -8h-4l-8 8zM852 800v-8h8zM248 796h4v-8h-4v8zM416 788h4l12 -12l-12 -12h-4l-8 8v8zM428 764h20l12 -12v-8l-12 -12h-8l-12 12v20zM216 760 l4 -4v-16h-4l-8 8v4zM640 760l4 -4v-4l-8 -8h-4v8zM-8 756l8 -8v-4l-8 -8l-8 8v4zM704 756h4q8 -2 36 -44l16 12l8 -8h4v16h8v-4l-4 -4v-4l4 -4h4l16 4q0 -8 20 -8q0 -20 20 -20q0 -16 8 -16l16 4v-8q-20 -1 -20 -12l4 -4l-4 -4v-8q12 0 12 -8l-4 -4v-4l-4 4h-12 q-20 -15 -20 -28h-4l-12 8l-12 -12h-4v8h-4v-12h-8v12h-4q0 -27 -16 -40l-12 8l-12 -8l-8 8h-4q0 -12 -16 -24v-8l-24 8q-15 0 -44 -32q-8 0 -8 -16l-12 4l-4 -4h-4l-4 4h-4l-20 -4l-4 4h-4l-4 -4h-4l-12 4l-4 -4q0 16 -20 48l4 4h-12l8 36l-4 12h4q12 0 12 8v20h4l4 -4h4v8 h-8l-4 -4q-20 8 -20 24q8 18 16 20h12q12 0 12 -24q12 0 12 16h8q0 -12 36 -24l8 16h8v-4l-8 -12v-4l16 -4l4 4l16 -16l12 8l-4 12h8v-8h8l-4 4v4l16 20q12 0 32 24l-4 4v8l16 4q-7 24 -32 40v12zM480 724l4 -4l4 4h4q12 0 24 -24q-5 -16 -20 -24h-8l-16 16v24zM420 708h4 v-8h-4v8zM872 684h8v-8h-8v8zM852 656h4v-8h-4v8zM188 640v-8h24l4 -4h4l4 4v8h-36zM228 636v-4h8v4h-8zM444 632l12 -12v-4l-8 -8l-12 20l4 4h4zM1048 632h8v-8h-8v8zM1080 628l4 -4v-12l-12 -12h-8l-8 8v4q8 16 24 16zM244 608l8 -8l4 4v8zM24 604l8 -8l-12 -12h-4l-4 16 l4 4h8zM0 592q24 -10 24 -28l-16 -12h-16l-12 12v16q0 7 20 12zM408 516v-4h8v4h-8zM820 516h8q8 0 8 -12q20 -5 20 -12v-8l-8 -8h-8l-4 4l-28 20v4zM488 504l12 -12v-12l-20 -20h-20v8h24l-12 16q8 18 16 20zM392 496l-8 -16h8l8 8l-4 4l4 4h-8zM556 456h4l8 -8v-4h-12v12z M524 432h12q0 -10 12 -20l4 4h8q0 -16 8 -16l4 4q0 -14 36 -48q-12 0 -52 -100q-39 -100 -144 -256h-152l-4 4h-4zM336 420h12l8 -8l-4 -20h-16l-8 8v12zM524 368v-4h4l8 32q-8 0 -12 -28zM604 348h16v-8l-12 -12l4 -4v-4l-8 -8l-12 12q4 24 12 24zM512 332v-8h4v8h-4z M596 304h8v-4l-8 -8v12zM572 272l4 -4q-24 -61 -40 -68v4q30 67 36 68z" />
<glyph unicode=":" horiz-adv-x="180" d="M8 988h112l8 -8v-224l-8 -8h-112l-8 8v224zM8 240h112l8 -8v-224l-8 -8h-112l-8 8v224z" />
<glyph unicode=";" horiz-adv-x="292" d="M116 934h112l8 -8v-224l-8 -8h-112l-8 8v224zM264 186l4 -4h4l-140 -384h-124l-4 4h-4l144 384h120zM456 182q34 -11 36 -28l-20 -28l4 -24l-20 -24h-4q-24 0 -24 16q8 40 32 40l-8 44zM508 150l4 -4v-4l-8 -8l-8 8zM380 138h8l8 -8v-24l-12 -12l12 -20v-4l-8 -16l-36 16 l4 12h-8v12q0 44 32 44zM528 134h8v-4h-8v4zM528 122h4l4 -20l-8 -8l-8 12v8zM496 98h8v-8h-8v8zM548 -34q13 -12 36 -12v-4q0 -18 -56 -36v4l20 24l-8 12v4zM520 -90l4 -4v-8h-12v4z" />
<glyph unicode="&#x37e;" horiz-adv-x="292" d="M116 934h112l8 -8v-224l-8 -8h-112l-8 8v224zM264 186l4 -4h4l-140 -384h-124l-4 4h-4l144 384h120zM456 182q34 -11 36 -28l-20 -28l4 -24l-20 -24h-4q-24 0 -24 16q8 40 32 40l-8 44zM508 150l4 -4v-4l-8 -8l-8 8zM380 138h8l8 -8v-24l-12 -12l12 -20v-4l-8 -16l-36 16 l4 12h-8v12q0 44 32 44zM528 134h8v-4h-8v4zM528 122h4l4 -20l-8 -8l-8 12v8zM496 98h8v-8h-8v8zM548 -34q13 -12 36 -12v-4q0 -18 -56 -36v4l20 24l-8 12v4zM520 -90l4 -4v-8h-12v4z" />
<glyph unicode="&#x3c;" horiz-adv-x="1079" d="M1016 1054l4 -4v-92q-4 -11 -544 -224l-4 -16h-8v8h-4l-28 -12q-52 9 -52 28q0 13 28 20v4l4 -4h4l76 16v4l-4 4v4q-62 0 -76 -20v12l-20 -4h-12v16zM368 722l28 -8v-8q-28 0 -28 -28l-4 -4h-16l-4 4l-4 -4h-4l-8 8l20 16q0 9 20 24zM424 694h4v-8l-8 -8l4 -16h32l16 -16 q0 -34 -32 -40v4l-4 -4h-16q-35 17 -48 36v8q19 24 44 32q0 12 8 12zM212 626q20 0 36 -20l-4 -4v-4l-4 4l-20 -4h-4q-8 0 -12 24l4 4h4zM8 578l8 -8l-4 -4h-12v4zM56 546h8l4 -16l-12 -8l-12 12zM244 522h4q19 -13 32 -40v-12l-8 -12q0 -22 20 -24v12h4q17 -10 32 -52h-4 q-119 52 -132 52v8zM120 502v-8h-8zM312 498q12 -3 12 -32v-12l-8 -8q-16 21 -16 44zM328 490h4q46 -15 56 -28q-19 -16 -40 -16q-20 26 -20 44zM412 458l468 -192l4 -12l4 4h4l4 -4l12 4q93 -37 112 -52v-52l-8 -32h-12v4l8 12v4h-4v-8h-8q-13 8 -36 52h-4q-8 0 -8 -16 l-12 12l8 12v8q-16 0 -16 12h-4v-12h-4q-8 0 -8 20h-4q0 -28 -16 -28h-4q0 12 -12 12l-24 24h-4l16 -32l-4 -4l12 -4l-8 -16l-480 196l-28 -16h-4l-8 8l4 4q-14 7 -20 24l12 20l-16 20v12h4l12 -12zM412 430v-8h4v8h-4zM448 374l8 -8h4v16h-4zM344 318l4 -4v-4l-20 -8v8z M308 262l4 -4v-4q0 -8 -12 -8l-12 4v8zM904 250v-8h4v8h-4zM912 246l8 -8v8h-8zM116 238h8v-4h-8v4zM1008 202v-32h4l4 28l-4 4h-4z" />
<glyph unicode="=" d="M8 813h1060l8 -8v-76l-8 -8h-1060l-8 8v76zM8 477h528q12 -4 28 -44v-12q0 -20 -8 -20l4 -4v-8h-216l-4 4l-4 -4h-172v8h-8v-8h-148l-8 8v72zM556 477h512l8 -8v-40h-12v-8h12v-24l-8 -8h-28l-8 8v4l4 4v4q-16 0 -16 8q-20 -6 -20 -28h-76v4q48 56 60 56v8h-8l-76 -68 h-108l-16 4l-12 -4q-3 11 -20 20q0 -20 -8 -20h-12l-24 8l-8 -8h-8l-32 44h-8v-20l-12 12v4l8 12v8h-4l-4 -4h-4l-4 12h-4q0 -12 -8 -12q-5 24 -12 24q0 -28 -12 -28l-32 28v8zM700 473v-12h8v4zM68 449v-4l16 -4q0 8 -12 8h-4zM700 449v-4l8 -8v12h-8zM20 445v-4l24 -8h4v4 l-24 8h-4zM720 445l8 -8h4l-8 8h-4zM704 433v-20h4v20h-4zM848 401q11 2 16 20h-4q-16 -4 -16 -20h4zM204 417v-4h8v4h-8z" />
<glyph unicode="&#x3e;" horiz-adv-x="1064" d="M4 1055l660 -272l52 -28v-4q-8 -16 -20 -16v-4l8 -12v-4h-4l-36 12l-4 12l4 12h-4q-11 0 -24 12h-4v-8q20 0 24 -40l4 -4h4l12 4l16 -24v-4h-12q0 10 -12 20q-12 0 -12 -12l-4 -4h-4q-60 17 -60 44l-16 -4q-52 10 -456 176l-116 52v88l4 4v4zM588 751v-8h8zM1016 631 q15 -9 28 -32v-4l-8 -16l12 -16h4v8h8v-20q-7 -15 -200 -88q-6 20 -24 20v-4q0 -12 12 -12v-12l-844 -340l-4 4v88q10 12 544 224l4 -4q0 12 132 56q62 36 96 36l12 -4q16 32 48 32l16 -4l12 4v-4l-8 -28q5 -20 12 -20h8q30 0 140 136zM1056 527q34 -11 36 -28l-20 -28 l4 -24l-20 -24h-4q-24 0 -24 16q8 40 32 40l-8 44zM1108 495l4 -4v-4l-8 -8l-8 8zM980 483h8l8 -8v-24l-12 -12l12 -20v-4l-8 -16l-36 16l4 12h-8v12q0 44 32 44zM1128 479h8v-4h-8v4zM1128 467h4l4 -20l-8 -8l-8 12v8zM1096 443h8v-8h-8v8zM536 403v-8l16 16v4l-12 -12h-4z M348 343l4 -12h4v8l-4 4h-4zM1148 311q13 -12 36 -12v-4q0 -19 -56 -36v4l20 24l-8 12v4zM1120 255l4 -4v-8h-12v4z" />
<glyph unicode="?" horiz-adv-x="757" d="M400 1336q269 0 356 -284l8 -84v-36q0 -172 -204 -340q-100 -102 -100 -224v-4l-8 -8h-116l-8 8v8q0 191 232 400q68 91 68 180q0 188 -172 240l-44 4h-16l-4 4l-4 -4h-20q-192 0 -228 -264q0 -24 -8 -24h-120l-8 8q0 263 224 384q81 36 172 36zM400 1004v-4l-8 -8v4z M436 960h8v-4h-8v4zM444 952h8v-12h-8v12zM324 916h16l8 -8v-4l-8 -8h-12l-12 12zM404 916h4v-8l-8 -8l4 -16h32l16 -16q0 -34 -32 -40v4l-4 -4h-16q-35 18 -48 36v8q19 24 44 32q0 12 8 12zM192 848q20 0 36 -20l-4 -4v-4l-4 4l-20 -4h-4q-8 0 -12 24l4 4h4zM-12 800l8 -8 l-4 -4h-12v4zM36 768h8l4 -16l-12 -8l-12 12zM100 724v-8h-8zM596 672v-4h8v4h-8zM340 644h12q40 -8 40 -20v-16q0 -8 -48 -24l-8 -8h-4l-8 8l4 4q-14 8 -20 24q0 11 32 32zM496 632v-8h4v8h-4zM324 540l4 -4v-4l-20 -8v8zM288 484l4 -4v-4q0 -8 -12 -8l-12 4v8zM96 460h8 v-4h-8v4zM336 240h116l8 -8v-28l-20 -20l12 -4v-4l-4 -4v-4q12 0 12 -8l-12 -12l-16 4v-8h28v-136l-8 -8h-116l-8 8v224zM412 188v-4q0 -8 28 -16l-20 20h-8zM380 28v-4l8 -16h4v4q-6 16 -12 16z" />
<glyph unicode="@" horiz-adv-x="1637" d="M900 1564q439 0 656 -324q76 -127 76 -272v-40q0 -195 -108 -340l-4 -4q0 -12 -12 -20v-8h-8l-68 60q0 12 52 28q22 42 28 76l-16 16l32 152l24 8v8q-24 0 -24 8v8l4 40l-4 28l8 8q-7 0 -24 104l-4 4l4 12q-10 5 -44 88q-191 276 -572 276q-491 0 -720 -436 q-68 -155 -68 -324v-8q0 -441 444 -596q140 -40 264 -40q301 0 564 172h4q7 0 36 -44v-4q-256 -200 -592 -200q-514 0 -744 380q-84 155 -84 360q0 417 388 684q225 140 512 140zM1572 1176l-8 -12h4l8 12h-4zM812 1152h48q107 0 172 -88v-4h-4l-4 4h-8v-4l16 -4l4 4l20 -32 v-12l-60 24h-4v-4l44 -16v-8q-15 0 -144 60l-36 4h-24q-195 0 -288 -276q-16 -78 -16 -148q0 -140 108 -196l72 -12h12q130 0 220 132q13 28 24 28l-4 4v4l28 68l-4 4v4q7 28 16 28v-4l-8 -28l20 -12l12 4l4 -16h4l8 8l-8 8l4 4l12 -4v-4q0 -20 -12 -20v-4q12 0 12 -8 l-12 -8l-12 4v-8h8l-4 -16l8 -20l12 4l24 -8l-8 -56v-16q15 -68 92 -68q135 0 268 152h4l32 -72h4v4l-4 4v4l4 4v4l-12 32l4 4h4q28 -28 36 -28v-8q-153 -180 -348 -180h-28q-64 0 -64 12l40 32h-4l-52 -32q-80 27 -80 136q-110 -144 -212 -144l-16 -4h-48q-212 0 -260 204 l-8 92q0 310 260 456l24 8l16 -8h4v4q-12 0 -12 8v4q63 16 104 16zM1520 1144v-4h8v4h-8zM1120 1120h52q16 -5 16 -36v-8l-4 -4l4 -4v-4l-84 -76l-8 8q0 -20 -8 -20q0 8 -16 8l-4 4v4l20 4v4q-20 0 -20 12q25 74 52 108zM1192 1120h8v-8h-8v8zM808 1108v-4h8v4h-8zM772 1104 v-4l12 -4h4v4l-12 4h-4zM1528 1072v-8q0 -9 28 -12v4l-16 24h-4zM968 1052q0 -8 12 -8h4v4zM1108 1052v-4l12 -4h8v4l-16 4h-4zM1172 1028l8 -8h-8v8zM1004 1000l16 -8h4v4h-8v4h24v-12h8v8h12v-8l-4 4h-4q0 -12 -8 -12q12 -15 12 -28l-16 -8q-15 2 -40 52zM1064 972l20 -4 l4 4l4 -4v-4l-4 -4l4 -4l-4 -4q-24 9 -24 16v4zM1064 956h4q16 -6 16 -12v-16q0 -16 -40 -24v-4h8l16 4q0 -8 12 -8v-8h-8l4 -4v-4q-31 -20 -40 -44v-4l4 4h4q0 -8 16 -8v-12q0 -12 -16 -12v-4l8 -12l-8 -8l-32 16l28 100l-4 4v12l4 4l-4 4v4l4 4v4l-4 4l32 8l-4 4v8z M1080 904h4v-8h-4v8zM1072 832h4v-8h-12zM1544 780v-8h4v8h-4zM1012 780h16l8 -24l-4 -4h-4q0 20 -16 20v8zM1044 736h4l8 -8v-4h-4l-8 8v4zM1488 728h4l8 -8v-4l-8 -12q12 0 12 -8q-12 0 -12 -20h-12l4 -4v-12l-28 -20l-4 4v4q0 10 16 12l-4 4v4zM1024 724h4v-8h-4v8z M996 600v-20l24 -4l8 12q0 6 -16 12l-12 -4zM964 588v-4h8v4h-8zM996 572q0 -12 -16 -12v-4l32 -12h8v8l-4 20h-20zM892 476v-4l8 8v4zM884 472v-8h4v8h-4zM860 468l-4 -4v-4h4l4 4v4h-4zM692 416v-4l8 -16h4v4q-6 16 -12 16z" />
<glyph unicode="A" horiz-adv-x="809" d="M563 1307h180l8 -8v-296l8 -12l-8 -32v-952l-8 -7h-112l-8 7v84l24 24v16q-24 30 -24 44v216l68 40v4q-48 -4 -56 -12h-12v12q41 55 92 76l4 4v4h-4q-22 0 -104 -84h-56q-6 0 -16 28q-59 19 -64 32q-14 0 -112 -44q-17 0 -36 -12q-40 8 -40 52h-12q-4 -52 -24 -52 q-21 0 -36 108l-4 4h-8v-4l4 -48h-4l12 -60l-4 -4h-12q-20 0 -20 8l-24 -8h-36l-24 -24h-4q-9 0 -12 20h-4q-8 0 -8 -16l-4 -4h-4q-18 28 -48 28v-4l12 -20h-4q-11 0 -44 40l516 760l-16 16l8 8q6 -16 12 -16h4zM523 1299v-4l-8 -8l-8 8l4 4h12zM123 1283h12v-8h-12v8z M587 1131l4 -20l-12 -8l-12 4v-4q-275 -403 -360 -540h260l4 -4l4 4h144l8 8v360l4 96l-16 32l4 44l-4 4h-4l-4 -4l-4 4v4l4 16q-8 0 -8 12h-4zM1062 1044h12v-8h-12v8zM483 547v-8l8 8h-8zM363 543v-8h8v8h-8zM699 543v-8h4l8 8h-12zM83 527v-12l12 -4v8l-8 8h-4zM611 511 v-4h8l8 8v4h-8zM647 519v-8h8v8h-8zM455 511l-4 -4v-4h4l4 4v4h-4zM639 491v-4h4l20 4v8zM71 495v-8h4v8h-4zM123 491v-8h4v8h-4zM43 483q3 -44 12 -44l8 8v28l-12 12l-4 -4h-4zM463 487h4q13 -16 32 -16v-4l-4 -4v-4l4 -4h4l8 8q8 0 8 -16q16 0 16 -8l-4 -4h-4l-4 4l-20 -4 h-144v8q17 0 40 16l48 20l16 -8v16zM563 475v-4h12v4h-12zM591 467v-8l8 8h-8zM103 463v-8h4v8h-4zM283 451l4 -12l-4 -4h-4l-8 8zM-33 443h8q0 -8 32 -32q32 -25 32 -40l4 4h16l4 -20h-4l-12 4v-28q-16 0 -16 -12h-20v-4q20 0 20 -8q-24 -31 -48 -40l-4 -12h8v-8 q-36 -46 -36 -56q-46 -65 -56 -68q0 -16 -16 -16l4 -4v-4l-12 -4l4 -4v-8l-60 -83h-144l-8 7zM79 403h8v-8h-8v8zM-33 375q6 -16 12 -16h8v4l-4 12h-16zM-145 259v-12h16v8zM-125 243v-4h8v4h-8zM-57 243v-8h8v8h-8zM-57 223l-4 -4v-4h16v4zM-85 219l8 -8l4 4v4h-12z M711 119v-4h8v4h-8zM663 71h4q18 7 28 24v4q-32 0 -32 -28z" />
<glyph unicode="B" horiz-adv-x="757" d="M13 1311h280q287 0 364 -200q20 -54 20 -112v-56q0 -152 -136 -232v-4q208 -91 208 -292v-72q0 -40 -8 -40l4 -4q0 -41 -52 -148h-8l-20 92h-8l-4 -12l8 -32l-4 -4v-4l8 -60q-8 0 -8 -16l-4 -4h-4l-16 24l-16 -4v-16l8 -12l-8 -8h-8q-10 0 -12 16h-12v-4l8 -20l-4 -4 q-52 21 -52 28l-4 12h-12l-4 -12l4 -4l-4 -4h-4q-25 28 -48 28v-8l8 -12v-4h-4l-32 32v4l52 16h12l-4 -20l12 -8l8 8v36q100 57 100 192v12q0 177 -164 224q-64 20 -196 20h-128v-404l16 -28l-8 -12l24 -48h164l100 8q0 -7 80 -76l4 4l8 -24h-4l-12 8h-4l4 -4v-16 q-26 -23 -200 -28h-8l-4 4l-32 -4l4 -4v-12l-28 -4l-8 20h-212l-8 8v112l-4 80l4 4l-8 8l4 12h-8l-12 -8h-8l-20 24l4 12h16l24 -24h8v60q-11 0 -20 16l20 4v588l-8 8h-4l-12 -8h-12l-8 8l8 8q8 0 8 20l4 4h24v72l-12 16v4q0 8 12 8v144l-4 20l4 24v76zM-187 1251h4l8 -8v-4 l-8 -8h-8l-8 8zM-243 1207l12 -12l-8 -8h-16v8zM-271 1191h8l8 -8v-20l-20 -4l-8 24zM129 1187v-440h16q281 0 344 68q56 58 56 152v16q0 141 -144 184q-70 20 -200 20h-72zM-299 963v-4q0 -21 -12 -24h-4v44zM-31 843l12 -12l-12 -12h-4q-9 0 -12 20l4 4h12zM-43 799l8 -8 v-24q0 -7 -20 -12l-12 28q12 0 12 12l4 4h8zM-75 703l16 -12l-16 -16q-16 6 -16 12v4q0 10 16 12zM877 543v-8h4l4 4l16 -4v-8h-20l-32 8v4zM-51 279h8v-12h-8v12zM577 183v-8h4v8h-4zM-63 163h16l8 -8l-12 -12h-4l-8 8v12zM557 155v-8h4v8h-4zM589 127v-8h4v8h-4zM-55 119 h8l12 -12v-8q-4 -12 -24 -12l-8 24zM341 115v-8h8v8h-8zM533 95h4l12 -12l-4 -4h-4l-8 12v4zM421 67v-4l12 -12h8l-12 16h-8zM277 -17h4v-4l-8 -16h-8v8z" />
<glyph unicode="C" horiz-adv-x="1079" d="M519 1360q141 0 212 -40l-108 -104l-112 8h-4q-286 0 -456 -276q-56 -107 -56 -204l-8 -24l-4 -4l8 -16q0 -47 16 -144l-4 -4q11 -5 44 -100q29 -51 52 -64q0 -20 8 -20l12 12l12 -48l-4 -12v-4h4v8h12l32 -36q0 -14 -24 -48l8 -8q16 2 28 28l16 8q108 -95 240 -120 q19 0 40 -60q31 -40 76 -40q8 9 8 28l8 8l-4 4v4l4 16q-12 4 -12 24h8l4 4l4 -4l-4 -20l4 -4h8q7 0 12 28h4l8 -8q0 12 8 12h28v-4l-4 -4v-4q8 0 8 -12l-4 -20l24 -12l12 4l4 -4l4 16l-4 4v4l20 40l4 -4h12q9 24 76 48q71 27 200 180q41 -72 56 -80v8l-52 76q60 129 60 148 q-29 -10 -44 -24h-8q-9 0 -12 20l4 4q-16 0 -16 24q1 9 28 32h24l32 -12l8 68v16l8 12q-9 0 -16 92l4 4q-44 18 -44 48q0 7 56 44h4v-24q0 -8 44 -12l44 44q32 -77 32 -180v-40q0 -305 -300 -528l-12 8l4 -4v-12l-32 -16q-60 -37 -116 -52h-8q0 26 -24 32l4 4v8h-8v4l4 4v4 l-12 20l-16 -12v-4h8v-4h-8v-4q0 -16 20 -16v-4l-12 -16v-4l16 -20q-14 -18 -172 -28q-233 0 -428 152h-4q0 -16 -12 -16h-4l-8 8l12 16v4q-95 91 -120 132l-20 -4q-40 14 -40 48l12 32q-76 148 -76 292v60q0 216 164 412q215 224 496 224zM91 1048v-8h4v8h-4zM-21 1044v-4 l20 -16v4zM1031 1020h20v-4l-8 -8l-4 4l-8 -8v16zM1031 1004v-8h-8zM923 996l4 -4v-8h-4l-8 8l4 4h4zM975 992h8l-8 -8v8zM23 980v-8h4v8h-4zM11 952v-8h4v8h-4zM1075 948h8l4 -20q-8 0 -8 -12h-8l-4 12zM-37 928v-8h4v8h-4zM947 928l8 -8h-8v8zM1119 896h4l16 -16v-4l-8 -8 h-8zM1019 856l16 -16v-4l-12 -12h-16l-16 12q6 20 28 20zM875 784h4q36 0 36 -28l-12 -8h-24l-16 16v8zM1183 736l-4 -4v-16h8v-4q16 4 16 20h-4zM667 736h4l12 -12l-8 -8h-8l-8 8v4zM1151 728v-12h12l-4 12h-8zM1147 712v-8h4v8h-4zM1163 700l4 -12h12l-4 20h-4zM719 708 l16 -12v-12l-12 -12h-8l-12 12v8zM1135 688l8 -8v8h-8zM-137 676l4 -4h4l8 12h-8zM787 664l4 -4q-6 -16 -12 -16l-8 8zM1159 620v-8h4v8h-4zM23 488v-8h4v8h-4zM999 472h12v-4l-12 -12h-12v4zM423 428h4v-4l-8 -8h-8zM955 420q24 -2 24 -12l-12 -12h-8l-12 12v4zM779 392h8 v-4h-8v4zM155 288l-12 -32q7 0 16 28v4h-4zM179 268v-8l-4 -12h-8v4zM875 168l24 -24h4l-24 24h-4zM879 140v-4l4 -4h4v4l-4 4h-4zM619 120l8 -8v8h-8zM39 120h8v-12h-8v12zM819 92l8 -8v8h-8zM599 68v-4h8l8 8v16zM807 88v-8h4v8h-4zM619 40v-8h4v8h-4z" />
<glyph unicode="D" horiz-adv-x="1052" d="M11 1308h408q443 0 600 -420q36 -118 36 -232q0 -263 -148 -436h-16l4 -4v-4q-39 -80 -176 -144q0 17 16 28q0 10 -28 20l4 4v8l-44 12q0 -25 -24 -40h-16l4 -16q-6 -40 -12 -40l4 -4v-8q0 -25 -292 -32h-320l-8 8v424l-4 68l4 60v44l-4 128l-4 -4h-4l-8 8l20 16v548z M987 1288v-4l-8 -8v4zM1023 1244h8v-4h-8v4zM1031 1236h8v-12h-8v12zM911 1200h16l8 -8v-4l-8 -8h-12l-12 12zM991 1200h4v-8l-8 -8l4 -16h32l16 -16q0 -34 -32 -40v4l-4 -4h-16q-35 17 -48 36v8q19 24 44 32q0 12 8 12zM131 1184v-364l-4 -4l4 -4v-688h248q178 0 316 68h4 l36 -16l4 12l40 -12q8 16 20 16l-8 24q0 8 20 8l-8 8l-16 -4l-4 4v16h16q13 0 28 -12v12h4l16 -16l-4 -16q16 6 16 12l4 -4h8l28 8l4 -4l-8 16l4 40l-4 4v4l12 72v4l-20 4l-8 -8h-4q0 20 -8 20l-4 -4v4l28 72l20 -4q28 0 28 20l-4 12l4 4l-36 40q12 66 12 136l-4 80l72 44 l-76 -16v4q61 84 100 84v8h-8q-16 0 -92 -76h-8q0 20 -8 20l4 4l-36 108l4 4q-12 0 -20 24q-64 108 -168 172q-79 60 -356 60h-188zM575 1084l8 -8l-4 -4h-12v4zM623 1052h8l4 -16l-12 -8l-12 12zM687 1008v-8h-8zM991 896v-8h8v8h-8zM903 868v-8h8v8h-8zM939 868v-4h8v4h-8 zM931 844v-4h4l20 4v4h-12zM-57 776q34 -11 36 -28l-20 -28l4 -24l-20 -24h-4q-24 0 -24 16q8 40 32 40l-8 44zM323 776h8l-8 -8v8zM43 768v-8h4v8h-4zM875 768l4 -4v-4q0 -8 -12 -8l-12 4v8zM683 744h8v-4h-8v4zM-133 732h8l8 -8v-24l-12 -12l12 -20v-4l-8 -16l-36 16l4 12 h-8v12q0 44 32 44zM-17 692h8v-8h-8v8zM7 600v-4h8v4h-8zM23 572v-4l12 -4l4 4v4h-16zM955 436v-12h4q18 7 28 24v4q-32 -5 -32 -16zM731 220h8v-8zM847 192v-4h8v4h-8zM779 172l-12 -36l4 -4q16 2 16 28h4l-4 12h-8zM667 148v-4h8v4h-8zM711 144v-8l8 8h-8zM603 100h4 l12 12h-4zM291 68v-4l8 8v4zM283 32v-8h4v8h-4z" />
<glyph unicode="E" horiz-adv-x="734" d="M8 1308h144q1 -20 12 -20h4q8 0 8 16l4 4h136q16 0 16 -80l-12 -8l-12 16l-12 -4v-8l8 -12l-8 -8h-4q-8 0 -8 12l-12 4v-4l4 -16h-4q-40 9 -40 28q-8 0 -8 -12l-4 -4h-4q-10 20 -36 20l4 -4v-8h-4q-52 45 -52 56h-8v-4q76 -84 88 -84v-8h-36l-16 4l-24 -4v-108l-4 -4 l4 -4v-36q0 -13 -12 -28l4 -4l-12 -4v-4q20 0 20 -8v-4q-8 0 -8 -12l-16 -16h4l16 8l4 -4v-228h100q0 24 8 24q36 -5 36 -24h132v-12l16 12h16v-4q0 -8 -16 -8l4 -4v-4l-8 -36q9 -43 52 -76h-240l-16 4l-16 -4h-60l-12 8l4 -28v-444h540l8 -8v-112l-8 -8h-664l-8 8v820l4 4 l-4 4v464zM444 1308l4 -4l4 4h220l8 -8v-24l-84 -84h-8l8 12q-16 60 -60 60l-8 8h-24q-34 -28 -92 -40q-24 14 -24 40h-8q-5 -40 -16 -40h-4q-12 0 -24 72l4 4h104zM236 1296v-8h8v8h-8zM92 1292v-8h4v8h-4zM632 1292v-8h4l8 8h-12zM664 1276v-4h8v4h-8zM208 1268v-28l8 -8 h4v28l-8 8h-4zM504 1264l16 -8v8h4q24 -9 24 -20l4 4h4q28 -14 28 -40l-32 -16v-4h4l20 4l4 -4v-8h-32v8h-12l-16 -4q-28 0 -48 28q-31 -20 -56 -20l-4 -4l-12 16q27 32 52 32h12q0 12 40 28zM672 1264h8l4 -32l-48 -12v4zM380 1244h8q0 -16 12 -28v-8l-4 4h-4l-4 -4l-12 16 zM680 1216v-28l-8 -8h-64v4q1 6 72 32zM64 1096v-8h12v8h-12zM80 1084v-4h8v4h-8zM112 1068v-4h8v4h-8zM868 1056h4l12 -12l-8 -8h-8l-8 8v4zM920 1028l8 -8v-20l-8 -8h-4l-12 12v8zM96 1000v-8h4v8h-4zM84 984v-4h8v4h-8zM80 976v-4h8v4h-8zM624 748h4v-4l-8 -8h-8z M504 724h168l8 -8v-116l-8 -8h-32l-20 20l4 4q-8 0 -12 24h-4l-16 -8v8q11 28 32 28v20q-52 0 -52 -24h-8l-16 12h-8q24 -18 24 -36l-4 -12l12 -8h16l4 4h4q0 -12 16 -12v-4l-16 -16h-96l8 48l4 -4l12 4v12l-12 12l-12 -4v4l-8 20zM600 684h8v-4h-8v4zM508 656v-16l-12 12 l4 4h8zM528 612v-8h8l4 16h-4zM332 536q17 0 40 -28q0 -17 -56 -40l-12 -12h-4l-8 8l32 40l-8 20zM120 520l-12 -28v-4h4l12 28v4h-4zM240 440h8v-12h-8v12z" />
<glyph unicode="F" horiz-adv-x="712" d="M8 1308h632l8 -8v-112l-8 -8h-508v-412q-10 0 -12 -20l-4 -4l20 -20h108l16 -4l16 4h108l8 -8v-4l-4 -4l8 -24h-4q8 -16 8 -44q-12 -13 -12 -24h-4q-16 7 -16 24h-4l-20 -4v-20l8 -12v-4q0 -8 -12 -8l-32 24l-4 -4v-4l4 -12l-4 -4h-8q-21 0 -36 12h-8v-8h-4q0 32 -12 32 q-7 0 -12 -24q-37 32 -64 32v-4l16 -24h-4q-9 0 -100 96h-8l96 -108v-4h-28v-24l-8 -8h-4l-4 4h-4v-8l20 -20v-92l-4 -4l4 -4v-4l-4 -4l4 -20v-64l-36 -28v-4q0 -8 20 -8l-12 -12h-4l-12 8h-8q0 -20 -8 -20h-8v-8l4 4h4l8 -8l-28 -8v-8l4 4h16q12 -4 12 -24q-16 0 -16 -20 l-24 -20v-12h4q0 13 48 32h24l12 -12v-192l-8 -8h-116l-8 8v208q0 8 12 8l4 4v8h-4l-4 -4h-4l-4 4v156q0 8 12 8v4q-12 0 -12 8v888zM100 808l8 -8v8h-8zM20 728v-4l8 -8h4v4l-8 8h-4zM48 728v-8l12 -8v4q-8 0 -8 12h-4zM640 724l8 -8v-28q-45 -40 -96 -40l-8 -8h-24 q-26 12 -36 60h-8q-10 -64 -32 -64q-23 0 -32 84l4 4h224zM232 700v-8l8 8h-8zM296 700v-12h4v12h-4zM204 692l-4 -4l4 -28v-20h20v8h4q0 44 -24 44zM648 672v-60l-4 -4l4 -4v-4l-8 -8l-24 12q-20 -12 -40 -12t-20 12q-8 0 -8 -12h-32l-8 8q48 44 88 44h8q0 19 44 28z M272 664v-8h4v8h-4zM476 660h8v-20l24 -32l-8 -8l-4 4l-8 -8h-4q0 15 -20 24zM308 632v-8h4v8h-4zM20 620v-12l8 8v4h-8zM80 404l8 -8h4v12zM84 384l-4 -4v-8h12v4zM96 380v-4h24l4 4v4zM48 376v-4h16v8h-4zM28 268v-8l8 8h-8zM24 256v-4h8v4h-8zM8 240h8v8zM36 172v-8h4v8 h-4z" />
<glyph unicode="G" horiz-adv-x="1094" d="M506 1364h56l4 -4l4 4h4q79 -8 156 -28v-8l-104 -108l-80 4h-36q-69 0 -128 -16q0 8 -16 8q0 12 -8 12v-12h-4l-8 8h4l-4 16h-4q0 -32 -16 -32l-36 32l-4 4h-4l24 -44h-4l4 -4v-8q0 -7 -84 -52l-20 8l12 -16q-52 -44 -60 -44l-76 32l4 -4q0 -8 20 -8l4 -4v-8l-80 24v8 q0 8 12 8l16 -8h4v4q-20 3 -20 12q210 224 468 224zM686 1324v-8h4v8h-4zM478 1304l-8 -8l4 -12h8l4 16l-4 4h-4zM314 1280l4 -12l4 4h4l-4 12l-4 -4h-4zM466 1280v-8h4v8h-4zM330 1276v-8h4v8h-4zM642 1260h8v8zM346 1260l8 -8v8h-8zM438 1232l4 -4h4v12zM306 1236v-4h8v4 h-8zM630 1208l24 -8l20 8l4 -4l-4 -4v-4l4 -4q-4 -24 -20 -24q-40 17 -40 24v4zM694 1200l8 -8l-8 -8l-8 8zM718 1184l4 -4v-8h-12v4zM466 1176q17 0 28 -16q-8 -24 -16 -24q-28 0 -28 20q8 18 16 20zM86 1156v-4l16 -4v8h-16zM714 1156h12v-4l-8 -8h-4v12zM658 1132h12v-8 h4l12 8l20 -20q0 -8 -32 -12l-20 -24l4 -4v-4l-16 -24h-4v4l-4 -4h-4q-29 0 -40 48q0 24 32 24l20 -12l16 24v4zM1030 1132q46 -43 112 -148h4v-4l-4 -4q76 -142 76 -300v-20q0 -359 -360 -584q-141 -72 -296 -72h-4q-308 0 -528 244q-82 96 -100 160l4 4q-30 0 -64 188l4 4 l36 -24l-4 -4v-4q0 -11 24 -16l12 8l-20 24v4h4l20 -16v4q-8 0 -20 44l-24 4v4l20 28v8h-8q0 -28 -40 -28l-8 8v60l24 20l8 -8v-8h-24v-16l12 -4l20 4v8l-4 20h4l12 -4l12 12h24q12 0 12 -16q14 0 24 28h4l4 -4v-60l12 -108l-4 -4q8 0 12 -24l-4 -4q9 0 28 -60 q30 -70 116 -168v-4l-100 -72h8l104 68q154 -134 244 -144q56 -13 56 -24l4 4h8v-16q12 0 12 20l20 -4h60q287 0 456 284q56 110 56 236v4q0 109 -52 232h-4q-4 -24 -12 -24l-12 8l-12 -8l-8 8h-4q0 -12 -16 -24v-8l-24 8q-15 0 -44 -32q-8 0 -8 -16l-12 4l-172 -164h-4 q0 20 20 40l-8 28h4l16 -12v4q-52 46 -52 80l108 108l-4 4v8q16 0 16 8v20h4l4 -4h4v8h-8l-4 -4q-20 8 -20 24q8 18 16 20h12q12 0 12 -24q12 0 12 16h8q0 -12 8 -12zM838 1128l8 -8l-8 -8l-8 8zM66 1120v-4h8v4h-8zM550 1120h4l8 -8l-8 -8h-4l-8 8zM18 1116h4l8 -8h-12v8z M10 1104h4q25 -23 76 -40h4v4q-12 0 -12 8v4l20 -4l16 4l4 -4v-4h-12v-8l20 -4v-8l-16 4h-4v-4h8v-12q-14 -28 -36 -28l8 -12l-4 -4l-20 4l-20 -4v-4l28 -4q-60 -129 -60 -148q-10 -56 -20 -56l-20 20v20l-20 -8l-40 12l-36 -12l-4 4q16 95 84 216q42 63 52 68zM514 1096h4 v-8h-4v8zM682 1088h4l12 -12l-12 -12h-4l-8 8v8zM122 1072h16v-8h-8zM98 1064l8 -8v8h-8zM694 1064h20l12 -12v-8l-12 -12h-8l-12 12v20zM482 1060l4 -4v-16h-4l-8 8v4zM906 1060l4 -4v-4l-8 -8h-4v8zM258 1056l8 -8v-4l-8 -8l-8 8v4zM746 1024l4 -4l4 4h4q12 0 24 -24 q-5 -16 -20 -24h-8l-16 16v24zM686 1008h4v-8h-4v8zM374 972h4l8 -8l-12 -12l-8 8v4zM342 964h4l16 -20v-4l-8 -8h-4l-16 16v8zM710 932l12 -12v-4l-8 -8l-12 20l4 4h4zM290 904l8 -8l-12 -12h-4l-4 16l4 4h8zM266 892q24 -10 24 -28l-16 -12h-16l-12 12v16q0 7 20 12z M-26 844v-4l12 -12v4zM670 772q17 0 36 -64l-8 -12v-4l4 4h4l8 -8q-15 0 -16 -32h-4l-4 4h-4l-4 -4v-4l8 -8l-24 -24l-36 -12q-24 43 -28 84l-8 8v12l32 16zM638 736v-8h4v8h-4zM-114 668h12l4 12h-4zM594 660h4q12 0 12 -44l-4 -4h-4q-10 0 -16 32v8zM554 656l12 -12v-8 q0 -8 -12 -8q6 -28 16 -28h8v12q36 -36 36 -64l-76 -72l-80 80v4zM746 648l12 -28l-12 -8h-8q-8 0 -8 12q9 24 16 24zM658 640l8 -8v8h-8zM-62 604v-4h8v4h-8zM610 608h8q0 -16 8 -16l40 16v-4l-36 -36l-20 24v16zM-34 600v-4h8v4h-8zM786 580l20 -32q-14 -28 -32 -28 q-28 0 -28 40zM458 124l-8 -16h4l20 4l-12 12h-4zM482 108l-4 -20l4 -4h8l12 8q-6 16 -12 16h-8z" />
<glyph unicode="H" horiz-adv-x="940" d="M8 1312h116l8 -8v-580h24l16 8l24 -8h556v116h12l-12 16v448l8 8h112l8 -8v-480l-4 -4v-4l-24 12h-4v-4q32 -10 32 -20l-4 -4h-4l-40 12l4 -4v-4h-12v-8q24 -5 24 -16h8v12l8 -8l-4 -4v-4q25 0 28 -36l-4 -12h8v-4l-8 -16q0 -14 32 -20v-8l-8 -8l-8 8h-4v-12l36 -40 l-4 -4h-4l-24 24h-16l-4 -28l4 -12l-4 -36v-32l-8 -8l-16 12h-4q14 -15 28 -60q0 -20 -8 -20l8 -12q-2 -26 -20 -44l12 -4q-3 -29 -12 -40l20 -20v-88q0 -8 -12 -8l-4 -4v-16q12 0 12 -8v-4l-4 4h-4q0 -20 -20 -20v-4q10 0 32 -24v-164l-8 -8h-112l-8 8v160q0 24 -48 52v16 q4 13 40 28q8 9 8 28h4l-4 4v120l4 4v4q24 -8 24 -20q17 0 28 56q16 0 16 12v4l-4 -4h-4q-32 16 -32 40l4 4h-4l-12 -8h-8l-12 12v24q-16 0 -16 8q0 10 16 12v32h-620v-588l-8 -8h-116l-8 8v1296zM568 1072l4 -4v-4l-8 -8l-4 4v4zM972 1072l8 -8l-8 -8l-8 8zM720 1060h12 l16 -16v-16q0 -7 -24 -20q-24 10 -24 36zM936 1024h4l8 -8v-8l-12 -12h-8l-8 8v4zM492 1000h8q19 0 32 -20q28 -3 28 -12l-24 -16l-20 16l-16 -4q-20 5 -20 12v12zM588 968l16 -12v-4l-8 -8h-12l-16 16v4zM612 936l4 -4h4l-4 -16h-8q0 8 -12 8l-4 4v4l4 4h16zM704 868l8 -8 l-8 -8l-8 8zM816 824v-4h12v4h-12zM536 824l8 -8l-8 -8l-8 8zM576 800h4l8 -8v-4l-8 -8h-8l-8 8zM844 800h8v-8zM604 784h4l4 -4l4 4h20l8 -8v-12l-12 -12h-8l-28 20v4zM616 552l12 -12l-8 -8h-8l-8 8zM704 540h4q9 0 12 -20l-4 -4q16 0 16 -8v-4l-8 -8q-7 0 -12 20l-4 -4 h-4l-4 4h-4q0 -16 -12 -16l-4 4q17 35 24 36zM788 536v-4l8 -8v4zM300 536q9 0 12 -28l-4 -4h-4q-10 0 -16 28l4 4h8zM356 472h8l12 -12v-8l-12 -12q-18 8 -20 16zM928 468l12 -12v-4l-8 -8h-4l-12 12zM396 440l12 -12l-8 -8h-4l-8 8v4zM820 368v-4q4 -12 24 -12h16v8 q-14 0 -32 16zM472 340h12l16 -16q0 -26 -36 -32l-8 12v20zM588 312q32 -13 32 -36v-12q-7 -36 -40 -36h-16q-7 0 -32 32q-15 0 -28 28l20 20h16l8 -8zM696 308h4l20 -20v-16q0 -10 -32 -16l-20 20v4q0 28 28 28zM636 300h8l12 -12v-4l-12 -12h-8l-12 12v4z" />
<glyph unicode="I" horiz-adv-x="255" d="M68 1312h116l8 -8v-724l-4 -16l4 -16v-296l-4 -4v-4l-36 12q-54 -12 -84 -44h-8v420l4 4l-4 4v664zM172 584l8 -8h8l-8 8h-8zM240 440h12v-8h-12v8zM168 160h12l12 -12v-112l-4 -4l4 -4v-20l-8 -8q-13 12 -24 52l-20 4v4l20 28v8l-24 -28l-20 -8l-12 8h-4l-16 -16l4 -20 l-4 -4h8v-8q-9 0 -28 -20l-4 4v96h16l4 -4h4l4 4v4q-28 10 -28 16v20l8 8l32 -8h4l24 12l8 -12l-4 -4v-4l-12 8l-12 -4v-8l12 -12l20 4v28q16 0 28 12zM128 108v-4h12v4h-12zM120 100v-4h8v4h-8zM112 92v-4h8v4h-8zM108 28l36 -16v-12h-28l-16 24l4 4h4zM168 16l4 -12h-8 l-8 8l4 4h8z" />
<glyph unicode="J" horiz-adv-x="734" d="M559 1320h116l8 -8v-156q0 -8 -12 -8l-20 4l-8 -12v-8q1 -9 40 -24v-180l-4 -4v-4l-4 4l-68 -8v4l-32 -8h-4l-20 16q0 9 20 12q0 21 -20 24v72l8 12v4l-8 12v12q16 16 16 40l-4 -4h-12v4l56 56l24 28q-10 -1 -76 -64l-4 4v76l4 16l-4 16v64zM635 1232v-8l12 4v4h-12z M679 1144l4 -4v-12h-4l-8 8zM571 1080l-4 -12l12 -8l4 4h4l12 -4q12 3 16 16l-4 4h-4l-16 -4l-16 4h-4zM615 1056l8 -8v8h-8zM639 1032v-4h4l12 4v8h-8zM583 1016h8v8zM559 992v-4h8v4h-8zM683 912v-376q0 -334 -52 -388q-98 -168 -312 -168q-229 0 -308 236v16l76 52v4h-4 l-72 -48q-12 12 -12 84l4 4h120q7 0 20 -80q64 -136 180 -136h12q119 0 164 76l4 12q-16 0 -16 24q6 19 44 40q20 97 20 184q-20 16 -20 36q18 24 32 24l-12 16v44q0 7 40 16q0 12 32 72l-8 28l4 4q-23 19 -48 100v24q20 28 52 28q0 9 -28 12q-28 13 -28 24q0 18 80 28 q0 5 36 8zM563 856l24 -8v-8q-20 0 -32 -8l-4 4v12q0 8 12 8zM551 796h8l20 -60q11 0 28 -56v-4l-8 -12h16v-4q-16 -32 -28 -32l4 -20q-21 -24 -36 -24l-4 4v96l-12 4l-8 -8v16h20v100zM663 760l8 -8v8h-8zM531 680v-8h-8zM423 672l4 -4v-8h-4l-8 8l4 4h4zM475 668h8l-8 -8 v8zM667 644l8 -8v8h-8zM447 604l8 -8h-8v8zM599 564v-8h4v8h-4zM591 536v-8h4v8h-4zM519 532l16 -16v-4l-12 -12h-16l-16 12q6 20 28 20zM635 516v-8l8 -8h4v8l-8 8h-4zM639 476v-4h8v4h-8zM375 460h4q36 0 36 -28l-12 -8h-24l-16 16v8zM631 440l-4 -4q10 -28 16 -28h4v4 q-5 28 -16 28zM667 428v-12h8v4zM167 412h4l12 -12l-8 -8h-8l-8 8v4zM219 384q16 -6 16 -12v-12l-12 -12h-8l-12 12v8zM287 340l4 -4l-12 -16l-8 8zM367 108v-4h8v4h-8zM387 108l-4 -4v-12l12 4v4zM-77 104h4v-4l-8 -8h-8zM355 88v-12l20 4v4l-8 8zM387 80l-8 -20l20 -8 l4 12q-3 12 -16 16z" />
<glyph unicode="K" horiz-adv-x="906" d="M8 1314h112l8 -8v-716l608 724h140l4 -4h4l-524 -632q363 -435 380 -464v-16l4 4h8l28 -32q-24 -24 -32 -44l-16 -4l-4 4v4l12 4v8l-20 -4h-4l-8 8l4 4v4q-12 0 -12 24h-4q0 -32 -24 -32l-12 32h-8v-24h8v-8l-24 4l4 4v16h-4v-16h-8q0 14 -52 64l-300 360 q-148 -164 -148 -184v-384l-8 -8h-112l-8 8v368h4q12 -8 40 -60h4v4q0 20 -48 68v64l4 16l-4 16v16q11 60 24 60q0 32 -24 64v112q0 12 24 12v8q-21 0 -24 12v28q0 8 80 28v8l-68 -4h-12v136q16 14 16 24h-4l-12 4v80l40 44h-4l-32 -24h-4v212zM88 1166v-4l24 24zM12 1154 v-4h8v4h-8zM36 1138h4l8 8h-4zM108 1070h8v8zM52 1062l-8 -24l28 -16l12 4v4l-12 16q0 10 16 12v4h-4l-12 -4zM16 966v-4h8v4h-8zM40 942v-4l16 4v8h-8zM68 674l-4 -4v-4h12zM0 606h8v-24h-8v24zM28 590v-4l12 -8v4zM8 574h8v-4l-12 -12h-4v8zM88 566v-4h8v4h-8zM68 554 l8 -8v8h-8zM100 474v-8h8v8h-8zM36 426v-4l4 -12h8v16h-12zM20 390v-12h4v12h-4zM40 382h8v8zM68 338l-4 -4v-4l4 -4h8v4zM628 334l-4 -12l12 -8l4 16l-4 4h-8zM616 310v-8h4v8h-4zM592 270v-4l8 -8v12h-8zM596 246v-32h4l4 28l-4 4h-4zM616 242v-8h8v8h-8zM636 206v-32 l20 8l-4 20l-4 -4h-4zM92 186l8 -8h4l-8 8h-4zM744 146v-4h8v4h-8zM803 -7l21 13l-4 16h-16l-12 -8l-8 8v8l16 20v4l-24 -8l-4 4l20 44l-4 4h-4l-12 -8l-4 4v4l12 12h4v-8l28 4v12l-20 4v4l12 12l121 -145h-122zM836 82v-4h8v4h-8z" />
<glyph unicode="L" horiz-adv-x="652" d="M8 1312h116l8 -8v-580l-4 -4v-4l-12 4h-8v-4q24 -2 24 -12v-24l-4 -4v-4l-32 12h-4v-4q40 -13 40 -20v-4q-65 16 -100 40v-8l-4 4h-8v-4q36 -9 36 -16h-4l-20 4q17 -22 92 -52h4v4l-24 8l4 4v4q24 -5 24 -12v-52l-4 -4v-4l-4 4h-12v-4l4 -12h-4l-12 -4l-8 8h-4l-4 -12h16 l4 4h4l8 -8h8l-8 12l16 4v-12h-4l4 -20v-36l-4 -12l4 -20v-92l-8 -8h-4l-20 20v8l4 4v4q-21 3 -36 20h-4v-4q28 -25 28 -52v-8h8v-4l4 4h12l4 -4h4l4 4l4 -4v-4l-12 -4l4 -4v-8h-8q0 12 -20 12l-4 -12l4 -20l-16 -32l12 -12l-12 -40q16 -4 16 -16l24 8l12 -24v-28h-12v-4 l12 -12l-4 -4v-20l12 -16l16 4l20 -8l28 4l64 -12l8 28h84l-4 -36q0 -20 24 -20q18 0 80 56h124l8 -8v-112l-8 -8h-36l-4 4l-4 -4h-160l-4 4l-4 -4h-364l-8 8v148l4 4l-4 4v104q17 29 32 36q7 32 20 32v4q-52 10 -52 40h4l-4 4v12h4l12 -4q0 12 -12 12l-4 4v164l4 4l-4 4 v100l4 4l-4 4v36l4 4l-4 4v228l20 24h-4l-12 -12l-4 4v328zM20 876v-8h4v8h-4zM52 704q0 -6 28 -16h4v4zM76 656h8v-4h-8v4zM104 548v-8h8zM112 452v-8h4v8h-4zM120 444v-4h8v4h-8zM128 332h4v-8l-8 -8l-4 4v4zM128 280v-4l-8 -8l-4 4v4l4 4h8zM12 272v-8h8zM40 244l-4 -12 q15 -12 36 -12h4v8q-10 0 -28 16h-8zM112 184v-8h4v8h-4zM92 164v-12h4v12h-4zM84 120v-24l16 -4l12 4v-8h4v12l4 -4h4l4 4q-4 20 -24 20l-4 -4h-4zM44 104v-8h8v8h-8zM84 84q0 -16 -16 -16v-4l36 -16h12v24q0 12 -32 16v-4zM328 52l20 -32h8v4q-5 32 -28 32v-4z" />
<glyph unicode="M" horiz-adv-x="1341" d="M1103 1424v-4l-8 -8l-4 4q0 -16 -12 -16h-4l8 12l-4 4v4l4 4h20zM967 1400h4l8 -8v-4h-4l-8 8v4zM1027 1396h8l-8 -8v8zM1123 1352h12l4 -24l-12 -8q-8 0 -8 12zM995 1336h4l8 -8v-4h-4l-8 8v4zM7 1312h176q16 -8 132 -316l104 -256v-8l-4 -4v-4q16 0 44 -92l-4 -4v-4 q17 0 44 -92l-4 -4v-4q16 0 16 -24l-8 -12v-4q12 0 12 -8l-4 -4h-4q0 8 -32 12l-8 24q-16 0 -16 12h-8v-8q18 0 20 -40h28v-4l-4 -12h4l8 -8v-4h-12q0 11 -16 20l-8 -8l4 -16l-12 -24v-4l8 -8q-7 -28 -16 -28h-4q-15 0 -28 52l16 32q-45 0 -84 140q-37 71 -76 196l4 4 q-17 0 -60 128l-84 212h-4v-328q0 -7 28 -16q0 -12 16 -12q8 -16 8 -44l-16 -8l-16 4l-12 -12l-4 4h-4v-720l-8 -8h-112l-8 8v688q-24 24 -24 40v12q0 15 24 44v512zM1099 1312h176l8 -8v-1296l-8 -8h-108l-8 8v1136h-4l-60 -160h4q36 -8 36 -36v-16q-25 0 -76 -36l-8 -20 h12v-4q-32 -19 -32 -68q-10 0 -24 -32q-20 -1 -20 -12v-4l8 -12q-54 -156 -64 -156l-12 12q0 8 12 8v16l-28 -4v12l12 16h-8l-4 -4h-4l-4 4v4q10 36 28 36v12h-12v8q16 17 20 36h-4l-12 -4v4l60 60h-8q-35 -28 -96 -100h-4l-8 20l200 504q-16 0 -16 12v4q0 10 32 20 q14 45 24 48zM931 1192q36 -11 36 -20v-16l-4 -4v-4l-12 4l-16 -4q-24 8 -24 32zM963 1148h4v-8h-4v8zM719 1144q16 -6 16 -12v-12l-20 -4l-4 4v16zM767 1112h12l8 -8v-20q0 -6 -16 -12l-16 12v4q3 24 12 24zM831 1068h4q8 0 8 -12l-4 -12h-8l-12 12zM1143 928h8v-4h-8v4z M911 836v-4h8v4h-8zM983 836v-8l8 8h-8zM471 832h8v-4l-12 -12l-4 4v4zM835 800l8 -8l-4 -4h-12v4zM-45 784h8l-8 -8v8zM127 780v-32q24 9 24 16v12h-8l-4 -4h-4zM367 752l8 -8h4l-8 8h-4zM931 716v-8l4 -4v-4l4 4h4l4 -4h4l12 4v12h-32zM967 700v-8h4v8h-4zM899 692h4v-4 l-8 -8h-4v4zM183 620q14 0 44 -24q0 -16 -68 -56h-8l-8 8v8l28 32l-4 24zM483 540v-4h8v4h-8zM903 532h8v-8h-8v8zM891 516h12v-4l-4 -20h-4q-8 0 -8 12zM395 508l8 -8v8h-8zM499 424h16v-12l-16 4v8zM819 388h4q16 -8 24 -24l-148 -364h-108q-11 0 -44 92l12 12h-4l-4 -4 h-4q-12 12 -68 168l32 20l16 -8l24 4q60 -5 60 -28l28 -76h8q0 32 20 32l-4 16q0 20 44 32q112 112 112 128zM459 372l8 -12l4 4h12q8 0 8 -12l4 4h4l-4 4v4l8 8l8 -8h-4l4 -4v-8q0 -8 -12 -8l8 -12l-12 -12l-8 8h-4q8 -12 12 -48q-40 14 -40 48q-6 0 -16 36z" />
<glyph unicode="N" horiz-adv-x="1060" d="M992 1300v-400l-4 -4l4 -4v-64l-12 4l-16 -8h-4q0 16 -20 16l-8 -8v-8q23 0 60 -32v-24l-4 -4l4 -4v-548l8 -36l-8 -16v-156l-8 -7h-148l-488 783l32 72l12 -4l12 4l-4 28q3 20 12 20l460 -736h4v4l-8 772l8 8h12l20 -12q0 -20 8 -20h8q8 0 8 12q48 12 48 24 q-23 68 -80 68l-32 -4l-4 60v180l4 4l-4 4v36l8 8h112zM276 1124v-4l-4 -4l-32 4h-4v-8q64 -12 64 -24t8 -12q-2 -12 -28 -12v-8q21 0 40 -28v-8q-29 -84 -44 -84l20 -64h-8q-99 171 -128 204l-12 -8h-12l-12 8h-4v-16h4l4 4l8 -8v-16q-16 0 -16 -12l4 -124v-184l4 -100 l16 -4q-4 -24 -12 -24h-4l4 -528l4 -64h-4l-4 -3h-116l-8 7v288l-4 20l4 12v24q-20 0 -20 8q-48 16 -48 24v16q0 12 40 20h12l16 -12v264q-24 0 -24 8v4q0 8 24 8v312l-8 8l8 12v280l8 8h144q26 -28 120 -184zM876 1276v-4h8v4h-8zM588 1212h-12v8h12v-8zM356 996v-4 l-12 -16v-8q24 -17 24 -48v-8q-11 -56 -24 -56h-4q-22 0 -28 20h-8v12l4 4h-12q0 20 -12 20q0 8 12 8l-8 8l8 28q18 18 32 68h12q0 -10 16 -28zM240 996v-8h4v8h-4zM932 932l-16 -4v4l-4 4l8 8zM-36 936l4 -4q-6 -16 -12 -16l-4 12l8 8h4zM956 912l-8 -8v-4h12l8 8v4h-12z M908 908v-4h8v4h-8zM892 896v-4l12 -16v-4l-20 -24l4 -4v-4l-4 -4h8v-8h-12v-16h24l4 12h-4q10 20 32 20h12l4 16l-8 16l-16 -4q-28 6 -28 24h-8zM380 888v-20l-8 -12l-8 8v8l8 24zM348 840q8 0 8 12h8q0 -22 -28 -40h-4q-11 4 -32 48v4zM-64 768v-4l-8 8v4zM944 752v-4h12 v4h-12zM-108 728h-8v4h8v-4zM-116 712h-8v12h8v-12zM888 696l8 -12h4l-4 12h-8zM920 684l8 -12h8v4l-8 8h-8zM-68 676q25 -8 44 -32v-8q-13 -18 -48 -36h-16l-4 4v-4q-32 7 -32 40l16 16h32l4 16l-8 8v8h4q8 0 8 -12zM348 564v-4h-12l-4 4l8 8zM504 552v-12h4l4 12h-8z M304 528l-12 -12l-12 8l4 16h8zM236 488h-8v8zM592 256l-8 8h8v-8zM232 228h-8v4h8v-4zM1080 176v-12h-8l4 -12l-36 -16l-8 16v4l12 20l-12 12v24l8 8h8q32 0 32 -44zM916 -15v-4h-12v8l4 4z" />
<glyph unicode="O" horiz-adv-x="1071" d="M520 1360h32q364 0 580 -360q72 -138 72 -292v-44q0 -340 -300 -556q-111 -72 -200 -88l-8 8h-4l4 -4v-4q-39 -16 -76 -16q0 11 -20 20l-24 -24h-68q-108 0 -124 20v16l4 4l-12 60q12 0 12 16h4q12 0 12 -20q21 0 24 12l-8 24l4 4h8l24 -20l4 4v4l-4 4l4 4l32 -8l4 4h4 q8 0 8 -16l4 -4h12q0 16 8 16q21 -21 48 -28v8l-12 16l4 4h4l88 -88q0 13 -76 88q131 20 220 72q264 182 264 496q0 320 -320 496q-104 44 -192 44h-48q-261 0 -436 -276q-13 -44 -44 -44v-4l4 -20q-20 -18 -20 -32h-24l-4 -28l4 -4h8q8 0 8 12l4 4h8v-4l-12 -16v-4h4 q0 12 8 12v-4q-7 -68 -20 -68v-8h8l-4 -28v-48q0 -12 -20 -12v-8h4q-6 -116 -16 -116q0 -12 20 -12v-8h4q0 12 8 12l4 -20l20 4v-4q0 -20 -20 -56l4 -24l-44 12q-24 -6 -24 -28v-8q44 -62 92 -92q1 -10 88 -80q-20 -23 -44 -32h-8q-43 11 -116 132q-37 69 -48 108 q18 8 20 16v12l-24 -16q-36 102 -36 216v32q11 198 48 216l-4 4v4q19 60 32 60q28 0 28 24q-9 0 -12 20q215 332 560 332zM48 1012v-12l8 8l-4 4h-4zM-28 972q0 -28 24 -44l8 -36h20v4l-4 4v4l4 4v4q-4 16 -16 16v4l12 12q-8 22 -20 24l4 4v4l-4 20q-16 0 -16 -20zM-64 728 q-16 -27 -16 -44l4 -4v-4l36 8l-4 4v4l4 16l-20 8l4 4v8h-8zM-32 700l4 -32l20 4l-4 4v4l8 8q-5 24 -12 24h-8q-8 0 -8 -12zM80 468v-4l-8 -8l-8 8l4 4h12zM-320 452h12v-8h-12v8zM40 408q4 -16 16 -16v-8h-8l-16 16zM108 404h4l12 -8h4l28 4q11 -40 36 -40l4 4l8 -12v-4 l-4 4h-4l-4 -12l8 -20l-8 -8v-12h12q0 12 8 12q16 -68 60 -68v-4l-16 -16l8 -12l-24 -16h-4l-4 4l-4 -4h-4q-29 0 -36 20q-16 0 -16 12l4 44l-4 4h-4l-4 -4l-4 4v4l4 16q-8 0 -8 12h-12l-12 -8h-12l-40 36l4 4h8l4 -4l12 4q-2 12 -20 28v8zM140 296l8 -8v-4l-12 -12h-4v16z M88 180l8 -12h-8l-8 8l4 4h4zM308 168l8 -8l-4 -12q-6 0 -12 16l4 4h4zM140 160q30 0 44 -28l4 -4h4q52 24 76 24v4q18 -8 20 -16v-4q-39 -48 -92 -48q-47 24 -92 68l4 4h32zM240 136v-4h8v4h-8zM304 136l16 -36l-12 -12l-20 36zM160 120h4l8 8h-4zM692 116v-4h8v12z M340 100q20 0 28 -76l4 -4l-4 -4q-107 29 -152 64v4q23 0 40 12h20q28 -21 28 -52h4l20 48zM528 96v-8h-4q6 -36 16 -36l4 4h4l-4 20v20h-16zM480 76h8v8zM516 52v-8h8zM492 28l4 -16h12v4l-12 12h-4z" />
<glyph unicode="P" horiz-adv-x="775" d="M316 1484h4l8 -8v-8l-12 -12l-12 12zM-108 1468h4l8 -8l-8 -8h-4l-8 8zM-4 1456l8 -8v-4h-8v12zM516 1448h16l8 -8v-8l-8 -8h-20l-8 8v4zM256 1436h4l12 -12q0 -8 -24 -8v-4l4 -4v-4q-4 -16 -24 -16l-8 12v8q0 12 28 12q0 16 8 16zM-256 1384q10 0 20 -28q-6 -16 -12 -16 h-16l-4 4h-4q0 -12 -8 -12h-4l-8 8v4q0 8 16 8q0 16 20 32zM-40 1344h8v-8h-8v8zM-320 1316h4l8 -8l-8 -8h-4l-8 8zM8 1312h220q331 0 404 -84q136 -112 136 -300q0 -235 -220 -344q-94 -32 -200 -32v4l16 20v4h-4l-32 -28h-80q-21 0 -24 12q-12 0 -12 -12l-40 12v12l16 24 l-4 4h-8q-12 -4 -12 -24v-16h8l-12 -12h-32v-52l-8 -8l-16 16l4 12h-4l-12 -8l-16 4l-24 -12l8 -16l-8 -24l4 -20l-12 -60v-12q16 0 16 -8h4q0 12 8 12l4 -20h8l12 8l4 -4v-4q-11 -39 -20 -48v-20l4 -4v-4l-4 -4h-4l-40 12q-16 0 -24 -20q4 -34 80 -104l4 4h8q0 -13 24 -36 v-68l-20 -16l-4 -12h12v-4q-36 -32 -56 -32h-52l-8 8v512q0 8 28 12l-4 4v4l4 16q-16 0 -16 20h-4v-8h-8v256q0 9 36 12l4 4v4q0 21 -12 24h-4q-8 0 -8 -12h-8l-8 8v8q10 0 32 24l-4 12h-4q-10 0 -16 -28h-8v100l-4 76l4 32q-8 0 -8 12l8 24v180zM-344 1288l4 -4v-4l-4 -4 h-4l-4 4v4l4 4h4zM128 1180v-408q0 -8 -12 -8l-16 -8v-8l4 -4v-4q-16 -40 -44 -40l-4 -16l4 -12h8q12 0 12 16h12v-8q-16 -2 -16 -12v-4l20 16q8 0 8 -12h4q0 12 12 12l4 4v4l4 -4h96l8 -8v-16l-16 -16q0 -13 28 -20v-4l-4 -4v-4q20 -5 20 -12l4 4h4l12 -8h4q5 44 40 44 l-4 16q0 28 16 28q179 0 264 112l4 -4v4l-4 12q24 48 24 112v20q0 150 -116 204q0 -9 -36 -20l-8 12q0 8 16 8q0 23 -88 32l-68 4h-120q0 -20 -36 -28q-28 7 -28 28h-12zM-116 1096v-4l4 4h4q36 -21 36 -44l-12 -20l4 -4q-16 -2 -16 -12l-4 4l-28 -8q-28 27 -28 40h4l-4 4v4 q12 36 40 36zM456 1072h28v-20q-12 0 -12 -8l-16 4v24zM448 1028h20l8 -32l-28 -12l-16 24q16 6 16 20zM752 956l-24 -52v-4h4l24 52v4h-4zM424 932q24 -2 24 -12l-12 -12v-4h-4l-20 4v12zM116 856v-4h8v4h-8zM704 824q8 0 12 24q-12 -4 -12 -24zM40 820q0 -31 24 -44l8 -36 h20l4 16q-3 20 -20 20v4l12 16q-4 16 -16 16v12l-4 20l-24 -24h-4zM712 788v-4h4l8 24q-7 0 -12 -20zM668 720v-8h4v8h-4zM652 664v-4h4l4 16q-8 0 -8 -12zM100 648v-8h4v8h-4zM332 628v-4l12 4v8h-4zM68 604v-8h4v8h-4zM40 596v-4h8v4h-8zM36 552v-4l4 -20h-4q6 -16 12 -16 l16 28q-5 20 -12 20h-8zM92 552v-4h8v4h-8zM116 16h12v-4l-8 -8h-4v12z" />
<glyph unicode="Q" horiz-adv-x="1064" d="M505 1360h4l44 -20v-8h8q0 28 12 28q133 0 280 -80l-8 -16v-4h4q0 12 8 12v-28q-16 0 -16 -16h-8v4l4 4v8h-4q0 -12 -28 -20v-4q-12 0 -20 24l8 24v4h-4q0 -10 -12 -20v-4h-8v20h8v-8h4v4l-4 4l4 20l-4 20h-4q0 -28 -12 -28v-8h8l-8 -32h12v-24l4 4h8v-4l-4 -16v-4h4 q1 20 12 20h4v-4q-5 -28 -16 -28l-4 4l-4 -4h-8l-16 12l-4 -4h-8v4l4 20q-12 0 -12 20h-4v-8l4 -24h-4l-8 -8q-33 10 -52 40l-28 12v-4l4 -4v-4l-4 -4h-4v-8h-4q-32 0 -32 16h-4l-12 -8h-8v4q8 8 8 36l16 12h12l4 -4h4q0 32 20 32v8h-12q0 -19 -56 -32v-4l4 -16l-4 -12 l-20 4l4 -4v-4l-4 -4h-16v8q0 9 20 12l4 -4l4 20l-16 8l-16 -4l-32 16h-4l-16 -8l-32 8q-8 -16 -20 -16l8 -24q0 -8 -20 -8l8 -8l16 4l4 -4v-4h-4l4 -4v-8h-16l-16 4l-16 -4l-16 16l4 16q-16 -6 -16 -12l-4 4h-8l-28 -8l-4 4v4q8 0 16 24l-4 20h-16l-8 -8v-4l4 -20l-4 4h-4 v-4q9 -2 24 -32q0 -56 -40 -56q-193 -104 -276 -332l-19 -104q7 0 11 -24q-8 0 -11 -24h-4l4 -40v-20l11 8h4v-24q0 -8 36 -8l12 -16l-4 -24l4 -12q-14 -12 -48 -12l4 -20q133 60 280 60h16q148 -6 148 -28l12 4q119 -18 352 -236l60 -60q176 179 176 408v36q0 105 -56 228 q-9 0 -20 36h4q8 0 8 12q12 0 12 8h-12v4l8 8v-4l12 4v4q-28 0 -28 16l32 36l4 4v4l-44 -24v4l-12 -4l-24 8l-8 -8q-6 19 -40 56l-4 -4l-16 20l-4 -4q0 14 -32 44l12 12h-4l-16 -4l-4 4v12h12l-4 20h12l4 -4h4l-4 -12v-8h4l36 76h4q300 -205 300 -596q0 -277 -208 -476 q65 -52 200 -52h16l8 -8v-100q0 -12 -64 -12q-124 0 -268 88q-168 -100 -332 -100h-48q-326 0 -535 308l-24 -16h-8q-9 0 -12 20l4 4q-16 0 -16 24l20 28q-72 146 -72 332q12 164 32 164l-4 20h4l4 -4h4l8 12v4q-12 0 -12 8q34 122 179 280h8q8 0 8 -12l4 -4h4v8l-8 12v4 q93 88 192 124l4 -4v-4q-20 0 -20 -36l12 -4l4 4h4l12 -4v4l8 24q0 8 -16 8v8q0 20 152 44zM441 1324v-16h8q0 12 16 32l-8 8q-16 -4 -16 -24zM509 1336h8v8zM373 1292v-4h8v4h-8zM717 1268v-8h4v8h-4zM489 1268h4l8 -8v-4h-4l-8 8v4zM697 1260v-8h4v8h-4zM877 1264h8v-8 l-8 -8h-4v4zM837 1248h8v8zM749 1252v-8h4v8h-4zM505 1248l8 -8l-8 -8v16zM845 1232h8v-16h-8v16zM821 1220v-4l-4 -24l4 -16h-24q12 44 24 44zM917 1148l-4 -16v-8h4l4 20v4h-4zM1013 1048v-8h4v8h-4zM1049 1036l8 -8l4 4v8zM1049 1024v-4h8v4h-8zM1033 1000h8v8zM-18 932 v-8h12l7 8h-19zM-74 908v-4h8v4h-8zM1053 888v-4h8v4h-8zM-86 884l8 -8v8h-8zM1065 880v-8l16 -4l4 4v4l-8 8zM-98 872l12 -12h4v12h-16zM-154 788l4 -4v-8h-4l-8 8l4 4h4zM1181 720v-8h4v8h-4zM41 688h4l16 -16v-4l-8 -8h-8zM1097 668v-4h8v4h-8zM81 596h8v-4h-8v4z M-202 576h4q36 0 36 -28l-12 -8h-24l-16 16v8zM1069 564v-4l16 -12v4zM365 556v-4h8v4h-8zM-269 528h4l12 -12l-8 -8h-8l-8 8v4zM-217 500l16 -12v-12l-12 -12h-8l-12 12v8zM61 408q179 -288 472 -288q99 0 244 64q-204 213 -304 244q-97 36 -192 36q-88 0 -220 -56z M-149 456l4 -4l-12 -16l-8 8zM-78 264h12v-4l-12 -12h-12v4zM-122 212q24 -2 24 -12l-12 -12h-8l-12 12v4zM-157 184h8v-4h-8v4z" />
<glyph unicode="R" horiz-adv-x="835" d="M8 1312h308q312 0 396 -116q124 -123 124 -280v-48q0 -181 -168 -308q-80 -48 -144 -48l312 -508l-4 -4h-144q-38 49 -388 624v8h64q257 0 312 156q14 16 24 104q0 195 -180 272q-67 16 -164 16h-224v-640q0 -8 -16 -8v-8h4l4 4h4l4 -4v-516l-8 -8h-116l-8 8v60 q0 9 20 12l4 -12h4v4l-4 12l8 8l-16 16h-4l-4 -4h-4l-4 4v84h4l68 -68h4v4l-76 84v108l4 20l-4 4q22 8 24 20l-24 8l12 36q-12 0 -12 8v8l48 32v8h-20l12 12h4l12 -8q8 0 8 16q12 0 12 8h-12v8l24 4v4q-28 0 -28 12v8q12 0 12 12l4 4h4v-8h4v4l-4 12h4l8 8v8l-44 -24h-4 l-32 8l-8 -8l-4 4v124l4 16l-4 16v8l4 4l-4 4v4l8 48h-8v76l4 4l-4 4v36l4 16l-4 16v4l4 4l-4 4v368zM96 1192l-24 -52v-4h4l24 52v4h-4zM48 1064h8l4 20q-9 0 -12 -20zM56 1024q9 0 12 20q-9 0 -12 -20zM12 956v-8h4v8h-4zM28 900h8v8zM116 520v-4h8v4h-8zM100 500v-4h8v4 h-8zM52 408l8 -8h4v8h-12zM76 408l8 -8l4 4v4h-12zM28 404v-4h12v4h-12zM52 388v-12l8 8v4h-8zM120 384v-4h8v4h-8zM16 264q0 -11 20 -20v4l-12 16h-8zM108 208v-12l8 8l-4 4h-4zM104 116v-4l8 -8v12h-8zM36 44l8 -8v8h-8z" />
<glyph unicode="S" horiz-adv-x="745" d="M389 1360q231 0 308 -228q12 -37 20 -116l-4 -4h-112l-32 108q-67 108 -132 108q0 -12 -8 -12h-16v16h-48q-127 0 -188 -148l-12 -76q0 -31 28 -108l-44 -20l-32 8l-12 -4q-29 52 -36 52q-10 0 -20 12l-4 -4q-8 16 -8 44v40l36 92v4h-4q-16 -48 -24 -48l-4 4 q26 84 44 100l-4 4v4q100 172 308 172zM57 1268h4l8 -8l-8 -8h-4l-8 8zM133 1244v-8h4v8h-4zM685 1248h4l12 -12v-4l-8 -8h-8l-12 12zM397 1220h8l8 -8v-20l-20 -4l-8 24zM-87 1184q12 -14 12 -28v-8l-8 -8h-16l-4 4h-4q0 -12 -8 -12h-4l-8 8v4q0 8 16 8q0 16 24 32z M77 1136v-4h4l12 32q-6 0 -16 -28zM-155 1116h4l8 -8l-8 -8h-4l-8 8zM105 1108l-4 -20v-4h4l4 16v8h-4zM-179 1088l4 -4v-4l-4 -4h-4l-4 4v4l4 4h4zM253 1040h28l4 -4l4 4h8l4 -20l-4 -4l4 -4l-24 -16h-16q-6 0 -16 28q8 0 8 16zM101 1024v-8h4v8h-4zM341 1016q18 -5 28 -24 v-4q-5 -36 -36 -36q-28 14 -28 20v12q0 32 36 32zM89 984l-8 -28v-4h4l8 28v4h-4zM665 968q6 0 12 -16q0 -11 -28 -24h-12l-8 8l8 8q8 0 8 20l4 4h16zM53 920h8v-8h-8v8zM61 908l4 -4v-4l-4 -4v-4q32 -16 32 -40l-12 -20l4 -4q-16 -2 -16 -12l-4 4l-20 -8q-36 16 -36 48 q8 28 48 44zM193 900h4l24 -28l-4 -4v-4l4 -4h4l12 4q29 -36 300 -124q3 -8 40 -20q0 10 16 12l16 -12l-8 -12q103 -72 132 -172q12 -65 12 -116q0 -298 -244 -400q-61 -20 -120 -20h-36q-218 0 -316 236q-28 76 -28 160l4 4h116q8 0 16 -84q58 -180 228 -180h16 q162 0 224 176l8 84v8q0 189 -340 284l-12 4q-8 7 -8 20l-24 -4q-77 39 -100 68l24 20l-20 4v4q0 8 12 8l20 -4l8 20q-12 4 -12 24v4q17 29 32 36v8zM637 872l12 -12l-12 -12h-4q-9 0 -12 20l4 4h12zM217 856v-4h8v4h-8zM201 832h8v8zM625 828l8 -8v-24q0 -7 -20 -12l-12 28 q12 0 12 12l4 4h8zM365 752l-4 -12h12l-4 12h-4zM181 744v-4h12v4h-12zM381 716v-4l28 -4h12l8 8l-28 4z" />
<glyph unicode="T" horiz-adv-x="644" d="M202 1312h222l4 -4l4 4h104q16 -17 32 -20q0 -24 32 -24l4 -12h8v12q9 40 36 40l4 -4v-76q-2 -12 -28 -12v-24l-8 -8h-16v12l12 -8l4 12q-4 16 -16 16l-16 -4l-40 16l-8 -8l-40 8q-4 -16 -16 -16v-8l8 -12q-2 -12 -32 -12h-12l-12 8l-44 -12l-4 -4l-8 8v4q12 0 12 20h4 q-3 24 -24 24l-8 -16l8 -20l-4 4h-4v-4q7 -1 24 -32q-3 -32 -8 -32l4 -4v-16l-12 -60q0 -12 20 -12l4 -20v-60l-4 -4v-4l-20 8q-28 -5 -28 -28v-8l52 -68v-176q-4 -11 -96 -52v-8l44 8l4 -4l12 12h12q0 -26 -68 -76q-30 -11 -32 -20h20q96 84 96 100h8v-32l-4 -12l4 -20 v-564l-8 -8h-112l-8 8v488q0 8 28 8l-4 12h-4l-12 -8l-8 8v664l-12 4l-4 -4h-46v132zM202 1180h-106l-32 40h-4l20 -36l-4 -4h-68l-8 8v116l8 8h40l4 -4h4l-16 -36q8 0 20 36l4 4h138v-132zM488 1236l4 -4h4q0 10 16 28v4l-8 8q-16 -5 -16 -36zM368 1264v-8h4v8h-4z M328 1252v-8h4v8h-4zM316 1200v-8h4l20 4l4 -4q12 17 12 32h-4q-16 0 -16 12q-20 0 -20 -36zM420 1216v-4h12v4h-12zM10 1212l-8 -20h8l4 16v4h-4zM648 1204h4v-16l-8 -8h-8v12zM444 1196v-4h8v4h-8zM540 1192l8 -8h-8v8zM592 1188h4v-8h-4v8zM292 956v-4q20 0 32 20v12 q-23 -13 -32 -28zM324 560v-4h8l12 4v4h-4zM360 536v-4h4l12 4v8h-8zM332 540v-4h8v4h-8zM-170 1312h138l4 -4q12 -36 20 -36l-16 36h4l4 4h40l8 -8v-116l-8 -8h-68l-4 4l20 36h-4l-32 -40h-106v132zM8 1212v-4l4 -16h8l-8 20h-4z" />
<glyph unicode="U" horiz-adv-x="884" d="M7 1320v-4l4 4h108l8 -8v-168h-4q-16 0 -16 24h-4q0 -9 -16 -24l-4 -24l4 -4h28l4 16h8v-4l-4 -4l4 -4v-240q0 -6 -16 -12v-8h-4q5 -29 20 -44v-232l-64 -44l20 4h8l4 -4h4q0 8 24 12l4 -4v-12q-30 -50 -88 -68v-12h4q17 0 80 64h4q0 -233 52 -284h4l28 4q16 -40 36 -40 v8l16 -20h-4l-4 4h-4v-12q16 0 28 -44q69 -32 136 -32h8q188 0 248 176q36 109 36 212l4 12l-4 12l4 4v4l-4 16v8h4q17 -12 32 -12v8l-8 12v4q9 0 100 -96q0 -484 -416 -484h-16v-8h-4v8h-28l16 -24v-4l-24 -4l-12 24q0 8 12 8v4q-164 0 -272 136h-8v-8h-4l4 -4v-8l-8 -8 q-12 3 -12 32l16 4v4q-80 124 -80 336v800h8v4l-8 12l4 16l-4 16l4 4h4zM715 1320l4 -4l4 4h104l8 -8v-396q0 -6 -36 -20h-4l-32 8l-8 -8l-32 56h-4l-4 -4h-4l-4 4v136l8 36h-8v20q0 18 24 48v4l-8 8l-8 -28h-8v8h4l-4 40v88zM747 1252v-4h4l4 16q-8 0 -8 -12zM779 1252h8v8 zM739 1184l-24 -52v-4h4l24 52v4h-4zM751 1116l-4 -16h8v16h-4zM731 980v-8h4l8 28q-9 0 -12 -20zM59 884v-8q36 4 36 28h-8zM831 900l4 -28v-4l-8 -8h-4l-12 12v8q10 0 12 16l4 4h4zM819 856l16 -4v-84l-8 -12l8 -8v-272h-8q0 10 -40 48l-68 68q-12 10 -12 24h4l-4 4v24 q14 0 24 12h16v4q-32 0 -32 20l32 12v4q0 7 -28 12v8h24q8 0 8 -16q22 0 24 20h-48l-8 8q22 4 36 20h4v4q-28 0 -28 8l4 4h4l4 -4h8v4h-8q1 15 56 40v12h-20l12 12l24 -4q0 10 12 20h-12v4l4 4v4zM755 760v-4h8v4h-8zM803 760l8 -8h4v8h-12zM779 756v-4h12v4h-12zM803 740 v-8h8v8h-8zM767 616l12 -16h8q-6 16 -12 16h-8zM95 484v-4h12v4h-12zM99 464v-8h8v8h-8zM743 436v-8l8 -8l12 12h4q8 0 8 -12h4v4l-4 12l8 8l-16 16h-8zM47 436v-8l8 8h-8zM787 396l8 -8v8h-8zM-265 302h12v-8h-12v8zM-265 282q16 -6 16 -12v-8h-4q-29 0 -32 12v4h8l4 -4h4 l4 4v4zM71 84h8q9 0 12 -20l-12 -8h-8l-8 8v12zM403 -42h4v-4l-8 -16h-8v8z" />
<glyph unicode="V" horiz-adv-x="734" d="M9 1312h112q12 -4 12 -24v-240l-4 -20q-7 0 -28 36v12q0 8 12 8q-9 28 -20 28l-4 -12h-4q-11 0 -52 104q-21 44 -32 44v56zM941 1312h140l4 -4h4l-232 -336h-4q0 24 -56 28q0 -10 -40 -20h-8l-4 4l-4 -4h-20l-8 8q61 88 72 88l24 -4l8 12v28h-8v8q20 0 20 24h4q8 0 8 -12 l4 -4h12q2 16 12 16h28v4l-24 24v4h-4l-32 -12v4l36 48h4q8 0 8 -24q14 -20 24 -20l12 24h-12q0 16 -16 16l-4 4l-12 4v4q48 80 64 88zM909 1244l-8 -8l8 -8l4 4h4l20 -4v16h-28zM1 1240h8v-20l-4 -4v-4l8 -8l-4 -4v-4q8 0 12 -24h-8l-12 12v56zM929 1208l20 -24h12v8 q0 8 -32 16zM9 1168q48 -36 48 -60v-4h-8q0 12 -8 12l-44 -12v-8l40 4q18 -40 24 -40l-4 20v8l12 12q12 -21 12 -40v-4q0 -8 -16 -8l-4 -4v-4l4 -20q0 -41 -36 -68q24 -34 24 -72h4l16 12l-4 4v8h8q36 -11 36 -36l-20 -44h4l12 4q42 0 48 -100l-8 -8l4 -4v-4 q-22 -40 -76 -40q0 10 -32 16l-16 -40v-4l12 -4l8 8l4 -4v-4l-12 -8l-16 8q-16 -6 -16 -12q0 -8 16 -8v-8l-20 -20h-4v120q0 8 36 16v20q20 64 36 64v4q-16 0 -40 24l-20 -16h-4l-8 8v4l24 24l4 -4h8v4q-15 0 -36 44v168l-16 -8q-7 0 -24 20q0 14 40 28v48zM829 1160h8v-8 h-8v8zM905 1100v-12l8 8l-4 4h-4zM785 1052v-4h8v4h-8zM813 1040l8 -8v8h-8zM825 1032l8 -8l4 4h4l-4 12h-4zM765 1036v-4h8v4h-8zM761 1016v-8l20 -8h4l8 8v4l-8 8h-4zM25 984v-8h4v8h-4zM-15 976h4l8 -8l-8 -8h-4l-8 8zM-59 972l8 -8v-8h-8l-8 8zM113 964l8 -8l-8 -8l-8 8 zM561 960h4v-8h-4v8zM561 952q0 -12 16 -12v-8l-8 -16h-20l-12 12v4q8 14 24 20zM677 924q20 -21 20 -32l-4 -4h4l12 8l44 -12l56 20v-4q-171 -255 -192 -272l-44 20h-4v-4l24 -8l-4 -4v-4q-32 2 -32 16h-4v-12l-40 12v-8l-28 4v12l24 4l16 -4v16q-20 3 -20 12l4 4h12l12 -4 v4q0 11 20 20l32 -8v4l-4 12h12l4 4l4 -4v-4h8v12h-8l-28 4l8 -12h-8l-4 -4l-8 8v4l8 8h-16l4 -4v-8q-20 0 -20 8q82 128 92 128q0 19 48 72zM29 896l4 -4h4v12zM161 896h8l8 -8v-8l-8 -8h-8l-12 12zM209 892q36 -10 56 -32q0 -8 -12 -8l-4 4h-4l-16 -4q-35 11 -36 20v8z M681 880l4 -12h8v4l-8 8h-4zM125 880h8l12 -12v-4l-12 -12l-16 12v8zM29 852l8 -8v8h-8zM281 836h8l12 -12v-8l-12 -12h-8l-12 12v8zM345 824v-4l12 4q40 -7 40 -36l-4 -4l8 -8q-19 -36 -44 -44l-4 4h-4l-16 -4q-19 17 -28 40v4l4 4v4l-4 4q23 30 40 36zM973 780l24 -20 l-8 -20l4 -4l-4 -4l-4 4h-4l-4 -4h-4q-20 7 -20 20q0 19 20 28zM1 760h4l12 -4v-4l-12 -12l-4 4v16zM585 732l8 -8v8h-8zM33 708l-12 -16v-4h4l20 4v4zM525 700l4 -4v-4l-4 -4h-4l-4 4v4l4 4h4zM757 656h4l8 -8v-4l-8 -8h-4l-8 8v4zM481 640l112 -48v-8q-12 -24 -28 -24 l4 -4v-4l-168 -248v-4l4 -12h-4l-4 4h-4l-4 -4v-4l4 -4l-4 -4l4 -4h-8v8h-4l-4 -16h4q-3 -21 -24 -36v-16h-8v4l4 4v4l-4 4h-4q-21 -41 -156 -228h-180l-8 8v520l64 68q0 20 8 20h16v-8h-8v-8h4l20 4l8 -12l-4 -4q12 0 12 -24h4v24h8v-196h-8v-8h8l4 -80v-164l204 292l4 -4 h4q0 27 16 44l20 -8h4v4q-16 0 -16 20l64 88l24 -8h4v4l-24 4v8zM561 620q40 -13 40 -20v-4q-44 10 -44 20zM21 576h4v-4l-16 -20h-8v4zM877 572h4l8 -8l-12 -12l-8 8v4zM841 564h8l20 -20l-12 -12h-4l-20 20v4zM601 552v-12h-8l-8 8l4 4h12zM65 532v-8h12l-8 8h-4zM613 532 l8 -8l-8 -8l-8 8zM789 504h4l8 -8q0 -12 -16 -12l8 -20q-8 0 -8 -12h-28q-7 0 -12 24q0 13 32 16l4 -4q0 16 8 16zM649 500h4l8 -8l-12 -12l-8 8v4zM717 480h12l12 -12v-8l-12 -12h-12l-12 16zM17 452v-8h8v8h-8zM-107 452l4 -4l4 4l12 -16l-8 -24l-4 4h-4l-8 -8l-16 20 q0 24 20 24zM25 308v-4h8v4h-8z" />
<glyph unicode="W" horiz-adv-x="1551" d="M78 1464h20v-4l-8 -8l-4 4l-8 -8v16zM78 1448v-8h-8zM-30 1440l4 -4v-8h-4l-8 8l4 4h4zM22 1436h8l-8 -8v8zM122 1392h8l4 -20q-8 0 -8 -12h-8l-4 12zM-6 1372l8 -8h-8v8zM166 1340h4l16 -16v-4l-8 -8h-8zM126 1312q11 0 24 -48q36 0 36 -16l-4 -24l4 -12l-16 -12 l284 -952h4l268 1064h40v-8q0 -15 -16 -32l4 -28l-4 -4q17 0 52 -104v-24q-27 -28 -52 -28l52 -24l4 -4v-4l-12 -16h-4l-4 24h-4q0 -32 -32 -32q0 -6 -56 -16v-8l12 -4l32 8l12 -4l12 4l4 -12q-43 -192 -52 -192l-12 8h-4l-8 -8l12 -16q0 -8 -12 -8v-4h4l12 4l4 -4v-4 q-21 -116 -44 -116v-4h4l8 8h4l-164 -660h-100q-13 0 -84 252l-224 716q-29 -10 -44 -24h-8q-9 0 -12 20l4 4q-16 0 -16 24q1 9 28 32h28l-84 284l4 4h116zM786 1312h52q8 0 24 -80q0 -20 -24 -20l-4 -12q0 -20 16 -28l8 -60l-16 -8q-23 0 -48 84q-11 0 -28 56l4 16l-12 4 q0 12 16 12l-4 4v8q0 8 16 8v16zM1438 1312h108l8 -8l-8 -8l4 -16q-15 -54 -24 -56l-24 16h-8q-8 0 -8 -20l-4 -4h-4l-4 4h-4l-12 -44q34 0 44 -52l-4 -4l-4 4h-8v-4l8 -16l-72 -228l-36 12h-4v-4q12 0 12 -8h-12l-4 4l-4 -4h-4l-12 4l4 4v4l-20 8v8h4l12 -4l-20 32v4 q8 16 20 16l24 -8h8v4q-12 0 -32 16h-24l4 -4v-8h-8l-8 8q9 44 32 44v4l-16 4q28 76 40 136h8l16 -16v-4l-8 -12q36 0 36 -20h8v4q-28 22 -28 52q0 12 -8 12h-4l-4 -4h-4l-4 4v4l24 16l-8 16l20 40l-12 8q11 40 20 40h4l24 -16l4 4v8q0 8 -36 16v4zM206 1248h8v-4h-8v4z M826 1228l8 -8v8h-8zM-78 1228h4q36 0 36 -28l-12 -8h-24l-16 16v8zM702 1172v-8h8zM830 1104l8 -8h-4l4 -4v-4l-24 -20h-4l-24 8v8q24 0 44 20zM1374 1076v-4l16 -4q0 8 -12 8h-4zM1414 1068v-4h8v4h-8zM1378 1020v-4h8v4h-8zM806 1012q0 -8 16 -8v-4l-12 -12l-12 12v4z M1358 972v-4q20 0 20 -8v-4l4 4h4l24 -4l12 4v4h-8l-20 -4l4 4v4l-4 4l4 4zM834 972l8 -8v-4l-20 -28h8l16 8l4 -4v-4l-16 -44h4l16 4v-4l-8 -8h-8q-16 0 -28 80zM1326 948l8 -8l-8 -8l-8 8zM1314 928h8l12 -12l-4 -4l-16 4v12zM46 916h12v-4l-12 -12h-12v4zM1362 900l8 -8 h4l-8 8h-4zM718 888v-4h12l4 12h-8zM1318 900q36 -11 36 -20l-36 8l-8 -8l-8 12zM1302 880l108 -52l-260 -828h-100q-11 0 -172 684q-32 106 -32 140q19 8 28 36l16 4l4 -4v-4h-8v-12l4 4h24l8 -32h4q1 24 24 24v-4q23 -34 48 -164h-12v-12l4 -4v-4l4 4h4q8 0 32 -108h-8v-8 q16 0 80 -296h4q184 619 196 636zM2 864q24 -3 24 -12l-12 -12h-8l-12 12v4zM1362 864h4q20 0 48 -24l-4 -4q-48 17 -48 24v4zM1370 808v-8l16 -4h8v4zM866 768h8l12 12v8q-11 0 -20 -20zM658 764v-4h8v4h-8zM998 524v-8h4v8h-4zM994 512v-36h8v24l4 4v4l-4 4h-8z" />
<glyph unicode="X" horiz-adv-x="1049" d="M963 -7l-187 246v8l4 4l-4 4v4q0 23 16 44l-12 12l12 40h-4l-16 16l-20 -8l-12 28h-4l-4 -16l8 -8q0 -9 -20 -12v32q0 8 12 8v4q-12 0 -12 8l16 16l12 -8h4v4l-12 12l4 20l-8 24l-20 -8l-16 8l-28 -4l-64 12l-12 -8l-76 88h-4l4 -16q-17 -40 -48 -40q-70 -54 -84 -92 q-17 0 -76 -80h-4q-10 3 -32 40v12l8 12l-4 20l172 244l-176 260q16 6 16 12q-48 19 -48 40h4l16 -4l4 4v8h-8q-41 0 -72 72q-141 192 -176 260h156l364 -540q334 514 360 540h152v-4l-440 -648q132 -164 152 -200q11 0 24 -28l-4 -4v-8h4v8h4l100 -128v-4l-16 8 q-11 0 -16 -24q-24 -2 -24 -36h-8v-4h8v-4l4 4h4q36 -21 36 -40l12 4l48 -12l24 8h4l164 -210h-161zM204 1167v-8l8 8h-8zM344 939l-4 -12l4 -12h16l4 16l-12 8h-8zM368 911l4 -12h8q6 0 12 16h-4zM348 887h12v12zM368 887v-4h8v4h-8zM388 879l8 -8v8h-8zM412 823v-20h16v4 q-8 0 -8 12l-4 4h-4zM544 515v-4l-8 -8l-8 8l4 4h12zM144 499h12v-8h-12v8zM504 455q4 -16 16 -16v-8h-8l-16 16zM572 451h4l12 -8h4l28 4q11 -40 36 -40l4 4l8 -12v-4l-4 4h-4l-4 -12l8 -20l-8 -8v-12h12q0 12 8 12q0 -26 36 -64h16l4 4h4v-8l-16 -20l8 -12l-24 -16h-4 l-4 4l-4 -4h-4q-29 0 -36 20q-16 0 -16 12l4 44l-4 4h-4l-4 -4l-4 4v4l4 16q-8 0 -8 12h-12l-12 -8h-12l-40 36l4 4h8l4 -4l12 4q-2 12 -20 28v8zM796 363v-8q12 0 28 -16h8l4 12q-15 12 -28 12h-12zM476 363h12v-4l-8 -8l-4 4v8zM228 343h8l4 -16q-14 -60 -36 -60l20 -40 l4 -44l-4 -12h-4q-33 0 -48 64h16v4q-20 0 -20 12q22 36 32 40l4 -4v4l-4 12q9 0 28 40zM604 343l8 -8v-4l-12 -12h-4v16zM476 315h8l8 -8l-8 -8l-8 8v8zM744 311h8l-8 -8v8zM160 235h4v-20l12 -28q-18 -36 -56 -36l52 -24l4 -4v-8q0 -16 -112 -36v-8l12 -4l28 8l16 -4l56 8 q0 -8 16 -8v-8l-16 -12l-4 -4v-4l4 -16l-24 -24h-144l-4 4h-4q148 220 160 228zM204 207h8v8zM772 215l8 -8l-4 -12l-12 16l4 4h4zM856 191v-4l8 -8h4v4l-8 8h-4zM200 171l8 -8h-4l4 -4v-4l-24 -20h-4l-24 8v8q26 0 44 20z" />
<glyph unicode="Y" horiz-adv-x="764" d="M-50 1312q14 -14 172 -348q35 -61 44 -92q8 0 32 -60q-12 0 -12 -16l-4 -4h-4v4q-36 -6 -36 -24l12 -12l-12 -4l-36 20l4 12q0 12 -20 12v4l-16 -8q4 -16 20 -16v-12h-4q-20 0 -172 324l40 24v8h-4l-40 -24q-8 3 -108 208l4 4h140zM630 1312h136l-416 -836v-356l-4 -4v-4 l-40 20h-4v-4q48 -18 48 -28v-92l-8 -8h-112l-8 8v116l4 4l-4 4v344l-40 96q14 0 20 44v12q0 9 -48 16h-12q0 19 -20 36l-12 32l28 8l20 -4l8 16v24h-8v8q12 0 28 20q8 0 8 -12h8l12 8q70 -143 76 -144q328 676 340 676zM102 972q0 -12 -12 -12l-4 -4v-8l20 20v4h-4z M102 732l12 -4l-8 -8l-8 8zM166 688v-4q2 -8 20 -16l4 4v4q0 7 -24 12zM230 156q0 -9 20 -12q0 9 -20 12z" />
<glyph unicode="Z" horiz-adv-x="779" d="M44 1312h364l4 -20h8v20h56q68 -52 68 -64v-16h-8q0 16 -12 16q0 -8 -56 -24l-24 -44h-400l-8 8v116zM492 1312h12l8 -8l-4 -4h-8l-8 8v4zM540 1312h216l8 -8q-33 -22 -56 -56l4 -4v-4l-4 -4h-4l-4 4l-60 -68q0 -12 -16 -20h-8l-12 20l4 4v4q-16 0 -16 12v12l8 16 q0 11 -20 20v-16h-8l-40 80zM460 1280l8 -8v8h-8zM452 1264v-8h4v8h-4zM352 1252v-8h4v8h-4zM456 1248v-8h4v8h-4zM516 1228h4q12 0 24 -44l-4 -4h-60l-12 12v8q12 0 12 12q21 16 36 16zM548 1228h4q16 -6 16 -28v-12l-8 -8q-12 0 -16 36zM488 1204v-4h8v4h-8zM528 1044h8 l12 -44l-16 -12h-8l-16 16q20 26 20 40zM516 988l4 -4v-4l-4 -4l8 -8l-28 -16l-12 12zM480 948l8 -12v-8l-12 -12h-16v4q10 26 20 28zM488 896q0 -8 20 -8v-4q-8 -16 -20 -16v-20h16l12 8h4l8 -8v-4l-20 -28h12l12 8l4 -4v-4l-20 -40l4 -4q-24 -9 -24 -16l8 -8v-8l-352 -608 h616l8 -8v-116l-8 -8h-760l-8 8v120l444 764zM436 812v-4h8v4h-8zM404 772v-4h4l12 12h-8zM436 760v-8h4v8h-4zM444 736v-8h8l16 4l16 -4l4 4v8l-8 8h-12q-24 -2 -24 -12zM376 688l8 -12v-12h-8v-4h4l12 4l8 -8l16 16q0 11 -28 24h-4zM352 544v-8l20 20h-4l-12 -12h-4z M88 232v-8h8zM120 124v-4l24 -8h4v4l-24 8h-4zM88 112v-4h12v4h-12zM196 100v-4l44 -20h4v4l-44 20h-4z" />
<glyph unicode="[" horiz-adv-x="352" d="M8 1478h284l8 -8v-92l-8 -8h-20l-4 4l-4 -4h-20l-28 4l-36 -4h-52v-228l-4 -16l4 -16v-4h-8v8h-4l-4 -4h-4l-36 8q-31 -3 -68 -40h-4v316l8 24l-8 8v44zM96 1398v-4h8v4h-8zM60 1382v-4h8v4h-8zM92 1374v-4h8v4h-8zM92 1046q24 0 24 -16l4 4h4l4 -4v-1119h164l8 -8v-96 l-8 -8h-284l-8 8v1079q0 22 28 32l4 -4q0 8 12 8v8l-8 8v-4l-4 4h-4q-10 0 -12 -16h-4l-12 12v96l8 8q13 -8 40 -8l-4 -4v-12h16q8 0 8 20q11 0 24 12zM56 1038l8 -8l-4 -4l-12 4zM8 1010v-4l8 -8h12l-12 12h-8zM60 1006v-4h8v4h-8zM76 994q0 -20 -28 -24l-16 4l-8 -16 l4 -16h20l24 -12v-4l-4 -4l4 -12h24v4l-12 16h4l4 -4h4l-8 20h4q0 16 -20 16v12l12 16v4h-8zM112 946v-4h8v4h-8zM20 850v-4h8v4h-8zM80 790l-4 -4v-4h4l4 4v4h-4zM48 778l-4 -4v-4h4l4 4v4h-4z" />
<glyph unicode="\" horiz-adv-x="569" d="M0 1480h100q18 -13 72 -228q16 -30 64 -204l-8 -16l4 -4v-12h-8v-4q12 0 12 -12l4 4h4l8 -8l-4 -4l4 -16q0 -28 -8 -28l4 -4v-16l-12 -68l24 -8l8 8h4v-8l-4 -4v-4l12 -4l8 8h4v-4q0 -19 -20 -60l4 -20l-48 8l-12 -4q-20 41 -124 400h12q-24 24 -24 40h8v4q-17 0 -88 268 zM160 1248v-8h8zM96 1200v-4h8v4h-8zM196 1052q-12 -15 -12 -36v-4h24q16 7 16 28v4zM236 700q34 -39 72 -60q0 -15 76 -72v-4q-4 -10 -40 -32h-8l-12 12l-24 -8v-16h8v-4l-12 -12q-9 0 -60 192v4zM348 512h4l8 -8q-5 -16 -36 -16h-8l-8 8q17 16 40 16zM392 496q20 0 40 -96 l-24 -8l-16 8v-16h-4l-16 16q-16 0 -16 12q-20 0 -20 8q-28 11 -28 48q38 22 84 28zM324 400h4q52 -12 52 -24l32 8l4 -4l12 12h4q10 0 120 -392h-100q-15 5 -72 220zM364 324h8v8zM380 312v-8h4v8h-4z" />
<glyph unicode="]" horiz-adv-x="345" d="M8 1478h284l8 -8v-1664l-8 -8h-284l-8 8v96l8 8h160v1460h-160l-8 8v92z" />
<glyph unicode="^" horiz-adv-x="1064" d="M476 1200h120l248 -256l4 -16h-4q5 -20 12 -20l20 4l200 -212l-4 -4h-124l-376 376v4q40 0 40 32v4q-7 15 -32 28q-32 -15 -32 -40h-4l-4 4h-4l-412 -408h-124v4q1 10 252 264h4q0 -14 24 -28l4 4l4 -4v-4q23 3 44 28h8l-12 24l4 4v4h-8q0 10 -24 28zM496 1160 q0 -16 -16 -16v-4q16 0 20 -24l4 4h4l16 -4l24 28q-8 0 -8 12l-40 4h-4zM400 1024v-4l8 -8l4 4v8h-12zM820 840l4 -12h12l12 12l-12 12h-4zM936 740v-8h8v8h-8z" />
<glyph unicode="_" horiz-adv-x="974" d="M8 92h680q18 -22 32 -24q21 6 40 24h152l8 -8v-76l-8 -8h-444l-32 16l-24 -12l-4 4h-4l-8 -8h-388l-8 8v76zM548 24l-4 -4v-4l8 -8h4v8z" />
<glyph unicode="`" horiz-adv-x="285" d="M24 1603h80q13 0 88 -144v-8l-4 4h-8l-4 -12l4 -4h4q8 0 8 12q13 0 104 -160l-4 -4h-76q-216 267 -216 288q24 12 24 28zM56 1595q-32 -20 -32 -28v-8q0 -20 20 -28h12q32 0 32 32v4q-7 15 -32 28zM168 1383v-4l4 -16h8l4 4h4q-4 16 -20 16z" />
<glyph unicode="a" horiz-adv-x="1064" d="M512 1010h8q223 0 364 -172v144l8 8h112l8 -8v-360l4 -24l-4 -20v-24q18 0 28 -20v-8l-28 -4v-516l-8 -8h-112l-8 8v140q-149 -176 -376 -176q-322 0 -472 316q-36 90 -36 208q0 92 32 188h8q26 -80 84 -80h4q13 0 20 52v4l-12 24l16 8l4 -4l-8 -20l4 -4h8l4 4h4v-4 q-36 -103 -36 -180q0 -247 248 -368q62 -20 128 -24q233 0 352 260q24 70 24 128v36q-11 140 -44 140q-8 0 -8 16l4 4q-25 0 -52 52h16v8q-12 0 -12 8h4l-12 24h-8l-12 -8h-8l-20 24q0 12 12 12v4q-55 53 -132 80l-68 96h-4v-4l56 -84l-4 -4l-72 8h-8q-60 0 -136 -24l-8 12 l-36 -8l-16 16q-16 -4 -16 -24l4 -12l-4 -4l24 -4q-83 -65 -128 -128q-16 -19 -16 -36l-4 -4h-4q-5 20 -12 20h-20q0 16 -12 28v4l16 36q0 11 -24 16q0 17 -20 24l32 40l12 -4l4 12l44 -12v4l16 16l-8 20q27 11 44 32l16 -16l-8 -12v-4q12 0 12 12l24 -4l24 8l-8 16l8 24 l-4 36q95 40 204 40zM208 910h16l8 -8l-8 -8h-4l-4 4h-4l-8 -8l-8 8zM320 878l16 -16v-12l-8 -8h-4l4 16zM376 846l8 -8l4 4v4l16 -12v-8h-20l-4 4l-20 -8v20zM192 834q0 -10 -16 -28v-8h12q12 3 12 32v4h-8zM716 702h16l8 -8l-12 -12h-4l-8 8v12zM724 658h8l12 -12v-8 q-4 -12 -24 -12l-8 24zM1056 522h4v-4l-8 -16h-8v8z" />
<glyph unicode="b" horiz-adv-x="1004" d="M2 1306h112l8 -8v-344l4 -16l-4 -16v-24l4 4h4q0 -25 24 -44q138 152 352 152h36q24 -2 24 -12l-20 -48q7 0 16 28h8q-24 -83 -36 -88h-4l-4 4h-4l24 48v4h-4q-21 -56 -32 -56h-16q-161 0 -272 -128v-4q12 0 12 -8l-4 -12q-8 0 -8 12l-4 4h-4q-92 -120 -92 -260v-16 q0 -230 236 -360q78 -28 132 -28q216 0 340 220q40 89 40 168v40q0 229 -248 352q-64 12 -64 20l8 8l4 -4l28 68v4h-4q0 -12 -8 -12h-4v4l4 4v4l-4 12h4l-4 4v4l8 8v-12h8l4 16h8v-4l-4 -4v-8h4q0 9 16 16l32 -12l-8 -28v-4h4q0 24 20 24v-12h-12l4 -4v-4l-4 -24l4 -12h4 q0 24 12 24l-4 20v12h4q105 -38 120 -72q21 0 64 -52q-9 -8 -28 -8l8 -20l-12 -40q15 -62 64 -96l16 -4l4 4h4l16 -4l12 40h8q48 -106 48 -220v-24q0 -329 -328 -480q-107 -32 -192 -32q-207 0 -364 172v-136l-8 -8h-112l-8 8v1040q-12 0 -12 8l12 4v240zM930 1234h4l8 -8 l-8 -8h-4l-8 8zM786 1150q12 -15 12 -28v-8l-8 -8h-16l-4 4h-4q0 -12 -8 -12h-4l-8 8v4q0 8 16 8q0 16 24 32zM718 1082h4l8 -8l-8 -8h-4l-8 8zM694 1054l4 -4v-4l-4 -4h-4l-4 4v4l4 4h4zM590 1002h4v-8h-4v8zM-42 998q4 -16 16 -16v-8h-8l-16 16zM598 978v-8l8 8h-8z M506 974v-16h4l4 16h-8zM566 926h4v-8h-4v8zM-70 906h12v-4l-8 -8l-4 4v8zM554 902v-12h-8v4zM1030 870h12v-4l-8 -8l-4 4v8zM818 846h4l12 12h-4zM922 862v-4l4 4h4q36 -21 36 -44l-12 -20l4 -4q-16 -2 -16 -12l-4 4l-20 -8q-36 16 -36 48q13 36 40 36zM-70 858h8l8 -8 l-8 -8l-8 8v8zM1050 830h12q11 0 16 -40l4 -4v-8q-8 -16 -20 -16q-11 0 -20 20l4 12q-12 4 -12 24z" />
<glyph unicode="c" horiz-adv-x="1011" d="M474 1048h56q123 0 236 -68l4 -4v-4l-88 -84q-34 0 -72 44h-4v-4l8 -12v-4l-92 12h-44q-39 0 -100 -20l-4 4v8l12 68l-12 8h-8l-12 -8l-4 4v4l4 12h-4l-20 -8l-4 4q0 38 148 48zM198 880h12v-8h-16l4 -4v-12l-8 8v8zM262 872l4 -4l4 4h16l12 -12l-4 -4h-8l-4 4h-4 l-12 -12l-4 4v4l4 4l-4 4v8zM118 856l4 -16q-8 -18 -16 -20h-12v8zM166 856l4 -4v-4l-20 -16h-4v8h-4l-4 -12q4 -16 16 -16l16 4l32 -16h12v8l20 -4v-4q-40 -51 -40 -60h-8q0 16 -20 16v4l-4 -4h-4q-8 0 -8 16h-4q-10 -52 -40 -52l-4 4l4 -20l-8 -44q9 -45 40 -76v-28 l-4 -32q0 -56 32 -56l16 -20l-4 -4h-4l-4 4v-4l4 -12h-4l4 -4v-4l-4 -4v-4l12 -8l4 4q18 -68 60 -68v-4l-16 -16l8 -8q-22 -24 -36 -24q121 -168 296 -168h28q230 0 340 260q20 70 20 128v40l-4 40l112 108q28 -61 28 -168q0 -310 -284 -480q-100 -52 -224 -52h-4 q-314 0 -472 320q-24 55 -40 172l-8 8v4l12 16l-4 4q23 288 132 288v4l-4 16l8 16l12 -4v4q0 7 20 8zM202 852l12 -12v-4l-12 12v4zM190 768v-8h4v8h-4zM82 732v-8h4l8 8h-12zM-18 420l12 -4l4 4l4 -4v-4l-12 -8l-4 4l-4 -4h-4l-8 8v4zM-10 372h4l8 -8v-4l-8 -8h-16l-8 8v8z M282 268q8 0 12 -24h-12q-21 0 -24 20l4 4h20z" />
<glyph unicode="d" horiz-adv-x="1064" d="M888 1306h112l8 -8v-636l4 -24l-4 -24l4 -40l-4 -40l4 -28l-4 -88v-412l-8 -8h-112l-8 8v136q-158 -172 -372 -172q-320 0 -476 324q-32 98 -32 172v56q0 238 220 404l24 16h4l4 -4h8v4h-8l20 16h24l16 -12q0 16 8 16l-4 4v4q0 9 20 12q21 -28 28 -28l4 16h4l8 -8v-8h-8 l-4 -12l4 -4v-8l-20 -20h-8l-4 4h-4q0 -24 -20 -36v-4h4q30 32 60 32l4 4v4l-4 16h4l-4 4v8h4q8 0 8 -12h4v8l-4 4l20 8l8 -8v-4l-4 -4q0 -8 -20 -8l-4 -4v-16l12 -4l20 4q28 -9 28 -16v-4q-69 0 -184 -84q-136 -127 -136 -296v-4q0 -285 272 -396l112 -16q214 0 344 252 q24 77 24 140v8l-4 60q-20 0 -20 12l4 44l-4 4h-4l-4 -4l-4 4v4l4 16q-8 0 -8 12h-12l-12 -8h-12l-40 36l4 4h8l4 -4l12 4q-2 12 -20 28v8l20 32l-44 40l4 4v4q-116 100 -236 100q-12 0 -12 8l16 12l-8 20l28 12v4h-8l-4 -4v12h-4q0 -12 -8 -12q-7 0 -12 20l4 4 q36 -2 36 -16h4q0 12 8 12l16 -16l-8 -12v-4h4l12 12l20 -4l24 8l-8 16l8 32h4q152 -39 228 -136q6 0 12 -16l4 -4h4v140h4q16 -15 52 -80h8v4l-64 96v300zM956 1270v-16l20 16h-20zM452 974l12 -4l4 4v-8l-12 -4l-12 4l-4 -4v4q0 8 12 8zM444 962h8v-16h-8v16zM296 950v-8 h4v8h-4zM292 938v-8h4v8h-4zM616 914l4 -12l-4 -4l4 -4h20l4 16l-8 20l16 -16v-20q16 0 16 -16h4l16 36v12h-12l-28 -4l-16 16q-16 -4 -16 -24zM456 938h4l8 -8l-4 -4h-4l-4 4v8zM284 926v-4h8v4h-8zM576 906v-4h8v4h-8zM464 902l24 -4v-8l-28 -4v4zM252 822v-8h4v8h-4z M368 786h12v-8h-12v8zM696 766l4 -4v-4l-12 -8l-4 4v8zM728 742q4 -16 16 -16v-8h-8l-16 16zM684 714h8l8 -8l-8 -8l-8 8v8zM72 658v-4h8v4h-8zM700 650h12v-4l-8 -8l-4 4v8zM828 630l8 -8v-4l-12 -12h-4v16zM700 602h8l8 -8l-8 -8l-8 8v8z" />
<glyph unicode="e" horiz-adv-x="1041" d="M508 1037q221 0 408 -192l-388 -388q-8 0 -8 12h-8v-8l4 -20l-80 -76h-12l-4 16h-8q0 -12 -8 -12q-22 20 -36 20v-4l4 -12h-4l-12 8v-4q35 -40 48 -40l-60 -68q16 -2 16 -12v-8l-12 -12h-8q-10 0 -12 16l-40 -36q0 -9 48 -40v-8l-20 4v-4l-8 -8l4 -4v-8h-12v-4 q20 -1 20 -12l-28 -32v-4q20 20 52 20l-8 16l4 4h4q7 -1 24 -36l4 -4q14 -24 28 -24v-8h12q8 0 12 32l-4 12h4q12 0 12 8v20h4l4 -4h4v8h-8l-4 -4q-20 8 -20 24q8 18 16 20h12q12 0 12 -24q12 0 12 16h8q0 -10 24 -20h12q8 0 8 12q20 0 20 -8l4 4h4q24 -5 24 -20h8l-4 4v4 l16 20q12 0 32 24l-4 4v8l16 4q-7 24 -32 40v12h4q8 -2 36 -44l16 12l8 -8h4v16h8v-4l-4 -4v-4l4 -4h4l16 4q0 -8 20 -8q0 -20 20 -20q0 -16 8 -16l16 4v-8q-20 -1 -20 -12l4 -4l-4 -4v-8q12 0 12 -8l-4 -4v-4l-4 4h-12q-20 -15 -20 -28h-4l-12 8l-8 -12v-8l8 -12v-8 q-8 -16 -20 -16l-20 16l-12 -4l-8 8l-12 -8l-8 8h-4q0 -12 -16 -24v-8l-24 8q-17 -1 -52 -40q0 -12 16 -12l4 -4v-8h-28l4 20q-12 0 -12 -12l-4 -4h-20l-8 8l-4 -4h-8v8l-12 -8q0 8 -12 8l4 4v8q-12 0 -12 -16q-8 0 -8 16h-4q0 -12 -8 -12l-20 4v-4l8 -12v-12l-12 -12 l-16 16l16 24q-217 76 -320 256q-68 122 -68 252q0 272 272 452q106 64 236 64zM124 529q0 -116 88 -232l72 76q0 7 -32 20v8l12 12l24 -8l20 8l4 -4l-4 -4v-8q9 8 28 8l-4 4v8l404 408q-133 80 -240 80h-8q-193 0 -332 -224q-32 -84 -32 -152zM992 721q52 -105 52 -232 q0 -217 -168 -360q-20 0 -20 -24l-48 -36h-8v12l-20 -4v4q0 13 16 36v12l-4 4v4l4 4l32 -8h4l12 12v4q0 18 -48 68l8 12l-8 8v12q0 32 36 32l16 -4q68 102 68 192v8l-12 4v8l12 20l-24 116zM1176 513h4l12 -12v-4l-8 -8h-8l-12 12zM888 485h8l8 -8v-20l-20 -4l-8 24z M424 453v-4l8 -8v4zM396 405v-16h12v16h-12zM336 401v-4l8 -8h4zM336 341v-4l8 -8h4v4l-8 8h-4zM472 333l8 -8l-8 -8l-8 8zM1160 333h8l8 -8v-4l-8 -8h-8l-8 8v4zM744 305h28l4 -4l4 4h8l4 -20l-4 -4l4 -4l-24 -16h-16q-6 0 -16 28q8 0 8 16zM540 265l4 -4v-4l-8 -8h-4v8z M-108 261l8 -8v-4l-8 -8l-8 8v4zM252 253l-4 -4v-4l12 -4l4 4v4zM120 245v-4l20 -4l12 4v4h-32zM1156 233q6 0 12 -16q0 -11 -28 -24h-12l-8 8l8 8q8 0 8 20l4 4h16zM164 225v-8l8 8h-8zM380 229l4 -4l4 4h4q12 0 24 -24q-5 -16 -20 -24h-8l-16 16v24zM320 213h4v-8h-4v8z M772 189h8v-8h-8v8zM8 177h4l8 -8l-12 -12l-8 8v4zM-24 169h4l16 -20v-4l-8 -8h-4l-16 16v8zM752 161h4v-8h-4v8zM264 125h12v8h-4zM948 137h8v-8h-8v8zM1128 137l12 -12l-12 -12h-4q-9 0 -12 20l4 4h12zM980 133l4 -4v-12l-12 -12h-8l-8 8v4q8 16 24 16zM-76 109l8 -8 l-12 -12h-4l-4 16l4 4h8zM396 105h8v-8h-8v8zM-100 97q24 -10 24 -28l-16 -12h-16l-12 12v16q0 7 20 12zM1116 93l8 -8v-24q0 -7 -20 -12l-12 28q12 0 12 12l4 4h8zM412 61v-4l16 -20l-4 -12h8v8h4l-12 24l4 4h-16zM372 53v-8h4v8h-4zM720 21h8q8 0 8 -12q20 -5 20 -12v-8 l-8 -8h-8l-4 4l-28 20v4zM584 5h8v-4h-8v4zM1084 -3q16 -6 16 -12l-16 -16q-16 6 -16 12v4q0 10 16 12zM236 -75h12l8 -8l-4 -20h-16l-8 8v12zM380 -147l12 -28l-12 -8h-8q-8 0 -8 12q9 24 16 24zM420 -215l20 -32q-14 -28 -32 -28q-28 0 -28 40z" />
<glyph unicode="f" horiz-adv-x="494" d="M35 1340h20v-4l-8 -8l-4 4l-8 -8v16zM35 1324v-8h-8zM419 1324h32l8 -8v-100l-8 -8h-4l-60 -4l-4 20h-12q-7 0 -16 -24h-4l-4 4v12q16 0 16 16h-8q0 -16 -24 -20l-8 8q-24 -18 -24 -36v-12h-8l4 4v4l-32 24h-12q1 -7 36 -28l-4 -4v-4l4 -16q-9 -20 -20 -20l4 -4v-4 l-20 -64l4 -4l-4 -20v-44h200l8 -8v-100l-8 -8h-196v-868l-8 -8h-112l-8 8v868h-40v-8h-4l4 -4v-12q-39 -12 -64 -32h-8q-9 0 -12 20l4 4h-8l-8 12l4 40v88l8 8h120v48l4 40l-40 -4l4 -4v-4l-4 -4h-8v4l4 4v4q-48 23 -48 52q0 7 56 44h4v-24q0 -8 36 -8l12 -16l-4 -24l4 -4 v-4l-4 -12h4l16 -4h20l20 40l-4 4l4 20l-16 24q0 9 20 12l4 -4l-8 -16l4 -12h12q6 0 12 16q-8 24 -16 24l-24 -4l4 20q-12 0 -12 8v16q81 100 240 100zM399 1320v-8h8zM-73 1316l4 -4v-8h-4l-8 8l4 4h4zM367 1312v-8h4v8h-4zM-21 1312h8l-8 -8v8zM79 1268h8l4 -20 q-8 0 -8 -12h-8l-4 12zM327 1252v-12h4v12h-4zM-49 1248l8 -8h-8v8zM123 1216h4l16 -16v-4l-8 -8h-8zM235 1180v-12h8v12h-8zM23 1176l16 -16v-4l-12 -12h-16l-16 12q6 20 28 20zM247 1168v-8h4v8h-4zM259 1152v-8h4v8h-4zM163 1124h8v-4h-8v4zM239 1120v-8h12l-8 8h-4z M231 1108l-4 -12l4 -4h8l8 8l-8 8h-8zM-121 1104h4q36 0 36 -28l-12 -8h-24l-16 16v8zM-329 1056h4l12 -12l-8 -8h-8l-8 8v4zM-277 1028l16 -12v-12l-12 -12h-8l-12 12v8zM415 960q6 -16 12 -16l20 40h-4zM-209 984l4 -4l-12 -16l-8 8zM3 792h12v-4l-12 -12h-12v4zM-41 740 q24 -3 24 -12l-12 -12h-8l-12 12v4zM-217 712h8v-4h-8v4z" />
<glyph unicode="g" horiz-adv-x="1064" d="M616 1049v-4l-8 -8l-8 8l4 4h12zM216 1033h12v-8h-12v8zM492 1033h40q209 0 348 -176v48l8 12l-8 8v80l8 8h112l8 -8v-220h-8q0 16 -16 16l-4 -12l4 -16l-4 -12l4 -12h4l20 4v-12l-4 -20l4 -4l-4 -4q-34 28 -64 36v-8l12 -20h-8l-84 84l-32 28v-4q6 0 28 -36q7 0 56 -60 q60 -47 60 -64l4 4h4l4 -4l4 4h4l8 -8v-20h-8v8h-12l4 -20v-8q-24 -20 -44 -20v-4q32 0 32 -12l4 -12h-4l-36 -16v-4q0 -8 32 -12l4 -4v-4l-4 -4l4 -4v-4q0 -8 -32 -12l-16 -20l28 -4v-12h-8l-12 8h-12v-4q20 0 20 -8q-3 -15 -68 -44v4q0 52 24 52v4q-16 0 -16 8v8 q0 161 -96 276l-4 -4h-8l-4 4l-4 -4h-4q-29 0 -36 20q-16 0 -16 16l4 36l-24 16l-16 -12h-4v16l4 4v4q-88 40 -168 40q-213 0 -336 -228q-32 -76 -32 -168v-8l4 -68q-88 -79 -88 -100l-20 -12q-32 62 -32 172v28q0 315 316 468q83 32 176 32zM752 913l20 -24h4zM548 897h12 v-4l-8 -8l-4 4v8zM900 881v-4l4 -12l-8 -8v-8q2 -9 20 -16q11 0 28 36l-4 12h-8l-16 -12h-4q-8 0 -8 12h-4zM548 849h8l8 -8l-8 -8l-8 8v8zM800 837v-8h8v8h-8zM1000 773h8v-8h-8v8zM892 673v-8l12 -12h8v4q-4 16 -20 16zM976 665v-8h4v8h-4zM916 573v-4h8v4h-8zM968 565h8 l-8 -8v8zM908 549l4 -4v-4l-8 -8l36 -4h24v4q-36 0 -36 20zM12 541h12v8h-4zM116 513v-8h4v8h-4zM68 469l4 -4h8l8 8v8h-4zM112 477l8 -8l4 4v4h-12zM112 449v-4h8l12 4v4h-8zM80 441v-4h8v4h-8zM136 437q12 -4 12 -24l-4 -16q12 0 12 -8v-8l-4 -4v-4l-28 8l-8 -8l-4 4h-4 q0 -16 -32 -16v4l4 4q11 22 52 64zM28 429v-4h8v4h-8zM12 425v-4h8v4h-8zM48 417v-8l8 8h-8zM868 421l32 -4l-16 -16h-4l-12 12v8zM160 369h4q51 -144 188 -216q81 -36 164 -36q170 0 304 180l56 24l40 -8l8 8h4q0 -16 48 -68v8h8q3 -20 12 -20l4 4l8 -32v-80l-64 -144 q7 0 52 104h4l4 -4v-4l-48 -120l12 -4l12 44h8q-25 -109 -68 -164v8h-4l-4 -12l4 -12q-141 -192 -396 -192q-318 0 -436 272l-8 32l4 4h136q7 -1 44 -76l104 -88l68 -108h8v8l-68 100v4q77 -20 120 -20h40q223 0 324 240q24 74 24 140v48h-4q-137 -192 -364 -192 q-269 0 -424 224q-34 41 -52 92zM856 361h4l4 -16l-24 -20v4q5 29 16 32zM840 325v-8l-8 -8h-4v4zM988 305l8 -8v-4h-8l-4 -4l-8 8v4l4 4h8zM820 293v-8h4v8h-4zM984 281h8v-4h-8v4zM952 233l-8 -28v-4h4l8 28v4h-4zM188 205v-4h8v4h-8zM932 165l-4 -12v-4h4l4 12v4h-4z M900 157v-8h4v8h-4zM656 125v-4h8v4h-8zM456 105v-16h4q0 8 12 8l4 4v4l-4 4zM920 49v-4h4l12 40q-8 0 -16 -36zM564 53v-8h4v8h-4zM964 13v-8h4v8h-4zM940 -15v-8h4v8h-4zM892 -95v-8h4v8h-4zM928 -103v-8l8 8v8z" />
<glyph unicode="h" horiz-adv-x="884" d="M8 1312h112l8 -8v-424q120 132 304 132q294 0 364 -244q-49 -37 -96 -96q-10 4 -44 108q-20 31 -80 84l-4 -4h-4q-60 28 -152 28q-199 0 -272 -196h-4l-24 12h-4v-4q28 -9 28 -16v-4l-4 -4v-4l-40 20l-4 -4v-4q32 -8 32 -16h-4l-20 4q20 -24 32 -24l-4 -168v-244l-20 4 h-4v-8q0 -8 24 -16v-140l-4 -16l4 -16v-36l-8 -8h-112l-8 8v108h8l16 -4l12 4v8q0 10 -16 12v8h4l16 -12h4v4q-16 0 -16 20l16 4v4q-16 0 -32 20h-8v12l16 20v8h-4l-12 -8h-4v60q11 0 24 12h24l16 -16q16 0 16 24q28 0 28 36h8v8q-48 3 -48 40l-16 -4l-52 12v916zM536 984 l-4 -12l12 -4v4l-4 12h-4zM736 824v-4h12v4h-12zM796 756q15 0 28 -140l4 -56v-20l4 -28l-4 -4l-4 4h-4l-60 -12q0 12 -16 12v4l20 16l-4 20h-12l-12 -8h-4l-8 8v4l16 20v8h-4l-16 -8l-4 4v4q9 32 20 32l-4 4v12l20 4v12h-16v8q24 24 24 48h-4l-12 -8h-4v4q0 9 56 56z M680 736v-8h4l12 4v16zM40 744v-4h8v4h-8zM32 716q0 -8 12 -8h4v4zM764 668v-16h32l12 12l-8 8l-24 -4v4zM692 668h4v-8h-4v8zM808 644v-4h8v4h-8zM720 636h4v-4l-8 -8h-4v4zM776 612v-4h8v4h-8zM804 592v-4h8v4h-8zM828 492l4 -4v-216l-8 -8q-56 67 -56 112l-4 4v20 q24 32 52 32v4q-56 14 -56 28q0 20 68 28zM752 448q18 -8 20 -16q-12 0 -36 -20l-8 8l4 4h-8v8q14 0 28 16zM720 412h4q17 -6 28 -36q7 0 20 -48q11 0 28 -56l-8 -20h16v-4q-16 -19 -16 -32h-4l-4 4h-4v-8l4 -12q-16 0 -16 -16q-23 -16 -40 -16q-24 36 -24 52v52q0 36 24 36 l4 12q-24 31 -24 84zM68 400l12 -12v12h-12zM724 372v-8h4v8h-4zM108 296v-8h4v8h-4zM732 296v-8h4v8h-4zM812 272l20 -20v-136l-4 -16l4 -16v-44l-8 -8q-37 43 -116 112l-4 20h4q8 0 8 -12h8l60 24l32 68l-4 24v4zM752 200v-4h8v4h-8zM788 164v-8h4v8h-4zM56 160v-4h12v4 h-12zM792 152v-8h4v8h-4zM104 128v-4h8v4h-8zM780 124l8 -8v8h-8zM104 112v-8h4v8h-4zM704 112h8q2 -27 44 -88v4l-4 4v4l4 12l-16 48l4 4q80 -53 80 -92l4 -4l-4 -4h-112l-8 8v104zM108 100v-4h8v4h-8zM812 68v-12l4 -4h4v4l-4 12h-4z" />
<glyph unicode="i" horiz-adv-x="180" d="M5 1312h112l8 -8v-192l-8 -8h-112l-8 8v192zM5 992h112l8 -8l-8 -8l8 -8v-588l-4 -4l4 -4v-364l-8 -8h-112l-8 8v212h4q56 -43 68 -88h8v4q0 21 -80 100v56q40 31 40 60l16 24l-4 28l4 4q-13 0 -40 72v16h-4l-4 -4h-4l4 -20v-12q19 0 32 -52l-4 -20q12 0 12 -8l-4 -4 q-8 -6 -8 -24h-16l4 -20q-16 0 -16 -16h-8v8l4 4l-4 4v140q0 15 -20 32v4l-20 -4l-16 12l-4 4v4l20 16h8q8 0 8 -24q38 21 48 40l32 8v8q-39 0 -56 24q0 22 84 32q0 6 28 8v4l-8 8l-32 -8l-4 4h-4l-60 -8l-4 12l4 20l-4 44v76l20 -4h4q21 0 24 12l-8 8l-16 -4l-12 4l-12 -4 v28l4 4l-4 4v8q0 26 60 64v12h-4l-44 -40l-12 -4v108zM41 968v-4h8v4h-8zM69 956v-8l8 8h-8zM73 860v-4q0 -6 28 -20h12v8l-8 12v12h8v4h-4l-12 -4l-8 8zM49 780v-8h4v8h-4zM73 764l-4 -12h8l8 8v4h-12zM13 744v-4h8v4h-8zM45 724v-4h8v4h-8zM-175 612h12l12 -12v-12 l-16 -12q-10 0 -20 20zM1 576l16 -4v-8h-12l-8 8zM-159 500h4l8 -8v-8l-8 -8h-4l-12 12zM93 484l8 -8h4v8h-12zM97 368l8 -8v8h-8zM29 288v-8h4v8h-4zM33 276v-8h4v8h-4zM21 260v-8h8zM69 240l-4 -4l4 -12h12zM49 204v-4l4 -16h4v8l-4 12h-4zM69 200l8 -8v8h-8zM97 152v-12 h8v4z" />
<glyph unicode="j" horiz-adv-x="180" d="M11 1316h112l8 -8v-192l-8 -8h-112l-8 8v192zM11 996h112l8 -8v-364q-76 -76 -76 -92l-20 -8l-4 4v4l8 8v4l-20 -4h-8l-8 24v424zM99 700v-8h8zM39 608v-8q11 0 20 20h-8zM127 604h4v-32l-4 -4l4 -4v-16l-8 -12v-8l8 -12v-132l-8 -8l-20 8v12l20 8l-4 20h-16l-12 -8l-8 8 v4l20 28h-12l-12 -8l-4 4v4l16 44h-4l-16 -4v4q0 8 12 8l16 -4l12 4v12l-12 4l-4 -4l-4 4v4q28 21 28 52l-20 -12v8zM43 548v-4h8v4h-8zM-141 460v-4l-8 -8l-8 8l4 4h12zM111 456v-4h8v4h-8zM-181 400q4 -16 16 -16v-8h-8l-16 16zM-113 396h4l12 -8h4l28 4q11 -40 36 -40 l4 4l8 -12v-4l-4 4h-4l-4 -12l8 -20l-8 -8v-12h12q0 12 8 12q16 -68 60 -68v-4l-16 -16l8 -12l-24 -16h-4l-4 4l-4 -4h-4q-28 0 -36 20q-16 0 -16 12l4 44l-4 4h-4l-4 -4l-4 4v4l4 16q-8 0 -8 12h-12l-12 -8h-12l-40 36l4 4h8l4 -4l12 4q-1 12 -20 28v8zM123 348h8v-12 l-8 -8l-4 4v4zM115 320l16 -12l-36 -24h-4v4l4 4v4h-8v4q18 20 28 20zM-209 308h12v-4l-8 -8l-4 4v8zM-81 288l8 -8v-4l-12 -12h-4v16zM79 284h8q44 -37 44 -112v-88q0 -36 -24 -36q0 -8 24 -8v-20h4q0 18 24 36v4l-4 12h4l-4 4v16l8 8q32 0 44 -36l4 4h4l8 -8v-16h-4l-28 4 q-8 -60 -24 -60h-24l-12 8v-28h-4l-20 12l-4 -4v-4q10 0 28 -16q0 -268 -208 -268h-36l-8 8v104l8 8h16q96 0 96 108l4 164v16h8l8 -16v-12l-8 -12q0 -24 20 -24v8l-4 4v4h4l20 -20h4v4l-16 56l12 8q12 -10 12 -48l12 12q-16 28 -16 72v8q0 31 28 40l4 12q-24 35 -24 84z M123 280h8v-32h-8v32zM-209 260h8l8 -8l-8 -8l-8 8v8zM543 96h4v-8h-12zM243 52q0 -19 8 -28v-8q0 -11 -40 -16l-4 -4l-12 12l12 12l4 -4h4q15 30 28 36zM79 -36l24 -52l4 4l4 12h4l-12 36h-24zM111 -96v-8h4v8h-4zM255 -112q17 0 40 -28q0 -16 -56 -40l-12 -12h-4l-8 8 l32 40l-8 20zM163 -208h8v-12h-8v12z" />
<glyph unicode="k" horiz-adv-x="637" d="M8 1316h116l8 -8v-172l-8 -8l-16 8h-4v-4q28 -8 28 -16v-572l340 432h4l56 -24h4v4h-8v8q36 0 36 -20q16 0 16 -8h-12l4 -20l-16 -24l-20 4l-4 -4v-4h8v-8l-20 -4v8h-12v-12q20 0 20 -16l-128 -156l-36 8q-43 0 -92 -60l-8 -16l4 -4v-4l-4 -16l52 -20l-24 -24l-12 4v-4 l4 -20l-8 -8q21 -24 32 -56q25 0 72 -68l208 -236v-4q-80 -52 -80 -60h4q77 52 88 52q152 -174 152 -184h-152q-30 26 -228 260l-136 156q-8 0 -8 20q-16 0 -92 96h-4v-324h-8q0 12 -8 12h-4l20 -32v-156l-8 -8h-116l-8 8v1296zM508 996h8l4 -4l4 4h4l28 -16v-4h-4l-44 12v8 zM552 996h72l8 -8l-24 -24l-56 24v8zM492 984l12 -12h-4l-8 8v4zM572 956h12l8 -8v-4l-20 4v8zM248 548v-4h8v4h-8zM204 496h8v8zM288 460v-16h4l12 4v-4l24 12l-8 16l-4 -4h-4l-4 4h-4zM216 448v-4q8 0 32 -28q34 11 36 28q-7 20 -20 20q-14 -16 -48 -16zM296 364v-8h8z M300 344h8v8zM360 268v-4l24 24v4z" />
<glyph unicode="l" horiz-adv-x="180" d="M8 1312h112l8 -8v-564h-8v8h-8l4 -20l-4 -4h-8l-4 16l-4 -4h-4q-44 6 -44 16h4l32 -8q0 8 16 8v4q-96 38 -100 48v500zM12 836v-4l20 -4l-8 8h-12zM92 832v-4h8v4h-8zM4 792l32 -12v-12h-4q-32 13 -32 20zM12 756h20q16 -20 32 -20v-8l-20 4q16 -17 16 -40l-16 -8l-32 8 v-4l4 -12h-4l-4 -4h-4l-4 4v72l20 -4zM68 720l24 -4l12 4l4 -4v-4l-4 -4l4 -4v-4l-4 -4v-4l-36 16v12zM76 700q28 -14 28 -20q-5 -28 -16 -28l4 -4v-8l-48 -12v-4h4l32 8v-4q0 -8 12 -8l4 -4v-4l-12 -4l4 -4v-4q-18 -20 -40 -28q0 -16 -12 -16h-4v-4h8v-4l-4 -4v-4h16l-4 -4 v-4l20 8l-4 -4v-4l4 -4l-4 -4l8 -8l-28 -16q0 -12 12 -12v-8l-8 -8q0 9 -40 16l-8 12l4 12l-4 20v120q0 10 16 12l28 -4l-4 4v8l20 -4h8l-4 4v8h20v4q-20 3 -20 12zM28 680h4l4 -12h-4l-12 4zM32 652v-4h12v4h-12zM96 636l4 -4v-8h-4l-8 8l4 4h4zM24 600v-4h8v4h-8zM12 568 v-8h4v8h-4zM20 560v-4h8v4h-8zM80 536l8 -8v-4h-8l-8 8l4 4h4zM104 500h8v-4h-8v4zM88 488h8v-8h-8v8zM8 472h8l4 -4l4 4h8v-8h-8v-12l4 4h4l4 -4v-12l-8 -8q-7 16 -16 16l8 12l-20 4zM44 412h16v-20l4 -4v-4h-8q0 20 -20 20zM24 396v-8h-8zM32 340h4l4 -4l4 4h8v-28 q0 -8 -12 -8v-4h8v-8l-16 -16l-8 8h-4v-4l12 -12l-4 -4v-20l8 -12l-8 -8h-4q0 9 -24 16v84l12 12h4q7 0 16 -28h4v8l-4 4h12v4q-12 0 -12 8v8zM52 232q20 0 20 -8l28 4h20l8 -8v-212l-8 -8h-112l-8 8v148l4 4l12 4v4l-4 20l4 4l-16 16l4 4h4l4 -4h4q0 8 36 24z" />
<glyph unicode="m" horiz-adv-x="1569" d="M984 1112v-4l-8 -8l-8 8l4 4h12zM584 1096h12v-8h-12v8zM944 1052q4 -16 16 -16v-8h-8l-16 16zM1012 1048h4l12 -8h4l28 4q11 -40 36 -40l4 4l8 -12v-4l-4 4h-4l-4 -12l8 -20l-8 -8v-12h12q0 12 8 12q16 -68 60 -68v-4l-16 -16l8 -12l-24 -16h-4l-4 4l-4 -4h-4 q-29 0 -36 20q-16 0 -16 12l4 44l-4 4h-4l-4 -4l-4 4v4l4 16q-8 0 -8 12h-12l-12 -8h-12l-40 36l4 4h8l4 -4h4l4 20l-16 12v8zM432 1012q218 0 348 -172q25 39 60 68h8v-8q12 0 12 12l4 4h12l-8 -16h12q0 11 28 16v4h-8v12h4q28 -17 28 -24v-4q0 -7 -20 -12v-8h-4l-4 4h-4 q0 -12 -20 -12v-4l20 4h4l12 -12q0 -9 -32 -36v-8q-12 0 -12 -8v-4q24 0 24 -8q-17 -31 -28 -36h-12q-6 0 -12 16l4 12h-4q-11 0 -24 12h-4v-8q18 0 28 -44l4 4h12v-12h-4l-12 4q-5 -42 -16 -52l8 -8v-4q0 -19 -12 -28l-20 12h-8v-4l12 -12h16l4 4h4q-8 -48 -8 -120h-4l4 -4 v-524l-8 -8h-108l-8 8v428l4 4l-4 4v148l8 8q12 -9 12 -28l20 -4q2 16 12 16v4h-20v8h8v4q0 19 -24 32l16 16v8h-8q0 -18 -24 -24l-4 4v12l4 4v4l-8 8v16l8 -8l20 12l-4 4v8l20 8h20q8 0 8 -12q24 10 40 48h4v4q-40 4 -40 32l-12 -4l-32 8q-19 0 -56 -28q-69 136 -244 136 q-213 0 -280 -192q-16 -52 -16 -144v-544l-8 -8h-112l-8 8v976l8 8h112l8 -8v-100q118 128 304 128zM1248 996h4v-8h-12zM1308 980q102 -53 144 -140q60 -122 60 -328v-504l-8 -8h-108l-8 8v548l-8 100h8v8q-16 0 -20 56q-16 45 -40 80v12q20 0 20 8q-29 0 -44 20 q0 16 64 24l20 4l4 4v4l-4 4l-80 -12q0 8 -16 8v4l16 16l-4 12h-12l-12 -8l-4 4v8l16 20h-8l-12 -4v4q0 33 36 48zM948 976h4v-4l-8 -8h-4v4zM1268 972h12l-8 -8h-4v8zM928 968l4 -4v-16h-8l4 -4v-16q-22 0 -32 16l4 4l4 -4h16v4l-4 12zM884 940l8 -8v-4l-12 -12l-12 4v12z M1044 940l8 -8v-4l-12 -12h-4v16zM860 920v-8h-8zM1212 812l8 -8l-4 -12q-6 0 -12 16l4 4h4zM772 792v-8h8v8h-8zM1380 752v-4h8v4h-8zM708 700l4 -4v-8h-20v8zM708 668v-4h8v4h-8zM724 444h4l8 8v4z" />
<glyph unicode="n" horiz-adv-x="876" d="M436 1012q156 0 260 -84v-4q-66 -72 -76 -72l4 -4v-4l-8 -8h-8q0 10 -20 12l-8 28h-4v-16q-14 0 -32 16l-4 -4v4l4 16l-12 4q0 -20 -12 -20q-10 8 -36 8l-24 32h-4v-12h-4l-8 8l8 12v4l-16 8h-4v-8h-4q0 16 -8 16q0 -20 -8 -20h-4l-32 28h-4v-4q20 -8 20 -36v-16 q0 -11 -80 -24l-68 -32l-16 8h-8v-4l20 -4l-4 -4v-4q-55 17 -72 32l-8 -8l4 -4l-4 -4q42 -28 56 -28v-8q-58 -50 -84 -188l-4 -4h-4l-28 8q-80 -23 -80 -76q16 -12 44 -12l20 8l4 -4v-8h-20v-8q0 -8 12 -8t12 24l20 8h16l8 -8v-84l-4 -4l4 -4v-132l-4 -4l4 -4v-304l-8 -8 h-112l-8 8v356l4 4l-4 4v28q28 9 28 20l4 -4h4q0 8 24 12v8l-8 8h-12q-8 0 -8 -12h-4l-12 8l-16 -4v60l4 4l-4 4v480l8 8h112l8 -8v-100q117 128 308 128zM524 996v-16h8v8zM400 976l8 -8v8h-8zM496 948v-8h8zM12 928v-4h8v4h-8zM500 928v-8h4v8h-4zM708 920l24 -24l-4 -4 l36 -32q64 -98 64 -300v-552l-8 -8h-108l-8 8v352h4l20 -32h4v4q0 11 -28 44v116l8 32v16q-12 0 -16 116l16 4v8q-24 0 -24 28q0 9 68 20v8h-16l-16 -4l-4 4h-4l-24 -4h-12q0 22 -36 80l8 8l-4 4h-4l-4 -4h-4l-4 4v4l12 4l4 -4h4l12 4v4q0 8 -12 8v4q20 22 20 36h-12v4 q38 44 48 44zM500 908v-8h4v8h-4zM612 904l-4 -12h12l4 12h-12zM220 884v-4h12v4h-12zM112 880v-4h8v4h-8zM172 872v-4l20 -8h4v4l-20 8h-4zM204 856v-4h8v4h-8zM672 844v-4l8 -8h16l12 12l-4 4h-4l-16 -4v4zM12 840v-8h4v8h-4zM728 808h4l8 8h-4zM744 600v-4h8v4h-8z M24 516v-8l20 -4v8zM92 504q0 -24 -36 -24l-4 4l-12 -20l12 -16l4 4h4q28 -9 28 -32l4 -4h12q7 0 12 20l-12 12l12 4v4l-24 16h-8v4l16 20v8h-8zM100 440h8v-8h-8v8zM724 408v-8h8v8h-8zM712 380v-8h4v8h-4zM44 352v-8h4v8h-4zM748 344v-8h4v8h-4zM8 328v-4h8v4h-8zM88 288 v-4h4v8q12 0 12 8v4zM64 288l-8 -12h4l8 12h-4z" />
<glyph unicode="o" horiz-adv-x="1019" d="M746 984h8v-4h-8v4zM770 980l8 -8l-24 -48h-4v4q13 52 20 52zM646 972q0 -16 -8 -16l4 -24h4l8 16l-4 12h8v12h-12zM778 968h12l20 -12v-8l-4 -20q8 0 8 16h8q204 -164 204 -416q-3 -64 -12 -64l4 -12q0 -102 -104 -252q-158 -200 -404 -200q-303 0 -464 308 q-44 104 -44 216q0 247 192 408h4l12 -24q0 -28 -8 -28l4 -4v-32l4 -20q-16 -4 -16 -24l4 -12h20l4 4h4v-4q-88 -114 -88 -264q0 -67 20 -132l-40 -20v-4h4l24 4l4 -4l4 4h12l4 -20v-4q-23 -36 -72 -52l-4 -4v-8h4q18 0 76 56l24 -36v-8q-12 0 -12 -8v-4l20 4h4q0 -9 40 -52 v-4h-8v-8l12 4q119 -104 252 -104h12q167 0 280 132l16 -4l8 8l12 -8l4 28l-12 12v4l24 36l28 -24h4v4l-28 32q36 89 36 204l-4 32l12 4q-14 7 -28 76l16 12h-12v8l20 4v4q-28 0 -28 12l36 48v4h-4q0 -12 -40 -28h-8l-56 76l4 24v4h-4q-3 -20 -12 -20q0 7 -48 48v12 q44 84 44 100zM538 948v-4h8v4h-8zM534 940v-8h4v8h-4zM570 932v-4h8v4h-8zM626 928v-12h4v12h-4zM278 920v-1l-13 -7q-7 5 -7 16l4 12h-4l-12 -12l-4 4h-8l-28 -8l-4 4v8q8 0 8 16l104 60l4 -4l-4 -4v-12l8 -8h4q0 45 64 52q0 -7 40 -20v-8h8v12q0 21 16 28h28l4 -4l16 8 q144 0 240 -60l-20 -52l12 8v-20q-20 -17 -20 -32h-8l4 20l-32 -20l-16 20l8 32h-8q0 -15 -12 -24l-4 4h-8v-12l4 4h8v-4l-4 -12q-44 8 -44 16l-4 -4l-96 12l-36 -4l-4 4v16l16 16l20 -4v24q16 0 16 12v4h-4q-28 -30 -60 -32l-4 -24l4 -4v-8h-8q0 8 -16 8v12l12 -8l4 12 q-4 13 -16 16l-20 -4l-36 16q0 -8 -12 -8l-36 8q0 -16 -16 -16l8 -24l-28 -12v-4h1l-7 -4h-2zM730 912v-12l-8 -8h-4q5 20 12 20zM686 892h12v-4l-8 -8l-4 4v8zM714 880h4l12 -4v-16h-4l-12 12v8zM806 868v-8h4v8h-4zM930 716l-4 -4v-8h4l8 8l-4 4h-4zM922 700v-4h8v4h-8z M906 680v-4h8v4h-8zM942 556v-8l12 -4l4 4v8h-16zM914 380h8v8zM150 312v-4h12v4h-12zM914 296v-8h8v8h-8zM158 292v-8l8 8h-8zM102 260h12v8h-4zM846 224v-8h8v8h-8z" />
<glyph unicode="p" horiz-adv-x="1011" d="M224 1273h8v-4h-8v4zM492 1173h4v-4l-16 -16v4zM532 1173l8 -8l-4 -4h-4v12zM708 1169v-12l-8 8l4 4h4zM768 1157l8 -12l-12 -16h-12l-8 8q17 4 20 20h4zM804 1157v-12h-8v4zM488 1149h8v-4h-8v4zM640 1145l4 -4v-8h-12v4zM672 1141h8v-4h-8v4zM244 1133h8v-4h-8v4z M436 1125h12v-4l-8 -8l-4 4v8zM464 1109l4 -28v-16l-12 -12q-9 0 -12 52zM580 1109l4 -4v-4q-11 0 -52 -40v4q30 44 48 44zM684 1105h4l8 -8l-4 -4h-4l-4 4v8zM744 1105l4 -4v-4h-12zM772 1097h4v-8h-4v8zM808 1089h8v-12h-16v4zM232 1085h4v-8h-4v8zM644 1077h4v-12h-12v4z M272 1069h8v-8l-4 -4l4 -4v-8h-8v24zM696 1061h4v-8l-36 -24v4zM764 1037h8v-8h-8v8zM280 1033h4v-8h-12zM476 1033l4 -4v-4l-12 -12q0 -12 24 -12q0 -20 8 -20q28 -8 28 -20h4q0 42 40 52l4 -4v4l-8 12l4 4h4l76 -12l8 8v-4l-4 -4v-4q107 -33 172 -96l-4 -16l4 4h4v-24 q0 -8 -16 -8l-4 -20h-8v4l4 12l-36 -16h-4l-8 8v4l8 36h-8l-4 -16h-8q0 16 -8 16l-4 -28v-4h4l4 16h4v-4l-4 -36l4 4h8v-20h4l4 24l12 -12q-10 -26 -20 -28q-52 30 -52 56h-4l-4 -12q-60 29 -60 40l-12 -4l-52 12v4l8 8l12 -8v8h4l-4 4v4q8 16 20 16v8h-4q-31 -28 -52 -28 l-4 4l-4 -12h-8l-16 8l-16 -4l-20 8q-69 -4 -112 -36l-16 -4v8h-12v-8h-24l-20 -4l4 -28q-180 -130 -180 -332q0 -138 88 -260l-24 -12v-8l36 8q120 -132 252 -132h36q202 0 336 228q25 -28 48 -28v4l-8 20h4q58 -54 64 -68q-15 -36 -28 -40l-12 12q-11 0 -24 -28v-4l8 -8 l12 8h4v-8q-158 -208 -400 -208h-40q-205 0 -352 176v-464l-8 -8h-112l-8 8v788l4 4l-4 4v380h4l64 -84h4v4q-72 94 -72 124v76l8 8h112l8 -8v-148q84 102 164 132q12 3 16 16l12 -4q77 32 156 32zM512 1033v-8l-8 -8v8zM720 1029h8l8 -8v-4l-8 -8l-8 8v12zM584 1001h12v8 h-4zM412 949v-4l8 -8l16 32v4l-4 4h-4q-16 -7 -16 -28zM484 973v-8h4v8h-4zM288 969v-4h8v4h-8zM252 957v-4l4 -12q-16 -7 -16 -28v-8l4 -4v-4q32 0 32 20l4 12h-4q-20 6 -20 28h-4zM288 933v-4h8v4h-8zM416 925h16l-8 8zM744 929v-16l12 12zM140 929l12 -4v-4l-8 -8h-4 l-8 8zM284 921v-4q9 -24 16 -24h8l4 24h-20l-4 4h-4zM848 893h12v-4l-12 -12h-4v4zM812 885v-8h4v8h-4zM860 885h4q84 -81 116 -172l4 -16l-28 -16h-20l-16 4l-12 -4l-36 56l-4 -4h-8l-4 16l-4 -4h-4q0 13 -36 44v4h12v8h-8l-4 -4l-12 4v8l12 12l-4 12q8 0 12 32l4 4h4v-8 l-8 -28l8 -8l-4 -16v-4h4zM788 845h8q-4 -40 -12 -40v4l-4 -4h-4l-4 4h-4q13 36 20 36zM328 825v-4l-4 -20h-8q4 24 12 24zM884 753q8 0 12 28q-8 0 -12 -28zM856 717h8l4 -20l-4 -4h-4l-8 8v4h8l-4 4v8zM984 685h4q20 -46 28 -172q0 -133 -52 -224q-92 81 -92 96l-4 -4h-4 v4l4 4v4l-4 4v4q5 36 32 36v4q-20 0 -20 8v8q7 17 48 32l8 8v4h-32l8 -12v-4h-20l-8 8v4q0 24 24 24q0 20 12 20v4h-16v8l56 40v4l-20 4l12 12l12 -8h8q0 16 12 16v4q-12 0 -12 8l20 4v4q-24 0 -24 20q12 0 20 24zM888 549h4l8 -8v-4h-12v12zM984 545v-8h4l8 8h-12zM936 541 v-4h32v4h-32zM956 521v-8h4l8 8h-12zM924 401v-8l12 -12h4v8q0 6 -16 12zM844 309v-12q3 -24 12 -24h8v36l-8 8h-4zM832 269v-4h8v4h-8zM812 249v-4l4 -12h8v12zM200 221v-8h4l8 8h-12z" />
<glyph unicode="q" horiz-adv-x="1056" d="M488 1032h44q110 0 208 -56v-8l-24 -44v-4h4l28 52q30 -7 128 -112v144l8 8h112l8 -8v-760q0 -28 12 -28v-4q-12 -14 -12 -48v-455l-8 -8h-112l-8 8v455q-124 -132 -196 -132q0 16 -12 16h-8l20 -24l-56 -16q-7 19 -36 28l-4 16l4 4h4l12 -20h4v4l-8 32l36 12v4 q-20 0 -40 28v4q0 32 28 52v4l-4 12h4l-4 4v16l8 8q32 0 44 -36l4 4h4q8 0 8 -16l36 20v-4l12 4l-4 4v4q148 140 148 320v8q0 112 -64 216q-67 82 -112 112v16l-12 -8q-84 52 -172 52h-24q-127 0 -236 -96h-16l-4 4l-4 -4h-4l-12 4l-16 -48v-12q-17 0 -24 -12l4 -4v-12 q-56 -125 -56 -204h-4l4 -4v-8h-8v8h-4q0 -12 -8 -12l-16 16v4h8v12q-12 0 -12 -12l-24 4l-24 -8v4l12 28l-4 12l4 4l-4 4h-20l-4 -12l4 -20l-12 12v8l4 4v4q-20 3 -20 12q4 60 16 60l-4 4v4q2 31 44 108l12 -8l20 12l4 -4v-4l-16 -36h-20l-8 -8v-24h8l20 20l4 -4v-4 q0 -8 -12 -8l-4 -12h8q0 16 36 16l12 28h4l28 -20h8v8q-28 10 -28 16l4 4v4l-12 12l8 12v4q-8 16 -24 16l-12 -4l-4 4v-12h-8l-8 20q30 79 156 164q125 76 256 76zM164 796v-16l16 20v4h-8zM152 756v-8h4v8h-4zM168 740v-12h4v12h-4zM56 628v-8h4v8h-4zM28 616v-4h8v4h-8z M20 552l28 -40l-8 -24l4 -24l-12 -64q0 -8 20 -8v-4l4 4h8v-16h8l12 8l4 -12l-20 -56v-8l4 -4v-4l-4 -4h-4q-52 13 -52 80q-16 41 -16 108v56q4 12 24 12zM228 400v-4l-8 -8l-8 8l4 4h12zM-172 384h12v-8h-12v8zM188 340q4 -16 16 -16v-8h-8l-16 16zM256 336h4l12 -8h4l28 4 q11 -40 36 -40l4 4l8 -12v-4l-4 4h-4l-4 -12l8 -20l-8 -8v-12h12q0 12 8 12q16 -68 60 -68v-4l-16 -16l8 -12l-24 -16h-4l-4 4l-4 -4h-4q-29 0 -36 20q-16 0 -16 12l4 44l-4 4h-4l-4 -4l-4 4v4l4 16q-8 0 -8 12h-12l-12 -8h-12l-40 36l4 4h8l4 -4l12 4q-2 12 -20 28v8z M848 256v-8h4v8h-4zM160 248h12v-4l-8 -8l-4 4v8zM288 228l8 -8v-4l-12 -12h-4v16zM160 200h8l8 -8l-8 -8l-8 8v8zM900 184h16v8h-8zM564 176l12 -16l-8 -40l4 -24l-12 -16h-4q-34 0 -44 48q11 48 48 48h4zM764 168v-4h8v4h-8zM940 168l-4 -12h36v8h-24l-4 4h-4zM652 156 v-20h12v8h4l-4 4v8h8l-8 8h-4zM924 164v-4h8v4h-8zM776 152v-4h12l8 8h-8l-4 4zM456 100l8 -8l-4 -12l-12 16l4 4h4zM556 16h4l8 -8v-8l-12 12v4zM516 12l24 -8v-7h-20l-12 11l4 4h4zM480 4h12v-7h-12v7zM720 4q17 0 40 -27q0 -17 -56 -40l-12 -12h-4l-8 8l32 40l-8 20z M628 -91h8v-12h-8v12z" />
<glyph unicode="r" horiz-adv-x="397" d="M336 1004l16 -16v-28h-8v-8h8v-80q0 -7 -84 -20l-52 -20l-4 4q0 -18 -24 -32h-4v8h-4q0 -16 -16 -16l-32 -132l-4 -84v-336l-4 -4l4 -4v-112l-16 -20q16 0 16 -8l-4 -12l4 -20v-56l-8 -8h-112l-8 8v976l8 8h48l12 -8v8h44l8 -8v-100q90 97 120 100l8 -8h16v8h4l8 -8 q-17 -40 -44 -40l-4 -16l4 -12h8q12 0 12 16h12v-8q-16 -2 -16 -12v-4q17 20 48 20l4 24h8l24 -20h8v4l-28 20l4 4v4l-8 12l8 20l-12 12l4 4h28zM44 984v-4l20 -16v4zM336 972v-8h4v8h-4zM64 936v-4l16 -12v8zM276 912v-8h4v8h-4zM272 884v-8h4v8h-4z" />
<glyph unicode="s" horiz-adv-x="674" d="M332 1040l24 -40h8v8q-20 21 -20 32h4q180 0 248 -176q-40 0 -40 -28q0 -20 40 -60v-8h-112q-10 0 -24 68q-41 76 -132 76h-12q-136 -21 -136 -136v-16l4 -36l-4 -12q61 -81 144 -104q160 -44 188 -76l-4 -4v-4h4l12 4l28 -28v-4q-11 -22 -68 -48v-8h4q18 0 64 48v4h8 q25 -19 28 -40h-4l-8 -8v-4l20 4q32 -55 32 -140v-20q0 -193 -212 -272q-42 -12 -84 -12h-36q-211 0 -284 236l-12 96l4 4h120q6 0 20 -88q57 -128 176 -128q168 23 168 168q0 146 -244 212q-200 78 -200 236v44q0 170 208 252zM504 868v-8h4q32 5 32 28h-4zM152 736l4 -24 l12 4v8l-12 12h-4zM132 696l8 -12q16 4 16 20l-4 4h-12q-8 0 -8 -12zM168 708v-4l12 -12l4 12zM540 468v-4h12v4h-12zM548 448v-8h4v8h-4zM492 416h12v8h-4z" />
<glyph unicode="t" horiz-adv-x="547" d="M196 1312h112l8 -8v-72l-12 -16h12v-84l-24 -4v-16l-16 -44l-20 4l-8 -12v-16l4 -4v-4q20 8 20 24h4l4 -4v-12q-12 0 -12 -8v-4h4q0 9 16 16l4 -4h4l16 4h4v-56h108q8 0 8 -16q36 -6 36 -20h4q5 36 16 36h8l8 -8v-60q0 -8 -16 -8v-24l-4 -4l4 -4v-8h-8v8h-12 q0 -12 -8 -12h-4l-8 8l28 24v4q0 8 -12 8l-12 -4l-44 16l-8 -8l-40 8l-16 -20v-4l8 -12q0 -6 -28 -16v-4l16 -4l4 12h4l8 -8l-12 -12h-16q-8 0 -8 12h-4v-12h-8l-16 16l8 8v4h-4l-12 -12l-4 4h-20l-12 -8l-8 8q12 15 12 36v8l-20 4l-8 -16l4 -4v-4l-4 -12q8 0 24 -36l-8 -24 l4 -28l-12 -56q0 -11 24 -16v8h8v-16h4l20 4v-4l-20 -64l4 -12l-12 -4l-28 12q-28 -9 -28 -16v-12q30 -68 84 -96q28 -17 28 -40v-64q0 -8 -16 -8l-8 -16l16 -4q-11 -17 -108 -56l-4 -4l-8 8v512h-180l-8 8v116l8 8h180v196q0 8 24 8q20 14 20 24q-8 0 -8 12l-4 4h-12 q0 -20 -12 -20h-8v88zM212 1276l-16 -28v-8l24 16v12zM228 1184q8 -23 28 -44l-4 -4l8 -8l-4 -4v-4q8 0 8 -12l4 -4h4l12 4v4l-4 4l4 4v8q-8 16 -20 16v8q12 0 12 8v8q0 8 -12 8l-4 4v28h-4l-24 -24h-4zM292 1024v-16h4v16h-4zM352 936l4 -4h4q0 10 16 28v4l-8 8 q-16 -5 -16 -36zM228 964l8 -8v8h-8zM192 952v-4l4 -12q-16 -5 -16 -36v-8h4l20 4l4 -4l12 28q-24 8 -24 32h-4zM284 916v-4h12v4h-12zM404 892l8 -8h-8v8zM496 892h8v-8h-8v8zM496 876h8v-8l-8 -8h-4v4zM416 872h8v-8h-8v8zM312 384l4 -4v-8h-4l-8 8l4 4h4zM296 368h4v-8 h-12v-4q16 -58 28 -72v-276l-8 -8h-112l-8 8v240q0 9 20 12v4h-4l-12 -4l-4 4v4l88 96zM312 352l4 -4v-28h-8l-4 28l4 4h4zM220 332h12q0 -21 -40 -52h-4v32l12 12l4 -4h4zM252 292v-8h8v8h-8zM288 284v-4h8v4h-8zM224 236v-4h4l12 4v8h-8zM196 240v-4h8v4h-8zM280 180v-4h8 v4h-8z" />
<glyph unicode="u" horiz-adv-x="876" d="M8 996h40l12 -8l4 4v-12h4l4 16h28v-4q-20 -19 -20 -36l16 12l4 -4l24 8h4v-16l-4 -4l4 -4v-212l-4 -4l4 -4v-24l-8 -24l4 -16l-4 -4l8 -8v-220l-28 -24v-20q48 -56 48 -108l44 -104l-4 -4h16v-8q-36 -23 -112 -52l-4 -4q-88 98 -88 428l8 8l-8 12v68l8 12l-8 12v268 l4 24l-4 20v28zM712 996h112l8 -8v-520q-1 -9 -40 -24h-12l-24 4l-12 -4q-5 17 -40 60v144l8 36h-8v20q0 17 16 28l4 12h-4l-16 4v240zM800 992v-8h4v8h-4zM792 968v-4h4l4 16q-8 0 -8 -12zM12 960l4 -4h4l4 4v8h-4zM8 952v-4h8v4h-8zM24 940v-8h4v8h-4zM800 928v-4h4l4 16 q-8 0 -8 -12zM64 904l-4 -12h8v12h-4zM48 896l8 -8v8h-8zM752 852v-8h4v8h-4zM16 820v-8h4v8h-4zM28 808v-8l12 -4l4 4v8h-16zM736 800v-4l8 8v4zM772 804v-8h4v8h-4zM720 792v-8h4v8h-4zM760 784v-8h4v8h-4zM732 736l-16 -36v-8h4l16 40v4h-4zM88 720v-8h4v8h-4zM76 676v-8 l4 -4v-4q32 0 32 20l4 12h-4q-16 0 -16 12q-20 -6 -20 -28zM744 668l-4 -20v-4h4l4 16v8h-4zM792 644v-8h4v8h-4zM60 600v-8h4v8h-4zM724 532v-12h4l4 24q-8 0 -8 -12zM32 492q4 -13 16 -16v4zM48 424h8q28 0 28 28q-19 -8 -36 -28zM828 452l4 -4v-132q0 -8 -12 -8v-8h12 v-288l-8 -8h-52l-16 4l-16 -4h-28l-8 8v76l32 -8v4l-8 20h4l88 -84q-29 44 -108 116l-4 12h-24v20h4q12 0 12 -16h4v4l-8 32l36 12v4q-28 0 -28 20l56 28l8 8v4h-32l8 -12v-4h-8l-28 4v16q0 8 32 16l8 12q-24 5 -24 12l4 4h4l4 -4q0 18 52 44l4 4v4l-20 4l12 12l12 -8h4l8 8 l-4 4l12 4v4q-12 0 -12 8l20 4v4q-24 0 -24 20zM740 308v-4h12v4h-12zM772 304v-4l32 -4v8h-32zM792 284v-8h4l8 8h-12zM712 248v-12l-8 8l4 4h4zM760 164v-8l12 -12h4v8q0 6 -16 12zM224 156l8 -12v-4l-16 -4l-12 4v12zM180 136h16v-8l-12 -4q14 -80 64 -80l28 -16l28 4 l-12 -16h4q0 24 116 64h16q32 -20 32 -52h8q0 33 24 52h8q12 0 28 -84q-32 -16 -100 -16h-28l-24 4l-16 -4q-143 0 -240 92q33 47 60 64zM244 136q72 -24 72 -32l12 4l88 -8v-4q0 -9 -56 -24q0 -10 -64 -32l-8 8h-4l-4 -12q-32 12 -32 28l-20 -4v4q0 12 -16 12 q-12 21 -12 40q29 20 44 20zM660 132l4 -4v-12l-12 12l4 4h4zM612 128l40 -20l8 8q3 -28 12 -28l16 20l4 -4v-8q-98 -96 -148 -96l-12 80q9 0 12 20h8q0 -9 16 -24l12 4v20l-8 12l12 8l28 -20v4l-4 20zM448 104h16l12 -12v-8l-8 -20l-20 36v4zM112 100h16v-8l-12 -12h-4 l-8 8v4zM608 92v-8h4v8h-4zM224 88v-8h4v8h-4zM636 64v-4h8v4h-8zM148 60v-8l8 8h-8zM180 52v-4h8v4h-8zM164 48v-4h8v4h-8z" />
<glyph unicode="v" horiz-adv-x="824" d="M36 992q40 -48 432 -632l12 -24l-4 -20h-4v8h-4q-8 0 -8 -16h-8v12q-18 -16 -36 -16l-12 20l8 24v4h-4q0 -20 -20 -20v8l8 8v-8h4v4l-4 4v4l4 24l-4 12h-4q0 -24 -12 -24l4 -16l-4 -32v-4h4v12h8v-24l4 4h8l-4 -24v-4h4l4 20h12l-12 -32h-8v8l-4 -4h-4v4l-4 -4h-8 l-156 232v4l4 16q-20 70 -64 96q-32 0 -76 84l-200 288l4 4h144zM632 992h116l8 -8v-976l-8 -8h-176l-12 12v8q13 0 40 24v8h-20q0 9 20 12l8 -8h8q0 16 8 16v4h-8v4q0 8 20 8v8l-4 -4h-8l-16 20q7 1 36 36v4l-16 -8l-4 4v492l4 4l-4 4v64l28 64v4h-4l-16 -40h-8v244z M776 612h12l12 -12v-4l-16 -16q-16 6 -16 12v12zM816 580h4l8 -8v-8h-12l-8 8zM456 332v-4l8 8v4zM472 316v-20h-8v12zM496 312h8l112 -168v-4l-16 -8h-12l-24 8l-8 -8h-4q0 13 -32 56l-4 -4h-4l-52 56l12 12v4l-20 -8l-4 4v8l16 28q8 0 8 -28h4zM436 300h4v-4l-4 -24l4 -12 l-4 -4l-4 4h-4l-12 -4v4q13 40 20 40zM532 216v-8h4l8 28q-9 0 -12 -20zM500 168h8v-4h-8v4zM508 160l4 -4v-4l-8 -8l-8 8v4zM668 120v-8h8l8 8h-16zM668 108v-8h4v8h-4zM652 88v-4h8v4h-8z" />
<glyph unicode="w" horiz-adv-x="1292" d="M1332 1180h4l12 -12l-8 -8h-8l-8 8v4zM128 992q10 0 20 -40l-12 -12q24 0 44 -92l80 -244l-4 4l-24 -8h-4l-4 20l-8 -8l4 -16l-4 -4h-4v4l-4 -4h-8v16q0 20 12 20v4l-12 4q8 18 16 20h4l12 -8v8l-16 52l-16 -8l-24 8l-20 -4q-76 0 -76 56l-80 228l4 4h124zM688 992 q9 -6 56 -152l4 -4l4 4h4l8 -8v-16h-16l8 -24h4q0 14 24 32q0 -19 8 -28v-8q0 -12 -32 -12q32 -120 48 -120q8 0 28 -24l-24 -28l104 -344q8 0 136 408l108 324h124l8 -8l-332 -984h-76q-13 0 -60 176l-176 572h-4l-228 -748h-76q-12 0 -40 112h8v4q-20 0 -20 20l4 4h4 l16 -16h4l8 8q-32 8 -32 16h8l16 -8v4q-64 48 -64 108v4l20 4v4q-38 0 -48 72l4 4q-15 0 -20 36l8 20l-4 -4h-4l-8 8l4 4q-12 4 -12 24l16 12q0 8 -12 8v4l8 8q8 -8 36 -8l12 -16v-12l-4 -4v-4q32 0 32 -20h8v12q-20 0 -32 56h-4l-16 -4l-12 4v8h8l-4 12l-4 -4h-4l-4 4v8 l8 8l16 -24l12 -4l8 16l-4 16l16 32v8h-8v16l8 8l76 -232l-4 -4q11 0 28 -72q7 5 60 176q76 32 76 80v12q0 6 -44 20l12 28l16 -8l4 4v4q0 7 -20 12q24 100 60 100l16 4v4l-20 16q0 8 -12 8q5 40 16 40l8 -8l-4 -4v-4l8 -24h16l16 8v12l-16 4v8h8v4q-32 0 -40 16l72 220h84z M644 964v-12q8 0 8 -12l4 -4h4v4l-12 24h-4zM1088 872h4v-4l-8 -8h-8zM560 792v-4l20 -12h8v12l-24 4h-4zM556 784l8 -8h4l-8 8h-4zM588 752l16 -24l12 4v4l-24 16h-4zM560 644v-8h8v8h-8zM192 548q8 0 8 -20l4 4h16l-8 -8h-20v24zM232 548l4 -4v-4l-4 -4h-8v4zM228 376v-4 h8v4h-8zM372 108l8 -8h4l-8 8h-4z" />
<glyph unicode="x" horiz-adv-x="787" d="M176 992q34 -34 204 -328l-4 -4q18 0 32 -40l48 64q9 -1 24 -68q0 -28 -52 -36v-4q1 -6 48 -20l8 -12q0 -19 -92 -32l-20 -4l-4 -4v-4l12 -4l36 4l4 -4h4l56 12l20 -20l-24 -16q4 -16 16 -16l24 8l4 -4v-4l-20 -28l4 -4l20 8l4 -4q-20 -56 -40 -56v-4q0 -8 16 -8l4 -4v-4 q-28 -25 -28 -48h4l20 8v-4l-20 -20q-7 0 -32 48q28 5 28 12v8h-8v4l-4 -4h-24l-40 52l-268 -408h-128l-4 4h-4l332 516l-292 468l4 4h132zM660 992h140v-8q-44 -70 -100 -124q0 -13 -44 -44q0 -13 -40 -56q-32 25 -32 48v4l8 12q-4 24 -12 24h-12l4 -4v-8h-4l-8 8 q93 147 100 148zM552 828l8 -12v-20l-8 -8h-8l-4 20v8zM528 800h4q10 0 12 -40q0 -48 -32 -64l-4 -12q20 -9 28 -68h4q-7 -20 -20 -20q-44 28 -44 80q-12 3 -16 16zM504 724v-8h4v8h-4zM508 640l8 -8v8h-8zM504 596l4 -4l8 -8h4v-4q-16 0 -28 -20q-24 9 -24 16v4h4l4 -4h4z M484 432v-4h8v4h-8zM428 420v-4h8v4h-8zM456 396h8v8zM528 388l4 -4v-4l-12 -8h-4v4zM568 356v-4l-8 -12q40 0 40 -28v-8h4v12h8q0 -11 64 -108l124 -204l-4 -4h-112q-8 0 -8 16h-4q0 -16 -8 -16h-4q-52 72 -172 280l60 56q0 20 20 20zM544 268v-8l16 12v8zM664 164l-4 -12 l4 -4h8v16h-8zM700 40v-12l12 4v4z" />
<glyph unicode="y" horiz-adv-x="899" d="M-8 987h140q16 -22 252 -652q54 -143 60 -144q248 635 264 652l80 -76l4 -4v-20h-8q0 16 -8 16l-60 -24l-32 -68v-8l4 -20h-4l-12 8v-4q42 -34 52 -84l4 -20q-17 -56 -36 -56l-8 -8v-4q12 0 12 -12q-14 -48 -48 -48q-24 0 -24 -12l12 -4l28 8l4 -12l-296 -716h-124 q-8 0 -8 12l128 312zM764 987h136l8 -8q-91 -224 -96 -224q-15 9 -40 84l-32 48l4 -20v-8l-4 -4v-4q9 0 16 -36v-4h-8q-40 33 -40 40q48 136 56 136zM708 791v-4h8v4h-8zM704 759v-8h4v8h-4zM772 743l20 -48l-52 -132h-8q-36 68 -36 80l8 12v4l-4 -4h-4l-8 8q20 12 20 32h4 l4 -4l4 4l-4 4v8q24 36 56 36zM800 739h4v-16l-8 -8h-4v16zM736 715v-4h8v4h-8zM632 567v-8h8v8h-8zM-40 -321l12 -12l-4 -4h-4l-8 8v8h4z" />
<glyph unicode="z" horiz-adv-x="734" d="M68 992h584l8 -8v-120q0 -20 -156 -228q-10 4 -32 40v12l8 12q-4 24 -12 24h-12l4 -4v-8h-4q-24 22 -24 40l80 112v4h-200l-12 16l-4 4h-4q0 -20 -8 -20h-4l-16 12q0 -12 -8 -12h-188l-8 8v108zM416 728h8v-8h-8v8zM428 712h12l8 -28v-12l-8 -8q-11 0 -16 36zM404 704h8 q20 -44 20 -64q0 -64 -32 -64v-8h-4q24 -38 24 -56l-24 -32q-32 33 -32 68v8q-13 0 -32 44v4zM392 600v-8h4v8h-4zM332 596q24 -52 36 -104q0 -28 -52 -36v-4l4 -4q40 -11 40 -20v-4q0 -26 -100 -40v-12l44 4l12 -4l4 4l4 -4v-4l-168 -236h64l4 -4l4 4h104v-4l-20 -24v-4h12 q0 11 32 32h224l8 -8v-4l-4 -4v-4l4 -4h4q0 24 8 24h32l12 -8l12 8h4l-4 -20v-4h4l4 4h4l4 -12h4v8h4l8 -8v-20l-8 -12l8 -12v-48l-8 -8h-168l-16 4l-16 -4h-120l-12 8l-12 -8h-328l-8 8v112q288 424 332 476zM400 516v-8h4v8h-4zM384 464v-4l-12 -16h-4l-8 8zM564 120l8 -8 v8h-8zM588 96v-4l8 -8v4zM292 68v-8h8v8h-8zM384 68v-8h8zM244 40l-16 -20h4l16 20h-4zM552 40l-4 -12l4 -4h4l4 4h4l-4 12h-8z" />
<glyph unicode="{" horiz-adv-x="667" d="M576 1497h28l8 -8v-80q0 -8 -12 -8q-138 0 -184 -48q-36 -59 -36 -152v-192q-21 -17 -24 -40l20 12l4 -4v-8q-36 -34 -36 -52l12 8h4l4 -4l4 4h4l4 -4h4q0 -173 -92 -240q-46 -27 -80 -36v-4q60 0 132 -88q36 -66 36 -160v-12l-12 -16v-12q0 -14 16 -32v-236 q-49 -36 -64 -36v-4h8l4 4h4l20 -8l24 16l8 -12v-4q-48 -60 -92 -71v-8h4q21 0 84 63q7 0 16 -51l-12 -4v-12l16 8q37 -72 144 -72h60l8 -8v-80l-8 -8h-36q-211 0 -260 92q-40 80 -40 195v208q0 218 -64 260q-16 16 -80 40l-32 52h-8v-4l28 -44v-4l-40 4h-64l-8 8v80l8 8h48 q142 0 180 92h8l12 -8v8q-12 0 -12 8v4l8 8l4 -4h4v4l-8 8v4l8 8l-4 4v4q12 59 12 164v204q0 209 104 260q65 36 204 36zM316 945v-4h4l16 32l-4 4h-4q-8 0 -12 -32zM324 941v-4l12 12h-4zM288 897v-8h4v8h-4zM324 853v-4l8 8v4zM312 853l8 -8v8h-8zM312 381h4q32 0 32 28 h-4zM344 -14v-4h8l12 4v4h-4zM352 -38h8v8zM300 -58v-8h4l8 8h-12zM440 -94v-4h8v4h-8z" />
<glyph unicode="|" horiz-adv-x="157" d="M8 1537h84l8 -8v-204l-12 -44l4 4h8v-224l-4 -28l4 -4q-16 -5 -16 -36v-8q16 0 16 -8v-540q0 -9 -36 -20v-8l4 4h24l8 -8v-28q-8 -18 -64 -44v-8h4q22 0 40 28l20 8l-8 -12l8 -8v-639l-8 -8h-84l-8 8v1423l4 16l-4 16l4 12l-4 16v4l4 4l-4 4v332zM64 1333l4 -4v-4l-4 -12 h4l4 -4v-4l8 8l-4 4v4l4 20h-8zM72 1229v-12h4v12h-4zM56 1221l8 -8v8h-8zM56 745q25 0 36 20v8h-4q-18 -7 -32 -28zM44 301h12v8h-4z" />
<glyph unicode="}" horiz-adv-x="684" d="M60 1505q222 0 252 -128l-16 -36v-4h4q2 16 12 16l-4 -20l4 -20l-4 -4h-4v12h-8l-4 -20h-8l4 16v4h-4q0 -11 -28 -24q-18 8 -20 16l8 32v4h-4q0 -11 -12 -20v-4h-8v20q12 0 12 20l-4 20h-4q0 -28 -12 -28v-8h8l-4 -16h-8q-20 76 -172 76l-36 4v4q14 0 20 24q15 16 32 16 l-4 16q3 32 12 32zM60 1445h4l12 12h-4zM288 1325h8v8zM324 1329h8v-4h-8v4zM216 1317h8v-8h-8v8zM304 1309v-12l-8 -8v12zM328 1309q16 0 16 -124h-8q0 8 -12 8q0 17 -32 40q0 8 12 8v8l-4 -4h-12l-8 8v8q12 0 12 28h4l8 -32h4l20 44v8zM232 1297h4v-4l-4 -16v-4h4 q1 20 12 20h4v-4q0 -22 -16 -28l-12 12v16zM268 1293h4v-4l-4 -24l4 -12h-24v8zM340 1153l4 -4v-4l-8 -8l-4 4v4zM340 873h4q11 0 16 -60q-12 4 -12 24l-16 -8l-8 24h8v-8h8v28zM252 813q52 -21 52 -28l4 -12h12q0 20 8 20l16 -12q0 -12 32 -16v12q37 -41 84 -72v8h4 q50 -12 88 -12h52l8 -8v-80l-8 -8h-64q-196 0 -196 -248v-228q0 -248 -104 -288q-64 -36 -188 -36h-44l-8 8v80l8 8h8q161 0 188 64q28 50 28 172v228q0 197 88 248q59 36 80 36l-4 4v8h4q8 0 8 -12h4v4l-4 12l8 8l-16 16h-8q-8 0 -8 -16l-16 -8q-79 33 -108 96l-8 20l4 4v4 l-8 20zM296 813h4l8 -8v-4h-4l-8 8v4zM364 789h4l8 -8v-4zM324 757v-28l16 -12l4 4v4l-4 20l4 12l-12 8zM280 749v-8h4v8h-4zM312 717v-8l8 8h-8zM488 697v-4l8 -8v12h-8zM520 641v-4l16 -12v4zM420 625l8 -8v8h-8z" />
<glyph unicode="~" horiz-adv-x="1258" d="M1216 712v-96q-102 -86 -240 -120q-37 -12 -92 -12h-36l-80 8v4l8 12v12l-20 4l-8 -12l4 -12h-4l-260 80q-104 24 -108 32l-8 12v16h8v12l-4 -4h-4l-24 8l-16 -20l12 -20q0 -11 -96 -24q-106 -32 -244 -128l-4 4v92q22 29 128 80q36 20 52 20v-4l4 -12h-4q8 -27 28 -36 l4 4l4 -12l12 8h8l4 -4h4q6 28 20 28h4l-12 24l4 4v4q-16 0 -16 16q6 8 80 16l12 -12h4q0 12 12 12q176 -14 176 -48l4 -12h4q8 0 8 16l4 4h4q217 -84 308 -84h16q137 0 336 140h4zM176 616v-8l8 8h-8z" />
<glyph unicode="&#xa1;" horiz-adv-x="195" d="M20 1308h112l8 -8v-224l-8 -8h-112l-8 8v224zM20 968h112l8 -8v-216h-8q-17 6 -48 68h-4v-8q0 -17 60 -76v-36h-12q0 -8 12 -8v-28q0 -22 -36 -88l4 -28h-4l-12 8v-4q42 -34 52 -84l-4 -32q0 -16 16 -16v-8h-4l-4 4h-4q-6 -28 -40 -28v-8q36 -4 36 -16v-24q0 -8 -32 -8 q0 -8 -28 -8l-32 -12v-4l4 -4l88 8v-88l-4 -16l4 -16v-24q-26 0 -28 -12v-8h28v-12l-4 -4l4 -4v-52l-40 -40v-4h4l32 28h4v-44l-8 -8h-112l-8 8v32l4 12l-4 20v308h-8v4l4 12h-8v12l12 48v504zM52 804v-4l8 -8v12h-8zM100 756v-8h4v8h-4zM80 748v-8h4v8h-4zM104 744v-8h4v8 h-4zM76 720l4 -16h8v8l-8 8h-4zM120 676v-8h4v8h-4zM20 664v-8h4v8h-4zM124 660v-8h4v8h-4zM132 596l8 -12v-92q-8 0 -24 52l8 8v4h-16v4q16 15 16 32l4 4h4zM48 584l8 -8v8h-8zM52 460h8v8zM160 464l4 -4v-4l-8 -8l-8 8zM180 448h8v-4h-8v4zM180 436h4l4 -20l-8 -8l-8 12v8 zM200 280q13 -12 36 -12v-4q0 -18 -56 -36v4l20 24l-8 12v4zM172 224l4 -4v-8h-12v4zM72 188v-8h4l12 12h-4zM44 100l8 -12v-12h-8v-4h8l4 4l8 -8h4l16 16q0 9 -28 24h-4z" />
<glyph unicode="&#xa2;" horiz-adv-x="944" d="M428 1226h104l8 -8v-172q0 -7 112 -28q174 -65 260 -236l32 -96l-4 -4h-124l-44 96q-101 148 -272 148h-24q-206 0 -312 -236q-32 -74 -32 -172q0 -271 236 -384q73 -24 128 -24q199 0 296 200q19 52 24 52h120l8 -8q-36 -108 -100 -192q-127 -132 -180 -132v-8l16 -4 q0 -18 -56 -35v4l20 23l-8 8l-96 -19v-76l-8 -28h8v-4l-8 -20h-8v12q-17 -16 -40 -16l-8 20l8 24v4h-4l-16 -28v-24l4 4h4l4 -4l-4 -16v-8h4q3 24 12 24l4 -12q-9 -24 -16 -24l-4 4l-4 -4h-8l-16 12l-12 -4v12l-12 60v95q-51 0 -132 40l12 40q-20 70 -64 96l-16 4h-20 q-10 0 -16 -44v-12l12 -20l-4 -4h-4q-6 22 -36 32l-4 4v12l8 12v8h-12v-16h-4q-140 146 -140 356v12q0 319 284 472q90 40 136 40v184zM552 250q34 -11 36 -28l-20 -28l4 -24l-20 -24h-4q-24 0 -24 16q8 40 32 40l-8 44zM932 250h8l-8 -8v8zM84 242v-8l8 8h-8zM604 218l4 -4 v-4l-8 -8l-8 8zM476 206h8l8 -8v-24l-12 -12l12 -20v-4l-8 -16l-36 16l4 12h-8v12q0 44 32 44zM624 202h8v-4h-8v4zM624 190h4l4 -20l-8 -8l-8 12v8zM592 166h8v-8h-8v8zM636 106v-8h4v8h-4zM620 54v-8l8 8v8zM604 46v-8h4v8h-4zM616 -21l4 -4v-8h-12v4zM464 -49 q0 -24 -12 -24l4 -20v-4l-4 -24v-4h4q3 36 12 36v-8h4v4l-4 4v4l4 24l-4 12h-4zM512 -137v-4l-4 -24l4 -12l-4 -4l-4 4h-4l-12 -4v4q13 40 24 40zM536 -149l4 -4v-32l-16 -4l-4 4v8l8 8l4 -4v4l-4 16l4 4h4zM532 -197h8v-4h-8v4z" />
<glyph unicode="&#xa3;" horiz-adv-x="921" d="M455 1336q277 0 380 -276l16 -64l-4 -4h-112q-6 0 -28 76q-87 152 -248 152q-144 0 -244 -116l-20 -8v-8h8q-40 -96 -40 -160l8 -60l-4 -4h-4l-12 4q-11 0 -16 -24l8 -8v-4h-8l-4 4h-4l-4 -12l8 -8v-8l-68 24l-12 -4l-4 4v4l8 36q0 13 -16 28v48q0 212 212 340 q95 48 204 48zM703 1112v-4l8 -20h8l-12 24h-4zM55 948v-4q0 -32 28 -32v4q-7 18 -28 32zM171 852h8v-4h-8v4zM179 844h8v-12h-8v12zM59 808h16l8 -8v-4l-8 -8h-12l-12 12zM139 808h4v-8l-8 -8l4 -16h32l16 -16q0 -33 -32 -40v4l-4 -4h-16q-35 18 -48 36v8q19 25 44 32 q0 12 8 12zM-73 740q20 0 36 -20l-4 -4v-4l-4 4l-20 -4h-4q-8 0 -12 24l4 4h4zM335 732h16l12 -8h4l12 8h88l16 -4l16 4h20q13 0 28 -12q8 0 8 12h96l8 -8v-112l-8 -8h-120v4q36 27 36 60v8q0 13 -52 16l-24 -12l-8 8v12l20 -4l4 4v8l-8 8h-4l-20 -4v-8l4 -20l-20 4 q0 -12 -8 -12h-20l-20 16l-4 -4q-10 0 -16 -20q-16 0 -24 -36h-8v-8l4 4q36 -10 36 -20v-4h-76q-8 8 -32 8v4l-4 -4h-8v8q8 0 8 16h8v-4l-4 -4v-4l12 -4q12 3 16 16l-4 20l16 32l-8 12q0 30 12 32zM247 700h8q0 -20 20 -20l-8 -8h-12l-8 8l4 16zM291 700l4 -4v-4l-4 -4h-8v4 zM-277 692l8 -8l-4 -4h-12v4zM363 676v-8h4v8h-4zM-229 660h8l4 -16l-12 -8l-12 12zM283 652l8 -12l-12 -8l-4 4v8zM-165 616v-8h-8zM263 612q0 -9 40 -16l8 -12l-4 -20h24q52 -94 52 -216v-44l-8 -8q-53 40 -80 40l4 -4v-4h-28l-12 68l4 4h4l32 -8v4l-4 12h4l12 4v-8h12v12 q-13 0 -24 12q0 -8 -16 -8l4 -20h-4l-8 8l4 4h-4l4 4v8h-12l4 -4v-8h-8q-8 0 -16 36l20 8v4h-8l-12 -4l-16 40q36 16 36 32h12v4h-8v4l4 4v4l-20 4l-12 -4l4 4v4l-4 4l4 4h-8v4q0 10 28 20q0 12 -12 12v8zM199 592l8 -8h-8v8zM223 560h8l8 -8l-12 -8l-4 4v12zM75 536h12 q40 -8 40 -20v-16q0 -8 -48 -24l-8 -8h-4l-8 8l4 4q-14 8 -20 24q0 11 32 32zM283 528v-4h8v4h-8zM295 524v-8h4v8h-4zM279 492v-8h4v8h-4zM763 480l8 -8v-12l-4 -4v-4q9 0 16 -36v-4h-8q-36 22 -36 64l4 4h20zM787 480h72q20 -13 20 -108v-40h-8q0 20 -20 20v-4l4 -4v-4h-4 q-25 21 -56 108l-16 24zM263 436v-4h16v4h-16zM59 432l4 -4v-4l-20 -8v8zM747 424h4q68 -52 68 -64v-16h-8q0 16 -8 16l-48 -20l-4 4v32zM23 376l4 -4v-4q0 -8 -12 -8l-12 4v8zM-169 352h8v-4h-8v4zM787 340h16q24 -56 24 -76q0 -51 -36 -72l20 -28v-20q-17 -28 -24 -28h-4 q-8 0 -8 20q-11 0 -20 44q-7 0 -32 56l40 96zM823 340h4q10 0 16 -32v-12l-8 -8q-11 0 -16 40zM763 316v-4h8v4h-8zM867 320h8v-12l-8 -8v20zM331 316l16 -16h-4l-12 12v4zM275 312h4q85 -20 100 -48l-4 -4h-4l4 -4v-4q-4 -41 -52 -136h4l96 -4h4q126 0 232 48q8 0 8 12l4 4 h4l40 -20h4v4q-36 11 -36 20l36 44q21 -19 40 -92l4 -4v-16q-21 -32 -52 -32v-8q20 0 20 -8v-4q-88 -60 -296 -60h-436l-8 8v100l8 8h188q49 34 80 184v4l48 -20h4v4q-44 13 -44 20v4zM347 300h8l12 -4v-8h-4zM327 280v-4l32 -12q0 7 -28 16h-4zM279 256q0 -8 12 -8h8v4z M787 224v-8h8z" />
<glyph unicode="&#xa4;" />
<glyph unicode="&#xa5;" horiz-adv-x="959" d="M140 1308q11 0 340 -668q32 51 248 500q82 167 88 168h140q-36 -83 -228 -448h156l8 -8v-84l-8 -8h-204q-10 0 -84 -152h288l8 -8v-84l-8 -8h-340v-500l-8 -8h-116l-8 8v500h-344l-8 8v84l8 8h292v4l-76 148h-112v8l4 4q0 16 -48 24q-13 0 -28 -12l-12 12v4l20 -4l8 8 l-4 12h-20l-12 -12l4 -16l-24 -4v48l28 28h28l12 -8l8 8h92v4q-36 60 -36 76h24v16q-20 0 -20 16l-20 -4h-4l-64 132l4 4q-12 0 -12 8l20 24h-4l-16 -16h-8l-92 184l4 4h136zM172 1072v-4h8v4h-8zM224 1044v-4l32 -16l4 4v4q0 8 -32 12h-4zM220 1036v-8l12 -4v8zM200 1016 v-4l8 -12l-4 -4q10 -28 24 -28q0 8 12 8l4 4v12q-16 0 -16 16zM248 1004l24 -24l12 4v4q0 9 -36 16zM224 888h8v8zM104 848v-4h8v4h-8zM136 836v-4l20 -12h4v8l-8 8h-16zM84 832v-4h8v4h-8z" />
<glyph unicode="&#xa6;" horiz-adv-x="532" />
<glyph unicode="&#xa7;" horiz-adv-x="727" d="M356 1532h28q210 0 260 -212l8 -88l-4 -4h-108q-8 0 -16 80q-44 116 -168 116q-130 0 -144 -148q0 -125 256 -248q140 -79 216 -168q40 -69 40 -144v-16q0 -148 -172 -240q92 -91 92 -188v-32q0 -169 -212 -232l-76 -8h-8q-197 0 -272 164q-20 45 -20 104v40h4l4 -4h4 l8 8h96q9 0 20 -92q43 -108 168 -108q116 0 152 100l8 48q0 116 -184 212l-136 88l12 16q8 0 8 -12h8q18 18 44 20v4l-20 16v8h-4q-40 -9 -40 -24l-48 -8q-160 117 -160 240q0 177 176 264v4q-88 71 -88 164v44q0 147 172 220q41 16 96 16zM128 852q0 -29 28 -92l-4 -4 q12 0 12 -12q8 0 48 -40q106 -78 144 -96l120 -76h4q112 72 112 164v8q0 120 -216 232l-124 76q-124 -57 -124 -160zM128 764q0 -12 -12 -12l-4 -4v-8l24 24h-8zM140 748v-4h8v4h-8zM184 680l4 -4l-4 -4l4 -4h12l-8 20zM252 656l16 -44h8q21 0 24 12v8q-16 0 -16 16z M280 536v-8h8v8h-8zM224 56v-8h8z" />
<glyph unicode="&#xa8;" horiz-adv-x="517" d="M8 1399h112l8 -8v-132l-8 -8h-112l-8 8v132zM340 1399h116l8 -8v-132l-8 -8h-116l-8 8v132z" />
<glyph unicode="&#xa9;" horiz-adv-x="1318" d="M660 1320q323 0 536 -276q120 -171 120 -376v-20q0 -75 -20 -164h-8q0 12 -36 76v4h-8q8 -53 20 -72l-4 -4h-4q-18 7 -28 24l16 148q0 317 -292 504q-140 80 -300 80q-330 0 -520 -328q-60 -139 -60 -260q0 -306 296 -504q141 -76 284 -76h12q295 0 492 272q51 92 56 116 h8l-4 16l4 20h8q56 -37 56 -56q0 -13 -64 -32l-32 -64v-8l4 -16l-4 -12l16 -16v-8q-219 -288 -540 -288h-16q-362 0 -580 360q-52 120 -52 164l16 12v8q-12 0 -28 24v12l4 4l-8 24v60q0 317 288 540q168 112 372 112zM668 1068q196 0 276 -164q16 -37 16 -68l-4 -4h-96 l-36 76q-68 72 -144 72h-32q-142 0 -200 -172q-20 -83 -20 -152q0 -241 164 -304q15 -8 72 -12q150 0 204 164l4 4h92l4 -4h4q0 -74 -80 -164q-93 -88 -228 -88h-16q-227 0 -312 232q-24 80 -24 168v20q0 281 232 376q57 20 124 20zM12 584l8 -8v8h4l16 -8l8 12l-4 4h-24z M36 560v-4l24 -24l12 12zM1208 436v-4l4 -12h4v4l-4 12h-4zM1268 420l4 -4v-4l-56 -112h-12l-4 16l8 20h-12v4l12 12v12q0 8 16 8l-4 4v8q19 30 48 36zM1136 244v-8h8v8h-8z" />
<glyph unicode="&#xaa;" horiz-adv-x="758" />
<glyph unicode="&#xab;" horiz-adv-x="599" d="M224 872h112l8 -8l-220 -284l220 -284l-4 -4h-116l-224 288q164 224 224 292zM496 872h112l8 -8l-100 -124h-8q-29 60 -36 60v-8q0 -16 40 -60l-28 -32l-16 4l8 -24l-80 -100q144 -177 144 -196q-12 -12 -44 -20v-8q36 0 52 -20v-12q0 -10 -64 -20l-212 276 q194 262 224 292zM444 788v-4l8 -8v12h-8zM492 744v-8l4 -12h4v4l-4 16h-4zM472 736v-8h4v8h-4zM412 652v-8h4v8h-4zM444 452v-8h8v8h-8zM556 372l8 -8v-16q-21 0 -24 12v4z" />
<glyph unicode="&#xac;" horiz-adv-x="1196" />
<glyph unicode="&#xad;" horiz-adv-x="464" d="M8 648h408l8 -8v-84l-8 -8l-8 16h-12v-8q12 0 28 -24l-8 -8h-56l-4 4l-4 -4h-4l-16 4l-12 -4l-48 8l-36 -8h-228l-8 8v108zM412 600v-4h8v4h-8zM336 548l12 -12v12h-12z" />
<glyph unicode="&#xae;" horiz-adv-x="1322" d="M1052 1380h8l8 -8v-8h-16l-8 8zM660 1320q306 0 520 -252l8 8l8 -8l-12 -12q132 -168 132 -392v-12q0 -120 -28 -120q-62 -57 -64 -76l-16 -4q32 99 32 172v8q-12 0 -12 8v8q0 8 16 8q0 118 -60 268q12 0 12 12h-4l-12 -8l-56 84h-4q0 -16 -20 -24q0 -12 -16 -20h-12 l-12 12v20q0 9 28 12q6 16 12 16l16 -4q-111 126 -188 152q-94 49 -160 56l-24 -20q-7 0 -28 28l-56 4q-373 0 -552 -384q-36 -113 -36 -204q0 -313 304 -508q135 -72 276 -72h12q156 0 320 96h4q20 -7 20 -20q0 -20 -52 -20q0 -8 -28 -8l-32 -12v-4l16 -4l28 8l4 -4h4l60 8 l4 -4v-4q-67 -55 -204 -92q-74 -16 -144 -16h-16q-363 0 -576 356q-72 143 -72 284v48q0 271 256 496q176 136 404 136zM992 1276l8 -8l-8 -8l-8 8zM1072 1216h4l8 -8v-4l-8 -8h-4l-8 8v4zM512 1204h8q21 0 28 -20q26 0 28 -12l-12 -12h-16q-8 0 -8 16l-20 -8q-24 6 -24 24z M612 1172l12 -16l-8 -8h-12l-16 16v4zM1176 1152q24 0 24 -28q-3 -24 -24 -24q-16 6 -24 20q0 24 24 32zM632 1144l4 -4v-20h-12v8q-12 0 -12 8zM1276 1132l8 -8h-8v8zM1232 1104h8v-4h-8v4zM1212 1092l4 -4v-4l-4 -4h-4l-4 4v4l4 4h4zM852 1080h12l12 -12v-16l-16 -20h-4 l-20 24v8zM724 1076l8 -8v-4l-8 -8l-8 8v4zM404 1052h192q304 0 360 -88q36 -60 36 -128q0 -115 -104 -172l8 -12v-16l-20 -20h-8q-21 0 -36 12l-4 -4l-4 16h-8q128 -271 128 -284q23 -25 36 -64l-4 -4h-120q-10 0 -44 80q-34 0 -52 32q-27 12 -36 24v8q0 27 36 32v4 q-35 95 -76 156h-168v-68l4 -28l-4 -36v-196l-8 -8h-104l-8 8v356l-4 -4h-16l-12 12v4l12 12h8q8 0 8 -12h4v380zM1172 964l12 -12h12v12l-12 12zM516 972v-272h152l68 4v16h8l12 -12q76 16 76 32v4l-8 12v12l12 16q-12 56 -24 56l-4 4q-8 0 -8 12l4 4v4q0 12 -12 12l-4 4v4 l4 12l-12 8l-12 -4v8h12l-4 20h8l-4 4v8l8 12q-58 20 -124 20q0 -16 -24 -16q-5 16 -36 16h-88zM1200 948l12 -12l12 12v4h-4zM184 936h8l12 -12v-8l-8 -8h-12l-8 8v12zM1200 924v-4h8v4h-8zM1224 916v-8h4v8h-4zM324 864l8 -8l-8 -8l-8 8zM1244 860v-12l8 -8v12zM784 844h8 l4 -16l-4 -4h-12l-8 8zM800 816h4l12 -12l-12 -12h-4l-8 8v8zM1324 816h12l12 -12v-8l-12 -12h-12q-10 0 -12 16zM764 768h4l8 -8v-4l-8 -8h-4l-8 8v4zM632 756h4l12 -12l-8 -8h-8l-8 8v4zM724 744l12 -12v-12q-22 0 -32 -16l-4 4v4q18 32 24 32zM1456 744h8q8 0 8 -20l12 8 h12l8 -8v-20l-8 -8h-8l-20 16l-12 -4l-20 20v4zM320 740q9 0 12 -28l-4 -4h-4q-16 7 -16 28l4 4h8zM1340 708l12 -12v-4l-12 -12l-12 12v4zM944 672h4l12 -12v-4l-8 -8h-4l-12 12v4zM1208 600l8 -8v-4l-8 -8h-4l-8 8zM1100 592l8 -8l-8 -8l-8 8zM1096 552l8 -8l-4 -4h-4 l-8 8l4 4h4zM1112 520l8 -8l-8 -8l-8 8zM604 516h4q32 -11 32 -44q0 -36 -48 -40h-8q-17 9 -32 32q-18 0 -24 24h-4q6 17 20 24h16l12 -8q3 12 32 12zM716 512h4q20 -12 20 -28q-8 -18 -16 -20h-24q-12 4 -12 24v8q7 16 28 16zM656 504h8l12 -12v-4l-12 -12h-12l-8 8v8z M872 472v-8h4v8h-4zM900 392l8 -8v8h-8zM1060 232v-16l-12 -12l-8 8v4q2 8 20 16zM1032 208l8 -8l-4 -4l8 -8l-28 -16h-4l-12 12v4q17 0 32 20z" />
<glyph unicode="&#xaf;" horiz-adv-x="1131" />
<glyph unicode="&#xb0;" horiz-adv-x="502" d="M232 1392h36q159 0 228 -196l4 -56q0 -163 -172 -236q-32 -12 -68 -12h-24q-36 0 -68 12l8 16v4h-4q0 -16 -20 -16q-47 18 -88 64l8 24v4h-4l-4 -24q-18 0 -48 76l40 96h8v-16q0 -125 148 -172l44 -4q121 0 172 136l8 52q0 129 -144 180l-32 4h-20q-123 0 -176 -152 q-31 -84 -40 -84l-4 4v4q24 68 44 100h-4l-4 4h-4v-8h-4l-4 4h-4q0 -10 -28 -40l-4 -20h-8v20q0 151 176 224zM80 1264l-4 -16l12 16h-8zM40 1188h8v-4l-8 -8v12zM20 1156h4v-8h-4v8zM4 1128l4 -4h4l-4 -24h-8zM80 1040v-8h4v8h-4z" />
<glyph unicode="&#xb1;" horiz-adv-x="1124" d="M504 1255h76l8 -8v-304h484l8 -8v-76l-8 -8h-484v-304l-8 -8h-76l-8 8v304h-488l-8 8v76l8 8h488v304zM8 339h692l4 -4l4 4h48v-8q-47 0 -68 -76l-12 -8h-668l-8 8v76zM828 339v-20h-8l-8 16l4 4h12zM836 339h116l-44 -48l-36 -44q-32 26 -32 48v4l8 16l-12 20v4z M784 335h8v-8h-8v8zM752 323h24q24 -56 24 -72l-4 -4h-100v4l8 24h16l-4 20q13 0 20 20zM796 323h4q16 -7 16 -28v-16l-8 -8q-11 0 -16 40zM736 299v-4h8v4h-8zM628 271v-4l8 -8v4z" />
<glyph unicode="&#xb2;" horiz-adv-x="682" />
<glyph unicode="&#xb3;" horiz-adv-x="682" />
<glyph unicode="&#xb4;" horiz-adv-x="307" d="M169 1597h128v-4q-170 -230 -240 -312h-48l-8 8v8l8 12l-4 24q152 258 164 264z" />
<glyph unicode="&#xb5;" horiz-adv-x="1034" d="M400 1340l8 -8q-124 -567 -124 -632v-28q0 -86 48 -152q16 -26 16 -44h-8q-80 65 -80 100h-12v-4q0 -24 128 -136l8 -12v-16h-8q0 16 -8 16q-17 -13 -60 -20q0 7 -44 36l-24 36l-8 16h-4l-104 -492h-116l-8 8l284 1332h116zM1028 1340q-108 -546 -124 -572l-96 -68h8 l84 56h4v-4l-40 -224v-4q0 -40 24 -44v-12l-16 -4l-28 4l-16 -4l-64 12h-4q-8 0 -8 -16h-8v-4q12 0 12 -8v-4h-8q-12 0 -12 52h-4q-6 -22 -44 -56h-28v4l8 32v4q0 17 -16 28q-39 0 -104 -84l-64 -64h-44l-12 12v8q0 8 12 8q-5 28 -16 28h-8v-12h-8q-36 65 -36 84h4 q51 -24 108 -24q95 0 184 84h4q0 -28 24 -28v4q-1 11 -20 16l-4 20q0 39 44 56q63 93 172 664q7 0 12 56l4 4h124zM992 892h8l12 -12v-8l-8 -8h-12l-8 8v12zM1132 820l8 -8l-8 -8l-8 8zM1128 696q9 0 12 -28l-4 -4h-4q-16 7 -16 28l4 4h8zM1164 652h8l-8 -8v8zM1180 632h12 q12 -4 12 -24l-4 -4h-16l-12 12v8zM224 568v-4l8 -8v12h-8zM272 520v-12h4v12h-4zM248 516v-8h8v8h-8zM248 484v-4l8 -8h4v4l-8 8h-4zM896 472q0 -11 24 -16l28 16l8 -8q-14 -96 -24 -96h-16l-4 4h-4l-8 -8q-5 20 -12 20v-8h-4l4 -4v-12h-8q-8 0 -8 28l-4 -4h-12v4l20 24 l-8 12v4l8 8l12 -8h4l4 20l-8 20l4 4h4zM300 456v-4h8v4h-8zM192 432v-8h4v8h-4zM928 424v-8h4v8h-4zM360 408l20 -32l-4 -4h-4l-40 16v12zM392 404q10 0 16 -32l-4 -4v-4q-18 8 -20 16v16zM848 380l4 -4v-8h-12v4z" />
<glyph unicode="&#xb6;" horiz-adv-x="824" d="M356 1332h408l8 -8v-48l-8 -8h-108v-1260l-8 -8h-60l-8 8v1260h-164v-848l-4 -4v-4l-32 16h-4v-4q31 -10 40 -24v-392l-8 -8h-60l-8 8v696h-4q-210 0 -308 180l-4 12q1 18 16 36l-12 12q2 23 12 36l-20 20l-16 -8l-4 4v24l4 16l-4 4v4q0 52 28 52h8v20l-16 4v8 q12 0 28 16h4v4q-12 0 -20 16q95 168 324 168zM220 1284l-16 -20h4l16 20h-4zM156 1244v-4l24 24v4zM188 1252l-4 -4v-4h4l4 4v4h-4zM232 1192v-8l8 8h-8zM320 1180l12 -12v8l24 -8l4 4v12h-20zM232 1180l8 -8h4l-8 8h-4zM300 1160q12 -16 12 -44h8q21 0 24 12v4q0 8 -16 8 v4l4 4v4zM352 1152v-4l20 -24l12 4v4q-2 9 -32 20zM68 1116v-8h4v8h-4zM260 1092h-4l-4 4h-4l-8 -12l-4 4h-4l-16 -12v-8l8 -12l-4 -4h-4l-36 16v20l-8 8h-24v-8l20 -20v-4h-12q0 16 -16 16v-8q15 0 24 -44l20 -4v-4l-20 -28v-8h8l16 32l4 -4h4l12 8l12 -8h4l16 16l-4 20 l4 4h-8v8q20 0 20 20h4l16 -12q29 20 48 20l-24 24v4q-36 -4 -36 -24zM76 1088v-4h8v4h-8zM328 1040v-8h8zM44 992v-8q10 0 28 -16h8v12q-4 12 -24 12h-12zM284 988v-4h8v4h-8zM196 984v-4h8v4h-8zM240 984l-4 -4v-4l20 -12h4v16zM184 976v-4h12v4h-12zM184 960v-28 q-16 0 -28 -12h-4q-14 0 -32 16h-8q-7 0 -12 -24q-24 0 -24 -44l4 4h4q32 -14 32 -44l16 8l44 -12q62 15 96 64l4 16l-4 4v4l4 12q-29 16 -52 16h-4l-24 -12l-8 12l4 4v4l12 -8l12 4v8l-12 12zM104 820v-4l8 -8h4v4l-8 8h-4zM952 556h12v-8h-12v8z" />
<glyph unicode="&#xb7;" horiz-adv-x="569" />
<glyph unicode="&#x2219;" horiz-adv-x="569" />
<glyph unicode="&#xb8;" horiz-adv-x="682" />
<glyph unicode="&#xb9;" horiz-adv-x="682" />
<glyph unicode="&#xba;" horiz-adv-x="748" />
<glyph unicode="&#xbb;" horiz-adv-x="599" d="M120 880l100 -128h-16l8 -12l-4 -4v-4l8 -24h16l12 8q78 -86 100 -132l-224 -284h-112l-8 8q96 120 104 120q72 29 72 68v12l-4 20l48 60l-56 76v4l12 -8q18 18 44 20v12q-20 0 -20 16q-40 -3 -40 -24h-8l-152 192l4 4h116zM276 880h116q224 -279 224 -292 q-149 -201 -224 -288h-116v4l216 284q-216 283 -216 292zM100 852h4l16 16v4zM76 860q0 -12 -12 -12l-4 -4v-8l24 24h-8zM132 776h8v8zM136 772l8 -8h4v8h-12zM228 632l8 -8v8h-8z" />
<glyph unicode="&#xbc;" horiz-adv-x="1708" />
<glyph unicode="&#xbd;" horiz-adv-x="1708" />
<glyph unicode="&#xbe;" horiz-adv-x="1708" />
<glyph unicode="&#xbf;" horiz-adv-x="764" d="M324 1336h116l8 -8v-224l-8 -8h-116l-8 8v224zM440 980l8 -8v-28h-4l-8 8l-16 -8q0 -12 24 -12v-4q-7 -87 -76 -196l-4 -4h-8l-12 8q-32 -20 -32 -28v-8q0 -13 12 -28l-112 -112h-4q0 10 -12 20q-24 -3 -24 -16l12 -48q-32 -60 -36 -124l8 -8v-4h-8l16 -20h-16 q0 -108 104 -192q65 -32 132 -32q182 0 236 184q15 108 24 108h120l4 -4h4q0 -267 -224 -388q-73 -36 -172 -36q-164 0 -276 116q-17 0 -52 32v8q0 10 16 12l-8 8l-12 -12l-16 16q0 12 24 12q-44 93 -44 192l4 32v4q-12 0 -20 16q24 0 24 28q21 72 32 72l4 -4v-4q23 3 44 28 h8l-12 24l-4 -4h-4l-8 8v4q5 33 140 156q104 111 104 236h120zM392 920l4 -12h16l12 8l-4 16h-20q-8 0 -8 -12zM260 756q0 -16 -16 -16v-4q16 0 20 -24l4 4h4l16 -4l24 28q-8 0 -8 12l-40 4h-4zM164 620v-4l8 -8l4 4v8h-12zM56 580h8l8 -8v-8l-12 -12h-4l-8 8v12zM232 556 l4 -4v-4l-4 -4h-4l-4 4v4l4 4h4zM-60 548h12l24 -20l-4 -4h-4q-36 4 -36 16zM-20 532h12l8 -8l-4 -4v-4h8v-8h-4l-20 12v12zM276 520h8l12 -12l-12 -12h-8l-8 8v8zM288 484l4 -4v-4l-24 -12zM260 464h8v-4l-36 -36l-12 12v4q9 12 40 24zM-16 444l4 -4v-4l-4 -4h-4l-4 4v4 l4 4h4zM-224 412l8 -8l-8 -8l-8 8zM360 352l12 -12l-8 -8h-4l-8 8v4zM4 320l8 -8l-4 -4h-4l-8 8l4 4h4zM424 312h4l24 -16v-4l-8 -8q-28 14 -28 20zM-164 308h12v-8l-8 -8l-4 4v12zM368 292l4 -4v-8h-12v4zM-128 276l8 -8l-8 -8l-8 8zM316 268l4 -4v-4l-8 -8l-4 4v4z M-112 260l8 -8l-4 -4h-4v12zM300 236l4 -4v-4h-12zM-68 212l12 -12v-4q0 -9 -20 -12l-4 4v12zM-12 196l16 -12l4 4h8l8 -8l-8 -8l-4 4h-4q0 -18 -16 -24h-16l-28 28v4q0 9 40 12z" />
<glyph unicode="&#xc0;" horiz-adv-x="1366" />
<glyph unicode="&#xc1;" horiz-adv-x="1366" />
<glyph unicode="&#xc2;" horiz-adv-x="1366" />
<glyph unicode="&#xc3;" horiz-adv-x="1366" />
<glyph unicode="&#xc4;" horiz-adv-x="1366" />
<glyph unicode="&#xc5;" horiz-adv-x="1366" />
<glyph unicode="&#xc6;" horiz-adv-x="1333" d="M511 1307h180l8 -8v-296l8 -12l-8 -32v-952l-8 -7h-112l-8 7v84l24 24v16q-24 30 -24 44v216l68 40v4q-48 -4 -56 -12h-12v12q41 55 92 76l4 4v4h-4q-22 0 -104 -84h-56q-6 0 -16 28q-59 19 -64 32q-14 0 -112 -44q-17 0 -36 -12q-40 8 -40 52h-12q-4 -52 -24 -52 q-21 0 -36 108l-4 4h-8v-4l4 -48h-4l12 -60l-4 -4h-12q-20 0 -20 8l-24 -8h-36l-24 -24h-4q-9 0 -12 20h-4q-8 0 -8 -16l-4 -4h-4q-18 28 -48 28v-4l12 -20h-4q-11 0 -44 40l516 760l-16 16l8 8q6 -16 12 -16h4zM471 1299v-4l-8 -8l-8 8l4 4h12zM71 1283h12v-8h-12v8z M535 1131l4 -20l-12 -8l-12 4v-4q-275 -403 -360 -540h260l4 -4l4 4h144l8 8v360l4 96l-16 32l4 44l-4 4h-4l-4 -4l-4 4v4l4 16q-8 0 -8 12h-4zM431 547v-8l8 8h-8zM311 543v-8h8v8h-8zM647 543v-8h4l8 8h-12zM31 527v-12l12 -4v8l-8 8h-4zM559 511v-4h8l8 8v4h-8zM595 519 v-8h8v8h-8zM403 511l-4 -4v-4h4l4 4v4h-4zM587 491v-4h4l20 4v8zM19 495v-8h4v8h-4zM71 491v-8h4v8h-4zM-9 483q3 -44 12 -44l8 8v28l-12 12l-4 -4h-4zM411 487h4q13 -16 32 -16v-4l-4 -4v-4l4 -4h4l8 8q8 0 8 -16q16 0 16 -8l-4 -4h-4l-4 4l-20 -4h-144v8q17 0 40 16l48 20 l16 -8v16zM511 475v-4h12v4h-12zM539 467v-8l8 8h-8zM51 463v-8h4v8h-4zM231 451l4 -12l-4 -4h-4l-8 8zM-85 443h8q0 -8 32 -32q32 -25 32 -40l4 4h16l4 -20h-4l-12 4v-28q-16 0 -16 -12h-20v-4q20 0 20 -8q-24 -31 -48 -40l-4 -12h8v-8q-36 -46 -36 -56q-46 -65 -56 -68 q0 -16 -16 -16l4 -4v-4l-12 -4l4 -4v-8l-60 -83h-144l-8 7zM27 403h8v-8h-8v8zM-85 375q6 -16 12 -16h8v4l-4 12h-16zM-197 259v-12h16v8zM-177 243v-4h8v4h-8zM-109 243v-8h8v8h-8zM-109 223l-4 -4v-4h16v4zM-137 219l8 -8l4 4v4h-12zM659 119v-4h8v4h-8zM611 71h4 q18 7 28 24v4q-32 0 -32 -28zM593 1308h144q1 -20 12 -20h4q8 0 8 16l4 4h136q16 0 16 -80l-12 -8l-12 16l-12 -4v-8l8 -12l-8 -8h-4q-8 0 -8 12l-12 4v-4l4 -16h-4q-40 9 -40 28q-8 0 -8 -12l-4 -4h-4q-10 20 -36 20l4 -4v-8h-4q-52 45 -52 56h-8v-4q76 -84 88 -84v-8h-36 l-16 4l-24 -4v-108l-4 -4l4 -4v-36q0 -13 -12 -28l4 -4l-12 -4v-4q20 0 20 -8v-4q-8 0 -8 -12l-16 -16h4l16 8l4 -4v-228h100q0 24 8 24q36 -5 36 -24h132v-12l16 12h16v-4q0 -8 -16 -8l4 -4v-4l-8 -36q9 -43 52 -76h-240l-16 4l-16 -4h-60l-12 8l4 -28v-444h540l8 -8v-112 l-8 -8h-664l-8 8v820l4 4l-4 4v464zM1029 1308l4 -4l4 4h220l8 -8v-24l-84 -84h-8l8 12q-16 60 -60 60l-8 8h-24q-34 -28 -92 -40q-24 14 -24 40h-8q-5 -40 -16 -40h-4q-12 0 -24 72l4 4h104zM821 1296v-8h8v8h-8zM677 1292v-8h4v8h-4zM1217 1292v-8h4l8 8h-12zM1249 1276 v-4h8v4h-8zM793 1268v-28l8 -8h4v28l-8 8h-4zM1089 1264l16 -8v8h4q24 -9 24 -20l4 4h4q28 -14 28 -40l-32 -16v-4h4l20 4l4 -4v-8h-32v8h-12l-16 -4q-28 0 -48 28q-31 -20 -56 -20l-4 -4l-12 16q27 32 52 32h12q0 12 40 28zM1257 1264h8l4 -32l-48 -12v4zM965 1244h8 q0 -16 12 -28v-8l-4 4h-4l-4 -4l-12 16zM1265 1216v-28l-8 -8h-64v4q1 6 72 32zM649 1096v-8h12v8h-12zM665 1084v-4h8v4h-8zM697 1068v-4h8v4h-8zM1453 1056h4l12 -12l-8 -8h-8l-8 8v4zM1505 1028l8 -8v-20l-8 -8h-4l-12 12v8zM681 1000v-8h4v8h-4zM669 984v-4h8v4h-8z M665 976v-4h8v4h-8zM1209 748h4v-4l-8 -8h-8zM1089 724h168l8 -8v-116l-8 -8h-32l-20 20l4 4q-8 0 -12 24h-4l-16 -8v8q11 28 32 28v20q-52 0 -52 -24h-8l-16 12h-8q24 -18 24 -36l-4 -12l12 -8h16l4 4h4q0 -12 16 -12v-4l-16 -16h-96l8 48l4 -4l12 4v12l-12 12l-12 -4v4 l-8 20zM1185 684h8v-4h-8v4zM1093 656v-16l-12 12l4 4h8zM1113 612v-8h8l4 16h-4zM917 536q17 0 40 -28q0 -17 -56 -40l-12 -12h-4l-8 8l32 40l-8 20zM705 520l-12 -28v-4h4l12 28v4h-4zM825 440h8v-12h-8v12z" />
<glyph unicode="&#xc7;" horiz-adv-x="1228" d="M659 1374v-4l4 4q268 0 480 -220q51 -59 96 -140l-8 -8h-144q-173 236 -436 236h-16q-326 0 -492 -356q0 -28 -16 -28l8 -8q-5 -24 -12 -24v12h-4v-8h-4l-4 4h-4l-4 -20l4 -12l-4 4h-4v-4l4 -16l-4 -4h-8v8l4 4v4q-23 0 -28 28h-12v-12h-8l-8 8v4q12 0 12 12l-4 16l20 16 h8l4 -4h4q3 21 20 36v4h-4q-24 -28 -60 -28v-24l-4 -4l4 -4v-8h-4q-7 0 -12 20l4 16l-20 4l-4 -4l-4 4v4q10 40 16 40l12 -4v12q9 40 36 40l4 -4v4l-8 16l12 44l-4 4v4q205 336 592 336zM491 1278v-8h4v8h-4zM471 1234q8 0 16 28q-8 0 -16 -28zM75 958v-4l12 4v8h-4z M-297 890l24 -8l20 8l4 -4l-4 -4v-4l4 -4q-4 -24 -20 -24q-40 17 -40 24v4zM-233 882l8 -8l-8 -8l-8 8zM-209 866l4 -4v-8h-12v4zM-461 858q17 0 28 -16q-8 -24 -16 -24q-28 0 -28 20q8 18 16 20zM15 854h8l-8 -8v8zM123 850v-8h4v8h-4zM11 850l8 -12l-4 -4h-8l-8 8z M-213 838h12v-4l-8 -8h-4v12zM-269 814h12v-8h4l12 8l20 -20q0 -8 -32 -12l-20 -24l4 -4v-4l-16 -24h-4v4l-4 -4h-4q-29 0 -40 48q0 24 32 24l20 -12l16 24v4zM-89 810l8 -8l-8 -8l-8 8zM-377 802h4l8 -8l-8 -8h-4l-8 8zM-413 778h4v-8h-4v8zM-245 770h4l12 -12l-12 -12h-4 l-8 8v8zM63 766h4v-8h-4v8zM-233 746h20l12 -12v-8l-12 -12h-8l-12 12v20zM-445 742l4 -4v-16h-4l-8 8v4zM-21 742l4 -4v-4l-8 -8h-4v8zM-669 738l8 -8v-4l-8 -8l-8 8v4zM43 738h4q8 -2 36 -44l16 12l8 -8h4v16h8v-4l-4 -4v-4l4 -4h4l16 4q0 -8 20 -8q0 -20 20 -20 q0 -16 8 -16l16 4v-8q-20 -1 -20 -12l4 -4l-4 -4v-8q12 0 12 -8l-4 -4v-4l-4 4h-12q-20 -15 -20 -28h-4l-12 8l-12 -12h-4v8h-4v-12h-8v12h-4q0 -27 -16 -40l-12 8l-12 -8l-8 8h-4q0 -12 -16 -24v-8l-24 8q-15 0 -44 -32q-8 0 -8 -16l-12 4l-4 -4h-4l-4 4h-4l-20 -4l-4 4h-4 l-4 -4h-4l-12 4l-4 -4q0 16 -20 48l4 4h-12l8 36l-4 12h4q12 0 12 8v20h4l4 -4h4v8h-8l-4 -4q-20 8 -20 24q8 18 16 20h12q12 0 12 -24q12 0 12 16h8q0 -12 36 -24l8 16h8v-4l-8 -12v-4l16 -4l4 4l16 -16l12 8l-4 12h8v-8h8l-4 4v4l16 20q12 0 32 24l-4 4v8l16 4 q-7 24 -32 40v12zM-181 706l4 -4l4 4h4q12 0 24 -24q-5 -17 -20 -24h-8l-16 16v24zM-241 690h4v-8h-4v8zM211 666h8v-8h-8v8zM-553 654h4l8 -8l-12 -12l-8 8v4zM-585 646h4l16 -20v-4l-8 -8h-4l-16 16v8zM191 638h4v-8h-4v8zM-217 614l12 -12v-4l-8 -8l-12 20l4 4h4z M387 614h8v-8h-8v8zM419 610l4 -4v-12l-12 -12h-8l-8 8v4q8 16 24 16zM-637 586l8 -8l-12 -12h-4l-4 16l4 4h8zM-661 574q24 -10 24 -28l-16 -12h-16l-12 12v16q0 7 20 12zM159 498h8q8 0 8 -12q20 -5 20 -12v-8l-8 -8h-8l-4 4l-28 20v4zM-173 486l12 -12v-12l-12 -12 l-16 16q8 18 16 20zM-325 402h12l8 -8l-4 -20h-16l-8 8v12zM1079 362h148q-92 -200 -316 -300q-117 -52 -268 -52v-72h28q140 0 176 -96l8 -32v-52q0 -95 -140 -128l-44 -4h-44q-101 0 -204 36v60l8 8q132 -28 200 -28h28q96 0 96 80q0 92 -136 92h-24l-4 -4h-4l-4 4v140h-4 q-171 0 -376 156l-16 104q12 0 12 16h4l20 -20l12 4v16l-8 12l12 12q21 -21 40 -24q41 -47 120 -96l-12 -24l8 -8h4l12 8l12 -8v16h8q108 -31 108 -40h8v4l80 -4h28q249 0 424 224zM-181 330l12 -28l-12 -8h-8q-8 0 -8 12q10 24 16 24zM79 326h12q8 0 8 -12l-4 -12l-16 16v8 zM115 310l16 -24v-8l-12 -12h-4q0 16 -20 32v4zM151 274q18 0 28 -72h-4q-44 37 -44 52q7 20 20 20zM-141 262l20 -32q-14 -28 -32 -28q-28 0 -28 40zM291 258l8 -8v8h-8zM327 226v-8h4v8h-4zM303 202l12 -16v8l-8 8h-4zM435 134v-8l8 8h-8z" />
<glyph unicode="&#xc8;" horiz-adv-x="1366" />
<glyph unicode="&#xc9;" horiz-adv-x="1366" />
<glyph unicode="&#xca;" horiz-adv-x="1366" />
<glyph unicode="&#xcb;" horiz-adv-x="1366" />
<glyph unicode="&#xcc;" horiz-adv-x="569" />
<glyph unicode="&#xcd;" horiz-adv-x="569" />
<glyph unicode="&#xce;" horiz-adv-x="569" />
<glyph unicode="&#xcf;" horiz-adv-x="569" />
<glyph unicode="&#xd0;" horiz-adv-x="1479" />
<glyph unicode="&#xd1;" horiz-adv-x="1479" />
<glyph unicode="&#xd2;" horiz-adv-x="1593" />
<glyph unicode="&#xd3;" horiz-adv-x="1593" />
<glyph unicode="&#xd4;" horiz-adv-x="1593" />
<glyph unicode="&#xd5;" horiz-adv-x="1593" />
<glyph unicode="&#xd6;" horiz-adv-x="1593" />
<glyph unicode="&#xd7;" horiz-adv-x="1196" />
<glyph unicode="&#xd8;" horiz-adv-x="1341" d="M1216 1414l84 -60v-12l-152 -184v-4q131 -122 180 -332l-48 -56q-10 4 -32 40v12l8 12q0 24 -20 24v-12h-4q-17 11 -56 108l-20 40h-4v-8l4 -4v-4l-4 -12l16 -44l-4 -4h-4l-64 92l-40 44l-684 -828l4 -4q141 -96 300 -96q209 0 368 156l12 -8q8 2 16 20l-4 16 q26 40 60 40h4v-4l12 4v16h-20l-4 4h-4l56 104h4l8 -8v-12q-12 0 -20 -16v-4l24 8l4 -4v-4q-14 -32 -20 -32l4 -12h4l12 8l4 -4v-4l-8 -8l-20 4l-16 -12q20 -5 20 -12q-26 -26 -28 -48h8l12 8h4v-4q-68 -76 -80 -76v-12q124 103 124 128q0 8 20 8v-4l-8 -12q32 0 32 -8 q-213 -339 -556 -339h-72q-170 0 -344 123q-164 -203 -184 -219h-8l-76 60q0 19 124 155l56 72q-196 223 -196 496q0 331 292 552q172 120 388 120q206 0 384 -128zM140 674q0 -218 144 -376l692 832q-145 100 -296 100q-334 0 -500 -336q-40 -98 -40 -220zM1168 898 q32 -19 32 -44v-4h-8q0 12 -16 12q-6 0 -12 36h4zM1204 842h12l8 -28v-16l-8 -8q-10 0 -16 40zM1188 822h8q12 -38 12 -68v-4h-8zM1312 498q34 -11 36 -28l-20 -28l4 -24l-20 -24h-4q-24 0 -24 16q8 40 32 40l-8 44zM1364 466l4 -4v-4l-8 -8l-8 8zM1236 454h8l8 -8v-24 l-12 -12l12 -20v-4l-8 -16l-36 16l4 12h-8v12q0 44 32 44zM1384 450h8v-4h-8v4zM1384 438h4l4 -20l-8 -8l-8 12v8zM1352 414h8v-8h-8v8zM1404 282q13 -12 36 -12v-4q0 -18 -56 -36v4l20 24l-8 12v4zM1376 226l4 -4v-8h-12v4zM1068 190h8v8zM1008 154h4l16 16h-4z" />
<glyph unicode="&#xd9;" horiz-adv-x="1479" />
<glyph unicode="&#xda;" horiz-adv-x="1479" />
<glyph unicode="&#xdb;" horiz-adv-x="1479" />
<glyph unicode="&#xdc;" horiz-adv-x="1479" />
<glyph unicode="&#xdd;" horiz-adv-x="1366" />
<glyph unicode="&#xde;" horiz-adv-x="1366" />
<glyph unicode="&#xdf;" horiz-adv-x="929" d="M378 1328q260 0 356 -240q20 -62 20 -124q0 -175 -128 -228v-4q174 -49 236 -148q60 -83 60 -192v-36q0 -127 -80 -216h-8l-4 4l12 36q0 28 -24 28h-12q-77 -55 -92 -96q-16 0 -76 -80h-4q-10 4 -32 40v12l8 12v20q96 32 148 124q28 52 28 104v24q0 49 -36 132l4 4 l-12 16l-4 -4h-4q-49 64 -216 96l-4 4l-4 -4h-4l-152 4l-4 4v100l8 8h16q189 0 240 188l4 48q0 176 -180 232l-56 8h-16q-171 0 -224 -164q-12 -46 -12 -96v-336l-4 -4v-4l-32 8h-8l-8 -8l4 -12h-4l4 -4v-8h-16v-8l8 -12l-4 -4q-59 14 -68 28v72l4 4v4l4 -4h12v4l-20 28v200 q0 440 376 440zM642 856v-4l8 -20h8l-12 24h-4zM462 688v-8h8v8h-8zM562 684l-8 -8l8 -8l4 4h4l20 -4l4 4v4zM466 676l8 -8l4 4v4h-12zM542 676v-4h8v4h-8zM534 656l8 -12l-4 -4v-4l8 -24h16l16 16q0 8 -16 8q0 20 -28 20zM566 648v-4h8v4h-8zM582 648l20 -28l16 12z M670 632l-4 -4v-4l4 -12h16l4 16l-20 8v-4zM694 608v-4l8 -8h4l8 8v8zM674 584h12v12zM694 584v-4h8v4h-8zM714 576l8 -8v8h-8zM-2 516q4 -16 16 -16v-8h-8l-16 16zM66 512h4l12 -8h4l28 4q11 -40 36 -40l4 4l8 -12v-4l-4 4h-4l-4 -12l8 -20l-8 -8v-12h12q0 12 8 12 q16 -68 60 -68v-4l-16 -16v-4h28l8 -8v-4l-4 -4v-4q20 0 20 -16q64 -141 148 -172l64 -24l-32 -60q4 -38 16 -48l-4 -4v-4q-52 7 -52 16l-12 -4l-96 40v8l16 -4h4v4q-56 36 -72 36q-21 16 -48 56v4q0 8 12 8l24 -8h4v4q-24 16 -56 16l-16 28l4 4l4 -4h8q0 12 20 12v4h-8 l-24 -4v4l-12 12q0 16 44 48l16 28h-8l-4 -4h-4l-8 8h-8l-16 -4l-12 4v8q12 0 12 8q-20 0 -40 28l4 44l-4 4h-4l-4 -4l-4 4v4l4 16q-8 0 -8 12h-12l-12 -8h-12l-40 36l4 4h8l4 -4l12 4q-2 12 -20 28v8zM-30 424h12v-4l-8 -8l-4 4v8zM98 404l8 -8v-4l-12 -12h-4v16zM-30 376 h8l8 -8l-8 -8l-8 8v8zM226 272v-8h4v8h-4zM234 268v-8h4v8h-4zM842 260q0 -36 28 -36v4l-20 32h-8zM218 232v-4h8v4h-8zM210 180v-4h8v4h-8zM210 164v-4h20v-4l-4 -4v-4h4l4 4h4l20 -4l16 4v4q-24 0 -24 12zM362 132l8 -8v8h-8zM566 104q16 -5 16 -36l-12 -12q-12 15 -12 36 v4zM506 100h32q28 -34 28 -76q-9 -44 -20 -44h-68q-16 7 -16 28v4l8 12h-16v4q0 10 16 12l-4 4v4q0 12 16 12q0 20 8 20zM126 88l4 -4v-72l-4 -4v-4l-24 12h-12v-4h16v-8h-64v8q16 0 28 20l-4 4l20 16l-4 4q18 0 36 28l4 4h4zM270 60l8 -8h-8v8zM502 56v-8h8zM394 52v-8h8z M38 52h4l4 -12l-4 -4h-12v8zM374 40v-8h4v8h-4zM362 16v-4h8v4h-8zM526 -8v-8h4v8h-4z" />
<glyph unicode="&#xe0;" horiz-adv-x="1064" d="M512 1010h8q223 0 364 -172v144l8 8h112l8 -8v-360l4 -24l-4 -20v-24q18 0 28 -20v-8l-28 -4v-516l-8 -8h-112l-8 8v140q-149 -176 -376 -176q-322 0 -472 316q-36 90 -36 208q0 92 32 188h8q26 -80 84 -80h4q13 0 20 52v4l-12 24l16 8l4 -4l-8 -20l4 -4h8l4 4h4v-4 q-36 -103 -36 -180q0 -247 248 -368q62 -20 128 -24q233 0 352 260q24 70 24 128v36q-11 140 -44 140q-8 0 -8 16l4 4q-25 0 -52 52h16v8q-12 0 -12 8h4l-12 24h-8l-12 -8h-8l-20 24q0 12 12 12v4q-55 53 -132 80l-68 96h-4v-4l56 -84l-4 -4l-72 8h-8q-60 0 -136 -24l-8 12 l-36 -8l-16 16q-16 -4 -16 -24l4 -12l-4 -4l24 -4q-83 -65 -128 -128q-16 -19 -16 -36l-4 -4h-4q-5 20 -12 20h-20q0 16 -12 28v4l16 36q0 11 -24 16q0 17 -20 24l32 40l12 -4l4 12l44 -12v4l16 16l-8 20q27 11 44 32l16 -16l-8 -12v-4q12 0 12 12l24 -4l24 8l-8 16l8 24 l-4 36q95 40 204 40zM208 910h16l8 -8l-8 -8h-4l-4 4h-4l-8 -8l-8 8zM320 878l16 -16v-12l-8 -8h-4l4 16zM376 846l8 -8l4 4v4l16 -12v-8h-20l-4 4l-20 -8v20zM192 834q0 -10 -16 -28v-8h12q12 3 12 32v4h-8zM716 702h16l8 -8l-12 -12h-4l-8 8v12zM724 658h8l12 -12v-8 q-4 -12 -24 -12l-8 24zM1056 522h4v-4l-8 -16h-8v8zM226 1529h80q13 0 88 -144v-8l-4 4h-8l-4 -12l4 -4h4q8 0 8 12q13 0 104 -160l-4 -4h-76q-216 267 -216 288q24 12 24 28zM258 1521q-32 -20 -32 -28v-8q0 -20 20 -28h12q32 0 32 32v4q-7 15 -32 28zM370 1309v-4l4 -16h8 l4 4h4q-4 16 -20 16z" />
<glyph unicode="&#xe1;" horiz-adv-x="1064" d="M512 1010h8q223 0 364 -172v144l8 8h112l8 -8v-360l4 -24l-4 -20v-24q18 0 28 -20v-8l-28 -4v-516l-8 -8h-112l-8 8v140q-149 -176 -376 -176q-322 0 -472 316q-36 90 -36 208q0 92 32 188h8q26 -80 84 -80h4q13 0 20 52v4l-12 24l16 8l4 -4l-8 -20l4 -4h8l4 4h4v-4 q-36 -103 -36 -180q0 -247 248 -368q62 -20 128 -24q233 0 352 260q24 70 24 128v36q-11 140 -44 140q-8 0 -8 16l4 4q-25 0 -52 52h16v8q-12 0 -12 8h4l-12 24h-8l-12 -8h-8l-20 24q0 12 12 12v4q-55 53 -132 80l-68 96h-4v-4l56 -84l-4 -4l-72 8h-8q-60 0 -136 -24l-8 12 l-36 -8l-16 16q-16 -4 -16 -24l4 -12l-4 -4l24 -4q-83 -65 -128 -128q-16 -19 -16 -36l-4 -4h-4q-5 20 -12 20h-20q0 16 -12 28v4l16 36q0 11 -24 16q0 17 -20 24l32 40l12 -4l4 12l44 -12v4l16 16l-8 20q27 11 44 32l16 -16l-8 -12v-4q12 0 12 12l24 -4l24 8l-8 16l8 24 l-4 36q95 40 204 40zM208 910h16l8 -8l-8 -8h-4l-4 4h-4l-8 -8l-8 8zM320 878l16 -16v-12l-8 -8h-4l4 16zM376 846l8 -8l4 4v4l16 -12v-8h-20l-4 4l-20 -8v20zM192 834q0 -10 -16 -28v-8h12q12 3 12 32v4h-8zM716 702h16l8 -8l-12 -12h-4l-8 8v12zM724 658h8l12 -12v-8 q-4 -12 -24 -12l-8 24zM1056 522h4v-4l-8 -16h-8v8zM565 1515h128v-4q-169 -230 -240 -312h-48l-8 8v8l8 12l-4 24q153 258 164 264z" />
<glyph unicode="&#xe2;" horiz-adv-x="1064" d="M512 1010h8q223 0 364 -172v144l8 8h112l8 -8v-360l4 -24l-4 -20v-24q18 0 28 -20v-8l-28 -4v-516l-8 -8h-112l-8 8v140q-149 -176 -376 -176q-322 0 -472 316q-36 90 -36 208q0 92 32 188h8q26 -80 84 -80h4q13 0 20 52v4l-12 24l16 8l4 -4l-8 -20l4 -4h8l4 4h4v-4 q-36 -103 -36 -180q0 -247 248 -368q62 -20 128 -24q233 0 352 260q24 70 24 128v36q-11 140 -44 140q-8 0 -8 16l4 4q-25 0 -52 52h16v8q-12 0 -12 8h4l-12 24h-8l-12 -8h-8l-20 24q0 12 12 12v4q-55 53 -132 80l-68 96h-4v-4l56 -84l-4 -4l-72 8h-8q-60 0 -136 -24l-8 12 l-36 -8l-16 16q-16 -4 -16 -24l4 -12l-4 -4l24 -4q-83 -65 -128 -128q-16 -19 -16 -36l-4 -4h-4q-5 20 -12 20h-20q0 16 -12 28v4l16 36q0 11 -24 16q0 17 -20 24l32 40l12 -4l4 12l44 -12v4l16 16l-8 20q27 11 44 32l16 -16l-8 -12v-4q12 0 12 12l24 -4l24 8l-8 16l8 24 l-4 36q95 40 204 40zM208 910h16l8 -8l-8 -8h-4l-4 4h-4l-8 -8l-8 8zM320 878l16 -16v-12l-8 -8h-4l4 16zM376 846l8 -8l4 4v4l16 -12v-8h-20l-4 4l-20 -8v20zM192 834q0 -10 -16 -28v-8h12q12 3 12 32v4h-8zM716 702h16l8 -8l-12 -12h-4l-8 8v12zM724 658h8l12 -12v-8 q-4 -12 -24 -12l-8 24zM1056 522h4v-4l-8 -16h-8v8zM416 1515h128l180 -308v-8h-80l-144 204v12l4 4l-12 24l-4 -4h-4l-12 8q-26 0 -32 -36l8 -24l-104 -140q-13 48 -24 48l-20 -8v-16l8 -12v-24l24 -8v-4l-20 -24h-72l-4 4h-4q169 303 184 312zM384 1451v-4l16 -16h4 q13 0 28 12q-3 28 -28 28q-11 -3 -20 -20z" />
<glyph unicode="&#xe3;" horiz-adv-x="1064" d="M512 1010h8q223 0 364 -172v144l8 8h112l8 -8v-360l4 -24l-4 -20v-24q18 0 28 -20v-8l-28 -4v-516l-8 -8h-112l-8 8v140q-149 -176 -376 -176q-322 0 -472 316q-36 90 -36 208q0 92 32 188h8q26 -80 84 -80h4q13 0 20 52v4l-12 24l16 8l4 -4l-8 -20l4 -4h8l4 4h4v-4 q-36 -103 -36 -180q0 -247 248 -368q62 -20 128 -24q233 0 352 260q24 70 24 128v36q-11 140 -44 140q-8 0 -8 16l4 4q-25 0 -52 52h16v8q-12 0 -12 8h4l-12 24h-8l-12 -8h-8l-20 24q0 12 12 12v4q-55 53 -132 80l-68 96h-4v-4l56 -84l-4 -4l-72 8h-8q-60 0 -136 -24l-8 12 l-36 -8l-16 16q-16 -4 -16 -24l4 -12l-4 -4l24 -4q-83 -65 -128 -128q-16 -19 -16 -36l-4 -4h-4q-5 20 -12 20h-20q0 16 -12 28v4l16 36q0 11 -24 16q0 17 -20 24l32 40l12 -4l4 12l44 -12v4l16 16l-8 20q27 11 44 32l16 -16l-8 -12v-4q12 0 12 12l24 -4l24 8l-8 16l8 24 l-4 36q95 40 204 40zM208 910h16l8 -8l-8 -8h-4l-4 4h-4l-8 -8l-8 8zM320 878l16 -16v-12l-8 -8h-4l4 16zM376 846l8 -8l4 4v4l16 -12v-8h-20l-4 4l-20 -8v20zM192 834q0 -10 -16 -28v-8h12q12 3 12 32v4h-8zM716 702h16l8 -8l-12 -12h-4l-8 8v12zM724 658h8l12 -12v-8 q-4 -12 -24 -12l-8 24zM1056 522h4v-4l-8 -16h-8v8zM692 1398h68v-4q0 -58 -80 -136q-36 -24 -52 -24l-44 32q-36 -12 -36 -32q-128 40 -156 40q-43 0 -80 -68h-64l-4 4h-4q48 164 164 164h20l176 -44h8q41 0 84 68z" />
<glyph unicode="&#xe4;" horiz-adv-x="1056" d="M512 1010h8q223 0 364 -172v144l8 8h112l8 -8v-360l4 -24l-4 -20v-24q18 0 28 -20v-8l-28 -4v-516l-8 -8h-112l-8 8v140q-149 -176 -376 -176q-322 0 -472 316q-36 90 -36 208q0 92 32 188h8q26 -80 84 -80h4q13 0 20 52v4l-12 24l16 8l4 -4l-8 -20l4 -4h8l4 4h4v-4 q-36 -103 -36 -180q0 -247 248 -368q62 -20 128 -24q233 0 352 260q24 70 24 128v36q-11 140 -44 140q-8 0 -8 16l4 4q-25 0 -52 52h16v8q-12 0 -12 8h4l-12 24h-8l-12 -8h-8l-20 24q0 12 12 12v4q-55 53 -132 80l-68 96h-4v-4l56 -84l-4 -4l-72 8h-8q-60 0 -136 -24l-8 12 l-36 -8l-16 16q-16 -4 -16 -24l4 -12l-4 -4l24 -4q-83 -65 -128 -128q-16 -19 -16 -36l-4 -4h-4q-5 20 -12 20h-20q0 16 -12 28v4l16 36q0 11 -24 16q0 17 -20 24l32 40l12 -4l4 12l44 -12v4l16 16l-8 20q27 11 44 32l16 -16l-8 -12v-4q12 0 12 12l24 -4l24 8l-8 16l8 24 l-4 36q95 40 204 40zM208 910h16l8 -8l-8 -8h-4l-4 4h-4l-8 -8l-8 8zM320 878l16 -16v-12l-8 -8h-4l4 16zM376 846l8 -8l4 4v4l16 -12v-8h-20l-4 4l-20 -8v20zM192 834q0 -10 -16 -28v-8h12q12 3 12 32v4h-8zM716 702h16l8 -8l-12 -12h-4l-8 8v12zM724 658h8l12 -12v-8 q-4 -12 -24 -12l-8 24zM1056 522h4v-4l-8 -16h-8v8zM278 1347h112l8 -8v-132l-8 -8h-112l-8 8v132zM610 1347h116l8 -8v-132l-8 -8h-116l-8 8v132z" />
<glyph unicode="&#xe5;" horiz-adv-x="1064" d="M512 1010h8q223 0 364 -172v144l8 8h112l8 -8v-360l4 -24l-4 -20v-24q18 0 28 -20v-8l-28 -4v-516l-8 -8h-112l-8 8v140q-149 -176 -376 -176q-322 0 -472 316q-36 90 -36 208q0 92 32 188h8q26 -80 84 -80h4q13 0 20 52v4l-12 24l16 8l4 -4l-8 -20l4 -4h8l4 4h4v-4 q-36 -103 -36 -180q0 -247 248 -368q62 -20 128 -24q233 0 352 260q24 70 24 128v36q-11 140 -44 140q-8 0 -8 16l4 4q-25 0 -52 52h16v8q-12 0 -12 8h4l-12 24h-8l-12 -8h-8l-20 24q0 12 12 12v4q-55 53 -132 80l-68 96h-4v-4l56 -84l-4 -4l-72 8h-8q-60 0 -136 -24l-8 12 l-36 -8l-16 16q-16 -4 -16 -24l4 -12l-4 -4l24 -4q-83 -65 -128 -128q-16 -19 -16 -36l-4 -4h-4q-5 20 -12 20h-20q0 16 -12 28v4l16 36q0 11 -24 16q0 17 -20 24l32 40l12 -4l4 12l44 -12v4l16 16l-8 20q27 11 44 32l16 -16l-8 -12v-4q12 0 12 12l24 -4l24 8l-8 16l8 24 l-4 36q95 40 204 40zM208 910h16l8 -8l-8 -8h-4l-4 4h-4l-8 -8l-8 8zM320 878l16 -16v-12l-8 -8h-4l4 16zM376 846l8 -8l4 4v4l16 -12v-8h-20l-4 4l-20 -8v20zM192 834q0 -10 -16 -28v-8h12q12 3 12 32v4h-8zM716 702h16l8 -8l-12 -12h-4l-8 8v12zM724 658h8l12 -12v-8 q-4 -12 -24 -12l-8 24zM1056 522h4v-4l-8 -16h-8v8zM493 1601h20q148 0 204 -172l4 -48q0 -157 -180 -212h-60q-131 0 -192 168l-4 48q28 12 28 36v4l-20 24q63 152 200 152zM561 1561v-4l8 -8l12 12l-12 8zM369 1381l12 -56h-4l-20 4q-11 -3 -20 -20v-4l16 -16h4 q13 0 28 12l-4 4v8h4q16 -9 16 -20l-8 -24q5 -17 20 -24h20l20 12l48 -8l56 12v-4l-12 -16q5 -20 12 -20h12l12 12l-12 32q68 50 68 120q0 95 -108 132l-12 4q-148 -16 -148 -140zM605 1493l12 -12l12 12l-8 8h-8z" />
<glyph unicode="&#xe6;" horiz-adv-x="1910" d="M536 1012q198 0 360 -160h4v128l8 8h112l8 -8v-132q163 164 392 164q324 0 464 -324q36 -98 36 -208v-24l-8 -8h-876v-4q0 -130 112 -248q107 -104 268 -104q213 0 332 216h132l8 -8q-157 -328 -448 -328h-48q-213 0 -364 160v-124l-8 -8h-112l-8 8v124 q-162 -160 -348 -160h-48q-114 0 -180 40q0 10 16 12v8q0 7 -28 16l-8 -8h-12q0 8 -12 8q-2 15 -24 24v4l4 44l-4 4h-4l-4 -4l-4 4v4l4 16q-8 0 -8 12h-12l-12 -8h-12l-40 36l4 4h8l4 -4l12 4q-2 12 -20 28v8l16 32h-4l-44 16l-16 -4l-4 4v4l12 36q-9 24 -16 24h-20 q-40 -22 -40 -36h-4q-36 62 -36 196q0 302 276 460q110 56 244 56zM148 484q0 -108 56 -204l-4 -16l8 -8v-4l-4 -4v-4h8l28 4q11 -40 36 -40l4 4l8 -12v-4l-4 4h-4l-4 -12l8 -20l-8 -8v-12h12q0 12 8 12q14 -64 52 -64q9 0 32 -32h4l8 8v4l-4 16l12 20l48 -12q0 -28 -16 -28 v-4q43 0 52 -40l-4 -4h4l16 8l48 -12q92 31 92 84v8q133 48 212 184q48 94 48 180v44q0 207 -224 340q-37 25 -144 36q-236 0 -356 -256q-20 -50 -28 -156zM1040 560h740v4q-29 138 -100 216q-112 116 -268 116q-271 0 -364 -292zM132 388v-8q0 -28 28 -28q-8 19 -28 36z M124 256q4 -16 16 -16v-8h-8l-16 16zM68 220v-4l-8 -8l-8 8l4 4h12zM108 168l4 -4v-4l-4 -12h8l28 4q11 -40 36 -40l4 4l8 -12v-4l-4 4h-4l-4 -12l8 -20l-8 -8v-12h12q0 12 8 12q16 -68 60 -68v-4l-16 -16l8 -12l-24 -16h-4l-4 4l-4 -4h-4q-29 0 -36 20q-16 0 -16 12l4 44 l-4 4h-4l-4 -4l-4 4v4l4 16q-8 0 -8 12h-12l-12 -8h-12l-40 36l4 4h8l4 -4h4l4 4v8l-16 20v8q21 40 32 40zM28 160q4 -16 16 -16v-8h-8l-16 16zM224 144l8 -8v-4l-12 -12h-4v16zM324 132h8v-12l4 4h16q-4 -12 -24 -12l-4 4v16zM344 80l-4 -4v-4l8 -12l-4 -4h-4q3 -12 16 -16 l4 4h4q24 -9 24 -28h8v16l-8 24l-4 -4h-16l-4 4l-4 -4h-8v8l16 4v4q-13 0 -24 12zM0 68h12v-4l-8 -8l-4 4v8zM128 48l8 -8v-4l-12 -12h-4v16zM0 20h8l8 -8l-8 -8l-8 8v8zM472 16v-12h8v4zM404 8v-4l16 -16h4zM296 -80l8 -8l-4 -12q-6 0 -12 16l4 4h4z" />
<glyph unicode="&#xe7;" horiz-adv-x="1019" d="M474 1048h56q123 0 236 -68l4 -4v-4l-88 -84q-34 0 -72 44h-4v-4l8 -12v-4l-92 12h-44q-39 0 -100 -20l-4 4v8l12 68l-12 8h-8l-12 -8l-4 4v4l4 12h-4l-20 -8l-4 4q0 38 148 48zM198 880h12v-8h-16l4 -4v-12l-8 8v8zM262 872l4 -4l4 4h16l12 -12l-4 -4h-8l-4 4h-4 l-12 -12l-4 4v4l4 4l-4 4v8zM118 856l4 -16q-8 -18 -16 -20h-12v8zM166 856l4 -4v-4l-20 -16h-4v8h-4l-4 -12q4 -16 16 -16l16 4l32 -16h12v8l20 -4v-4q-40 -51 -40 -60h-8q0 16 -20 16v4l-4 -4h-4q-8 0 -8 16h-4q-10 -52 -40 -52l-4 4l4 -20l-8 -44q9 -45 40 -76v-28 l-4 -32q0 -56 32 -56l16 -20l-4 -4h-4l-4 4v-4l4 -12h-4l4 -4v-4l-4 -4v-4l12 -8l4 4q18 -68 60 -68v-4l-16 -16l8 -8q-22 -24 -36 -24q121 -168 296 -168h28q230 0 340 260q20 70 20 128v40l-4 40l112 108q28 -61 28 -168q0 -310 -284 -480q-100 -52 -224 -52h-4 q-314 0 -472 320q-24 55 -40 172l-8 8v4l12 16l-4 4q23 288 132 288v4l-4 16l8 16l12 -4v4q0 7 20 8zM202 852l12 -12v-4l-12 12v4zM190 768v-8h4v8h-4zM82 732v-8h4l8 8h-12zM-18 420l12 -4l4 4l4 -4v-4l-12 -8l-4 4l-4 -4h-4l-8 8v4zM-10 372h4l8 -8v-4l-8 -8h-16l-8 8v8z M282 268q8 0 12 -24h-12q-21 0 -24 20l4 4h20zM460 17h44l8 -8v-56h28q140 0 176 -96l8 -32v-52q0 -94 -140 -128l-44 -4h-44q-101 0 -204 36v60l8 8q132 -28 200 -28h28q96 0 96 80q0 92 -136 92h-24l-4 -4h-4l-4 4v120z" />
<glyph unicode="&#xe8;" horiz-adv-x="1041" d="M508 1037q221 0 408 -192l-388 -388q-8 0 -8 12h-8v-8l4 -20l-80 -76h-12l-4 16h-8q0 -12 -8 -12q-22 20 -36 20v-4l4 -12h-4l-12 8v-4q35 -40 48 -40l-60 -68q16 -2 16 -12v-8l-12 -12h-8q-10 0 -12 16l-40 -36q0 -9 48 -40v-8l-20 4v-4l-8 -8l4 -4v-8h-12v-4 q20 -1 20 -12l-28 -32v-4q20 20 52 20l-8 16l4 4h4q7 -1 24 -36l4 -4q14 -24 28 -24v-8h12q8 0 12 32l-4 12h4q12 0 12 8v20h4l4 -4h4v8h-8l-4 -4q-20 8 -20 24q8 18 16 20h12q12 0 12 -24q12 0 12 16h8q0 -10 24 -20h12q8 0 8 12q20 0 20 -8l4 4h4q24 -5 24 -20h8l-4 4v4 l16 20q12 0 32 24l-4 4v8l16 4q-7 24 -32 40v12h4q8 -2 36 -44l16 12l8 -8h4v16h8v-4l-4 -4v-4l4 -4h4l16 4q0 -8 20 -8q0 -20 20 -20q0 -16 8 -16l16 4v-8q-20 -1 -20 -12l4 -4l-4 -4v-8q12 0 12 -8l-4 -4v-4l-4 4h-12q-20 -15 -20 -28h-4l-12 8l-8 -12v-8l8 -12v-8 q-8 -16 -20 -16l-20 16l-12 -4l-8 8l-12 -8l-8 8h-4q0 -12 -16 -24v-8l-24 8q-17 -1 -52 -40q0 -12 16 -12l4 -4v-8h-28l4 20q-12 0 -12 -12l-4 -4h-20l-8 8l-4 -4h-8v8l-12 -8q0 8 -12 8l4 4v8q-12 0 -12 -16q-8 0 -8 16h-4q0 -12 -8 -12l-20 4v-4l8 -12v-12l-12 -12 l-16 16l16 24q-217 76 -320 256q-68 122 -68 252q0 272 272 452q106 64 236 64zM124 529q0 -116 88 -232l72 76q0 7 -32 20v8l12 12l24 -8l20 8l4 -4l-4 -4v-8q9 8 28 8l-4 4v8l404 408q-133 80 -240 80h-8q-193 0 -332 -224q-32 -84 -32 -152zM992 721q52 -105 52 -232 q0 -217 -168 -360q-20 0 -20 -24l-48 -36h-8v12l-20 -4v4q0 13 16 36v12l-4 4v4l4 4l32 -8h4l12 12v4q0 18 -48 68l8 12l-8 8v12q0 32 36 32l16 -4q68 102 68 192v8l-12 4v8l12 20l-24 116zM888 485h8l8 -8v-20l-20 -4l-8 24zM424 453v-4l8 -8v4zM396 405v-16h12v16h-12z M336 401v-4l8 -8h4zM336 341v-4l8 -8h4v4l-8 8h-4zM472 333l8 -8l-8 -8l-8 8zM744 305h28l4 -4l4 4h8l4 -20l-4 -4l4 -4l-24 -16h-16q-6 0 -16 28q8 0 8 16zM540 265l4 -4v-4l-8 -8h-4v8zM-108 261l8 -8v-4l-8 -8l-8 8v4zM252 253l-4 -4v-4l12 -4l4 4v4zM120 245v-4l20 -4 l12 4v4h-32zM164 225v-8l8 8h-8zM380 229l4 -4l4 4h4q12 0 24 -24q-5 -16 -20 -24h-8l-16 16v24zM320 213h4v-8h-4v8zM772 189h8v-8h-8v8zM8 177h4l8 -8l-12 -12l-8 8v4zM-24 169h4l16 -20v-4l-8 -8h-4l-16 16v8zM752 161h4v-8h-4v8zM264 125h12v8h-4zM948 137h8v-8h-8v8z M980 133l4 -4v-12l-12 -12h-8l-8 8v4q8 16 24 16zM-76 109l8 -8l-12 -12h-4l-4 16l4 4h8zM396 105h8v-8h-8v8zM-100 97q24 -10 24 -28l-16 -12h-16l-12 12v16q0 7 20 12zM412 61v-4l16 -20l-4 -12h8v8h4l-12 24l4 4h-16zM372 53v-8h4v8h-4zM720 21h8q8 0 8 -12q20 -5 20 -12 v-8l-8 -8h-8l-4 4l-28 20v4zM584 5h8v-4h-8v4zM210 1529h80q13 0 88 -144v-8l-4 4h-8l-4 -12l4 -4h4q8 0 8 12q13 0 104 -160l-4 -4h-76q-216 267 -216 288q24 12 24 28zM242 1521q-32 -20 -32 -28v-8q0 -20 20 -28h12q32 0 32 32v4q-7 15 -32 28zM354 1309v-4l4 -16h8l4 4 h4q-4 16 -20 16z" />
<glyph unicode="&#xe9;" horiz-adv-x="1034" d="M508 1037q221 0 408 -192l-388 -388q-8 0 -8 12h-8v-8l4 -20l-80 -76h-12l-4 16h-8q0 -12 -8 -12q-22 20 -36 20v-4l4 -12h-4l-12 8v-4q35 -40 48 -40l-60 -68q16 -2 16 -12v-8l-12 -12h-8q-10 0 -12 16l-40 -36q0 -9 48 -40v-8l-20 4v-4l-8 -8l4 -4v-8h-12v-4 q20 -1 20 -12l-28 -32v-4q20 20 52 20l-8 16l4 4h4q7 -1 24 -36l4 -4q14 -24 28 -24v-8h12q8 0 12 32l-4 12h4q12 0 12 8v20h4l4 -4h4v8h-8l-4 -4q-20 8 -20 24q8 18 16 20h12q12 0 12 -24q12 0 12 16h8q0 -10 24 -20h12q8 0 8 12q20 0 20 -8l4 4h4q24 -5 24 -20h8l-4 4v4 l16 20q12 0 32 24l-4 4v8l16 4q-7 24 -32 40v12h4q8 -2 36 -44l16 12l8 -8h4v16h8v-4l-4 -4v-4l4 -4h4l16 4q0 -8 20 -8q0 -20 20 -20q0 -16 8 -16l16 4v-8q-20 -1 -20 -12l4 -4l-4 -4v-8q12 0 12 -8l-4 -4v-4l-4 4h-12q-20 -15 -20 -28h-4l-12 8l-8 -12v-8l8 -12v-8 q-8 -16 -20 -16l-20 16l-12 -4l-8 8l-12 -8l-8 8h-4q0 -12 -16 -24v-8l-24 8q-17 -1 -52 -40q0 -12 16 -12l4 -4v-8h-28l4 20q-12 0 -12 -12l-4 -4h-20l-8 8l-4 -4h-8v8l-12 -8q0 8 -12 8l4 4v8q-12 0 -12 -16q-8 0 -8 16h-4q0 -12 -8 -12l-20 4v-4l8 -12v-12l-12 -12 l-16 16l16 24q-217 76 -320 256q-68 122 -68 252q0 272 272 452q106 64 236 64zM124 529q0 -116 88 -232l72 76q0 7 -32 20v8l12 12l24 -8l20 8l4 -4l-4 -4v-8q9 8 28 8l-4 4v8l404 408q-133 80 -240 80h-8q-193 0 -332 -224q-32 -84 -32 -152zM992 721q52 -105 52 -232 q0 -217 -168 -360q-20 0 -20 -24l-48 -36h-8v12l-20 -4v4q0 13 16 36v12l-4 4v4l4 4l32 -8h4l12 12v4q0 18 -48 68l8 12l-8 8v12q0 32 36 32l16 -4q68 102 68 192v8l-12 4v8l12 20l-24 116zM888 485h8l8 -8v-20l-20 -4l-8 24zM424 453v-4l8 -8v4zM396 405v-16h12v16h-12z M336 401v-4l8 -8h4zM336 341v-4l8 -8h4v4l-8 8h-4zM472 333l8 -8l-8 -8l-8 8zM744 305h28l4 -4l4 4h8l4 -20l-4 -4l4 -4l-24 -16h-16q-6 0 -16 28q8 0 8 16zM540 265l4 -4v-4l-8 -8h-4v8zM-108 261l8 -8v-4l-8 -8l-8 8v4zM252 253l-4 -4v-4l12 -4l4 4v4zM120 245v-4l20 -4 l12 4v4h-32zM164 225v-8l8 8h-8zM380 229l4 -4l4 4h4q12 0 24 -24q-5 -16 -20 -24h-8l-16 16v24zM320 213h4v-8h-4v8zM772 189h8v-8h-8v8zM8 177h4l8 -8l-12 -12l-8 8v4zM-24 169h4l16 -20v-4l-8 -8h-4l-16 16v8zM752 161h4v-8h-4v8zM264 125h12v8h-4zM948 137h8v-8h-8v8z M980 133l4 -4v-12l-12 -12h-8l-8 8v4q8 16 24 16zM-76 109l8 -8l-12 -12h-4l-4 16l4 4h8zM396 105h8v-8h-8v8zM-100 97q24 -10 24 -28l-16 -12h-16l-12 12v16q0 7 20 12zM412 61v-4l16 -20l-4 -12h8v8h4l-12 24l4 4h-16zM372 53v-8h4v8h-4zM720 21h8q8 0 8 -12q20 -5 20 -12 v-8l-8 -8h-8l-4 4l-28 20v4zM584 5h8v-4h-8v4zM565 1515h128v-4q-169 -230 -240 -312h-48l-8 8v8l8 12l-4 24q153 258 164 264z" />
<glyph unicode="&#xea;" horiz-adv-x="1049" d="M508 1037q221 0 408 -192l-388 -388q-8 0 -8 12h-8v-8l4 -20l-80 -76h-12l-4 16h-8q0 -12 -8 -12q-22 20 -36 20v-4l4 -12h-4l-12 8v-4q35 -40 48 -40l-60 -68q16 -2 16 -12v-8l-12 -12h-8q-10 0 -12 16l-40 -36q0 -9 48 -40v-8l-20 4v-4l-8 -8l4 -4v-8h-12v-4 q20 -1 20 -12l-28 -32v-4q20 20 52 20l-8 16l4 4h4q7 -1 24 -36l4 -4q14 -24 28 -24v-8h12q8 0 12 32l-4 12h4q12 0 12 8v20h4l4 -4h4v8h-8l-4 -4q-20 8 -20 24q8 18 16 20h12q12 0 12 -24q12 0 12 16h8q0 -10 24 -20h12q8 0 8 12q20 0 20 -8l4 4h4q24 -5 24 -20h8l-4 4v4 l16 20q12 0 32 24l-4 4v8l16 4q-7 24 -32 40v12h4q8 -2 36 -44l16 12l8 -8h4v16h8v-4l-4 -4v-4l4 -4h4l16 4q0 -8 20 -8q0 -20 20 -20q0 -16 8 -16l16 4v-8q-20 -1 -20 -12l4 -4l-4 -4v-8q12 0 12 -8l-4 -4v-4l-4 4h-12q-20 -15 -20 -28h-4l-12 8l-8 -12v-8l8 -12v-8 q-8 -16 -20 -16l-20 16l-12 -4l-8 8l-12 -8l-8 8h-4q0 -12 -16 -24v-8l-24 8q-17 -1 -52 -40q0 -12 16 -12l4 -4v-8h-28l4 20q-12 0 -12 -12l-4 -4h-20l-8 8l-4 -4h-8v8l-12 -8q0 8 -12 8l4 4v8q-12 0 -12 -16q-8 0 -8 16h-4q0 -12 -8 -12l-20 4v-4l8 -12v-12l-12 -12 l-16 16l16 24q-217 76 -320 256q-68 122 -68 252q0 272 272 452q106 64 236 64zM124 529q0 -116 88 -232l72 76q0 7 -32 20v8l12 12l24 -8l20 8l4 -4l-4 -4v-8q9 8 28 8l-4 4v8l404 408q-133 80 -240 80h-8q-193 0 -332 -224q-32 -84 -32 -152zM992 721q52 -105 52 -232 q0 -217 -168 -360q-20 0 -20 -24l-48 -36h-8v12l-20 -4v4q0 13 16 36v12l-4 4v4l4 4l32 -8h4l12 12v4q0 18 -48 68l8 12l-8 8v12q0 32 36 32l16 -4q68 102 68 192v8l-12 4v8l12 20l-24 116zM888 485h8l8 -8v-20l-20 -4l-8 24zM424 453v-4l8 -8v4zM396 405v-16h12v16h-12z M336 401v-4l8 -8h4zM336 341v-4l8 -8h4v4l-8 8h-4zM472 333l8 -8l-8 -8l-8 8zM744 305h28l4 -4l4 4h8l4 -20l-4 -4l4 -4l-24 -16h-16q-6 0 -16 28q8 0 8 16zM540 265l4 -4v-4l-8 -8h-4v8zM-108 261l8 -8v-4l-8 -8l-8 8v4zM252 253l-4 -4v-4l12 -4l4 4v4zM120 245v-4l20 -4 l12 4v4h-32zM164 225v-8l8 8h-8zM380 229l4 -4l4 4h4q12 0 24 -24q-5 -16 -20 -24h-8l-16 16v24zM320 213h4v-8h-4v8zM772 189h8v-8h-8v8zM8 177h4l8 -8l-12 -12l-8 8v4zM-24 169h4l16 -20v-4l-8 -8h-4l-16 16v8zM752 161h4v-8h-4v8zM264 125h12v8h-4zM948 137h8v-8h-8v8z M980 133l4 -4v-12l-12 -12h-8l-8 8v4q8 16 24 16zM-76 109l8 -8l-12 -12h-4l-4 16l4 4h8zM396 105h8v-8h-8v8zM-100 97q24 -10 24 -28l-16 -12h-16l-12 12v16q0 7 20 12zM412 61v-4l16 -20l-4 -12h8v8h4l-12 24l4 4h-16zM372 53v-8h4v8h-4zM720 21h8q8 0 8 -12q20 -5 20 -12 v-8l-8 -8h-8l-4 4l-28 20v4zM584 5h8v-4h-8v4zM416 1515h128l180 -308v-8h-80l-144 204v12l4 4l-12 24l-4 -4h-4l-12 8q-26 0 -32 -36l8 -24l-104 -140q-13 48 -24 48l-20 -8v-16l8 -12v-24l24 -8v-4l-20 -24h-72l-4 4h-4q169 303 184 312zM384 1451v-4l16 -16h4q13 0 28 12 q-3 28 -28 28q-11 -3 -20 -20z" />
<glyph unicode="&#xeb;" horiz-adv-x="1041" d="M508 1037q221 0 408 -192l-388 -388q-8 0 -8 12h-8v-8l4 -20l-80 -76h-12l-4 16h-8q0 -12 -8 -12q-22 20 -36 20v-4l4 -12h-4l-12 8v-4q35 -40 48 -40l-60 -68q16 -2 16 -12v-8l-12 -12h-8q-10 0 -12 16l-40 -36q0 -9 48 -40v-8l-20 4v-4l-8 -8l4 -4v-8h-12v-4 q20 -1 20 -12l-28 -32v-4q20 20 52 20l-8 16l4 4h4q7 -1 24 -36l4 -4q14 -24 28 -24v-8h12q8 0 12 32l-4 12h4q12 0 12 8v20h4l4 -4h4v8h-8l-4 -4q-20 8 -20 24q8 18 16 20h12q12 0 12 -24q12 0 12 16h8q0 -10 24 -20h12q8 0 8 12q20 0 20 -8l4 4h4q24 -5 24 -20h8l-4 4v4 l16 20q12 0 32 24l-4 4v8l16 4q-7 24 -32 40v12h4q8 -2 36 -44l16 12l8 -8h4v16h8v-4l-4 -4v-4l4 -4h4l16 4q0 -8 20 -8q0 -20 20 -20q0 -16 8 -16l16 4v-8q-20 -1 -20 -12l4 -4l-4 -4v-8q12 0 12 -8l-4 -4v-4l-4 4h-12q-20 -15 -20 -28h-4l-12 8l-8 -12v-8l8 -12v-8 q-8 -16 -20 -16l-20 16l-12 -4l-8 8l-12 -8l-8 8h-4q0 -12 -16 -24v-8l-24 8q-17 -1 -52 -40q0 -12 16 -12l4 -4v-8h-28l4 20q-12 0 -12 -12l-4 -4h-20l-8 8l-4 -4h-8v8l-12 -8q0 8 -12 8l4 4v8q-12 0 -12 -16q-8 0 -8 16h-4q0 -12 -8 -12l-20 4v-4l8 -12v-12l-12 -12 l-16 16l16 24q-217 76 -320 256q-68 122 -68 252q0 272 272 452q106 64 236 64zM124 529q0 -116 88 -232l72 76q0 7 -32 20v8l12 12l24 -8l20 8l4 -4l-4 -4v-8q9 8 28 8l-4 4v8l404 408q-133 80 -240 80h-8q-193 0 -332 -224q-32 -84 -32 -152zM992 721q52 -105 52 -232 q0 -217 -168 -360q-20 0 -20 -24l-48 -36h-8v12l-20 -4v4q0 13 16 36v12l-4 4v4l4 4l32 -8h4l12 12v4q0 18 -48 68l8 12l-8 8v12q0 32 36 32l16 -4q68 102 68 192v8l-12 4v8l12 20l-24 116zM888 485h8l8 -8v-20l-20 -4l-8 24zM424 453v-4l8 -8v4zM396 405v-16h12v16h-12z M336 401v-4l8 -8h4zM336 341v-4l8 -8h4v4l-8 8h-4zM472 333l8 -8l-8 -8l-8 8zM744 305h28l4 -4l4 4h8l4 -20l-4 -4l4 -4l-24 -16h-16q-6 0 -16 28q8 0 8 16zM540 265l4 -4v-4l-8 -8h-4v8zM-108 261l8 -8v-4l-8 -8l-8 8v4zM252 253l-4 -4v-4l12 -4l4 4v4zM120 245v-4l20 -4 l12 4v4h-32zM164 225v-8l8 8h-8zM380 229l4 -4l4 4h4q12 0 24 -24q-5 -16 -20 -24h-8l-16 16v24zM320 213h4v-8h-4v8zM772 189h8v-8h-8v8zM8 177h4l8 -8l-12 -12l-8 8v4zM-24 169h4l16 -20v-4l-8 -8h-4l-16 16v8zM752 161h4v-8h-4v8zM264 125h12v8h-4zM948 137h8v-8h-8v8z M980 133l4 -4v-12l-12 -12h-8l-8 8v4q8 16 24 16zM-76 109l8 -8l-12 -12h-4l-4 16l4 4h8zM396 105h8v-8h-8v8zM-100 97q24 -10 24 -28l-16 -12h-16l-12 12v16q0 7 20 12zM412 61v-4l16 -20l-4 -12h8v8h4l-12 24l4 4h-16zM372 53v-8h4v8h-4zM720 21h8q8 0 8 -12q20 -5 20 -12 v-8l-8 -8h-8l-4 4l-28 20v4zM584 5h8v-4h-8v4zM278 1347h112l8 -8v-132l-8 -8h-112l-8 8v132zM610 1347h116l8 -8v-132l-8 -8h-116l-8 8v132z" />
<glyph unicode="&#xec;" horiz-adv-x="202" d="M5 1312h112l8 -8v-192l-8 -8h-112l-7 8v192zM5 992h112l8 -8l-8 -8l8 -8v-588l-4 -4l4 -4v-364l-8 -8h-112l-7 8v212h3q56 -43 68 -88h8v4q0 21 -79 100v56q39 31 39 60l16 24l-4 28l4 4q-13 0 -40 72v16h-4l-4 -4h-4l4 -20v-12q19 0 32 -52l-4 -20q12 0 12 -8l-4 -4 q-8 -6 -8 -24h-16l4 -20q-16 0 -16 -16h-7v8l3 4l-3 4v140q0 15 -20 32v4l-20 -4l-16 12l-4 4v4l20 16h8q8 0 8 -24q37 21 47 40l32 8v8q-39 0 -55 24q0 22 83 32q0 6 28 8v4l-8 8l-32 -8l-4 4h-4l-60 -8l-3 12l3 20l-3 44v76l19 -4h4q21 0 24 12l-8 8l-16 -4l-12 4l-11 -4 v28l3 4l-3 4v8q0 26 59 64v12h-4l-44 -40l-11 -4v108zM41 968v-4h8v4h-8zM69 956v-8l8 8h-8zM73 860v-4q0 -6 28 -20h12v8l-8 12v12h8v4h-4l-12 -4l-8 8zM49 780v-8h4v8h-4zM73 764l-4 -12h8l8 8v4h-12zM13 744v-4h8v4h-8zM45 724v-4h8v4h-8zM1 576l16 -4v-8h-12l-7 8z M93 484l8 -8h4v8h-12zM97 368l8 -8v8h-8zM29 288v-8h4v8h-4zM33 276v-8h4v8h-4zM21 260v-8h8zM69 240l-4 -4l4 -12h12zM49 204v-4l4 -16h4v8l-4 12h-4zM69 200l8 -8v8h-8zM97 152v-12h8v4zM-171 1724h80q13 0 88 -144v-8l-4 4h-8l-4 -12l4 -4h4q8 0 8 12q13 0 104 -160 l-4 -4h-76q-216 267 -216 288q24 12 24 28zM-139 1716q-32 -20 -32 -28v-8q0 -20 20 -28h12q32 0 32 32v4q-7 15 -32 28zM-27 1504v-4l4 -16h8l4 4h4q-4 16 -20 16z" />
<glyph unicode="&#xed;" horiz-adv-x="195" d="M5 1312h112l8 -8v-192l-8 -8h-112l-8 8v192zM5 992h112l8 -8l-8 -8l8 -8v-588l-4 -4l4 -4v-364l-8 -8h-112l-8 8v212h4q56 -43 68 -88h8v4q0 21 -80 100v56q40 31 40 60l16 24l-4 28l4 4q-13 0 -40 72v16h-4l-4 -4h-4l4 -20v-12q19 0 32 -52l-4 -20q12 0 12 -8l-4 -4 q-8 -6 -8 -24h-16l4 -20q-16 0 -16 -16h-8v8l4 4l-4 4v140q0 15 -20 32v4l-20 -4l-16 12l-4 4v4l20 16h8q8 0 8 -24q38 21 48 40l32 8v8q-39 0 -56 24q0 22 84 32q0 6 28 8v4l-8 8l-32 -8l-4 4h-4l-60 -8l-4 12l4 20l-4 44v76l20 -4h4q21 0 24 12l-8 8l-16 -4l-12 4l-12 -4 v28l4 4l-4 4v8q0 26 60 64v12h-4l-44 -40l-12 -4v108zM41 968v-4h8v4h-8zM69 956v-8l8 8h-8zM73 860v-4q0 -6 28 -20h12v8l-8 12v12h8v4h-4l-12 -4l-8 8zM49 780v-8h4v8h-4zM73 764l-4 -12h8l8 8v4h-12zM13 744v-4h8v4h-8zM45 724v-4h8v4h-8zM1 576l16 -4v-8h-12l-8 8z M93 484l8 -8h4v8h-12zM97 368l8 -8v8h-8zM29 288v-8h4v8h-4zM33 276v-8h4v8h-4zM21 260v-8h8zM69 240l-4 -4l4 -12h12zM49 204v-4l4 -16h4v8l-4 12h-4zM69 200l8 -8v8h-8zM97 152v-12h8v4zM168 1710h128v-4q-169 -230 -240 -312h-48l-8 8v8l8 12l-4 24q153 258 164 264z" />
<glyph unicode="&#xee;" horiz-adv-x="202" d="M5 1312h112l8 -8v-192l-8 -8h-112l-8 8v192zM5 992h112l8 -8l-8 -8l8 -8v-588l-4 -4l4 -4v-364l-8 -8h-112l-8 8v212h4q56 -43 68 -88h8v4q0 21 -80 100v56q40 31 40 60l16 24l-4 28l4 4q-13 0 -40 72v16h-4l-4 -4h-4l4 -20v-12q19 0 32 -52l-4 -20q12 0 12 -8l-4 -4 q-8 -6 -8 -24h-16l4 -20q-16 0 -16 -16h-8v8l4 4l-4 4v140q0 15 -20 32v4l-20 -4l-16 12l-4 4v4l20 16h8q8 0 8 -24q38 21 48 40l32 8v8q-39 0 -56 24q0 22 84 32q0 6 28 8v4l-8 8l-32 -8l-4 4h-4l-60 -8l-4 12l4 20l-4 44v76l20 -4h4q21 0 24 12l-8 8l-16 -4l-12 4l-12 -4 v28l4 4l-4 4v8q0 26 60 64v12h-4l-44 -40l-12 -4v108zM41 968v-4h8v4h-8zM69 956v-8l8 8h-8zM73 860v-4q0 -6 28 -20h12v8l-8 12v12h8v4h-4l-12 -4l-8 8zM49 780v-8h4v8h-4zM73 764l-4 -12h8l8 8v4h-12zM13 744v-4h8v4h-8zM45 724v-4h8v4h-8zM1 576l16 -4v-8h-12l-8 8z M93 484l8 -8h4v8h-12zM97 368l8 -8v8h-8zM29 288v-8h4v8h-4zM33 276v-8h4v8h-4zM21 260v-8h8zM69 240l-4 -4l4 -12h12zM49 204v-4l4 -16h4v8l-4 12h-4zM69 200l8 -8v8h-8zM97 152v-12h8v4zM34 1718h128l180 -308v-8h-80l-144 204v12l4 4l-12 24l-4 -4h-4l-12 8 q-26 0 -32 -36l8 -24l-104 -140q-12 48 -24 48l-20 -8v-16l8 -12v-24l24 -8v-4l-20 -24h-72l-4 4h-4q169 303 184 312zM2 1654v-4l16 -16h4q13 0 28 12q-3 28 -28 28q-11 -3 -20 -20z" />
<glyph unicode="&#xef;" horiz-adv-x="195" d="M5 1312h112l8 -8v-192l-8 -8h-112l-8 8v192zM5 992h112l8 -8l-8 -8l8 -8v-588l-4 -4l4 -4v-364l-8 -8h-112l-8 8v212h4q56 -43 68 -88h8v4q0 21 -80 100v56q40 31 40 60l16 24l-4 28l4 4q-13 0 -40 72v16h-4l-4 -4h-4l4 -20v-12q19 0 32 -52l-4 -20q12 0 12 -8l-4 -4 q-8 -6 -8 -24h-16l4 -20q-16 0 -16 -16h-8v8l4 4l-4 4v140q0 15 -20 32v4l-20 -4l-16 12l-4 4v4l20 16h8q8 0 8 -24q38 21 48 40l32 8v8q-39 0 -56 24q0 22 84 32q0 6 28 8v4l-8 8l-32 -8l-4 4h-4l-60 -8l-4 12l4 20l-4 44v76l20 -4h4q21 0 24 12l-8 8l-16 -4l-12 4l-12 -4 v28l4 4l-4 4v8q0 26 60 64v12h-4l-44 -40l-12 -4v108zM41 968v-4h8v4h-8zM69 956v-8l8 8h-8zM73 860v-4q0 -6 28 -20h12v8l-8 12v12h8v4h-4l-12 -4l-8 8zM49 780v-8h4v8h-4zM73 764l-4 -12h8l8 8v4h-12zM13 744v-4h8v4h-8zM45 724v-4h8v4h-8zM1 576l16 -4v-8h-12l-8 8z M93 484l8 -8h4v8h-12zM97 368l8 -8v8h-8zM29 288v-8h4v8h-4zM33 276v-8h4v8h-4zM21 260v-8h8zM69 240l-4 -4l4 -12h12zM49 204v-4l4 -16h4v8l-4 12h-4zM69 200l8 -8v8h-8zM97 152v-12h8v4zM-127 1557h112l8 -8v-132l-8 -8h-112l-8 8v132zM205 1557h116l8 -8v-132l-8 -8h-116 l-8 8v132z" />
<glyph unicode="&#xf0;" />
<glyph unicode="&#xf1;" horiz-adv-x="884" d="M436 1012q156 0 260 -84v-4q-66 -72 -76 -72l4 -4v-4l-8 -8h-8q0 10 -20 12l-8 28h-4v-16q-14 0 -32 16l-4 -4v4l4 16l-12 4q0 -20 -12 -20q-10 8 -36 8l-24 32h-4v-12h-4l-8 8l8 12v4l-16 8h-4v-8h-4q0 16 -8 16q0 -20 -8 -20h-4l-32 28h-4v-4q20 -8 20 -36v-16 q0 -11 -80 -24l-68 -32l-16 8h-8v-4l20 -4l-4 -4v-4q-55 17 -72 32l-8 -8l4 -4l-4 -4q42 -28 56 -28v-8q-58 -50 -84 -188l-4 -4h-4l-28 8q-80 -23 -80 -76q16 -12 44 -12l20 8l4 -4v-8h-20v-8q0 -8 12 -8t12 24l20 8h16l8 -8v-84l-4 -4l4 -4v-132l-4 -4l4 -4v-304l-8 -8 h-112l-8 8v356l4 4l-4 4v28q28 9 28 20l4 -4h4q0 8 24 12v8l-8 8h-12q-8 0 -8 -12h-4l-12 8l-16 -4v60l4 4l-4 4v480l8 8h112l8 -8v-100q117 128 308 128zM524 996v-16h8v8zM400 976l8 -8v8h-8zM496 948v-8h8zM12 928v-4h8v4h-8zM500 928v-8h4v8h-4zM708 920l24 -24l-4 -4 l36 -32q64 -98 64 -300v-552l-8 -8h-108l-8 8v352h4l20 -32h4v4q0 11 -28 44v116l8 32v16q-12 0 -16 116l16 4v8q-24 0 -24 28q0 9 68 20v8h-16l-16 -4l-4 4h-4l-24 -4h-12q0 22 -36 80l8 8l-4 4h-4l-4 -4h-4l-4 4v4l12 4l4 -4h4l12 4v4q0 8 -12 8v4q20 22 20 36h-12v4 q38 44 48 44zM500 908v-8h4v8h-4zM612 904l-4 -12h12l4 12h-12zM220 884v-4h12v4h-12zM112 880v-4h8v4h-8zM172 872v-4l20 -8h4v4l-20 8h-4zM204 856v-4h8v4h-8zM672 844v-4l8 -8h16l12 12l-4 4h-4l-16 -4v4zM12 840v-8h4v8h-4zM728 808h4l8 8h-4zM744 600v-4h8v4h-8z M24 516v-8l20 -4v8zM92 504q0 -24 -36 -24l-4 4l-12 -20l12 -16l4 4h4q28 -9 28 -32l4 -4h12q7 0 12 20l-12 12l12 4v4l-24 16h-8v4l16 20v8h-8zM100 440h8v-8h-8v8zM724 408v-8h8v8h-8zM712 380v-8h4v8h-4zM44 352v-8h4v8h-4zM748 344v-8h4v8h-4zM8 328v-4h8v4h-8zM88 288 v-4h4v8q12 0 12 8v4zM64 288l-8 -12h4l8 12h-4zM610 1398h68v-4q0 -59 -80 -136q-36 -24 -52 -24l-44 32q-36 -12 -36 -32q-128 40 -156 40q-43 0 -80 -68h-64l-4 4h-4q48 164 164 164h20l176 -44h8q41 0 84 68z" />
<glyph unicode="&#xf2;" horiz-adv-x="1024" d="M744 984h8v-4h-8v4zM768 980l8 -8l-24 -48h-4v4q13 52 20 52zM644 972q0 -16 -8 -16l4 -24h4l8 16l-4 12h8v12h-12zM776 968h12l20 -12v-8l-4 -20q8 0 8 16h8q204 -164 204 -416q-3 -64 -12 -64l4 -12q0 -102 -104 -252q-158 -200 -404 -200q-303 0 -464 308 q-44 104 -44 216q0 247 192 408h4l12 -24q0 -28 -8 -28l4 -4v-32l4 -20q-16 -4 -16 -24l4 -12h20l4 4h4v-4q-88 -114 -88 -264q0 -67 20 -132l-40 -20v-4h4l24 4l4 -4l4 4h12l4 -20v-4q-23 -36 -72 -52l-4 -4v-8h4q18 0 76 56l24 -36v-8q-12 0 -12 -8v-4l20 4h4q0 -9 40 -52 v-4h-8v-8l12 4q119 -104 252 -104h12q167 0 280 132l16 -4l8 8l12 -8l4 28l-12 12v4l24 36l28 -24h4v4l-28 32q36 89 36 204l-4 32l12 4q-14 7 -28 76l16 12h-12v8l20 4v4q-28 0 -28 12l36 48v4h-4q0 -12 -40 -28h-8l-56 76l4 24v4h-4q-3 -20 -12 -20q0 7 -48 48v12 q44 84 44 100zM536 948v-4h8v4h-8zM532 940v-8h4v8h-4zM568 932v-4h8v4h-8zM624 928v-12h4v12h-4zM276 920v-1l-13 -7q-7 5 -7 16l4 12h-4l-12 -12l-4 4h-8l-28 -8l-4 4v8q8 0 8 16l104 60l4 -4l-4 -4v-12l8 -8h4q0 45 64 52q0 -7 40 -20v-8h8v12q0 21 16 28h28l4 -4l16 8 q144 0 240 -60l-20 -52l12 8v-20q-20 -17 -20 -32h-8l4 20l-32 -20l-16 20l8 32h-8q0 -15 -12 -24l-4 4h-8v-12l4 4h8v-4l-4 -12q-44 8 -44 16l-4 -4l-96 12l-36 -4l-4 4v16l16 16l20 -4v24q16 0 16 12v4h-4q-28 -30 -60 -32l-4 -24l4 -4v-8h-8q0 8 -16 8v12l12 -8l4 12 q-4 13 -16 16l-20 -4l-36 16q0 -8 -12 -8l-36 8q0 -16 -16 -16l8 -24l-28 -12v-4h1l-7 -4h-2zM728 912v-12l-8 -8h-4q5 20 12 20zM684 892h12v-4l-8 -8l-4 4v8zM712 880h4l12 -4v-16h-4l-12 12v8zM804 868v-8h4v8h-4zM928 716l-4 -4v-8h4l8 8l-4 4h-4zM920 700v-4h8v4h-8z M904 680v-4h8v4h-8zM940 556v-8l12 -4l4 4v8h-16zM912 380h8v8zM148 312v-4h12v4h-12zM912 296v-8h8v8h-8zM156 292v-8l8 8h-8zM100 260h12v8h-4zM844 224v-8h8v8h-8zM224 1529h80q13 0 88 -144v-8l-4 4h-8l-4 -12l4 -4h4q8 0 8 12q13 0 104 -160l-4 -4h-76 q-216 267 -216 288q24 12 24 28zM256 1521q-32 -20 -32 -28v-8q0 -20 20 -28h12q32 0 32 32v4q-7 15 -32 28zM368 1309v-4l4 -16h8l4 4h4q-4 16 -20 16z" />
<glyph unicode="&#xf3;" horiz-adv-x="1017" d="M744 984h8v-4h-8v4zM768 980l8 -8l-24 -48h-4v4q13 52 20 52zM644 972q0 -16 -8 -16l4 -24h4l8 16l-4 12h8v12h-12zM776 968h12l20 -12v-8l-4 -20q8 0 8 16h8q204 -164 204 -416q-3 -64 -12 -64l4 -12q0 -102 -104 -252q-158 -200 -404 -200q-303 0 -464 308 q-44 104 -44 216q0 247 192 408h4l12 -24q0 -28 -8 -28l4 -4v-32l4 -20q-16 -4 -16 -24l4 -12h20l4 4h4v-4q-88 -114 -88 -264q0 -67 20 -132l-40 -20v-4h4l24 4l4 -4l4 4h12l4 -20v-4q-23 -36 -72 -52l-4 -4v-8h4q18 0 76 56l24 -36v-8q-12 0 -12 -8v-4l20 4h4q0 -9 40 -52 v-4h-8v-8l12 4q119 -104 252 -104h12q167 0 280 132l16 -4l8 8l12 -8l4 28l-12 12v4l24 36l28 -24h4v4l-28 32q36 89 36 204l-4 32l12 4q-14 7 -28 76l16 12h-12v8l20 4v4q-28 0 -28 12l36 48v4h-4q0 -12 -40 -28h-8l-56 76l4 24v4h-4q-3 -20 -12 -20q0 7 -48 48v12 q44 84 44 100zM536 948v-4h8v4h-8zM532 940v-8h4v8h-4zM568 932v-4h8v4h-8zM624 928v-12h4v12h-4zM276 920v-1l-13 -7q-7 5 -7 16l4 12h-4l-12 -12l-4 4h-8l-28 -8l-4 4v8q8 0 8 16l104 60l4 -4l-4 -4v-12l8 -8h4q0 45 64 52q0 -7 40 -20v-8h8v12q0 21 16 28h28l4 -4l16 8 q144 0 240 -60l-20 -52l12 8v-20q-20 -17 -20 -32h-8l4 20l-32 -20l-16 20l8 32h-8q0 -15 -12 -24l-4 4h-8v-12l4 4h8v-4l-4 -12q-44 8 -44 16l-4 -4l-96 12l-36 -4l-4 4v16l16 16l20 -4v24q16 0 16 12v4h-4q-28 -30 -60 -32l-4 -24l4 -4v-8h-8q0 8 -16 8v12l12 -8l4 12 q-4 13 -16 16l-20 -4l-36 16q0 -8 -12 -8l-36 8q0 -16 -16 -16l8 -24l-28 -12v-4h1l-7 -4h-2zM728 912v-12l-8 -8h-4q5 20 12 20zM684 892h12v-4l-8 -8l-4 4v8zM712 880h4l12 -4v-16h-4l-12 12v8zM804 868v-8h4v8h-4zM928 716l-4 -4v-8h4l8 8l-4 4h-4zM920 700v-4h8v4h-8z M904 680v-4h8v4h-8zM940 556v-8l12 -4l4 4v8h-16zM912 380h8v8zM148 312v-4h12v4h-12zM912 296v-8h8v8h-8zM156 292v-8l8 8h-8zM100 260h12v8h-4zM844 224v-8h8v8h-8zM563 1515h128v-4q-169 -230 -240 -312h-48l-8 8v8l8 12l-4 24q153 258 164 264z" />
<glyph unicode="&#xf4;" horiz-adv-x="1024" d="M744 984h8v-4h-8v4zM768 980l8 -8l-24 -48h-4v4q13 52 20 52zM644 972q0 -16 -8 -16l4 -24h4l8 16l-4 12h8v12h-12zM776 968h12l20 -12v-8l-4 -20q8 0 8 16h8q204 -164 204 -416q-3 -64 -12 -64l4 -12q0 -102 -104 -252q-158 -200 -404 -200q-303 0 -464 308 q-44 104 -44 216q0 247 192 408h4l12 -24q0 -28 -8 -28l4 -4v-32l4 -20q-16 -4 -16 -24l4 -12h20l4 4h4v-4q-88 -114 -88 -264q0 -67 20 -132l-40 -20v-4h4l24 4l4 -4l4 4h12l4 -20v-4q-23 -36 -72 -52l-4 -4v-8h4q18 0 76 56l24 -36v-8q-12 0 -12 -8v-4l20 4h4q0 -9 40 -52 v-4h-8v-8l12 4q119 -104 252 -104h12q167 0 280 132l16 -4l8 8l12 -8l4 28l-12 12v4l24 36l28 -24h4v4l-28 32q36 89 36 204l-4 32l12 4q-14 7 -28 76l16 12h-12v8l20 4v4q-28 0 -28 12l36 48v4h-4q0 -12 -40 -28h-8l-56 76l4 24v4h-4q-3 -20 -12 -20q0 7 -48 48v12 q44 84 44 100zM536 948v-4h8v4h-8zM532 940v-8h4v8h-4zM568 932v-4h8v4h-8zM624 928v-12h4v12h-4zM276 920v-1l-13 -7q-7 5 -7 16l4 12h-4l-12 -12l-4 4h-8l-28 -8l-4 4v8q8 0 8 16l104 60l4 -4l-4 -4v-12l8 -8h4q0 45 64 52q0 -7 40 -20v-8h8v12q0 21 16 28h28l4 -4l16 8 q144 0 240 -60l-20 -52l12 8v-20q-20 -17 -20 -32h-8l4 20l-32 -20l-16 20l8 32h-8q0 -15 -12 -24l-4 4h-8v-12l4 4h8v-4l-4 -12q-44 8 -44 16l-4 -4l-96 12l-36 -4l-4 4v16l16 16l20 -4v24q16 0 16 12v4h-4q-28 -30 -60 -32l-4 -24l4 -4v-8h-8q0 8 -16 8v12l12 -8l4 12 q-4 13 -16 16l-20 -4l-36 16q0 -8 -12 -8l-36 8q0 -16 -16 -16l8 -24l-28 -12v-4h1l-7 -4h-2zM728 912v-12l-8 -8h-4q5 20 12 20zM684 892h12v-4l-8 -8l-4 4v8zM712 880h4l12 -4v-16h-4l-12 12v8zM804 868v-8h4v8h-4zM928 716l-4 -4v-8h4l8 8l-4 4h-4zM920 700v-4h8v4h-8z M904 680v-4h8v4h-8zM940 556v-8l12 -4l4 4v8h-16zM912 380h8v8zM148 312v-4h12v4h-12zM912 296v-8h8v8h-8zM156 292v-8l8 8h-8zM100 260h12v8h-4zM844 224v-8h8v8h-8zM414 1515h128l180 -308v-8h-80l-144 204v12l4 4l-12 24l-4 -4h-4l-12 8q-26 0 -32 -36l8 -24l-104 -140 q-13 48 -24 48l-20 -8v-16l8 -12v-24l24 -8v-4l-20 -24h-72l-4 4h-4q169 303 184 312zM382 1451v-4l16 -16h4q13 0 28 12q-3 28 -28 28q-11 -3 -20 -20z" />
<glyph unicode="&#xf5;" horiz-adv-x="1032" d="M744 984h8v-4h-8v4zM768 980l8 -8l-24 -48h-4v4q13 52 20 52zM644 972q0 -16 -8 -16l4 -24h4l8 16l-4 12h8v12h-12zM776 968h12l20 -12v-8l-4 -20q8 0 8 16h8q204 -164 204 -416q-3 -64 -12 -64l4 -12q0 -102 -104 -252q-158 -200 -404 -200q-303 0 -464 308 q-44 104 -44 216q0 247 192 408h4l12 -24q0 -28 -8 -28l4 -4v-32l4 -20q-16 -4 -16 -24l4 -12h20l4 4h4v-4q-88 -114 -88 -264q0 -67 20 -132l-40 -20v-4h4l24 4l4 -4l4 4h12l4 -20v-4q-23 -36 -72 -52l-4 -4v-8h4q18 0 76 56l24 -36v-8q-12 0 -12 -8v-4l20 4h4q0 -9 40 -52 v-4h-8v-8l12 4q119 -104 252 -104h12q167 0 280 132l16 -4l8 8l12 -8l4 28l-12 12v4l24 36l28 -24h4v4l-28 32q36 89 36 204l-4 32l12 4q-14 7 -28 76l16 12h-12v8l20 4v4q-28 0 -28 12l36 48v4h-4q0 -12 -40 -28h-8l-56 76l4 24v4h-4q-3 -20 -12 -20q0 7 -48 48v12 q44 84 44 100zM536 948v-4h8v4h-8zM532 940v-8h4v8h-4zM568 932v-4h8v4h-8zM624 928v-12h4v12h-4zM276 920v-1l-13 -7q-7 5 -7 16l4 12h-4l-12 -12l-4 4h-8l-28 -8l-4 4v8q8 0 8 16l104 60l4 -4l-4 -4v-12l8 -8h4q0 45 64 52q0 -7 40 -20v-8h8v12q0 21 16 28h28l4 -4l16 8 q144 0 240 -60l-20 -52l12 8v-20q-20 -17 -20 -32h-8l4 20l-32 -20l-16 20l8 32h-8q0 -15 -12 -24l-4 4h-8v-12l4 4h8v-4l-4 -12q-44 8 -44 16l-4 -4l-96 12l-36 -4l-4 4v16l16 16l20 -4v24q16 0 16 12v4h-4q-28 -30 -60 -32l-4 -24l4 -4v-8h-8q0 8 -16 8v12l12 -8l4 12 q-4 13 -16 16l-20 -4l-36 16q0 -8 -12 -8l-36 8q0 -16 -16 -16l8 -24l-28 -12v-4h1l-7 -4h-2zM728 912v-12l-8 -8h-4q5 20 12 20zM684 892h12v-4l-8 -8l-4 4v8zM712 880h4l12 -4v-16h-4l-12 12v8zM804 868v-8h4v8h-4zM928 716l-4 -4v-8h4l8 8l-4 4h-4zM920 700v-4h8v4h-8z M904 680v-4h8v4h-8zM940 556v-8l12 -4l4 4v8h-16zM912 380h8v8zM148 312v-4h12v4h-12zM912 296v-8h8v8h-8zM156 292v-8l8 8h-8zM100 260h12v8h-4zM844 224v-8h8v8h-8zM690 1398h68v-4q0 -58 -80 -136q-36 -24 -52 -24l-44 32q-36 -12 -36 -32q-128 40 -156 40q-43 0 -80 -68 h-64l-4 4h-4q48 164 164 164h20l176 -44h8q41 0 84 68z" />
<glyph unicode="&#xf6;" horiz-adv-x="1024" d="M744 984h8v-4h-8v4zM768 980l8 -8l-24 -48h-4v4q13 52 20 52zM644 972q0 -16 -8 -16l4 -24h4l8 16l-4 12h8v12h-12zM776 968h12l20 -12v-8l-4 -20q8 0 8 16h8q204 -164 204 -416q-3 -64 -12 -64l4 -12q0 -102 -104 -252q-158 -200 -404 -200q-303 0 -464 308 q-44 104 -44 216q0 247 192 408h4l12 -24q0 -28 -8 -28l4 -4v-32l4 -20q-16 -4 -16 -24l4 -12h20l4 4h4v-4q-88 -114 -88 -264q0 -67 20 -132l-40 -20v-4h4l24 4l4 -4l4 4h12l4 -20v-4q-23 -36 -72 -52l-4 -4v-8h4q18 0 76 56l24 -36v-8q-12 0 -12 -8v-4l20 4h4q0 -9 40 -52 v-4h-8v-8l12 4q119 -104 252 -104h12q167 0 280 132l16 -4l8 8l12 -8l4 28l-12 12v4l24 36l28 -24h4v4l-28 32q36 89 36 204l-4 32l12 4q-14 7 -28 76l16 12h-12v8l20 4v4q-28 0 -28 12l36 48v4h-4q0 -12 -40 -28h-8l-56 76l4 24v4h-4q-3 -20 -12 -20q0 7 -48 48v12 q44 84 44 100zM536 948v-4h8v4h-8zM532 940v-8h4v8h-4zM568 932v-4h8v4h-8zM624 928v-12h4v12h-4zM276 920v-1l-13 -7q-7 5 -7 16l4 12h-4l-12 -12l-4 4h-8l-28 -8l-4 4v8q8 0 8 16l104 60l4 -4l-4 -4v-12l8 -8h4q0 45 64 52q0 -7 40 -20v-8h8v12q0 21 16 28h28l4 -4l16 8 q144 0 240 -60l-20 -52l12 8v-20q-20 -17 -20 -32h-8l4 20l-32 -20l-16 20l8 32h-8q0 -15 -12 -24l-4 4h-8v-12l4 4h8v-4l-4 -12q-44 8 -44 16l-4 -4l-96 12l-36 -4l-4 4v16l16 16l20 -4v24q16 0 16 12v4h-4q-28 -30 -60 -32l-4 -24l4 -4v-8h-8q0 8 -16 8v12l12 -8l4 12 q-4 13 -16 16l-20 -4l-36 16q0 -8 -12 -8l-36 8q0 -16 -16 -16l8 -24l-28 -12v-4h1l-7 -4h-2zM728 912v-12l-8 -8h-4q5 20 12 20zM684 892h12v-4l-8 -8l-4 4v8zM712 880h4l12 -4v-16h-4l-12 12v8zM804 868v-8h4v8h-4zM928 716l-4 -4v-8h4l8 8l-4 4h-4zM920 700v-4h8v4h-8z M904 680v-4h8v4h-8zM940 556v-8l12 -4l4 4v8h-16zM912 380h8v8zM148 312v-4h12v4h-12zM912 296v-8h8v8h-8zM156 292v-8l8 8h-8zM100 260h12v8h-4zM844 224v-8h8v8h-8zM276 1347h112l8 -8v-132l-8 -8h-112l-8 8v132zM608 1347h116l8 -8v-132l-8 -8h-116l-8 8v132z" />
<glyph unicode="&#xf7;" horiz-adv-x="1131" d="M544 1008q32 -5 32 -16l-8 -12v-4l16 -16h4l32 8q4 -28 20 -60q0 -85 -104 -96q-41 4 -76 40q-16 30 -16 60q0 80 100 96zM476 856h12v8h-4zM592 852l12 -8l8 8v8h-12zM8 636h788v-12q0 -8 -16 -8v-4q16 0 20 -24l4 4h4l16 -4l24 28q-8 0 -8 12h-16v8h80l-4 -20l8 -8h12 l4 12l-4 16h8v-4l40 4h108l8 -8v-72l-8 -8h-176v4q12 14 12 28v4q-7 15 -32 28q-32 -20 -32 -28v-8q0 -20 12 -20v-8h-456v12l20 -4l12 12v12l-8 16h-12l-12 -20q0 -12 -16 -12l-4 -4v-4l4 -4l-4 -4h-376l-8 8v72zM544 372h4q75 0 92 -96q0 -67 -76 -96h-36q-70 0 -84 96 q0 83 100 96zM520 280q7 -44 32 -44l4 -4v-4q24 0 44 32q0 37 -40 52q-21 -4 -40 -32z" />
<glyph unicode="&#xf8;" horiz-adv-x="1011" d="M769 1247h4l8 -8l-4 -4h-8v12zM629 1199h8l8 -8l-8 -8l-8 8v8zM737 1191h4v-8h-4v8zM609 1187h4l12 -12v-4l-12 -12h-4l-8 8v12zM721 1167l8 -8l-12 -8l-4 4v4zM785 1163l4 -4v-4l-4 -4h-4l-4 4v4l4 4h4zM493 1155h12l24 -20l-4 -4h-4q-36 4 -36 16zM533 1139h12l8 -8 l-4 -4v-4q12 0 12 -8h-8l-20 12v12zM949 1135l64 -52q-20 -21 -20 -36l8 -20l-108 -124h-4q0 28 -16 28l-20 -8v-16l8 -12v-20q16 0 16 -12l4 4h8q132 -138 132 -340v-8q0 -318 -316 -484q-98 -35 -176 -35h-48q-131 0 -260 87h-4l-160 -183l-76 72q148 176 156 195v4l-4 24 l12 4l-12 24l4 4v4q-16 0 -16 20q-19 0 -28 8l-8 -8l-4 4l-8 -8q-72 124 -72 244v52q0 282 292 452q12 0 36 20l4 -4q89 32 192 32l4 -4l8 8l12 -8l16 4q12 -8 76 -16q0 11 32 16q11 0 36 -44q51 -20 88 -48zM833 1127h4l12 -12v-4l-8 -8h-12l-8 8v4zM937 1087v-4l16 -16h4 q13 0 28 12q-3 28 -28 28q-11 -3 -20 -20zM669 1091h4l8 -8v-8l-8 -8h-4l-8 8v8zM841 1091l4 -4v-4l-24 -12zM813 1071h8v-4l-36 -36l-12 12v4q9 12 40 24zM513 1063h8l-8 -8v8zM657 1063h12v-4l-8 -8h-4v12zM845 963h12v8h-4zM697 931q7 -44 32 -44l4 -4v-4q24 0 44 32 q0 37 -40 52q-21 -4 -40 -32zM397 899l-4 4h-4q-123 -42 -208 -176q-48 -114 -48 -204q0 -127 76 -252l-4 -12l4 -4h4l80 92l20 -16h4q13 0 28 12l-4 4v4q0 18 12 36h-8q0 12 -8 12v4q93 120 112 120q12 0 12 12l-4 16l20 -4h4v12l-8 12q50 56 68 56v8l-4 12l80 92 q0 8 -12 8l-4 4v12q28 28 60 28l56 68l-24 16h-4l4 -4v-4q-6 -16 -12 -16h-12l-16 8v12q0 10 16 12v8l-52 16v-8q-19 0 -28 16l-16 4l-24 -4l-8 8h-12q-132 -5 -132 -24zM981 919l24 -16v-4l-8 -8q-28 14 -28 20zM921 899h4v-12h-12v4zM425 883l8 -8l-8 -8l-8 8zM441 867 l8 -8l-4 -4h-4v12zM485 819l12 -12v-4q0 -9 -20 -12l-4 4v12zM541 803l16 -12l4 4h8l8 -8l-8 -8l-4 4h-4q0 -17 -16 -24h-16l-28 28v4q0 8 40 12zM593 799h8l12 -12l-16 -16l-16 16zM797 787q-317 -385 -380 -452q0 37 -32 48q-32 -20 -32 -28v-8l4 -16l-4 -16q0 -11 24 -36 l-80 -92q98 -68 200 -68q58 0 160 28l-4 -12l12 -16l12 12h4l-4 4v16q3 9 84 64q124 128 124 296v24q0 136 -88 252zM97 623l12 -8l8 8v8h-12zM521 603v-4l8 -8l12 12l-12 8zM97 595l12 -12l8 12l-4 4h-4zM205 227h12v8h-4zM213 215v-8l4 -16l-4 -16v-4l12 -40l12 -4 q16 0 16 16h4l-4 20l4 24q-8 0 -12 36l-20 4zM625 83l4 -12h12l12 12l-12 12h-4zM629 51v-4l8 -8h4l8 8v12h-12z" />
<glyph unicode="&#xf9;" horiz-adv-x="899" d="M8 996h40l12 -8l4 4v-12h4l4 16h28v-4q-20 -19 -20 -36l16 12l4 -4l24 8h4v-16l-4 -4l4 -4v-212l-4 -4l4 -4v-24l-8 -24l4 -16l-4 -4l8 -8v-220l-28 -24v-20q48 -56 48 -108l44 -104l-4 -4h16v-8q-36 -23 -112 -52l-4 -4q-88 98 -88 428l8 8l-8 12v68l8 12l-8 12v268 l4 24l-4 20v28zM712 996h112l8 -8v-520q-1 -9 -40 -24h-12l-24 4l-12 -4q-5 17 -40 60v144l8 36h-8v20q0 17 16 28l4 12h-4l-16 4v240zM800 992v-8h4v8h-4zM792 968v-4h4l4 16q-8 0 -8 -12zM12 960l4 -4h4l4 4v8h-4zM8 952v-4h8v4h-8zM24 940v-8h4v8h-4zM800 928v-4h4l4 16 q-8 0 -8 -12zM64 904l-4 -12h8v12h-4zM48 896l8 -8v8h-8zM752 852v-8h4v8h-4zM16 820v-8h4v8h-4zM28 808v-8l12 -4l4 4v8h-16zM736 800v-4l8 8v4zM772 804v-8h4v8h-4zM720 792v-8h4v8h-4zM760 784v-8h4v8h-4zM732 736l-16 -36v-8h4l16 40v4h-4zM88 720v-8h4v8h-4zM76 676v-8 l4 -4v-4q32 0 32 20l4 12h-4q-16 0 -16 12q-20 -6 -20 -28zM744 668l-4 -20v-4h4l4 16v8h-4zM792 644v-8h4v8h-4zM60 600v-8h4v8h-4zM724 532v-12h4l4 24q-8 0 -8 -12zM32 492q4 -13 16 -16v4zM48 424h8q28 0 28 28q-19 -8 -36 -28zM828 452l4 -4v-132q0 -8 -12 -8v-8h12 v-288l-8 -8h-52l-16 4l-16 -4h-28l-8 8v76l32 -8v4l-8 20h4l88 -84q-29 44 -108 116l-4 12h-24v20h4q12 0 12 -16h4v4l-8 32l36 12v4q-28 0 -28 20l56 28l8 8v4h-32l8 -12v-4h-8l-28 4v16q0 8 32 16l8 12q-24 5 -24 12l4 4h4l4 -4q0 18 52 44l4 4v4l-20 4l12 12l12 -8h4l8 8 l-4 4l12 4v4q-12 0 -12 8l20 4v4q-24 0 -24 20zM740 308v-4h12v4h-12zM772 304v-4l32 -4v8h-32zM792 284v-8h4l8 8h-12zM712 248v-12l-8 8l4 4h4zM760 164v-8l12 -12h4v8q0 6 -16 12zM224 156l8 -12v-4l-16 -4l-12 4v12zM180 136h16v-8l-12 -4q14 -80 64 -80l28 -16l28 4 l-12 -16h4q0 24 116 64h16q32 -20 32 -52h8q0 33 24 52h8q12 0 28 -84q-32 -16 -100 -16h-28l-24 4l-16 -4q-143 0 -240 92q33 47 60 64zM244 136q72 -24 72 -32l12 4l88 -8v-4q0 -9 -56 -24q0 -10 -64 -32l-8 8h-4l-4 -12q-32 12 -32 28l-20 -4v4q0 12 -16 12 q-12 21 -12 40q29 20 44 20zM660 132l4 -4v-12l-12 12l4 4h4zM612 128l40 -20l8 8q3 -28 12 -28l16 20l4 -4v-8q-98 -96 -148 -96l-12 80q9 0 12 20h8q0 -9 16 -24l12 4v20l-8 12l12 8l28 -20v4l-4 20zM448 104h16l12 -12v-8l-8 -20l-20 36v4zM112 100h16v-8l-12 -12h-4 l-8 8v4zM608 92v-8h4v8h-4zM224 88v-8h4v8h-4zM636 64v-4h8v4h-8zM148 60v-8l8 8h-8zM180 52v-4h8v4h-8zM164 48v-4h8v4h-8zM210 1529h80q13 0 88 -144v-8l-4 4h-8l-4 -12l4 -4h4q8 0 8 12q13 0 104 -160l-4 -4h-76q-216 267 -216 288q24 12 24 28zM242 1521 q-32 -20 -32 -28v-8q0 -20 20 -28h12q32 0 32 32v4q-7 15 -32 28zM354 1309v-4l4 -16h8l4 4h4q-4 16 -20 16z" />
<glyph unicode="&#xfa;" horiz-adv-x="899" d="M8 996h40l12 -8l4 4v-12h4l4 16h28v-4q-20 -19 -20 -36l16 12l4 -4l24 8h4v-16l-4 -4l4 -4v-212l-4 -4l4 -4v-24l-8 -24l4 -16l-4 -4l8 -8v-220l-28 -24v-20q48 -56 48 -108l44 -104l-4 -4h16v-8q-36 -23 -112 -52l-4 -4q-88 98 -88 428l8 8l-8 12v68l8 12l-8 12v268 l4 24l-4 20v28zM712 996h112l8 -8v-520q-1 -9 -40 -24h-12l-24 4l-12 -4q-5 17 -40 60v144l8 36h-8v20q0 17 16 28l4 12h-4l-16 4v240zM800 992v-8h4v8h-4zM792 968v-4h4l4 16q-8 0 -8 -12zM12 960l4 -4h4l4 4v8h-4zM8 952v-4h8v4h-8zM24 940v-8h4v8h-4zM800 928v-4h4l4 16 q-8 0 -8 -12zM64 904l-4 -12h8v12h-4zM48 896l8 -8v8h-8zM752 852v-8h4v8h-4zM16 820v-8h4v8h-4zM28 808v-8l12 -4l4 4v8h-16zM736 800v-4l8 8v4zM772 804v-8h4v8h-4zM720 792v-8h4v8h-4zM760 784v-8h4v8h-4zM732 736l-16 -36v-8h4l16 40v4h-4zM88 720v-8h4v8h-4zM76 676v-8 l4 -4v-4q32 0 32 20l4 12h-4q-16 0 -16 12q-20 -6 -20 -28zM744 668l-4 -20v-4h4l4 16v8h-4zM792 644v-8h4v8h-4zM60 600v-8h4v8h-4zM724 532v-12h4l4 24q-8 0 -8 -12zM32 492q4 -13 16 -16v4zM48 424h8q28 0 28 28q-19 -8 -36 -28zM828 452l4 -4v-132q0 -8 -12 -8v-8h12 v-288l-8 -8h-52l-16 4l-16 -4h-28l-8 8v76l32 -8v4l-8 20h4l88 -84q-29 44 -108 116l-4 12h-24v20h4q12 0 12 -16h4v4l-8 32l36 12v4q-28 0 -28 20l56 28l8 8v4h-32l8 -12v-4h-8l-28 4v16q0 8 32 16l8 12q-24 5 -24 12l4 4h4l4 -4q0 18 52 44l4 4v4l-20 4l12 12l12 -8h4l8 8 l-4 4l12 4v4q-12 0 -12 8l20 4v4q-24 0 -24 20zM740 308v-4h12v4h-12zM772 304v-4l32 -4v8h-32zM792 284v-8h4l8 8h-12zM712 248v-12l-8 8l4 4h4zM760 164v-8l12 -12h4v8q0 6 -16 12zM224 156l8 -12v-4l-16 -4l-12 4v12zM180 136h16v-8l-12 -4q14 -80 64 -80l28 -16l28 4 l-12 -16h4q0 24 116 64h16q32 -20 32 -52h8q0 33 24 52h8q12 0 28 -84q-32 -16 -100 -16h-28l-24 4l-16 -4q-143 0 -240 92q33 47 60 64zM244 136q72 -24 72 -32l12 4l88 -8v-4q0 -9 -56 -24q0 -10 -64 -32l-8 8h-4l-4 -12q-32 12 -32 28l-20 -4v4q0 12 -16 12 q-12 21 -12 40q29 20 44 20zM660 132l4 -4v-12l-12 12l4 4h4zM612 128l40 -20l8 8q3 -28 12 -28l16 20l4 -4v-8q-98 -96 -148 -96l-12 80q9 0 12 20h8q0 -9 16 -24l12 4v20l-8 12l12 8l28 -20v4l-4 20zM448 104h16l12 -12v-8l-8 -20l-20 36v4zM112 100h16v-8l-12 -12h-4 l-8 8v4zM608 92v-8h4v8h-4zM224 88v-8h4v8h-4zM636 64v-4h8v4h-8zM148 60v-8l8 8h-8zM180 52v-4h8v4h-8zM164 48v-4h8v4h-8zM565 1515h128v-4q-169 -230 -240 -312h-48l-8 8v8l8 12l-4 24q153 258 164 264z" />
<glyph unicode="&#xfb;" horiz-adv-x="891" d="M8 996h40l12 -8l4 4v-12h4l4 16h28v-4q-20 -19 -20 -36l16 12l4 -4l24 8h4v-16l-4 -4l4 -4v-212l-4 -4l4 -4v-24l-8 -24l4 -16l-4 -4l8 -8v-220l-28 -24v-20q48 -56 48 -108l44 -104l-4 -4h16v-8q-36 -23 -112 -52l-4 -4q-88 98 -88 428l8 8l-8 12v68l8 12l-8 12v268 l4 24l-4 20v28zM712 996h112l8 -8v-520q-1 -9 -40 -24h-12l-24 4l-12 -4q-5 17 -40 60v144l8 36h-8v20q0 17 16 28l4 12h-4l-16 4v240zM800 992v-8h4v8h-4zM792 968v-4h4l4 16q-8 0 -8 -12zM12 960l4 -4h4l4 4v8h-4zM8 952v-4h8v4h-8zM24 940v-8h4v8h-4zM800 928v-4h4l4 16 q-8 0 -8 -12zM64 904l-4 -12h8v12h-4zM48 896l8 -8v8h-8zM752 852v-8h4v8h-4zM16 820v-8h4v8h-4zM28 808v-8l12 -4l4 4v8h-16zM736 800v-4l8 8v4zM772 804v-8h4v8h-4zM720 792v-8h4v8h-4zM760 784v-8h4v8h-4zM732 736l-16 -36v-8h4l16 40v4h-4zM88 720v-8h4v8h-4zM76 676v-8 l4 -4v-4q32 0 32 20l4 12h-4q-16 0 -16 12q-20 -6 -20 -28zM744 668l-4 -20v-4h4l4 16v8h-4zM792 644v-8h4v8h-4zM60 600v-8h4v8h-4zM724 532v-12h4l4 24q-8 0 -8 -12zM32 492q4 -13 16 -16v4zM48 424h8q28 0 28 28q-19 -8 -36 -28zM828 452l4 -4v-132q0 -8 -12 -8v-8h12 v-288l-8 -8h-52l-16 4l-16 -4h-28l-8 8v76l32 -8v4l-8 20h4l88 -84q-29 44 -108 116l-4 12h-24v20h4q12 0 12 -16h4v4l-8 32l36 12v4q-28 0 -28 20l56 28l8 8v4h-32l8 -12v-4h-8l-28 4v16q0 8 32 16l8 12q-24 5 -24 12l4 4h4l4 -4q0 18 52 44l4 4v4l-20 4l12 12l12 -8h4l8 8 l-4 4l12 4v4q-12 0 -12 8l20 4v4q-24 0 -24 20zM740 308v-4h12v4h-12zM772 304v-4l32 -4v8h-32zM792 284v-8h4l8 8h-12zM712 248v-12l-8 8l4 4h4zM760 164v-8l12 -12h4v8q0 6 -16 12zM224 156l8 -12v-4l-16 -4l-12 4v12zM180 136h16v-8l-12 -4q14 -80 64 -80l28 -16l28 4 l-12 -16h4q0 24 116 64h16q32 -20 32 -52h8q0 33 24 52h8q12 0 28 -84q-32 -16 -100 -16h-28l-24 4l-16 -4q-143 0 -240 92q33 47 60 64zM244 136q72 -24 72 -32l12 4l88 -8v-4q0 -9 -56 -24q0 -10 -64 -32l-8 8h-4l-4 -12q-32 12 -32 28l-20 -4v4q0 12 -16 12 q-12 21 -12 40q29 20 44 20zM660 132l4 -4v-12l-12 12l4 4h4zM612 128l40 -20l8 8q3 -28 12 -28l16 20l4 -4v-8q-98 -96 -148 -96l-12 80q9 0 12 20h8q0 -9 16 -24l12 4v20l-8 12l12 8l28 -20v4l-4 20zM448 104h16l12 -12v-8l-8 -20l-20 36v4zM112 100h16v-8l-12 -12h-4 l-8 8v4zM608 92v-8h4v8h-4zM224 88v-8h4v8h-4zM636 64v-4h8v4h-8zM148 60v-8l8 8h-8zM180 52v-4h8v4h-8zM164 48v-4h8v4h-8zM386 1515h128l180 -308v-8h-80l-144 204v12l4 4l-12 24l-4 -4h-4l-12 8q-26 0 -32 -36l8 -24l-104 -140q-13 48 -24 48l-20 -8v-16l8 -12v-24l24 -8 v-4l-20 -24h-72l-4 4h-4q169 303 184 312zM354 1451v-4l16 -16h4q13 0 28 12q-3 28 -28 28q-11 -3 -20 -20z" />
<glyph unicode="&#xfc;" horiz-adv-x="891" d="M8 996h40l12 -8l4 4v-12h4l4 16h28v-4q-20 -19 -20 -36l16 12l4 -4l24 8h4v-16l-4 -4l4 -4v-212l-4 -4l4 -4v-24l-8 -24l4 -16l-4 -4l8 -8v-220l-28 -24v-20q48 -56 48 -108l44 -104l-4 -4h16v-8q-36 -23 -112 -52l-4 -4q-88 98 -88 428l8 8l-8 12v68l8 12l-8 12v268 l4 24l-4 20v28zM712 996h112l8 -8v-520q-1 -9 -40 -24h-12l-24 4l-12 -4q-5 17 -40 60v144l8 36h-8v20q0 17 16 28l4 12h-4l-16 4v240zM800 992v-8h4v8h-4zM792 968v-4h4l4 16q-8 0 -8 -12zM12 960l4 -4h4l4 4v8h-4zM8 952v-4h8v4h-8zM24 940v-8h4v8h-4zM800 928v-4h4l4 16 q-8 0 -8 -12zM64 904l-4 -12h8v12h-4zM48 896l8 -8v8h-8zM752 852v-8h4v8h-4zM16 820v-8h4v8h-4zM28 808v-8l12 -4l4 4v8h-16zM736 800v-4l8 8v4zM772 804v-8h4v8h-4zM720 792v-8h4v8h-4zM760 784v-8h4v8h-4zM732 736l-16 -36v-8h4l16 40v4h-4zM88 720v-8h4v8h-4zM76 676v-8 l4 -4v-4q32 0 32 20l4 12h-4q-16 0 -16 12q-20 -6 -20 -28zM744 668l-4 -20v-4h4l4 16v8h-4zM792 644v-8h4v8h-4zM60 600v-8h4v8h-4zM724 532v-12h4l4 24q-8 0 -8 -12zM32 492q4 -13 16 -16v4zM48 424h8q28 0 28 28q-19 -8 -36 -28zM828 452l4 -4v-132q0 -8 -12 -8v-8h12 v-288l-8 -8h-52l-16 4l-16 -4h-28l-8 8v76l32 -8v4l-8 20h4l88 -84q-29 44 -108 116l-4 12h-24v20h4q12 0 12 -16h4v4l-8 32l36 12v4q-28 0 -28 20l56 28l8 8v4h-32l8 -12v-4h-8l-28 4v16q0 8 32 16l8 12q-24 5 -24 12l4 4h4l4 -4q0 18 52 44l4 4v4l-20 4l12 12l12 -8h4l8 8 l-4 4l12 4v4q-12 0 -12 8l20 4v4q-24 0 -24 20zM740 308v-4h12v4h-12zM772 304v-4l32 -4v8h-32zM792 284v-8h4l8 8h-12zM712 248v-12l-8 8l4 4h4zM760 164v-8l12 -12h4v8q0 6 -16 12zM224 156l8 -12v-4l-16 -4l-12 4v12zM180 136h16v-8l-12 -4q14 -80 64 -80l28 -16l28 4 l-12 -16h4q0 24 116 64h16q32 -20 32 -52h8q0 33 24 52h8q12 0 28 -84q-32 -16 -100 -16h-28l-24 4l-16 -4q-143 0 -240 92q33 47 60 64zM244 136q72 -24 72 -32l12 4l88 -8v-4q0 -9 -56 -24q0 -10 -64 -32l-8 8h-4l-4 -12q-32 12 -32 28l-20 -4v4q0 12 -16 12 q-12 21 -12 40q29 20 44 20zM660 132l4 -4v-12l-12 12l4 4h4zM612 128l40 -20l8 8q3 -28 12 -28l16 20l4 -4v-8q-98 -96 -148 -96l-12 80q9 0 12 20h8q0 -9 16 -24l12 4v20l-8 12l12 8l28 -20v4l-4 20zM448 104h16l12 -12v-8l-8 -20l-20 36v4zM112 100h16v-8l-12 -12h-4 l-8 8v4zM608 92v-8h4v8h-4zM224 88v-8h4v8h-4zM636 64v-4h8v4h-8zM148 60v-8l8 8h-8zM180 52v-4h8v4h-8zM164 48v-4h8v4h-8zM195 1347h112l8 -8v-132l-8 -8h-112l-8 8v132zM527 1347h116l8 -8v-132l-8 -8h-116l-8 8v132z" />
<glyph unicode="&#xfd;" horiz-adv-x="1024" />
<glyph unicode="&#xfe;" />
<glyph unicode="&#xff;" horiz-adv-x="1024" />
<glyph unicode="&#x100;" horiz-adv-x="1366" />
<glyph unicode="&#x101;" />
<glyph unicode="&#x102;" horiz-adv-x="1366" />
<glyph unicode="&#x103;" />
<glyph unicode="&#x104;" horiz-adv-x="1366" />
<glyph unicode="&#x105;" />
<glyph unicode="&#x106;" horiz-adv-x="1479" />
<glyph unicode="&#x107;" horiz-adv-x="1024" />
<glyph unicode="&#x108;" horiz-adv-x="1479" />
<glyph unicode="&#x109;" horiz-adv-x="1024" />
<glyph unicode="&#x10a;" horiz-adv-x="1479" />
<glyph unicode="&#x10b;" horiz-adv-x="1024" />
<glyph unicode="&#x10c;" horiz-adv-x="1479" />
<glyph unicode="&#x10d;" horiz-adv-x="1024" />
<glyph unicode="&#x10e;" horiz-adv-x="1479" />
<glyph unicode="&#x10f;" horiz-adv-x="1259" />
<glyph unicode="&#x110;" horiz-adv-x="1479" />
<glyph unicode="&#x111;" />
<glyph unicode="&#x112;" horiz-adv-x="1366" />
<glyph unicode="&#x113;" />
<glyph unicode="&#x114;" horiz-adv-x="1366" />
<glyph unicode="&#x115;" />
<glyph unicode="&#x116;" horiz-adv-x="1366" />
<glyph unicode="&#x117;" />
<glyph unicode="&#x118;" horiz-adv-x="1366" />
<glyph unicode="&#x119;" />
<glyph unicode="&#x11a;" horiz-adv-x="1366" />
<glyph unicode="&#x11b;" />
<glyph unicode="&#x11c;" horiz-adv-x="1593" />
<glyph unicode="&#x11d;" />
<glyph unicode="&#x11e;" horiz-adv-x="1593" />
<glyph unicode="&#x11f;" />
<glyph unicode="&#x120;" horiz-adv-x="1593" />
<glyph unicode="&#x121;" />
<glyph unicode="&#x122;" horiz-adv-x="1593" />
<glyph unicode="&#x123;" />
<glyph unicode="&#x124;" horiz-adv-x="1479" />
<glyph unicode="&#x125;" />
<glyph unicode="&#x126;" horiz-adv-x="1479" />
<glyph unicode="&#x127;" />
<glyph unicode="&#x128;" horiz-adv-x="569" />
<glyph unicode="&#x129;" horiz-adv-x="569" />
<glyph unicode="&#x12a;" horiz-adv-x="569" />
<glyph unicode="&#x12b;" horiz-adv-x="569" />
<glyph unicode="&#x12c;" horiz-adv-x="569" />
<glyph unicode="&#x12d;" horiz-adv-x="569" />
<glyph unicode="&#x12e;" horiz-adv-x="569" />
<glyph unicode="&#x12f;" horiz-adv-x="455" />
<glyph unicode="&#x130;" horiz-adv-x="569" />
<glyph unicode="&#x131;" horiz-adv-x="569" />
<glyph unicode="&#x132;" horiz-adv-x="1505" />
<glyph unicode="&#x133;" horiz-adv-x="909" />
<glyph unicode="&#x134;" horiz-adv-x="1024" />
<glyph unicode="&#x135;" horiz-adv-x="455" />
<glyph unicode="&#x136;" horiz-adv-x="1366" />
<glyph unicode="&#x137;" horiz-adv-x="1024" />
<glyph unicode="&#x138;" horiz-adv-x="1024" />
<glyph unicode="&#x139;" />
<glyph unicode="&#x13a;" horiz-adv-x="455" />
<glyph unicode="&#x13b;" />
<glyph unicode="&#x13c;" horiz-adv-x="455" />
<glyph unicode="&#x13d;" />
<glyph unicode="&#x13e;" horiz-adv-x="597" />
<glyph unicode="&#x13f;" />
<glyph unicode="&#x140;" horiz-adv-x="684" />
<glyph unicode="&#x141;" />
<glyph unicode="&#x142;" horiz-adv-x="455" />
<glyph unicode="&#x143;" horiz-adv-x="1479" />
<glyph unicode="&#x144;" />
<glyph unicode="&#x145;" horiz-adv-x="1479" />
<glyph unicode="&#x146;" />
<glyph unicode="&#x147;" horiz-adv-x="1479" />
<glyph unicode="&#x148;" />
<glyph unicode="&#x149;" horiz-adv-x="1237" />
<glyph unicode="&#x14a;" horiz-adv-x="1481" />
<glyph unicode="&#x14b;" />
<glyph unicode="&#x14c;" horiz-adv-x="1593" />
<glyph unicode="&#x14d;" />
<glyph unicode="&#x14e;" horiz-adv-x="1593" />
<glyph unicode="&#x14f;" />
<glyph unicode="&#x150;" horiz-adv-x="1593" />
<glyph unicode="&#x151;" />
</font>
</defs>
</svg>
