<?xml version="1.0" standalone="no"?>
<!DOCTYPE svg PUBLIC "-//W3C//DTD SVG 1.1//EN" "http://www.w3.org/Graphics/SVG/1.1/DTD/svg11.dtd" >
<svg xmlns="http://www.w3.org/2000/svg">
<metadata>
This is a custom SVG webfont generated by Font Squirrel.
</metadata>
<defs>
<font id="webfontJuzGWqWK" horiz-adv-x="631" >
<font-face units-per-em="1000" ascent="750" descent="-250" />
<missing-glyph horiz-adv-x="250" />
<glyph unicode=" "  horiz-adv-x="250" />
<glyph unicode="&#x09;" horiz-adv-x="250" />
<glyph unicode="&#xa0;" horiz-adv-x="250" />
<glyph unicode="!" horiz-adv-x="308" d="M32 509v190h239v-190l-53 -252h-132zM28 102q0 41 31.5 73.5t82.5 32.5q52 0 85.5 -31t33.5 -75q0 -43 -33 -73t-86 -30q-48 0 -81 31.5t-33 71.5z" />
<glyph unicode="&#x22;" horiz-adv-x="530" d="M254 701l-36 -299h-125l-37 299h198zM474 701l-36 -299h-125l-37 299h198z" />
<glyph unicode="#" horiz-adv-x="650" d="M597 322h-93l-12 -67h93l-23 -133h-93l-18 -102h-133l18 102h-67l-18 -102h-133l18 102h-113l23 133h113l12 67h-113l23 133h113l18 104h133l-18 -104h67l18 104h133l-18 -104h93zM359 255l12 67h-67l-12 -67h67z" />
<glyph unicode="$" horiz-adv-x="710" d="M667 448h-181q0 54 -36.5 85t-91.5 31q-25 0 -47 -14.5t-22 -38.5q0 -28 41 -49t99 -39.5t116 -42.5t99 -71t41 -112q0 -56 -24 -98.5t-64 -66.5t-85 -35.5t-92 -11.5q-13 0 -35 2v-64h-64v79q-65 23 -110 75l-11 -77h-175v252h186q0 -30 13 -50.5t35 -30.5t40 -14t38 -5 q85 0 85 50q0 18 -28.5 32t-71 23.5t-92.5 28t-92.5 42.5t-71 69t-28.5 105q0 53 23 95.5t59.5 68t76.5 38.5t79 13q22 0 45 -3v74h64v-89q70 -27 100 -84l10 84h172v-251z" />
<glyph unicode="%" horiz-adv-x="600" d="M167 374q-51 0 -80.5 35.5t-29.5 103.5q0 59 29 96t76 37q55 0 82.5 -37t27.5 -103q0 -62 -27.5 -97t-77.5 -35zM462 643h-115l-207 -640h115zM167 432q13 0 20.5 20.5t7.5 53.5q0 80 -34 80q-10 0 -19.5 -21t-9.5 -52q0 -36 11 -58.5t24 -22.5zM437 2q-51 0 -80.5 35.5 t-29.5 103.5q0 59 29 96t76 37q55 0 82.5 -37t27.5 -103q0 -62 -27.5 -97t-77.5 -35zM437 60q13 0 20.5 20.5t7.5 53.5q0 80 -34 80q-10 0 -19.5 -21t-9.5 -52q0 -36 11 -58.5t24 -22.5z" />
<glyph unicode="&#x26;" horiz-adv-x="700" d="M647 356h-165q0 -84 -7 -108q-6 -17 -18 -37q-36 38 -87 126q72 43 104 102q25 45 25 85q0 12 -3 24q-9 49 -54.5 83.5t-117.5 34.5q-60 0 -108 -38t-58 -100q-2 -11 -2 -23q0 -52 38 -116q-61 -40 -86 -69q-55 -63 -55 -152q0 -64 30 -108t76.5 -61t98.5 -19q8 -1 17 -1 q43 0 83 11q47 13 77 35q45 -33 82 -33q9 0 18 2q43 11 67.5 41t24.5 57q-15 -9 -30 -9q-35 0 -71 47q24 32 33 74q5 -1 18 -1q10 0 23 1q33 1 38 1zM310 451q-17 18 -24 49q-3 11 -3 22q0 18 7 34q13 26 47 26q42 0 46 -34v-6q0 -36 -44 -72q-13 -10 -29 -19zM253 276 q55 -106 108 -166q-34 -29 -76 -29q-16 0 -34 5q-53 13 -65 56q-3 11 -3 22q0 52 70 112z" />
<glyph unicode="'" horiz-adv-x="273" d="M234 701l-36 -299h-125l-37 299h198z" />
<glyph unicode="(" horiz-adv-x="388" d="M260 815l103 -106q-29 -36 -46 -59.5t-47 -76.5t-45.5 -119t-15.5 -142q0 -79 14.5 -147t41.5 -120t47.5 -82t50.5 -65l-103 -107q-94 85 -164.5 224.5t-70.5 296.5q0 83 24.5 166.5t62.5 148t75.5 111t72.5 77.5z" />
<glyph unicode=")" horiz-adv-x="388" d="M25 708l103 106q35 -31 72.5 -77.5t75.5 -111t62.5 -148t24.5 -166.5q0 -157 -70.5 -296.5t-164.5 -224.5l-103 107q30 35 50.5 65t47.5 82t41.5 120t14.5 147q0 76 -15.5 142t-45.5 119t-47 76.5t-46 59.5z" />
<glyph unicode="*" horiz-adv-x="600" d="M249 696l-19 -30l22 -116l-89 46l-44 2l-32 -102l41 -19l94 -21l-86 -89v-28l83 -63l27 25l53 96l50 -90l31 -32l84 64l-9 36l-77 80l98 20l37 21l-32 102l-42 -2l-90 -47l22 116l-19 31h-103z" />
<glyph unicode="+" d="M581 305v-133h-203v-203h-133v203h-203v133h203v203h133v-203h203z" />
<glyph unicode="," horiz-adv-x="272" d="M109 -194l-115 65q56 71 79 144q18 56 18 133q0 23 -2 48l182 -48v-12q0 -89 -40 -172q-43 -88 -122 -158z" />
<glyph unicode="-" horiz-adv-x="386" d="M47 305h290v-133h-290v133z" />
<glyph unicode="." horiz-adv-x="258" d="M15 104q0 42 31 78t82 36t83 -36t32 -78q0 -47 -30.5 -77.5t-84.5 -30.5q-48 0 -80.5 33t-32.5 75z" />
<glyph unicode="/" horiz-adv-x="402" d="M402 731h-162l-290 -886h162z" />
<glyph unicode="0" horiz-adv-x="599" d="M302 -12q-130 0 -208.5 93t-78.5 272q0 159 78.5 259t203.5 100q143 0 215 -97.5t72 -268.5q0 -168 -73.5 -263t-208.5 -95zM302 143q35 0 58 56.5t23 146.5q0 89 -25 147t-62 58h-1q-29 0 -55 -55q-27 -57 -27 -143q0 -91 28 -150.5t61 -59.5z" />
<glyph unicode="1" horiz-adv-x="496" d="M71 457l-46 111l21 10l21 10l19 10q14 8 21 14l20 14q13 10 23 20l24 24q13 13 26 29h178v-566h93v-133h-400v133h100v371z" />
<glyph unicode="2" horiz-adv-x="590" d="M141 472l-108 114q107 124 260 124q102 0 170 -60t68 -159q0 -80 -34.5 -122.5t-125.5 -101.5q-42 -27 -88 -66.5t-62 -67.5h176v80h168v-213h-540v145q40 66 68.5 98.5t77.5 71.5q23 21 73.5 54.5t77 59t26.5 53.5q0 66 -84 66q-25 0 -50.5 -14.5t-37.5 -26t-35 -35.5z " />
<glyph unicode="3" horiz-adv-x="540" d="M134 498l-97 117q32 35 92 65t122 30q121 0 188 -57.5t67 -154.5q0 -70 -74 -127q93 -67 93 -164q0 -104 -83 -162t-194 -58q-69 0 -136 34t-97 79l102 106q65 -65 132 -65q42 0 66 20t24 57q0 73 -83 73h-75v119h73q37 0 61 18t24 51q0 38 -26.5 58.5t-61.5 20.5 q-60 0 -117 -60z" />
<glyph unicode="4" horiz-adv-x="584" d="M10 340l288 359h207v-394h53v-108h-53v-65h54v-132h-324v132h63v65h-288v143zM298 305v185l-148 -185h148z" />
<glyph unicode="5" horiz-adv-x="577" d="M238 550l-17 -97q37 24 108 24q94 0 163.5 -63.5t69.5 -173.5q0 -61 -26 -110t-69 -79.5t-95.5 -47t-108.5 -16.5q-73 0 -144.5 36.5t-103.5 84.5l109 113q72 -74 140 -74q50 0 80 28t30 72q0 40 -29.5 68.5t-72.5 28.5q-50 0 -94 -46l-128 57l61 344h396v-149h-269z" />
<glyph unicode="6" horiz-adv-x="581" d="M546 631l-68 -130q-87 51 -146 51q-54 -1 -88.5 -39.5t-42.5 -96.5q20 20 56.5 35t74.5 16h12q90 0 154 -59q68 -64 68 -164q0 -104 -70 -176.5t-189 -76.5h-11q-118 0 -195 81q-81 84 -85 232v16q0 39 4 78q5 46 23 103.5t48.5 101t87 74.5t131.5 33h9q50 0 115 -20 q70 -23 112 -59zM306 323q-59 -3 -103 -57q0 -43 24.5 -80.5t68.5 -37.5q38 0 65 25q26 24 26 58q0 37 -21 65q-18 27 -57 27h-3z" />
<glyph unicode="7" horiz-adv-x="566" d="M15 699h541v-133l-269 -566h-216l268 566h-164v-65h-160v198z" />
<glyph unicode="8" horiz-adv-x="559" d="M15 205q0 50 30 101t78 75q-36 22 -55.5 58.5t-19.5 74.5q0 86 64 141.5t174 55.5q113 0 176 -55.5t63 -141.5q0 -47 -24 -83t-60 -53q49 -24 76 -72t27 -101q0 -94 -72.5 -156t-191.5 -62q-122 0 -193.5 61.5t-71.5 156.5zM359 522q0 27 -22.5 45t-52.5 18 q-29 0 -50.5 -19t-21.5 -44t19 -41t38.5 -20t41.5 -5q48 23 48 66zM188 211q0 -35 27.5 -58.5t65.5 -23.5q39 0 65 21.5t27 60.5q0 46 -39.5 66.5t-87.5 22.5q-24 -14 -41 -38.5t-17 -50.5z" />
<glyph unicode="9" horiz-adv-x="587" d="M35 70l68 130q87 -51 146 -51q57 2 90 37t32 99q-48 -48 -122 -51h-12q-90 0 -154 60q-68 63 -68 163q0 104 70 176.5t189 76.5h11q119 0 199 -81q83 -85 87 -232v-17q0 -43 -4 -84q-5 -48 -24.5 -104.5t-51 -98.5t-88.5 -71t-132 -31h-9q-50 0 -114 21q-71 22 -113 58z M275 378q50 2 94 57q0 46 -20.5 82t-63.5 36q-38 0 -65 -25q-26 -24 -26 -58q0 -37 20 -66q19 -26 58 -26h3z" />
<glyph unicode=":" horiz-adv-x="254" d="M15 402q0 42 30.5 77t80.5 35q51 0 82 -35.5t31 -76.5q0 -46 -30.5 -76t-82.5 -30q-45 0 -78 33t-33 73zM15 98q0 42 30.5 77t80.5 35q51 0 82 -35.5t31 -76.5q0 -45 -31.5 -75.5t-81.5 -30.5q-47 0 -79 32.5t-32 73.5z" />
<glyph unicode=";" horiz-adv-x="302" d="M59 385q0 42 31 78t82 36t83 -36t32 -78q0 -46 -31 -77t-84 -31q-46 0 -79.5 33.5t-33.5 74.5zM5 -129l115 -65q79 70 122 158q40 83 40 172v12l-182 48q2 -25 2 -48q0 -77 -18 -133q-23 -73 -79 -144z" />
<glyph unicode="&#x3c;" horiz-adv-x="520" d="M369 500l-299 -150v-140l322 -150l38 104l-247 111l247 113z" />
<glyph unicode="=" horiz-adv-x="502" d="M44 406h412v-133h-412v133zM44 185h412v-133h-412v133z" />
<glyph unicode="&#x3e;" horiz-adv-x="520" d="M131 500l299 -150v-140l-322 -150l-38 104l247 111l-247 113z" />
<glyph unicode="?" horiz-adv-x="520" d="M110 477l-108 109q111 129 260 129q104 0 171 -53.5t67 -151.5q0 -36 -16.5 -66.5t-40 -51t-46.5 -37.5t-39.5 -34t-16.5 -33v-55h-186v80q0 31 25 62t54.5 51.5t54.5 44t25 41.5q0 47 -74 47q-30 0 -65.5 -24t-64.5 -58zM129 102q0 41 31.5 73.5t82.5 32.5 q52 0 85.5 -31t33.5 -75q0 -43 -33 -73t-86 -30q-48 0 -81 31.5t-33 71.5z" />
<glyph unicode="@" horiz-adv-x="833" d="M585 289v-126q2 -30 28 -46q11 -7 20 -7q18 0 31 24q17 32 17 100q0 46 -17.5 92.5t-49 86.5t-84 65t-115.5 25q-83 0 -145 -43t-90 -103t-28 -123q0 -104 76 -180q73 -74 186 -74h6v-90h-3q-155 0 -256 102q-102 103 -102 242q0 61 23 123.5t66 115.5t112.5 86.5 t154.5 33.5t155 -33.5t113.5 -86.5t67 -115.5t23.5 -123.5q0 -67 -18 -113.5t-46 -66.5t-62 -26q-16 -4 -31 -4q-18 0 -35 4q-33 8 -58.5 22t-37.5 31l-16 29q-25 -42 -87 -42q-51 0 -88.5 28t-37.5 80q0 55 38 87t95 32q40 0 63 -23v23q0 36 -61 36q-41 0 -95 -30l-27 74 q72 47 141 47q43 0 80 -11t65.5 -42t28.5 -80zM453 174v23l-2 3q-2 4 -4 6t-6 5t-11 4.5t-15 1.5q-36 0 -36 -35q0 -13 9.5 -21t24.5 -8q13 0 25.5 6.5t14.5 14.5z" />
<glyph unicode="A" horiz-adv-x="823" d="M808 0h-401v131h95l-21 68h-205l-21 -68h78v-131h-318v131h68l135 439h-41v129h384l177 -568h70v-131zM313 319h131l-66 216z" />
<glyph unicode="B" horiz-adv-x="687" d="M25 0v130h58v440h-58v129h373q245 0 245 -171q0 -64 -21.5 -98.5t-76.5 -56.5q59 -16 95.5 -58.5t36.5 -111.5q0 -106 -64 -154.5t-208 -48.5h-380zM290 567v-150h61q38 0 53 19.5t15 57.5q0 34 -18.5 53.5t-47.5 19.5h-63zM290 130h80q33 0 57 23.5t24 62.5t-22 63.5 t-62 24.5h-77v-174z" />
<glyph unicode="C" horiz-adv-x="686" d="M554 253l117 -128q-128 -141 -303 -141q-160 0 -256.5 96.5t-96.5 262.5q0 82 29 153.5t74 117t98 71.5t103 26q103 0 154 -68l23 56h157v-284h-179q-2 53 -29 89.5t-77 36.5q-53 0 -86 -57t-33 -141q0 -79 39 -133.5t107 -54.5q15 0 30.5 4t28.5 10t26 14.5t22.5 16.5 t19.5 17.5t15 15.5l11 13z" />
<glyph unicode="D" horiz-adv-x="720" d="M25 0v133h62v434h-62v132h305q177 0 278.5 -96t101.5 -244q0 -171 -100 -265t-284 -94h-301zM292 133h38q76 1 113 63.5t37 162.5q0 88 -37.5 148t-112.5 60h-38v-434z" />
<glyph unicode="E" horiz-adv-x="653" d="M25 699h603v-221h-173v89h-160v-138h190v-133h-190v-163h160v93h173v-226h-603v133h63v434h-63v132z" />
<glyph unicode="F" horiz-adv-x="638" d="M25 699h598v-221h-177v89h-151v-174h190v-133h-190v-127h102v-133h-372v133h62v434h-62v132z" />
<glyph unicode="G" horiz-adv-x="776" d="M521 0l-31 63q-18 -30 -62 -51t-99 -21q-134 0 -224 96.5t-90 255.5q0 158 92.5 263t214.5 105q34 0 63.5 -5.5t48 -12.5t34.5 -18t23.5 -18.5t15.5 -17.5t10 -12l21 72h149v-295h-179q-2 59 -35 93t-79 34q-59 0 -98 -55.5t-39 -132.5q0 -79 37 -131.5t100 -52.5 q68 0 96 49v42h-61v107h332v-107h-40v-250h-200z" />
<glyph unicode="H" horiz-adv-x="768" d="M25 699h324v-132h-62v-151h190v151h-59v132h325v-132h-58v-435h58v-132h-325v132h59v151h-190v-151h62v-132h-324v132h55v435h-55v132z" />
<glyph unicode="I" horiz-adv-x="382" d="M25 699h332v-132h-62v-434h62v-133h-332v133h63v434h-63v132z" />
<glyph unicode="J" horiz-adv-x="463" d="M20 -193v132q20 -9 45 -9q83 0 83 144v494h-86v131h376v-131h-83v-494q0 -138 -66 -208t-216 -70q-24 0 -53 11z" />
<glyph unicode="K" horiz-adv-x="815" d="M340 570h-54v-163l186 163h-72v129h333v-129h-58l-145 -125l202 -315h58v-130h-390v130h68l-108 170l-74 -63v-107h54v-130h-315v130h54v440h-54v129h315v-129z" />
<glyph unicode="L" horiz-adv-x="610" d="M25 699h316v-132h-53v-434h129v127h168v-260h-560v133h55v434h-55v132z" />
<glyph unicode="M" horiz-adv-x="1008" d="M723 523h-4q-17 -93 -29 -134l-105 -389h-209l-112 399q-17 58 -21 124h-4v-394h57v-129h-271v129h54v441h-53v129h379l101 -374l96 374h381v-129h-55v-440h55v-130h-316v130h56v334v59z" />
<glyph unicode="N" horiz-adv-x="816" d="M791 570h-66v-570h-215l-255 381v-252h77v-129h-307v129h59v441h-58v129h287l245 -367v238h-68v129h301v-129z" />
<glyph unicode="O" horiz-adv-x="740" d="M373 -18q-163 0 -260.5 94.5t-97.5 276.5q0 162 98 263.5t253 101.5q179 0 269 -99t90 -273q0 -171 -92 -267.5t-260 -96.5zM373 139q47 0 74.5 56.5t27.5 150.5q0 97 -27.5 157.5t-82.5 60.5h-2q-44 0 -73 -58q-28 -60 -28 -153q0 -97 31 -155.5t80 -58.5z" />
<glyph unicode="P" horiz-adv-x="640" d="M25 699h324q84 0 140.5 -16.5t85 -48.5t39.5 -67t11 -82q0 -95 -75 -146.5t-188 -51.5h-76v-155h61v-132h-322v132h56v436h-56v131zM286 569v-174h45q44 0 71 22t27 61q0 44 -24.5 67.5t-68.5 23.5h-50z" />
<glyph unicode="Q" horiz-adv-x="755" d="M740 106v-51q0 -70 -39 -115t-111 -45q-58 0 -97.5 31.5t-57.5 79.5q-36 -6 -78 -6q-156 0 -249 91t-93 263q0 154 93 251t243 97q171 0 256.5 -94.5t85.5 -260.5q0 -159 -83 -250q17 -65 44 -65q20 0 20 45v29h66zM357 347q58 0 112 -39q2 24 2 39q0 89 -33.5 149 t-87.5 60h-2q-45 0 -78 -58q-35 -58 -35 -144q0 -32 4 -55q46 48 118 48zM357 150q28 0 53 22q-6 42 -17.5 63t-35.5 21q-41 0 -67 -73q30 -33 67 -33z" />
<glyph unicode="R" horiz-adv-x="737" d="M25 699h325q84 0 140.5 -15.5t85.5 -45.5t40 -64t11 -81q0 -57 -40.5 -96.5t-104.5 -48.5q53 -8 92 -48.5t39 -93.5q0 -68 24 -68q23 0 23 32v33h67v-55q0 -70 -34.5 -115t-111.5 -45q-97 0 -145.5 48.5t-48.5 137.5q0 70 -17.5 91.5t-82.5 21.5v-155h61v-132h-323v132 h56v436h-56v131zM287 569v-170h45q44 0 70 21t26 60q0 89 -91 89h-50z" />
<glyph unicode="S" horiz-adv-x="710" d="M25 0v252h186q0 -30 13 -50.5t35 -30.5t40 -14t38 -5q85 0 85 50q0 18 -28.5 32t-71 23.5t-92.5 28t-92.5 42.5t-71 69t-28.5 105q0 53 23 95.5t59.5 68t76.5 38.5t79 13q155 0 209 -102l10 84h172v-251h-181q0 54 -36.5 85t-91.5 31q-25 0 -47 -14.5t-22 -38.5 q0 -28 41 -49t99 -39.5t116 -42.5t99 -71t41 -112q0 -56 -24 -98.5t-64 -66.5t-85 -35.5t-92 -11.5q-131 0 -209 92l-11 -77h-175z" />
<glyph unicode="T" horiz-adv-x="701" d="M686 699v-260h-147v128h-84v-434h83v-133h-372v133h82v434h-86v-128h-147v260h671z" />
<glyph unicode="U" horiz-adv-x="737" d="M15 699h318v-129h-54v-216q0 -114 24 -154.5t76 -40.5q34 0 54 12.5t33.5 57t13.5 126.5v212h-54v132h296v-129h-54v-243q0 -344 -287 -344q-310 9 -310 339v247h-56v130z" />
<glyph unicode="V" horiz-adv-x="773" d="M420 224h5q3 45 36 127l91 218h-53v130h284v-130h-49l-240 -569h-184l-265 569h-55v130h368v-130h-54l85 -224q29 -88 31 -121z" />
<glyph unicode="W" horiz-adv-x="1015" d="M320 226h5q2 23 49 248l50 225h208l63 -276q19 -89 30 -197h5q8 87 30 191l34 152h-55v130h286v-130h-55l-149 -569h-237l-60 238q-13 48 -25 124h-4q-7 -50 -24 -122l-61 -240h-232l-132 569h-56v130h330v-130h-58l26 -146q14 -60 32 -197z" />
<glyph unicode="X" horiz-adv-x="835" d="M357 0h-332v129h87l147 191l-181 249h-52v130h396v-130h-58l98 -133l102 133h-88v130h332v-130h-85l-151 -193l180 -246h58v-130h-399v130h57l-76 102l-21 28l-103 -131h89v-129z" />
<glyph unicode="Y" horiz-adv-x="669" d="M369 384h4q2 9 37 86l55 101h-55v128h269v-128h-54l-185 -325v-116h56v-130h-320v130h57v118l-194 323h-49v128h342v-128h-52l58 -106q3 -8 16 -40t15 -41z" />
<glyph unicode="Z" horiz-adv-x="714" d="M31 436v263h656l2 -133l-366 -434h186v128h177v-260h-661v130l364 436h-188v-130h-170z" />
<glyph unicode="[" horiz-adv-x="388" d="M387 -210h-249v1024h250v-131h-60v-762h59v-131z" />
<glyph unicode="\" horiz-adv-x="402" d="M0 731h162l290 -886h-162z" />
<glyph unicode="]" horiz-adv-x="388" d="M1 -210h249v1024h-250v-131h60v-762h-59v-131z" />
<glyph unicode="_" d="M42 -44h539v-54h-539v54z" />
<glyph unicode="a" horiz-adv-x="600" d="M78 342l-42 116q118 71 218 71q49 0 93.5 -10t86 -32t66.5 -64.5t25 -99.5v-195h60v-128h-214l-24 45q-25 -34 -63 -49t-72 -15q-79 0 -138 43t-59 124q0 83 60.5 133.5t147.5 50.5q27 0 50.5 -8t34 -15t14.5 -12v35q0 56 -95 56q-66 0 -149 -46zM322 144v38 q-17 29 -59 29q-58 0 -58 -53q0 -21 15 -34t38 -13q21 0 38.5 10t25.5 23z" />
<glyph unicode="b" horiz-adv-x="656" d="M31 0v130h42v489h-42v131h242v-289q16 19 55 33t76 14q109 0 170 -78q60 -75 60 -177v-7q-2 -117 -64 -187t-167 -70q-36 0 -62.5 7t-39.5 15t-30 23l-15 -34h-225zM414 244q0 48 -20 85.5t-52 37.5q-31 0 -52 -35q-19 -32 -19 -79v-14q0 -50 21.5 -85t50.5 -35 q32 0 51.5 34t19.5 91z" />
<glyph unicode="c" horiz-adv-x="531" d="M507 274h-147q-2 43 -17 74t-46 31q-42 0 -65 -37.5t-23 -90.5q0 -50 28 -83.5t75 -34.5h2q67 0 119 57l88 -102q-39 -43 -104 -72.5t-141 -29.5q-117 0 -196 70t-79 197q0 125 71 190.5t175 65.5q77 0 125 -57l17 48h118v-226z" />
<glyph unicode="d" horiz-adv-x="634" d="M368 620h-46v130h249v-620h48v-130h-234l-17 37q-50 -46 -126 -46q-103 0 -167.5 78t-64.5 186q0 113 68 184t164 71q66 0 126 -38v148zM225 255q0 -48 20 -85.5t52 -37.5q31 0 53 36q18 31 18 78v14q0 50 -21.5 85t-50.5 35q-32 0 -51.5 -34t-19.5 -91z" />
<glyph unicode="e" horiz-adv-x="542" d="M443 166l84 -97q-101 -87 -258 -87q-105 0 -184.5 69t-79.5 202q0 120 76 190.5t193 70.5q88 0 152.5 -40.5t86.5 -104.5q11 -32 13 -76q1 -7 1 -13q0 -38 -12 -80h-315q3 -15 7 -25t14.5 -25.5t31.5 -23.5t50 -8q82 0 140 48zM203 299h151q-1 36 -16 58t-58 22 q-40 0 -57.5 -26t-19.5 -54z" />
<glyph unicode="f" horiz-adv-x="386" d="M411 743l-60 -115q-22 10 -55 10q-32 0 -32 -53v-85h91v-130h-91v-239h60v-131h-298v131h40v239h-41v130h41v85q0 21 3 41t15 47.5t32 47t58.5 33.5t89.5 14q39 0 83 -7.5t64 -17.5z" />
<glyph unicode="g" horiz-adv-x="640" d="M24 -117l53 111q24 -21 74 -42.5t100 -21.5q61 0 88.5 28t27.5 66v34q-43 -55 -117 -55q-120 0 -180 72.5t-60 177.5q0 119 65 188t186 69q31 0 60.5 -12.5t45.5 -28.5l20 31h238v-131h-60v-299q0 -128 -79 -201t-233 -74q-74 1 -133 27.5t-96 60.5zM223 255 q0 -48 20 -85.5t52 -37.5q31 0 53 36q18 31 18 78v14q0 50 -21.5 85t-50.5 35q-32 0 -51.5 -34t-19.5 -91z" />
<glyph unicode="h" horiz-adv-x="661" d="M339 0h-314v131h42v489h-42v130h242v-312q12 20 60.5 50t96.5 30q55 0 92 -18.5t54 -53t23 -68.5t6 -80v-167h47v-131h-257v272q0 19 -1 30t-6 28t-18 26t-34 9q-63 0 -63 -93v-141h72v-131z" />
<glyph unicode="i" horiz-adv-x="330" d="M53 646q0 38 29.5 70t78.5 32t79.5 -32t30.5 -70q0 -43 -29.5 -72t-80.5 -29q-45 0 -76.5 31.5t-31.5 69.5zM305 0h-280v131h42v239h-42v130h232v-369h48v-131z" />
<glyph unicode="j" horiz-adv-x="360" d="M114 646q0 38 29.5 70t78.5 32t79.5 -32t30.5 -70q0 -43 -29.5 -72t-80.5 -29q-45 0 -76.5 31.5t-31.5 69.5zM128 370h-42v130h232v-430q0 -42 -6 -77t-25 -74t-51 -66t-88.5 -44.5t-133.5 -17.5v134q33 0 56 11.5t34 25t17 38t6.5 36.5t0.5 34v300z" />
<glyph unicode="k" horiz-adv-x="654" d="M38 0v130h41v489h-41v131h231v-452l116 69h-72v132h280v-132h-77l-68 -43l135 -193h50v-131h-296v131h42l-76 108l-35 -24v-84h37v-131h-267z" />
<glyph unicode="l" horiz-adv-x="332" d="M317 0h-292v131h43v490h-42v129h232v-619h59v-131z" />
<glyph unicode="m" horiz-adv-x="908" d="M322 0h-297v131h42v236h-42v132h189l22 -59q61 73 125 73q35 0 62.5 -7t45 -20.5t25 -22.5t16.5 -22q64 72 147 72q58 0 97 -19.5t57.5 -56t25.5 -74.5t7 -90v-138h49v-135h-254v245q0 6 0.5 21.5t0.5 24.5t-1 22.5t-3.5 22t-6.5 17t-11 12.5t-17 4q-30 0 -41.5 -18.5 t-11.5 -54.5v-162h60v-134h-259v255q0 67 -7 90.5t-35 23.5q-45 0 -45 -60v-178h60v-131z" />
<glyph unicode="n" horiz-adv-x="647" d="M333 0h-308v131h42v239h-42v130h213l23 -62q58 80 143 80q45 0 78.5 -13t52.5 -33.5t30.5 -51t15.5 -59t4 -63.5v-167h47v-131h-252v273v23q0 6 -2.5 23.5t-8 24.5t-17 14.5t-28.5 7.5q-63 0 -63 -93v-142h72v-131z" />
<glyph unicode="o" horiz-adv-x="574" d="M290 -13q-116 0 -198 69q-81 69 -81 193q0 121 83 193q81 70 191 70q122 -2 199 -72q79 -72 79 -195q0 -119 -77 -188q-78 -70 -196 -70zM290 115q31 0 49.5 37.5t18.5 95.5t-19.5 95.5t-53.5 38.5q-29 0 -49 -38t-20 -93q0 -61 21 -98.5t53 -37.5z" />
<glyph unicode="p" horiz-adv-x="638" d="M25 -73h42v440h-42v133h229l17 -35q58 43 121 43q112 0 174 -75t62 -187q0 -117 -64.5 -187t-163.5 -70q-84 0 -130 39v-101h54v-131h-299v131zM413 244q0 48 -20 85.5t-52 37.5q-31 0 -53 -35q-18 -32 -18 -79v-14q0 -50 21.5 -85t50.5 -35q32 0 51.5 34t19.5 91z" />
<glyph unicode="q" horiz-adv-x="660" d="M318 -99h65v132q-51 -42 -128 -42q-98 0 -164 72t-66 190q0 125 67 191t172 66q43 0 76 -13.5t43 -26.5l19 30h233v-130h-49v-466h49v-134h-317v131zM383 257q0 48 -20 85.5t-52 37.5q-31 0 -53 -36q-18 -31 -18 -78v-14q0 -50 21.5 -85t50.5 -35q32 0 51.5 34t19.5 91z " />
<glyph unicode="r" horiz-adv-x="414" d="M308 0h-283v131h44v239h-43v130h188l30 -64q12 22 21.5 34.5t26.5 27t43.5 21t63.5 6.5v-180q-72 0 -106.5 -24t-34.5 -87v-103h50v-131z" />
<glyph unicode="s" horiz-adv-x="508" d="M15 0v180h134q0 -24 21.5 -40.5t43.5 -21.5t41 -5q44 0 44 34q0 9 -8 15.5t-23.5 11.5l-31.5 10l-42 10q-24 7 -42 13q-133 47 -133 160q0 70 56.5 107.5t119.5 37.5q50 0 91.5 -22.5t57.5 -55.5l8 66h123v-180h-130q0 31 -31.5 53.5t-70.5 22.5t-39 -36q0 -8 6 -14.5 t20 -13t25 -10.5t35 -12l37 -12q39 -13 59 -22t48 -27.5t41 -46t13 -64.5q0 -68 -55 -109t-131 -41q-51 0 -92.5 21t-60.5 52l-9 -61h-125z" />
<glyph unicode="t" horiz-adv-x="363" d="M15 500h54v92l184 59v-151h95v-130h-95v-178q0 -4 -0.5 -14.5t0 -16.5t1 -14.5t2.5 -13.5t5.5 -10.5t9.5 -8t14 -2.5q23 0 63 17v-128q-20 -8 -59.5 -13.5t-61.5 -5.5q-44 0 -73.5 10.5t-46 25.5t-25 46t-10.5 56t-3 72v178h-54v130z" />
<glyph unicode="u" d="M15 500h242v-241q0 -66 12 -96t42 -30q27 0 45 21.5t18 54.5v159h-66v132h259v-367h49v-133h-189l-27 63l-10 -11q-10 -12 -14 -16l-14 -14q-11 -10 -20 -14t-22 -10.5t-28.5 -9t-33.5 -2.5q-111 0 -156 58t-45 186v138h-42v132z" />
<glyph unicode="v" horiz-adv-x="613" d="M326 162h4q2 46 30 110l48 101h-53v127h258v-127h-52l-173 -373h-155l-186 373h-47v127h304v-127h-50l46 -106q22 -65 26 -105z" />
<glyph unicode="w" horiz-adv-x="872" d="M282 153h2q10 131 41 235l32 112h185l38 -130q29 -92 43 -217h2q9 94 27 158l17 59h-41v130h244v-130h-41l-117 -370h-211l-69 226l-72 -226h-206l-113 370h-43v130h269v-130h-34l22 -73q20 -68 25 -144z" />
<glyph unicode="x" horiz-adv-x="649" d="M375 500h255v-125h-66l-106 -107l126 -144h47v-124h-319v124h47l-76 81l-72 -81h65v-124h-256v124h67l102 115l-124 136h-45v125h324v-125h-47l70 -76l75 76h-67v125z" />
<glyph unicode="y" horiz-adv-x="580" d="M382 373h-46v127h254v-124h-48l-190 -462q-11 -24 -19.5 -39t-26.5 -37t-39 -34.5t-54.5 -21.5t-75.5 -9q-68 4 -121 50l75 118q33 -29 58 -34q4 -1 9 -1q16 0 30 13q17 16 25 41l14 42l-195 370h-41v128h308v-127h-47l65 -156z" />
<glyph unicode="z" horiz-adv-x="553" d="M25 300v200h495v-129l-238 -240h105v68h141v-199h-503v131l241 240h-111v-71h-130z" />
<glyph unicode="{" horiz-adv-x="450" d="M260 815l103 -106q-56 -13 -83 -31.5t-28 -41.5v-9q0 -19 4 -43q4 -29 11 -62q3 -14 3 -29q0 -22 -6 -46q-9 -40 -55 -135q34 -86 41 -123q5 -25 5 -48q0 -18 -3 -33q-7 -37 -10 -69q-2 -16 -2 -30.5t2 -26.5q3 -25 32.5 -46.5t88.5 -37.5l-103 -107q-60 19 -96.5 45 t-50.5 55t-19 63q-3 20 -3 39q0 16 2 33q3 26 3 55v23q-2 41 -8 83q-4 18 -19.5 49t-29.5 54l-14 22q67 98 78 143q11 43 11 96t-2 89v10q0 30 8 62q8 36 42 61.5t98 41.5z" />
<glyph unicode="|" horiz-adv-x="400" d="M153 -101v919h93v-919h-93z" />
<glyph unicode="}" horiz-adv-x="450" d="M218 815l-103 -106q56 -13 83 -31.5t28 -41.5v-9q0 -19 -4 -43q-4 -29 -11 -62q-3 -14 -3 -29q0 -22 6 -46q9 -40 55 -135q-34 -86 -41 -123q-5 -25 -5 -48q0 -18 3 -33q7 -37 10 -69q2 -16 2 -30.5t-2 -26.5q-3 -25 -32.5 -46.5t-88.5 -37.5l103 -107q60 19 96.5 45 t50.5 55t19 63q3 20 3 39q0 16 -2 33q-3 26 -3 55v23q2 41 8 83q4 18 19.5 49t29.5 54l14 22q-67 98 -78 143q-11 43 -11 96t2 89v10q0 30 -8 62q-8 36 -42 61.5t-98 41.5z" />
<glyph unicode="~" horiz-adv-x="400" d="M0 307v-109q28 27 80 34q14 2 28 2q39 0 80 -15q44 -22 111 -22q2 0 3 1q70 0 96 31v109q-23 -28 -74 -38q-17 -4 -35 -4q-36 0 -77 15q-51 25 -110 25h-8q-64 -2 -94 -29z" />
<glyph unicode="&#xa3;" horiz-adv-x="710" d="M683 699v-162q-43 37 -108 63q-63 26 -128 26h-5q-68 -1 -98 -45q-15 -21 -17 -48v-12q0 -20 5 -38q6 -23 20 -56h224v-50h-202q20 -46 29 -79q6 -24 6 -54q0 -12 -1 -25q-3 -46 -28 -86h129v127h168v-260h-560v133h55q11 18 18 36.5t11 32.5q2 8 2 18q0 7 -1 14 q-2 20 -2 28.5t-8 30.5l-11 27q-2 5 -14.5 29.5t-13.5 27.5h-143v50h122q-16 42 -16 85q0 46 18 93q36 97 132 144q73 36 158 36q25 0 52 -3q114 -14 207 -83z" />
<glyph unicode="&#xa5;" horiz-adv-x="669" d="M475 307l-35 -61v-19h244v-50h-244v-47h56v-130h-320v130h57v47h-245v50h245v21l-35 59h-210v50h180l-129 214h-49v128h342v-128h-52l58 -106q3 -8 16 -40t15 -41h4q2 9 37 86l55 101h-55v128h269v-128h-54l-122 -214h181v-50h-209z" />
<glyph unicode="&#xa9;" horiz-adv-x="833" d="M49 324q0 48 15 98t46 97t74 83.5t103 58.5t128 22q85 0 156.5 -33.5t117 -86.5t70.5 -115.5t25 -123.5q0 -154 -97.5 -254t-271.5 -100q-155 0 -260.5 108t-105.5 246zM142 324q0 -103 79 -183.5t194 -80.5q130 0 203 74.5t73 189.5q0 99 -76.5 184t-199.5 85 q-83 0 -147.5 -43t-95 -103t-30.5 -123zM582 337h-104q-1 30 -11.5 52t-32.5 22q-30 0 -47 -27t-17 -63t20.5 -60.5t54.5 -24.5q48 0 86 40l62 -71q-28 -31 -74.5 -52.5t-100.5 -21.5q-83 0 -139 50t-56 142q0 89 50.5 135t124.5 46q54 0 89 -41l11 35h84v-161z" />
<glyph unicode="&#xab;" horiz-adv-x="700" d="M324 600l-249 -250v-140l272 -250l38 104l-197 211l197 213zM564 600l-249 -250v-140l272 -250l38 104l-197 211l197 213z" />
<glyph unicode="&#xad;" horiz-adv-x="386" d="M47 305h290v-133h-290v133z" />
<glyph unicode="&#xae;" horiz-adv-x="833" d="M49 324q0 48 15 98t46 97t74 83.5t103 58.5t128 22q85 0 156.5 -33.5t117 -86.5t70.5 -115.5t25 -123.5q0 -154 -97.5 -254t-271.5 -100q-155 0 -260.5 108t-105.5 246zM142 324q0 -103 79 -183.5t194 -80.5q130 0 203 74.5t73 189.5q0 99 -76.5 184t-199.5 85 q-83 0 -147.5 -43t-95 -103t-30.5 -123zM249 503h174q85 0 115.5 -28.5t30.5 -81.5q0 -30 -21.5 -50t-55.5 -25q29 -8 49.5 -29t20.5 -48q0 -37 13 -37q11 0 11 17v18h37v-30q0 -37 -18.5 -61t-59.5 -24q-99 0 -99 99q0 37 -11 49t-47 12v-83h33v-69h-172v69h31v231h-31v71z M388 433v-90h24q52 0 52 43q0 47 -50 47h-26z" />
<glyph unicode="&#xb1;" d="M366 456h167v-109h-167v-168h-109v168h-167v109h167v166h109v-166zM90 18v109h443v-109h-443z" />
<glyph unicode="&#xb2;" horiz-adv-x="400" d="M123 567l-58 61q60 66 138 66q55 0 91 -32.5t36 -84.5q0 -43 -18 -65t-66 -54q-65 -42 -81 -71h94v43h89v-114h-286v78q22 35 36.5 52t40.5 37q11 9 39 28t41.5 32.5t13.5 28.5q0 35 -46 35q-13 0 -26.5 -7.5t-19 -13.5t-18.5 -19z" />
<glyph unicode="&#xb3;" horiz-adv-x="400" d="M128 588l-52 63q17 18 49 33.5t65 15.5q64 0 99.5 -30t35.5 -82q0 -36 -39 -67q49 -37 49 -87q0 -56 -43.5 -86.5t-101.5 -30.5q-38 0 -73.5 18t-51.5 42l53 56q40 -34 72 -34q47 0 47 40t-47 40h-38v62h38q21 0 34 10t13 27q0 20 -14.5 31t-32.5 11q-32 0 -62 -32z" />
<glyph unicode="&#xbb;" horiz-adv-x="700" d="M136 600l249 -250v-140l-272 -250l-38 104l197 211l-197 213zM376 600l249 -250v-140l-272 -250l-38 104l197 211l-197 213z" />
<glyph unicode="&#xbf;" horiz-adv-x="520" d="M373 362q0 -41 -31.5 -73.5t-82.5 -32.5q-52 0 -85.5 31t-33.5 75q0 43 33 73t86 30q48 0 81 -31.5t33 -71.5zM392 -13l108 -109q-111 -129 -260 -129q-104 0 -171 53.5t-67 151.5q0 36 16.5 66.5t40 51t46.5 37.5t39.5 34t16.5 33v55h186v-80q0 -31 -25 -62t-54.5 -51.5 t-54.5 -44t-25 -41.5q0 -47 74 -47q30 0 65.5 24t64.5 58z" />
<glyph unicode="&#xc0;" horiz-adv-x="823" d="M261 830l69 96l131 -180l-86 -44zM808 0h-401v131h95l-21 68h-205l-21 -68h78v-131h-318v131h68l135 439h-41v129h384l177 -568h70v-131zM313 319h131l-66 216z" />
<glyph unicode="&#xc1;" horiz-adv-x="823" d="M491 830l-69 96l-131 -180l86 -44zM808 0h-401v131h95l-21 68h-205l-21 -68h78v-131h-318v131h68l135 439h-41v129h384l177 -568h70v-131zM313 319h131l-66 216z" />
<glyph unicode="&#xc2;" horiz-adv-x="823" d="M380 787l117 -72l62 52l-148 112h-70l-161 -129l86 -44zM808 0h-401v131h95l-21 68h-205l-21 -68h78v-131h-318v131h68l135 439h-41v129h384l177 -568h70v-131zM313 319h131l-66 216z" />
<glyph unicode="&#xc3;" horiz-adv-x="823" d="M176 827v-109q28 27 80 34q14 2 28 2q39 0 80 -15q42 -19 104 -19h12q69 2 82 29v100q-41 -37 -93 -37q-38 0 -81 19q-51 25 -110 25h-8q-64 -2 -94 -29zM808 0h-401v131h95l-21 68h-205l-21 -68h78v-131h-318v131h68l135 439h-41v129h384l177 -568h70v-131zM313 319h131 l-66 216z" />
<glyph unicode="&#xc4;" horiz-adv-x="823" d="M248 809h94v-84h-94v84zM408 809h94v-84h-94v84zM808 0h-401v131h95l-21 68h-205l-21 -68h78v-131h-318v131h68l135 439h-41v129h384l177 -568h70v-131zM313 319h131l-66 216z" />
<glyph unicode="&#xc6;" horiz-adv-x="1065" d="M1054 478h-173v89h-160v-138h190v-133h-190v-163h160v93h173v-226h-603v133h63v66h-222l-41 -68h78v-131h-318v131h68l275 439h-41v129h741v-221zM363 319h151v216z" />
<glyph unicode="&#xc7;" horiz-adv-x="686" d="M554 253l117 -128q-128 -141 -303 -141q-160 0 -256.5 96.5t-96.5 262.5q0 82 29 153.5t74 117t98 71.5t103 26q103 0 154 -68l23 56h157v-284h-179q-2 53 -29 89.5t-77 36.5q-53 0 -86 -57t-33 -141q0 -79 39 -133.5t107 -54.5q15 0 30.5 4t28.5 10t26 14.5t22.5 16.5 t19.5 17.5t15 15.5l11 13zM337 -9l-28 -93q49 22 89 22h4q28 -1 28 -18q0 -5 -2 -11q-11 -28 -50 -37q-12 -2 -24 -2q-27 0 -53 14l-8 -53l9 -2q9 -2 23.5 -3.5t32.5 -1.5q2 -1 4 -1q16 0 32 5q19 4 35.5 12.5t29 27.5t16.5 46q1 11 1 19q0 23 -9 35q-12 14 -31 14h-4 l-47 -4l13 31h-61z" />
<glyph unicode="&#xc8;" horiz-adv-x="653" d="M221 833l69 96l131 -180l-86 -44zM25 699h603v-221h-173v89h-160v-138h190v-133h-190v-163h160v93h173v-226h-603v133h63v434h-63v132z" />
<glyph unicode="&#xc9;" horiz-adv-x="653" d="M427 834l-69 96l-131 -180l86 -44zM25 699h603v-221h-173v89h-160v-138h190v-133h-190v-163h160v93h173v-226h-603v133h63v434h-63v132z" />
<glyph unicode="&#xca;" horiz-adv-x="653" d="M360 787l117 -72l62 52l-148 112h-70l-161 -129l86 -44zM25 699h603v-221h-173v89h-160v-138h190v-133h-190v-163h160v93h173v-226h-603v133h63v434h-63v132z" />
<glyph unicode="&#xcb;" horiz-adv-x="623" d="M198 809h94v-84h-94v84zM358 809h94v-84h-94v84zM25 699h603v-221h-173v89h-160v-138h190v-133h-190v-163h160v93h173v-226h-603v133h63v434h-63v132z" />
<glyph unicode="&#xcc;" horiz-adv-x="382" d="M77 834l69 96l131 -180l-86 -44zM25 699h332v-132h-62v-434h62v-133h-332v133h63v434h-63v132z" />
<glyph unicode="&#xcd;" horiz-adv-x="382" d="M307 834l-69 96l-131 -180l86 -44zM25 699h332v-132h-62v-434h62v-133h-332v133h63v434h-63v132z" />
<glyph unicode="&#xce;" horiz-adv-x="382" d="M190 787l117 -72l62 52l-148 112h-70l-161 -129l86 -44zM25 699h332v-132h-62v-434h62v-133h-332v133h63v434h-63v132z" />
<glyph unicode="&#xcf;" horiz-adv-x="382" d="M59 819h94v-84h-94v84zM219 819h94v-84h-94v84zM25 699h332v-132h-62v-434h62v-133h-332v133h63v434h-63v132z" />
<glyph unicode="&#xd1;" horiz-adv-x="816" d="M209 827v-109q28 27 80 34q14 2 28 2q39 0 80 -15q42 -19 104 -19h13q70 2 93 29v100q-31 -28 -79 -35q-10 -1 -21 -1q-39 0 -86 18q-51 25 -110 25h-9q-63 -2 -93 -29zM791 570h-66v-570h-215l-255 381v-252h77v-129h-307v129h59v441h-58v129h287l245 -367v238h-68v129 h301v-129z" />
<glyph unicode="&#xd2;" horiz-adv-x="740" d="M252 847l69 96l131 -180l-86 -44zM373 -18q-163 0 -260.5 94.5t-97.5 276.5q0 162 98 263.5t253 101.5q179 0 269 -99t90 -273q0 -171 -92 -267.5t-260 -96.5zM373 139q47 0 74.5 56.5t27.5 150.5q0 97 -27.5 157.5t-82.5 60.5h-2q-44 0 -73 -58q-28 -60 -28 -153 q0 -97 31 -155.5t80 -58.5z" />
<glyph unicode="&#xd3;" horiz-adv-x="740" d="M480 849l-69 96l-131 -180l86 -44zM373 -18q-163 0 -260.5 94.5t-97.5 276.5q0 162 98 263.5t253 101.5q179 0 269 -99t90 -273q0 -171 -92 -267.5t-260 -96.5zM373 139q47 0 74.5 56.5t27.5 150.5q0 97 -27.5 157.5t-82.5 60.5h-2q-44 0 -73 -58q-28 -60 -28 -153 q0 -97 31 -155.5t80 -58.5z" />
<glyph unicode="&#xd4;" horiz-adv-x="740" d="M370 797l117 -72l62 52l-148 112h-70l-161 -129l86 -44zM373 -18q-163 0 -260.5 94.5t-97.5 276.5q0 162 98 263.5t253 101.5q179 0 269 -99t90 -273q0 -171 -92 -267.5t-260 -96.5zM373 139q47 0 74.5 56.5t27.5 150.5q0 97 -27.5 157.5t-82.5 60.5h-2q-44 0 -73 -58 q-28 -60 -28 -153q0 -97 31 -155.5t80 -58.5z" />
<glyph unicode="&#xd6;" horiz-adv-x="740" d="M238 829h94v-84h-94v84zM398 829h94v-84h-94v84zM373 -18q-163 0 -260.5 94.5t-97.5 276.5q0 162 98 263.5t253 101.5q179 0 269 -99t90 -273q0 -171 -92 -267.5t-260 -96.5zM373 139q47 0 74.5 56.5t27.5 150.5q0 97 -27.5 157.5t-82.5 60.5h-2q-44 0 -73 -58 q-28 -60 -28 -153q0 -97 31 -155.5t80 -58.5z" />
<glyph unicode="&#xd7;" d="M74 95l144 144l-144 143l94 94l144 -143l143 143l94 -94l-143 -143l143 -144l-94 -94l-143 144l-144 -144z" />
<glyph unicode="&#xd9;" horiz-adv-x="737" d="M271 833l69 96l131 -180l-86 -44zM15 699h318v-129h-54v-216q0 -114 24 -154.5t76 -40.5q34 0 54 12.5t33.5 57t13.5 126.5v212h-54v132h296v-129h-54v-243q0 -344 -287 -344q-310 9 -310 339v247h-56v130z" />
<glyph unicode="&#xda;" horiz-adv-x="737" d="M491 833l-69 96l-131 -180l86 -44zM15 699h318v-129h-54v-216q0 -114 24 -154.5t76 -40.5q34 0 54 12.5t33.5 57t13.5 126.5v212h-54v132h296v-129h-54v-243q0 -344 -287 -344q-310 9 -310 339v247h-56v130z" />
<glyph unicode="&#xdb;" horiz-adv-x="737" d="M380 787l117 -72l62 52l-148 112h-70l-161 -129l86 -44zM15 699h318v-129h-54v-216q0 -114 24 -154.5t76 -40.5q34 0 54 12.5t33.5 57t13.5 126.5v212h-54v132h296v-129h-54v-243q0 -344 -287 -344q-310 9 -310 339v247h-56v130z" />
<glyph unicode="&#xdc;" horiz-adv-x="737" d="M239 809h94v-84h-94v84zM425 809h94v-84h-94v84zM15 699h318v-129h-54v-216q0 -114 24 -154.5t76 -40.5q34 0 54 12.5t33.5 57t13.5 126.5v212h-54v132h296v-129h-54v-243q0 -344 -287 -344q-310 9 -310 339v247h-56v130z" />
<glyph unicode="&#xe0;" horiz-adv-x="600" d="M525 128h60v-128h-214l-24 45q-25 -34 -63 -49t-72 -15q-79 0 -138 43t-59 124q0 83 60.5 133.5t147.5 50.5q27 0 50.5 -8t34 -15t14.5 -12v35q0 56 -95 56q-66 0 -149 -46l-42 116q118 71 218 71h19l-112 125l69 96l131 -180l-81 -42q46 -2 87 -13.5t78 -34.5t58.5 -63 t21.5 -94v-195zM322 144v38q-17 29 -59 29q-58 0 -58 -53q0 -21 15 -34t38 -13q21 0 38.5 10t25.5 23z" />
<glyph unicode="&#xe1;" horiz-adv-x="600" d="M391 654l-69 96l-131 -180l86 -44zM78 342l-42 116q118 71 218 71q49 0 93.5 -10t86 -32t66.5 -64.5t25 -99.5v-195h60v-128h-214l-24 45q-25 -34 -63 -49t-72 -15q-79 0 -138 43t-59 124q0 83 60.5 133.5t147.5 50.5q27 0 50.5 -8t34 -15t14.5 -12v35q0 56 -95 56 q-66 0 -149 -46zM322 144v38q-17 29 -59 29q-58 0 -58 -53q0 -21 15 -34t38 -13q21 0 38.5 10t25.5 23z" />
<glyph unicode="&#xe2;" horiz-adv-x="600" d="M252 607l117 -72l62 52l-148 112h-70l-161 -129l86 -44zM78 342l-42 116q118 71 218 71q49 0 93.5 -10t86 -32t66.5 -64.5t25 -99.5v-195h60v-128h-214l-24 45q-25 -34 -63 -49t-72 -15q-79 0 -138 43t-59 124q0 83 60.5 133.5t147.5 50.5q27 0 50.5 -8t34 -15t14.5 -12 v35q0 56 -95 56q-66 0 -149 -46zM322 144v38q-17 29 -59 29q-58 0 -58 -53q0 -21 15 -34t38 -13q21 0 38.5 10t25.5 23z" />
<glyph unicode="&#xe3;" horiz-adv-x="600" d="M79 667v-109q28 27 80 34q14 2 28 2q39 0 80 -15q42 -19 104 -19h13q70 2 93 29v100q-31 -28 -79 -35q-10 -1 -21 -1q-39 0 -86 18q-51 25 -110 25h-9q-63 -2 -93 -29zM78 342l-42 116q118 71 218 71q49 0 93.5 -10t86 -32t66.5 -64.5t25 -99.5v-195h60v-128h-214l-24 45 q-25 -34 -63 -49t-72 -15q-79 0 -138 43t-59 124q0 83 60.5 133.5t147.5 50.5q27 0 50.5 -8t34 -15t14.5 -12v35q0 56 -95 56q-66 0 -149 -46zM322 144v38q-17 29 -59 29q-58 0 -58 -53q0 -21 15 -34t38 -13q21 0 38.5 10t25.5 23z" />
<glyph unicode="&#xe4;" horiz-adv-x="600" d="M127 669h94v-84h-94v84zM287 669h94v-84h-94v84zM78 342l-42 116q118 71 218 71q49 0 93.5 -10t86 -32t66.5 -64.5t25 -99.5v-195h60v-128h-214l-24 45q-25 -34 -63 -49t-72 -15q-79 0 -138 43t-59 124q0 83 60.5 133.5t147.5 50.5q27 0 50.5 -8t34 -15t14.5 -12v35 q0 56 -95 56q-66 0 -149 -46zM322 144v38q-17 29 -59 29q-58 0 -58 -53q0 -21 15 -34t38 -13q21 0 38.5 10t25.5 23z" />
<glyph unicode="&#xe6;" horiz-adv-x="934" d="M835 166l84 -97q-101 -87 -258 -87q-63 0 -120.5 26t-94.5 78q-41 -105 -234 -105q-79 0 -138 43t-59 124q0 83 60.5 133.5t147.5 50.5q27 0 50.5 -8t34 -15t14.5 -12v35q0 56 -95 56q-66 0 -149 -46l-42 116q118 71 218 71q154 0 226 -79q75 64 186 64q88 0 152.5 -40.5 t86.5 -104.5q11 -32 13 -76q1 -7 1 -13q0 -38 -12 -80h-315q3 -15 7 -25t14.5 -25.5t31.5 -23.5t50 -8q82 0 140 48zM595 299h151q-1 36 -16 58t-58 22q-40 0 -57.5 -26t-19.5 -54zM322 144v38q-17 29 -59 29q-58 0 -58 -53q0 -21 15 -34t38 -13q21 0 38.5 10t25.5 23z" />
<glyph unicode="&#xe7;" horiz-adv-x="531" d="M433 190l88 -102q-37 -40 -99 -69.5t-134 -32.5l-8 -21l40 4h5q16 0 26 -13q8 -10 8 -30q0 -7 -1 -16q-5 -32 -23 -50.5t-41 -23.5q-20 -4 -39 -4h-4q-21 1 -36 4l-15 3l8 45q22 -11 46 -11q10 0 20 2q35 7 43 30q2 5 2 10q0 16 -28 16q-33 -1 -77 -19l23 76 q-103 12 -169.5 80.5t-66.5 184.5q0 125 71 190.5t175 65.5q77 0 125 -57l17 48h118v-226h-147q-2 43 -17 74t-46 31q-42 0 -65 -37.5t-23 -90.5q0 -50 28 -83.5t75 -34.5h2q67 0 119 57z" />
<glyph unicode="&#xe8;" horiz-adv-x="542" d="M161 654l69 96l131 -180l-86 -44zM443 166l84 -97q-101 -87 -258 -87q-105 0 -184.5 69t-79.5 202q0 120 76 190.5t193 70.5q88 0 152.5 -40.5t86.5 -104.5q11 -32 13 -76q1 -7 1 -13q0 -38 -12 -80h-315q3 -15 7 -25t14.5 -25.5t31.5 -23.5t50 -8q82 0 140 48zM203 299 h151q-1 36 -16 58t-58 22q-40 0 -57.5 -26t-19.5 -54z" />
<glyph unicode="&#xe9;" horiz-adv-x="542" d="M387 654l-69 96l-131 -180l86 -44zM443 166l84 -97q-101 -87 -258 -87q-105 0 -184.5 69t-79.5 202q0 120 76 190.5t193 70.5q88 0 152.5 -40.5t86.5 -104.5q11 -32 13 -76q1 -7 1 -13q0 -38 -12 -80h-315q3 -15 7 -25t14.5 -25.5t31.5 -23.5t50 -8q82 0 140 48zM203 299 h151q-1 36 -16 58t-58 22q-40 0 -57.5 -26t-19.5 -54z" />
<glyph unicode="&#xea;" horiz-adv-x="542" d="M277 607l117 -72l62 52l-148 112h-70l-161 -129l86 -44zM443 166l84 -97q-101 -87 -258 -87q-105 0 -184.5 69t-79.5 202q0 120 76 190.5t193 70.5q88 0 152.5 -40.5t86.5 -104.5q11 -32 13 -76q1 -7 1 -13q0 -38 -12 -80h-315q3 -15 7 -25t14.5 -25.5t31.5 -23.5t50 -8 q82 0 140 48zM203 299h151q-1 36 -16 58t-58 22q-40 0 -57.5 -26t-19.5 -54z" />
<glyph unicode="&#xeb;" horiz-adv-x="542" d="M146 669h94v-84h-94v84zM306 669h94v-84h-94v84zM443 166l84 -97q-101 -87 -258 -87q-105 0 -184.5 69t-79.5 202q0 120 76 190.5t193 70.5q88 0 152.5 -40.5t86.5 -104.5q11 -32 13 -76q1 -7 1 -13q0 -38 -12 -80h-315q3 -15 7 -25t14.5 -25.5t31.5 -23.5t50 -8 q82 0 140 48zM203 299h151q-1 36 -16 58t-58 22q-40 0 -57.5 -26t-19.5 -54z" />
<glyph unicode="&#xec;" horiz-adv-x="330" d="M51 654l69 96l131 -180l-86 -44zM305 0h-280v131h42v239h-42v130h232v-369h48v-131z" />
<glyph unicode="&#xed;" horiz-adv-x="330" d="M267 654l-69 96l-131 -180l86 -44zM305 0h-280v131h42v239h-42v130h232v-369h48v-131z" />
<glyph unicode="&#xee;" horiz-adv-x="330" d="M150 607l117 -72l62 52l-148 112h-70l-161 -129l86 -44zM305 0h-280v131h42v239h-42v130h232v-369h48v-131z" />
<glyph unicode="&#xef;" horiz-adv-x="330" d="M26 669h94v-84h-94v84zM163 669h94v-84h-94v84zM305 0h-280v131h42v239h-42v130h232v-369h48v-131z" />
<glyph unicode="&#xf1;" horiz-adv-x="647" d="M119 667v-109q28 27 80 34q14 2 28 2q39 0 80 -15q42 -19 104 -19h13q70 2 93 29v100q-31 -28 -79 -35q-10 -1 -21 -1q-39 0 -86 18q-51 25 -110 25h-9q-63 -2 -93 -29zM333 0h-308v131h42v239h-42v130h213l23 -62q58 80 143 80q45 0 78.5 -13t52.5 -33.5t30.5 -51 t15.5 -59t4 -63.5v-167h47v-131h-252v273v23q0 6 -2.5 23.5t-8 24.5t-17 14.5t-28.5 7.5q-63 0 -63 -93v-142h72v-131z" />
<glyph unicode="&#xf2;" horiz-adv-x="574" d="M170 642l69 96l131 -180l-86 -44zM290 -13q-116 0 -198 69q-81 69 -81 193q0 121 83 193q81 70 191 70q122 -2 199 -72q79 -72 79 -195q0 -119 -77 -188q-78 -70 -196 -70zM290 115q31 0 49.5 37.5t18.5 95.5t-19.5 95.5t-53.5 38.5q-29 0 -49 -38t-20 -93 q0 -61 21 -98.5t53 -37.5z" />
<glyph unicode="&#xf3;" horiz-adv-x="574" d="M400 642l-69 96l-131 -180l86 -44zM290 -13q-116 0 -198 69q-81 69 -81 193q0 121 83 193q81 70 191 70q122 -2 199 -72q79 -72 79 -195q0 -119 -77 -188q-78 -70 -196 -70zM290 115q31 0 49.5 37.5t18.5 95.5t-19.5 95.5t-53.5 38.5q-29 0 -49 -38t-20 -93 q0 -61 21 -98.5t53 -37.5z" />
<glyph unicode="&#xf4;" horiz-adv-x="574" d="M285 607l117 -72l62 52l-148 112h-70l-161 -129l86 -44zM290 -13q-116 0 -198 69q-81 69 -81 193q0 121 83 193q81 70 191 70q122 -2 199 -72q79 -72 79 -195q0 -119 -77 -188q-78 -70 -196 -70zM290 115q31 0 49.5 37.5t18.5 95.5t-19.5 95.5t-53.5 38.5q-29 0 -49 -38 t-20 -93q0 -61 21 -98.5t53 -37.5z" />
<glyph unicode="&#xf6;" horiz-adv-x="574" d="M158 669h94v-84h-94v84zM318 669h94v-84h-94v84zM290 -13q-116 0 -198 69q-81 69 -81 193q0 121 83 193q81 70 191 70q122 -2 199 -72q79 -72 79 -195q0 -119 -77 -188q-78 -70 -196 -70zM290 115q31 0 49.5 37.5t18.5 95.5t-19.5 95.5t-53.5 38.5q-29 0 -49 -38t-20 -93 q0 -61 21 -98.5t53 -37.5z" />
<glyph unicode="&#xf7;" d="M205 446q0 42 30.5 77t80.5 35q51 0 82 -35.5t31 -76.5q0 -46 -30.5 -76t-82.5 -30q-45 0 -78 33t-33 73zM42 306h539v-54h-539v54zM205 108q0 42 30.5 77t80.5 35q51 0 82 -35.5t31 -76.5q0 -45 -31.5 -75.5t-81.5 -30.5q-47 0 -79 32.5t-32 73.5z" />
<glyph unicode="&#xf9;" d="M161 654l69 96l131 -180l-86 -44zM15 500h242v-241q0 -66 12 -96t42 -30q27 0 45 21.5t18 54.5v159h-66v132h259v-367h49v-133h-189l-27 63l-10 -11q-10 -12 -14 -16l-14 -14q-11 -10 -20 -14t-22 -10.5t-28.5 -9t-33.5 -2.5q-111 0 -156 58t-45 186v138h-42v132z" />
<glyph unicode="&#xfa;" d="M401 654l-69 96l-131 -180l86 -44zM15 500h242v-241q0 -66 12 -96t42 -30q27 0 45 21.5t18 54.5v159h-66v132h259v-367h49v-133h-189l-27 63l-10 -11q-10 -12 -14 -16l-14 -14q-11 -10 -20 -14t-22 -10.5t-28.5 -9t-33.5 -2.5q-111 0 -156 58t-45 186v138h-42v132z" />
<glyph unicode="&#xfb;" d="M287 607l117 -72l62 52l-148 112h-70l-161 -129l86 -44zM15 500h242v-241q0 -66 12 -96t42 -30q27 0 45 21.5t18 54.5v159h-66v132h259v-367h49v-133h-189l-27 63l-10 -11q-10 -12 -14 -16l-14 -14q-11 -10 -20 -14t-22 -10.5t-28.5 -9t-33.5 -2.5q-111 0 -156 58 t-45 186v138h-42v132z" />
<glyph unicode="&#xfc;" d="M146 669h94v-84h-94v84zM306 669h94v-84h-94v84zM15 500h242v-241q0 -66 12 -96t42 -30q27 0 45 21.5t18 54.5v159h-66v132h259v-367h49v-133h-189l-27 63l-10 -11q-10 -12 -14 -16l-14 -14q-11 -10 -20 -14t-22 -10.5t-28.5 -9t-33.5 -2.5q-111 0 -156 58t-45 186v138 h-42v132z" />
<glyph unicode="&#x152;" horiz-adv-x="1065" d="M1101 478h-173v89h-160v-138h190v-133h-190v-163h160v93h173v-226h-603v47q-79 -48 -192 -48q-155 0 -248 90.5t-93 263.5q0 154 93 251t241 97q118 0 199 -48v46h603v-221zM306 149q45 0 71 54t26 143q0 92 -26 150.5t-79 58.5q-43 0 -70.5 -56.5t-27.5 -145.5 q0 -92 30 -148t76 -56z" />
<glyph unicode="&#x153;" horiz-adv-x="936" d="M837 166l84 -97q-101 -87 -258 -87q-108 0 -182 67q-74 -62 -187 -62q-116 0 -198 69q-81 69 -81 193q0 121 83 193q81 70 191 70q116 -2 191 -64q74 66 188 66q88 0 152.5 -40.5t86.5 -104.5q11 -32 13 -76q1 -7 1 -13q0 -38 -12 -80h-315q3 -15 7 -25t14.5 -25.5 t31.5 -23.5t50 -8q82 0 140 48zM294 115q31 0 49.5 37.5t18.5 95.5t-19.5 95.5t-53.5 38.5q-29 0 -49 -38t-20 -93q0 -61 21 -98.5t53 -37.5zM597 299h151q-1 36 -16 58t-58 22q-40 0 -57.5 -26t-19.5 -54z" />
<glyph unicode="&#x2da;" horiz-adv-x="833" />
<glyph unicode="&#x2000;" horiz-adv-x="472" />
<glyph unicode="&#x2001;" horiz-adv-x="945" />
<glyph unicode="&#x2002;" horiz-adv-x="472" />
<glyph unicode="&#x2003;" horiz-adv-x="945" />
<glyph unicode="&#x2004;" horiz-adv-x="315" />
<glyph unicode="&#x2005;" horiz-adv-x="236" />
<glyph unicode="&#x2006;" horiz-adv-x="157" />
<glyph unicode="&#x2007;" horiz-adv-x="157" />
<glyph unicode="&#x2008;" horiz-adv-x="118" />
<glyph unicode="&#x2009;" horiz-adv-x="189" />
<glyph unicode="&#x200a;" horiz-adv-x="52" />
<glyph unicode="&#x2010;" horiz-adv-x="386" d="M47 305h290v-133h-290v133z" />
<glyph unicode="&#x2011;" horiz-adv-x="386" d="M47 305h290v-133h-290v133z" />
<glyph unicode="&#x2013;" horiz-adv-x="447" d="M32 305h377v-133h-377v133z" />
<glyph unicode="&#x2014;" d="M42 305h539v-133h-539v133z" />
<glyph unicode="&#x2018;" horiz-adv-x="307" d="M177 756l115 -65q-56 -71 -79 -144q-18 -56 -18 -133q0 -23 2 -48l-182 48v12q0 89 40 172q43 88 122 158z" />
<glyph unicode="&#x2019;" horiz-adv-x="307" d="M130 366l-115 65q56 71 79 144q18 56 18 133q0 23 -2 48l182 -48v-12q0 -89 -40 -172q-43 -88 -122 -158z" />
<glyph unicode="&#x201c;" horiz-adv-x="519" d="M164 756l115 -65q-56 -71 -79 -144q-18 -56 -18 -133q0 -23 2 -48l-182 48v12q0 89 40 172q43 88 122 158zM404 756l115 -65q-56 -71 -79 -144q-18 -56 -18 -133q0 -23 2 -48l-182 48v12q0 89 40 172q43 88 122 158z" />
<glyph unicode="&#x201d;" horiz-adv-x="519" d="M117 366l-115 65q56 71 79 144q18 56 18 133q0 23 -2 48l182 -48v-12q0 -89 -40 -172q-43 -88 -122 -158zM357 366l-115 65q56 71 79 144q18 56 18 133q0 23 -2 48l182 -48v-12q0 -89 -40 -172q-43 -88 -122 -158z" />
<glyph unicode="&#x2022;" horiz-adv-x="348" d="M60 322q0 42 31 78t82 36t83 -36t32 -78q0 -47 -30.5 -77.5t-84.5 -30.5q-48 0 -80.5 33t-32.5 75z" />
<glyph unicode="&#x2026;" horiz-adv-x="1000" d="M116 104q0 42 31 78t82 36t83 -36t32 -78q0 -47 -30.5 -77.5t-84.5 -30.5q-48 0 -80.5 33t-32.5 75zM386 104q0 42 31 78t82 36t83 -36t32 -78q0 -47 -30.5 -77.5t-84.5 -30.5q-48 0 -80.5 33t-32.5 75zM656 104q0 42 31 78t82 36t83 -36t32 -78q0 -47 -30.5 -77.5 t-84.5 -30.5q-48 0 -80.5 33t-32.5 75z" />
<glyph unicode="&#x202f;" horiz-adv-x="189" />
<glyph unicode="&#x205f;" horiz-adv-x="236" />
<glyph unicode="&#x20ac;" horiz-adv-x="800" d="M580 208h201v-208h-170l-31 63q-18 -30 -62 -51t-99 -21q-115 0 -199 72t-107 196h-112l24 69h80v15v16h-69l24 69h53q24 126 109.5 204.5t189.5 78.5q34 0 63.5 -5.5t48 -12.5t34.5 -18t23.5 -18.5t15.5 -17.5t10 -12l21 72h149v-295h-179q-2 59 -35 93t-79 34 q-41 0 -73.5 -28t-49.5 -75h187l-24 -69h-177v-16v-15h166l-24 -69h-129q16 -46 48 -73t76 -27q68 0 96 49z" />
<glyph unicode="&#x2212;" d="M42 305h539v-133h-539v133z" />
<glyph horiz-adv-x="280" />
</font>
</defs>
</svg>
